<svg width="340" height="420" viewBox="0 0 340 420" fill="none" xmlns="http://www.w3.org/2000/svg">
<path d="M150.789 395.769H65.2252C60.4277 395.769 56.5386 391.88 56.5386 387.082V32.9172C56.5386 28.1196 60.4277 24.2305 65.2253 24.2305H274.14C278.937 24.2305 282.827 28.1196 282.827 32.9171V387.082C282.827 391.88 278.937 395.769 274.14 395.769H191.616M150.789 395.769V360.805C150.789 356.008 154.678 352.118 159.476 352.118H182.93C187.727 352.118 191.616 356.008 191.616 360.805V395.769M150.789 395.769H191.616" stroke="#101111"/>
<path d="M83.0327 59.9727H256.766C257.45 59.9727 258.004 60.5266 258.004 61.21V159.369C258.004 160.053 257.45 160.607 256.766 160.607H83.0327C82.3494 160.607 81.7954 160.053 81.7954 159.369V61.21C81.7954 60.5266 82.3494 59.9727 83.0327 59.9727Z" stroke="#101111"/>
<path fill-rule="evenodd" clip-rule="evenodd" d="M119.385 208.015C119.385 218.497 110.888 226.994 100.406 226.994C89.9241 226.994 81.4268 218.497 81.4268 208.015C81.4268 197.533 89.9241 189.035 100.406 189.035C110.888 189.035 119.385 197.533 119.385 208.015ZM120.385 208.015C120.385 219.049 111.44 227.994 100.406 227.994C89.3718 227.994 80.4268 219.049 80.4268 208.015C80.4268 196.98 89.3718 188.035 100.406 188.035C111.44 188.035 120.385 196.98 120.385 208.015ZM165.859 208.015C165.859 218.497 157.362 226.994 146.88 226.994C136.398 226.994 127.9 218.497 127.9 208.015C127.9 197.533 136.398 189.035 146.88 189.035C157.362 189.035 165.859 197.533 165.859 208.015ZM166.859 208.015C166.859 219.049 157.914 227.994 146.88 227.994C135.846 227.994 126.9 219.049 126.9 208.015C126.9 196.98 135.846 188.035 146.88 188.035C157.914 188.035 166.859 196.98 166.859 208.015ZM193.354 226.994C203.836 226.994 212.333 218.497 212.333 208.015C212.333 197.533 203.836 189.035 193.354 189.035C182.872 189.035 174.374 197.533 174.374 208.015C174.374 218.497 182.872 226.994 193.354 226.994ZM193.354 227.994C204.388 227.994 213.333 219.049 213.333 208.015C213.333 196.98 204.388 188.035 193.354 188.035C182.319 188.035 173.374 196.98 173.374 208.015C173.374 219.049 182.319 227.994 193.354 227.994ZM258.807 208.015C258.807 218.497 250.309 226.994 239.827 226.994C229.345 226.994 220.848 218.497 220.848 208.015C220.848 197.533 229.345 189.035 239.827 189.035C250.309 189.035 258.807 197.533 258.807 208.015ZM259.807 208.015C259.807 219.049 250.862 227.994 239.827 227.994C228.793 227.994 219.848 219.049 219.848 208.015C219.848 196.98 228.793 188.035 239.827 188.035C250.862 188.035 259.807 196.98 259.807 208.015Z" fill="#101111"/>
<path d="M172.466 92.0469L163.896 92.0469L162.395 96.7203L167.152 96.7203L167.152 106.567L172.466 106.567L172.466 92.0469Z" fill="#101111"/>
<path fill-rule="evenodd" clip-rule="evenodd" d="M175.112 126.837C173.505 127.942 171.615 128.531 169.683 128.531C167.091 128.531 164.605 127.472 162.772 125.588C160.94 123.703 159.91 121.148 159.91 118.483C159.91 116.495 160.483 114.552 161.557 112.9C162.631 111.248 164.157 109.96 165.943 109.199C167.729 108.439 169.694 108.24 171.589 108.627C173.485 109.015 175.226 109.972 176.593 111.377C177.96 112.783 178.89 114.573 179.267 116.522C179.644 118.471 179.451 120.492 178.711 122.328C177.972 124.164 176.719 125.733 175.112 126.837ZM172.649 123.044C171.771 123.647 170.739 123.969 169.683 123.968C168.268 123.968 166.911 123.39 165.91 122.361C164.91 121.333 164.348 119.937 164.348 118.483C164.347 117.397 164.66 116.335 165.246 115.432C165.833 114.53 166.666 113.826 167.642 113.41C168.617 112.994 169.69 112.885 170.726 113.097C171.762 113.309 172.713 113.831 173.46 114.599C174.206 115.367 174.715 116.345 174.92 117.41C175.126 118.475 175.02 119.578 174.616 120.581C174.212 121.584 173.527 122.441 172.649 123.044Z" fill="#101111"/>
</svg>
