<svg width="340" height="420" viewBox="0 0 340 420" fill="none" xmlns="http://www.w3.org/2000/svg">
<path d="M41.6543 103.885L300 103.885C308.009 103.885 314.5 110.377 314.5 118.385V274.962C314.5 282.97 308.009 289.462 300 289.462H41.6543C33.6462 289.462 27.1543 282.97 27.1543 274.962L27.1543 118.385C27.1543 110.377 33.6462 103.885 41.6543 103.885Z" stroke="#101111"/>
<path d="M174.942 171.23L162.487 171.23L160.304 177.837L167.219 177.837L167.219 191.758L174.942 191.758L174.942 171.23Z" fill="#101111"/>
<path fill-rule="evenodd" clip-rule="evenodd" d="M178.789 220.414C176.453 221.975 173.707 222.808 170.897 222.808C167.13 222.808 163.517 221.312 160.853 218.648C158.189 215.984 156.692 212.371 156.692 208.603C156.692 205.793 157.525 203.047 159.086 200.711C160.647 198.375 162.866 196.554 165.461 195.479C168.057 194.404 170.913 194.123 173.668 194.671C176.424 195.219 178.955 196.572 180.941 198.558C182.928 200.545 184.281 203.076 184.829 205.832C185.377 208.587 185.096 211.444 184.021 214.039C182.945 216.635 181.125 218.853 178.789 220.414ZM175.209 215.052C173.932 215.904 172.432 216.359 170.897 216.358C168.841 216.358 166.868 215.541 165.414 214.086C163.96 212.632 163.143 210.66 163.143 208.603C163.142 207.068 163.596 205.568 164.449 204.291C165.301 203.015 166.512 202.02 167.93 201.432C169.348 200.844 170.908 200.69 172.414 200.989C173.919 201.289 175.302 202.028 176.387 203.113C177.472 204.198 178.211 205.581 178.51 207.086C178.81 208.592 178.656 210.152 178.068 211.57C177.48 212.988 176.485 214.2 175.209 215.052Z" fill="#101111"/>
<path d="M297.175 137.175C297.015 137.092 296.813 136.926 296.726 136.806C296.638 136.687 296.533 136.458 296.491 136.297C296.45 136.136 296.436 135.917 296.461 135.81C296.485 135.704 296.635 135.302 296.793 134.917C296.951 134.533 297.218 133.776 297.387 133.236C297.556 132.696 297.77 131.88 297.864 131.422C297.958 130.964 298.084 130.189 298.144 129.698C298.214 129.137 298.254 128.291 298.254 127.416C298.254 126.552 298.214 125.696 298.146 125.151C298.087 124.669 297.977 123.965 297.903 123.587C297.828 123.209 297.673 122.555 297.559 122.135C297.445 121.715 297.15 120.855 296.904 120.224C296.573 119.375 296.458 118.995 296.46 118.758C296.462 118.552 296.517 118.349 296.616 118.184C296.7 118.043 296.875 117.845 297.004 117.744C297.169 117.613 297.345 117.55 297.601 117.528C297.8 117.511 298.042 117.517 298.137 117.542C298.232 117.567 298.428 117.697 298.572 117.831C298.762 118.007 298.919 118.275 299.144 118.805C299.315 119.208 299.574 119.893 299.72 120.328C299.865 120.763 300.09 121.551 300.218 122.079C300.347 122.607 300.514 123.429 300.591 123.907C300.668 124.385 300.761 125.151 300.799 125.61C300.837 126.068 300.867 126.881 300.867 127.416C300.867 127.952 300.837 128.765 300.799 129.223C300.761 129.682 300.668 130.448 300.592 130.926C300.515 131.404 300.337 132.264 300.196 132.837C300.054 133.41 299.796 134.286 299.621 134.783C299.447 135.28 299.178 135.951 299.025 136.275C298.836 136.673 298.663 136.931 298.491 137.07C298.292 137.231 298.154 137.281 297.851 137.301C297.552 137.321 297.399 137.292 297.175 137.175ZM292.941 135.302C292.825 135.265 292.593 135.083 292.424 134.896C292.18 134.628 292.106 134.488 292.067 134.224C292.026 133.938 292.05 133.818 292.237 133.364C292.357 133.074 292.588 132.444 292.749 131.965C292.91 131.485 293.119 130.703 293.212 130.227C293.305 129.752 293.416 128.914 293.457 128.366C293.513 127.629 293.513 127.124 293.457 126.42C293.415 125.898 293.306 125.087 293.214 124.618C293.122 124.149 292.953 123.462 292.838 123.091C292.723 122.72 292.513 122.143 292.372 121.808C292.231 121.474 292.095 121.102 292.07 120.983C292.045 120.863 292.061 120.628 292.107 120.459C292.158 120.271 292.293 120.046 292.455 119.879C292.601 119.729 292.828 119.57 292.96 119.525C293.092 119.48 293.336 119.459 293.503 119.479C293.684 119.5 293.917 119.595 294.084 119.715C294.279 119.855 294.43 120.054 294.583 120.371C294.703 120.621 294.924 121.16 295.074 121.57C295.224 121.979 295.448 122.727 295.574 123.232C295.699 123.737 295.856 124.51 295.923 124.95C296.018 125.566 296.142 125.965 296.14 127.277C296.138 128.729 296.019 129.291 295.887 130.088C295.802 130.601 295.631 131.399 295.509 131.86C295.386 132.321 295.161 133.026 295.009 133.428C294.857 133.829 294.649 134.328 294.547 134.537C294.428 134.779 294.259 134.991 294.08 135.12C293.886 135.261 293.7 135.33 293.475 135.346C293.296 135.358 293.056 135.338 292.941 135.302ZM288.363 132.809C288.252 132.78 288.094 132.72 288.013 132.675C287.931 132.629 287.188 132.054 286.361 131.397C285.534 130.739 284.251 129.718 283.51 129.127C282.768 128.537 281.914 127.887 281.612 127.683C281.309 127.479 281.014 127.312 280.954 127.312C280.866 127.312 280.847 127.401 280.847 127.816C280.848 128.093 280.923 128.694 281.016 129.152C281.108 129.61 281.184 130.202 281.184 130.468C281.184 130.816 281.144 131.035 281.043 131.251C280.966 131.416 280.813 131.616 280.703 131.697C280.593 131.777 280.389 131.859 280.249 131.879C280.07 131.903 279.911 131.871 279.721 131.77C279.57 131.691 279.323 131.481 279.172 131.304C279.02 131.126 278.835 130.813 278.761 130.608C278.686 130.403 278.557 129.913 278.474 129.521C278.343 128.9 278.251 128.582 278.252 127.253C278.253 125.932 278.346 125.65 278.478 125.019C278.561 124.618 278.706 124.117 278.798 123.907C278.891 123.697 279.033 123.452 279.115 123.362C279.196 123.272 279.344 123.155 279.445 123.101C279.545 123.048 279.715 123.004 279.823 123.004C279.931 123.004 280.134 123.084 280.274 123.182C280.414 123.28 281.336 124.009 282.323 124.801C283.309 125.593 284.844 126.821 285.734 127.529C286.624 128.238 287.449 128.889 287.566 128.977C287.684 129.066 287.824 129.12 287.878 129.099C287.936 129.076 288.004 128.885 288.048 128.621C288.088 128.379 288.137 128.004 288.158 127.787C288.178 127.571 288.163 127.077 288.124 126.689C288.086 126.301 287.982 125.697 287.893 125.345C287.804 124.994 287.637 124.472 287.522 124.185C287.406 123.899 287.279 123.461 287.239 123.212C287.184 122.874 287.186 122.685 287.246 122.46C287.29 122.294 287.425 122.048 287.546 121.912C287.729 121.706 287.822 121.66 288.114 121.631C288.319 121.611 288.547 121.632 288.667 121.684C288.779 121.731 289.022 121.941 289.206 122.148C289.39 122.356 289.645 122.752 289.772 123.027C289.899 123.303 290.108 123.856 290.238 124.256C290.367 124.657 290.529 125.25 290.597 125.575C290.694 126.036 290.794 126.464 290.794 127.521C290.794 128.579 290.694 129.005 290.597 129.466C290.529 129.791 290.397 130.304 290.306 130.605C290.214 130.906 290.033 131.39 289.905 131.681C289.776 131.972 289.604 132.284 289.523 132.374C289.441 132.464 289.298 132.595 289.204 132.664C289.11 132.733 288.928 132.806 288.799 132.826C288.671 132.846 288.475 132.838 288.363 132.809Z" fill="#101111"/>
</svg>
