<svg width="340" height="420" viewBox="0 0 340 420" fill="none" xmlns="http://www.w3.org/2000/svg">
<path d="M103.587 32.2891H234.381C243.392 32.2891 250.697 39.6042 250.697 48.6294V372.409C250.697 381.434 243.392 388.749 234.381 388.749H103.587C94.5763 388.749 87.2705 381.434 87.2705 372.409V48.6294C87.2705 39.6042 94.5763 32.2891 103.587 32.2891Z" stroke="#101111"/>
<path d="M251.198 197.466Lnan nanL251.198 197.466C252.425 197.466 253.42 198.461 253.42 199.688V230.516C253.42 231.743 252.425 232.738 251.198 232.738Lnan nanL251.198 232.738V197.466Z" fill="#101111"/>
<path d="M218.136 288.584C217.539 288.584 217.056 288.1 217.056 287.504C217.056 286.907 217.539 286.423 218.136 286.423C218.732 286.423 219.215 286.907 219.215 287.504C219.215 288.1 218.732 288.584 218.136 288.584Z" fill="#101111"/>
<path d="M214.536 285.37C213.94 285.37 213.456 284.886 213.456 284.289C213.456 283.692 213.94 283.208 214.536 283.208C215.132 283.208 215.616 283.692 215.616 284.289C215.616 284.886 215.132 285.37 214.536 285.37Z" fill="#101111"/>
<path d="M210.236 282.103C209.64 282.103 209.156 281.619 209.156 281.022C209.156 280.425 209.64 279.941 210.236 279.941C210.832 279.941 211.316 280.425 211.316 281.022C211.316 281.619 210.832 282.103 210.236 282.103Z" fill="#101111"/>
<path d="M214.536 292.188C213.94 292.188 213.456 291.705 213.456 291.108C213.456 290.511 213.94 290.027 214.536 290.027C215.132 290.027 215.616 290.511 215.616 291.108C215.616 291.705 215.132 292.188 214.536 292.188Z" fill="#101111"/>
<path d="M210.236 295.791C209.64 295.791 209.156 295.307 209.156 294.71C209.156 294.113 209.64 293.629 210.236 293.629C210.832 293.629 211.316 294.113 211.316 294.71C211.316 295.307 210.832 295.791 210.236 295.791Z" fill="#101111"/>
<path d="M119.443 288.584C120.04 288.584 120.523 288.1 120.523 287.504C120.523 286.907 120.04 286.423 119.443 286.423C118.847 286.423 118.364 286.907 118.364 287.504C118.364 288.1 118.847 288.584 119.443 288.584Z" fill="#101111"/>
<path d="M123.043 285.37C123.639 285.37 124.123 284.886 124.123 284.289C124.123 283.692 123.639 283.208 123.043 283.208C122.447 283.208 121.963 283.692 121.963 284.289C121.963 284.886 122.447 285.37 123.043 285.37Z" fill="#101111"/>
<path d="M127.343 282.103C127.939 282.103 128.423 281.619 128.423 281.022C128.423 280.425 127.939 279.941 127.343 279.941C126.747 279.941 126.263 280.425 126.263 281.022C126.263 281.619 126.747 282.103 127.343 282.103Z" fill="#101111"/>
<path d="M123.043 292.188C123.639 292.188 124.123 291.705 124.123 291.108C124.123 290.511 123.639 290.027 123.043 290.027C122.447 290.027 121.963 290.511 121.963 291.108C121.963 291.705 122.447 292.188 123.043 292.188Z" fill="#101111"/>
<path d="M127.343 295.791C127.939 295.791 128.423 295.307 128.423 294.71C128.423 294.113 127.939 293.629 127.343 293.629C126.747 293.629 126.263 294.113 126.263 294.71C126.263 295.307 126.747 295.791 127.343 295.791Z" fill="#101111"/>
<path d="M169.05 238.175C169.05 238.771 169.533 239.255 170.13 239.255C170.727 239.255 171.211 238.771 171.211 238.175C171.211 237.579 170.727 237.095 170.13 237.095C169.533 237.095 169.05 237.579 169.05 238.175Z" fill="#101111"/>
<path d="M172.264 241.775C172.264 242.371 172.748 242.854 173.345 242.854C173.942 242.854 174.425 242.371 174.425 241.775C174.425 241.178 173.942 240.695 173.345 240.695C172.748 240.695 172.264 241.178 172.264 241.775Z" fill="#101111"/>
<path d="M175.531 246.075C175.531 246.671 176.015 247.154 176.612 247.154C177.209 247.154 177.692 246.671 177.692 246.075C177.692 245.478 177.209 244.995 176.612 244.995C176.015 244.995 175.531 245.478 175.531 246.075Z" fill="#101111"/>
<path d="M165.445 241.775C165.445 242.371 165.929 242.854 166.526 242.854C167.123 242.854 167.606 242.371 167.606 241.775C167.606 241.178 167.123 240.695 166.526 240.695C165.929 240.695 165.445 241.178 165.445 241.775Z" fill="#101111"/>
<path d="M161.843 246.075C161.843 246.671 162.327 247.154 162.924 247.154C163.52 247.154 164.004 246.671 164.004 246.075C164.004 245.478 163.52 244.995 162.924 244.995C162.327 244.995 161.843 245.478 161.843 246.075Z" fill="#101111"/>
<path d="M169.05 341.749C169.05 341.153 169.533 340.669 170.13 340.669C170.727 340.669 171.211 341.153 171.211 341.749C171.211 342.345 170.727 342.829 170.13 342.829C169.533 342.829 169.05 342.345 169.05 341.749Z" fill="#101111"/>
<path d="M172.264 338.149C172.264 337.553 172.748 337.07 173.345 337.07C173.942 337.07 174.425 337.553 174.425 338.149C174.425 338.746 173.942 339.229 173.345 339.229C172.748 339.229 172.264 338.746 172.264 338.149Z" fill="#101111"/>
<path d="M175.531 333.849C175.531 333.253 176.015 332.77 176.612 332.77C177.209 332.77 177.692 333.253 177.692 333.849C177.692 334.445 177.209 334.929 176.612 334.929C176.015 334.929 175.531 334.445 175.531 333.849Z" fill="#101111"/>
<path d="M165.445 338.149C165.445 337.553 165.929 337.07 166.526 337.07C167.123 337.07 167.606 337.553 167.606 338.149C167.606 338.746 167.123 339.229 166.526 339.229C165.929 339.229 165.445 338.746 165.445 338.149Z" fill="#101111"/>
<path d="M161.843 333.849C161.843 333.253 162.327 332.77 162.924 332.77C163.52 332.77 164.004 333.253 164.004 333.849C164.004 334.445 163.52 334.929 162.924 334.929C162.327 334.929 161.843 334.445 161.843 333.849Z" fill="#101111"/>
<path d="M109.948 51.0361H229.118C231.288 51.0361 233.047 52.7956 233.047 54.9659V176.924C233.047 179.094 231.288 180.854 229.118 180.854H109.948C107.778 180.854 106.019 179.094 106.019 176.924V54.9659C106.019 52.7956 107.778 51.0361 109.948 51.0361Z" stroke="#101111"/>
<path d="M171.744 98.5391L164.723 98.5391L163.492 102.264L167.39 102.264L167.39 110.111L171.744 110.111L171.744 98.5391Z" fill="#101111"/>
<path fill-rule="evenodd" clip-rule="evenodd" d="M173.913 126.266C172.596 127.146 171.048 127.616 169.464 127.616C167.34 127.616 165.303 126.772 163.802 125.27C162.3 123.768 161.456 121.731 161.456 119.608C161.456 118.024 161.926 116.475 162.806 115.158C163.686 113.841 164.936 112.815 166.399 112.209C167.863 111.603 169.473 111.444 171.026 111.753C172.58 112.062 174.006 112.825 175.126 113.945C176.246 115.065 177.009 116.492 177.318 118.045C177.627 119.599 177.468 121.209 176.862 122.672C176.256 124.135 175.23 125.386 173.913 126.266ZM171.895 123.243C171.175 123.724 170.329 123.98 169.464 123.979C168.305 123.979 167.193 123.519 166.373 122.699C165.553 121.879 165.092 120.767 165.092 119.608C165.092 118.742 165.348 117.896 165.829 117.177C166.309 116.457 166.992 115.896 167.791 115.565C168.591 115.233 169.47 115.147 170.319 115.315C171.167 115.484 171.947 115.901 172.559 116.513C173.171 117.124 173.587 117.904 173.756 118.753C173.925 119.601 173.838 120.481 173.507 121.28C173.175 122.08 172.614 122.763 171.895 123.243Z" fill="#101111"/>
</svg>
