<svg width="340" height="420" viewBox="0 0 340 420" fill="none" xmlns="http://www.w3.org/2000/svg">
<path d="M76.7306 32H267.551C273.966 32 279.167 37.2004 279.167 43.6154V380.389C279.167 386.804 273.966 392.004 267.551 392.004H76.7306C70.3156 392.004 65.1152 386.804 65.1152 380.389V43.6154C65.1152 37.2004 70.3156 32 76.7306 32Z" stroke="#101111"/>
<path d="M85.3076 51.4873C85.3076 50.9846 85.7151 50.5771 86.2178 50.5771H258.964C259.467 50.5771 259.874 50.9846 259.874 51.4873V343.393C259.874 343.896 259.467 344.303 258.964 344.303H86.2178C85.7151 344.303 85.3076 343.896 85.3076 343.393V51.4873Z" stroke="#101111"/>
<path fill-rule="evenodd" clip-rule="evenodd" d="M148.401 371.244C149.213 371.702 150.105 371.931 151.077 371.931C152.048 371.931 152.94 371.702 153.753 371.244C154.566 370.787 155.205 370.155 155.671 369.35C156.147 368.534 156.385 367.614 156.385 366.59C156.385 365.575 156.147 364.665 155.671 363.86C155.205 363.044 154.566 362.407 153.753 361.95C152.95 361.492 152.058 361.264 151.077 361.264C150.105 361.264 149.213 361.492 148.401 361.95C147.588 362.407 146.943 363.044 146.468 363.86C145.992 364.665 145.754 365.575 145.754 366.59C145.754 367.614 145.992 368.534 146.468 369.35C146.943 370.155 147.588 370.787 148.401 371.244ZM152.727 369.648C152.251 369.927 151.701 370.066 151.077 370.066C150.452 370.066 149.897 369.927 149.412 369.648C148.936 369.36 148.564 368.952 148.296 368.425C148.029 367.898 147.895 367.286 147.895 366.59C147.895 365.894 148.029 365.287 148.296 364.77C148.564 364.242 148.936 363.84 149.412 363.561C149.897 363.283 150.452 363.143 151.077 363.143C151.701 363.143 152.251 363.283 152.727 363.561C153.203 363.84 153.575 364.242 153.842 364.77C154.11 365.287 154.244 365.894 154.244 366.59C154.244 367.286 154.11 367.898 153.842 368.425C153.575 368.952 153.203 369.36 152.727 369.648Z" fill="#101111"/>
<path d="M164.134 364.382C163.529 363.755 162.736 363.442 161.755 363.442C161.239 363.442 160.763 363.546 160.327 363.755C159.901 363.954 159.549 364.233 159.272 364.591V363.561H157.19V371.826H159.272V367.261C159.272 366.605 159.435 366.102 159.762 365.754C160.099 365.396 160.555 365.217 161.13 365.217C161.695 365.217 162.141 365.396 162.468 365.754C162.795 366.102 162.959 366.605 162.959 367.261V371.826H165.041V366.978C165.041 365.864 164.738 364.998 164.134 364.382Z" fill="#101111"/>
<path fill-rule="evenodd" clip-rule="evenodd" d="M174.083 367.515C174.083 367.813 174.063 368.081 174.023 368.32H168.001C168.051 368.917 168.259 369.384 168.626 369.723C168.993 370.061 169.444 370.23 169.979 370.23C170.752 370.23 171.302 369.897 171.629 369.23H173.874C173.637 370.026 173.181 370.682 172.507 371.2C171.833 371.707 171.005 371.96 170.024 371.96C169.231 371.96 168.517 371.786 167.882 371.438C167.258 371.08 166.767 370.578 166.41 369.931C166.064 369.285 165.89 368.539 165.89 367.694C165.89 366.838 166.064 366.087 166.41 365.441C166.757 364.794 167.243 364.297 167.868 363.949C168.492 363.601 169.211 363.427 170.024 363.427C170.807 363.427 171.505 363.596 172.12 363.934C172.744 364.272 173.225 364.755 173.562 365.381C173.909 365.998 174.083 366.709 174.083 367.515ZM171.927 366.918C171.917 366.381 171.724 365.953 171.347 365.635C170.97 365.307 170.509 365.142 169.964 365.142C169.449 365.142 169.012 365.302 168.656 365.62C168.309 365.928 168.096 366.361 168.016 366.918H171.927Z" fill="#101111"/>
<path d="M177.237 367.187L181.014 371.826H183.646L179.245 366.575L183.527 361.413H181.014L177.237 366.083V361.413H175.156V371.826H177.237V367.187Z" fill="#101111"/>
<path fill-rule="evenodd" clip-rule="evenodd" d="M191.037 367.515C191.037 367.813 191.017 368.081 190.977 368.32H184.956C185.005 368.917 185.213 369.384 185.58 369.723C185.947 370.061 186.398 370.23 186.933 370.23C187.706 370.23 188.256 369.897 188.583 369.23H190.829C190.591 370.026 190.135 370.682 189.461 371.2C188.787 371.707 187.959 371.96 186.978 371.96C186.185 371.96 185.471 371.786 184.837 371.438C184.212 371.08 183.722 370.578 183.365 369.931C183.018 369.285 182.844 368.539 182.844 367.694C182.844 366.838 183.018 366.087 183.365 365.441C183.712 364.794 184.197 364.297 184.822 363.949C185.446 363.601 186.165 363.427 186.978 363.427C187.761 363.427 188.46 363.596 189.074 363.934C189.699 364.272 190.179 364.755 190.516 365.381C190.863 365.998 191.037 366.709 191.037 367.515ZM188.881 366.918C188.871 366.381 188.678 365.953 188.301 365.635C187.924 365.307 187.463 365.142 186.918 365.142C186.403 365.142 185.967 365.302 185.61 365.62C185.263 365.928 185.05 366.361 184.97 366.918H188.881Z" fill="#101111"/>
<path d="M194.593 375.735L199.693 363.561H197.478L195.322 369.335L193.195 363.561H190.861L194.162 371.618L192.378 375.735H194.593Z" fill="#101111"/>
<mask id="path-4-inside-1_6994_33794" fill="white">
<path d="M278.962 56.8828C280.13 56.8828 281.077 57.8298 281.077 58.9981V102.713C281.077 103.882 280.13 104.829 278.962 104.829V56.8828Z"/>
</mask>
<path d="M278.962 56.8828C280.13 56.8828 281.077 57.8298 281.077 58.9981V102.713C281.077 103.882 280.13 104.829 278.962 104.829V56.8828Z" fill="#101111"/>
<path d="M278.962 56.8828V55.8828H277.962V56.8828H278.962ZM278.962 104.829H277.962V105.829H278.962V104.829ZM278.962 57.8828C279.578 57.8828 280.077 58.3821 280.077 58.9981H282.077C282.077 57.2776 280.682 55.8828 278.962 55.8828V57.8828ZM280.077 58.9981V102.713H282.077V58.9981H280.077ZM280.077 102.713C280.077 103.329 279.578 103.829 278.962 103.829V105.829C280.682 105.829 282.077 104.434 282.077 102.713H280.077ZM279.962 104.829V56.8828H277.962V104.829H279.962Z" fill="#101111" mask="url(#path-4-inside-1_6994_33794)"/>
<path d="M176.557 160.73L164.102 160.73L161.919 167.337L168.834 167.337L168.834 181.258L176.557 181.258L176.557 160.73Z" fill="#101111"/>
<path fill-rule="evenodd" clip-rule="evenodd" d="M180.404 209.914C178.068 211.475 175.322 212.308 172.512 212.308C168.745 212.308 165.132 210.812 162.468 208.148C159.804 205.484 158.308 201.871 158.308 198.103C158.308 195.293 159.141 192.547 160.702 190.211C162.262 187.875 164.481 186.054 167.076 184.979C169.672 183.904 172.528 183.623 175.284 184.171C178.039 184.719 180.57 186.072 182.557 188.058C184.543 190.045 185.896 192.576 186.444 195.332C186.992 198.087 186.711 200.944 185.636 203.539C184.561 206.135 182.74 208.353 180.404 209.914ZM176.824 204.552C175.548 205.404 174.047 205.859 172.512 205.858C170.456 205.858 168.483 205.041 167.029 203.586C165.575 202.132 164.758 200.16 164.758 198.103C164.757 196.568 165.212 195.068 166.064 193.791C166.916 192.515 168.128 191.52 169.545 190.932C170.963 190.344 172.524 190.19 174.029 190.489C175.534 190.789 176.917 191.528 178.002 192.613C179.087 193.698 179.826 195.081 180.126 196.586C180.425 198.092 180.271 199.652 179.683 201.07C179.096 202.488 178.101 203.7 176.824 204.552Z" fill="#101111"/>
</svg>
