<svg width="166" height="275" viewBox="0 0 166 275" fill="none" xmlns="http://www.w3.org/2000/svg">
<rect x="1.23154" y="0.731544" width="163.801" height="273.483" rx="13.8993" stroke="#101111" stroke-width="1.46309"/>
<rect x="12.3487" y="11.8478" width="141.568" height="251.25" rx="8.04698" stroke="#101111" stroke-width="1.46309"/>
<path fill-rule="evenodd" clip-rule="evenodd" d="M87.1383 106.629L74.111 106.629L71.8281 113.539L79.0605 113.539L79.0605 128.098L87.1382 128.098L87.1383 106.629ZM91.1616 158.069C88.7184 159.702 85.846 160.573 82.9076 160.573C78.9673 160.573 75.1884 159.008 72.4022 156.222C69.6161 153.435 68.0508 149.656 68.0508 145.716C68.0508 142.777 68.9221 139.905 70.5546 137.462C72.1871 135.018 74.5074 133.114 77.2221 131.989C79.9369 130.865 82.9241 130.571 85.806 131.144C88.688 131.717 91.3352 133.132 93.413 135.21C95.4907 137.288 96.9057 139.935 97.479 142.817C98.0522 145.699 97.758 148.687 96.6335 151.402C95.509 154.116 93.6048 156.437 91.1616 158.069ZM87.4173 152.461C86.0823 153.352 84.5129 153.827 82.9076 153.827C80.7566 153.827 78.6937 152.972 77.1727 151.451C75.6517 149.93 74.7972 147.867 74.7972 145.716C74.7964 144.111 75.2717 142.541 76.163 141.206C77.0544 139.871 78.3216 138.83 79.8045 138.215C81.2874 137.601 82.9193 137.44 84.4937 137.753C86.0682 138.066 87.5144 138.839 88.6495 139.974C89.7846 141.109 90.5575 142.555 90.8705 144.13C91.1834 145.704 91.0224 147.336 90.4077 148.819C89.7931 150.302 88.7524 151.569 87.4173 152.461Z" fill="#101111"/>
<path d="M74.111 106.629V106.484L74.0062 106.484L73.9734 106.583L74.111 106.629ZM87.1383 106.629L87.2831 106.629V106.484L87.1383 106.484V106.629ZM71.8281 113.539L71.6905 113.494L71.6277 113.684H71.8281V113.539ZM79.0605 113.539H79.2054V113.394H79.0605V113.539ZM79.0605 128.098H78.9156V128.243H79.0605V128.098ZM87.1382 128.098V128.243H87.2831V128.098H87.1382ZM91.1616 158.069L91.0811 157.949L91.1616 158.069ZM72.4022 156.222L72.2998 156.324L72.4022 156.222ZM70.5546 137.462L70.4341 137.381V137.381L70.5546 137.462ZM77.2221 131.989L77.1667 131.855L77.2221 131.989ZM85.806 131.144L85.7778 131.286L85.806 131.144ZM93.413 135.21L93.3105 135.313L93.413 135.21ZM96.6335 151.402L96.4997 151.346L96.6335 151.402ZM82.9076 153.827L82.9077 153.682H82.9076V153.827ZM87.4173 152.461L87.3369 152.34H87.3369L87.4173 152.461ZM77.1727 151.451L77.2751 151.349L77.1727 151.451ZM74.7972 145.716H74.9421V145.716L74.7972 145.716ZM76.163 141.206L76.2836 141.286L76.163 141.206ZM84.4937 137.753L84.522 137.611L84.4937 137.753ZM88.6495 139.974L88.547 140.076V140.076L88.6495 139.974ZM90.4077 148.819L90.5416 148.875L90.4077 148.819ZM74.111 106.774L87.1383 106.774V106.484L74.111 106.484V106.774ZM71.9657 113.584L74.2485 106.674L73.9734 106.583L71.6905 113.494L71.9657 113.584ZM79.0605 113.394L71.8281 113.394V113.684L79.0605 113.684V113.394ZM79.2054 128.098L79.2054 113.539H78.9156L78.9156 128.098H79.2054ZM87.1382 127.953L79.0605 127.953V128.243L87.1382 128.243V127.953ZM86.9934 106.629L86.9933 128.098H87.2831L87.2831 106.629L86.9934 106.629ZM82.9076 160.718C85.8747 160.718 88.7751 159.838 91.2421 158.19L91.0811 157.949C88.6618 159.566 85.8174 160.429 82.9076 160.429V160.718ZM72.2998 156.324C75.1132 159.138 78.9289 160.718 82.9076 160.718V160.429C79.0058 160.429 75.2637 158.878 72.5047 156.119L72.2998 156.324ZM67.9059 145.716C67.9059 149.695 69.4864 153.511 72.2998 156.324L72.5047 156.119C69.7457 153.36 68.1957 149.618 68.1957 145.716H67.9059ZM70.4341 137.381C68.7857 139.848 67.9059 142.749 67.9059 145.716H68.1957C68.1957 142.806 69.0585 139.961 70.6751 137.542L70.4341 137.381ZM77.1667 131.855C74.4255 132.991 72.0825 134.914 70.4341 137.381L70.6751 137.542C72.2917 135.123 74.5893 133.237 77.2776 132.123L77.1667 131.855ZM85.8343 131.002C82.9243 130.423 79.9079 130.72 77.1667 131.855L77.2776 132.123C79.9659 131.01 82.9239 130.718 85.7778 131.286L85.8343 131.002ZM93.5154 135.108C91.4174 133.009 88.7444 131.581 85.8343 131.002L85.7778 131.286C88.6316 131.854 91.253 133.255 93.3105 135.313L93.5154 135.108ZM97.6211 142.789C97.0422 139.879 95.6135 137.206 93.5154 135.108L93.3105 135.313C95.368 137.37 96.7692 139.992 97.3369 142.846L97.6211 142.789ZM96.7674 151.457C97.9028 148.716 98.1999 145.699 97.6211 142.789L97.3369 142.846C97.9045 145.7 97.6132 148.658 96.4997 151.346L96.7674 151.457ZM91.2421 158.19C93.7091 156.541 95.6319 154.198 96.7674 151.457L96.4997 151.346C95.3861 154.035 93.5005 156.332 91.0811 157.949L91.2421 158.19ZM82.9075 153.972C84.5414 153.972 86.1389 153.489 87.4978 152.581L87.3369 152.34C86.0257 153.216 84.4843 153.683 82.9077 153.682L82.9075 153.972ZM77.0702 151.554C78.6184 153.102 80.7182 153.972 82.9076 153.972V153.682C80.795 153.682 78.769 152.843 77.2751 151.349L77.0702 151.554ZM74.6523 145.716C74.6523 147.905 75.5221 150.005 77.0702 151.554L77.2751 151.349C75.7813 149.855 74.9421 147.829 74.9421 145.716H74.6523ZM76.0425 141.126C75.1353 142.484 74.6515 144.082 74.6523 145.716L74.9421 145.716C74.9413 144.139 75.4081 142.598 76.2836 141.286L76.0425 141.126ZM79.749 138.082C78.2397 138.707 76.9498 139.767 76.0425 141.126L76.2836 141.286C77.159 139.975 78.4036 138.953 79.86 138.349L79.749 138.082ZM84.522 137.611C82.9194 137.292 81.2584 137.456 79.749 138.082L79.86 138.349C81.3164 137.746 82.9192 137.587 84.4655 137.895L84.522 137.611ZM88.752 139.871C87.5966 138.716 86.1245 137.929 84.522 137.611L84.4655 137.895C86.0118 138.202 87.4322 138.961 88.547 140.076L88.752 139.871ZM91.0126 144.101C90.694 142.499 89.9073 141.027 88.752 139.871L88.547 140.076C89.6619 141.191 90.421 142.612 90.7283 144.158L91.0126 144.101ZM90.5416 148.875C91.1672 147.365 91.3311 145.704 91.0126 144.101L90.7283 144.158C91.0357 145.704 90.8776 147.307 90.2739 148.764L90.5416 148.875ZM87.4978 152.581C88.8567 151.674 89.9159 150.384 90.5416 148.875L90.2739 148.764C89.6702 150.22 88.6481 151.465 87.3369 152.34L87.4978 152.581Z" fill="#101111"/>
</svg>
