<svg width="340" height="420" viewBox="0 0 340 420" fill="none" xmlns="http://www.w3.org/2000/svg">
<path d="M59.7852 44.561C59.7852 34.5009 67.9404 26.3457 78.0004 26.3457H260.115C270.175 26.3457 278.33 34.501 278.33 44.561V375.678C278.33 385.738 270.175 393.893 260.115 393.893H78.0004C67.9404 393.893 59.7852 385.738 59.7852 375.678V44.561Z" stroke="#101111"/>
<path d="M71.3022 43.1199C71.3022 40.2157 73.6566 37.8613 76.5608 37.8613H261.554C264.458 37.8613 266.813 40.2157 266.813 43.1199V365.599C266.813 368.503 264.458 370.857 261.554 370.857H76.5608C73.6566 370.857 71.3022 368.503 71.3022 365.599V43.1199Z" stroke="#101111"/>
<path d="M83.6924 52.1488C83.6924 50.8348 84.7576 49.7695 86.0717 49.7695H252.35C253.664 49.7695 254.729 50.8348 254.729 52.1488V327.839C254.729 329.153 253.664 330.219 252.35 330.219H86.0717C84.7576 330.219 83.6924 329.153 83.6924 327.839V52.1488Z" stroke="#101111"/>
<path fill-rule="evenodd" clip-rule="evenodd" d="M145.327 353.788C146.108 354.228 146.965 354.448 147.899 354.448C148.832 354.448 149.689 354.228 150.47 353.788C151.251 353.349 151.865 352.742 152.313 351.968C152.77 351.184 152.999 350.3 152.999 349.316C152.999 348.341 152.77 347.467 152.313 346.692C151.865 345.909 151.251 345.297 150.47 344.858C149.699 344.418 148.842 344.198 147.899 344.198C146.965 344.198 146.108 344.418 145.327 344.858C144.546 345.297 143.927 345.909 143.47 346.692C143.013 347.467 142.784 348.341 142.784 349.316C142.784 350.3 143.013 351.184 143.47 351.968C143.927 352.742 144.546 353.349 145.327 353.788ZM149.484 352.254C149.027 352.522 148.499 352.656 147.899 352.656C147.299 352.656 146.765 352.522 146.299 352.254C145.841 351.977 145.484 351.585 145.227 351.079C144.97 350.572 144.841 349.985 144.841 349.316C144.841 348.647 144.97 348.064 145.227 347.567C145.484 347.06 145.841 346.673 146.299 346.406C146.765 346.138 147.299 346.004 147.899 346.004C148.499 346.004 149.027 346.138 149.484 346.406C149.942 346.673 150.299 347.06 150.556 347.567C150.813 348.064 150.942 348.647 150.942 349.316C150.942 349.985 150.813 350.572 150.556 351.079C150.299 351.585 149.942 351.977 149.484 352.254Z" fill="#101111"/>
<path d="M160.444 347.194C159.863 346.592 159.101 346.291 158.158 346.291C157.663 346.291 157.206 346.391 156.787 346.592C156.377 346.783 156.039 347.051 155.773 347.395V346.406H153.773V354.347H155.773V349.961C155.773 349.33 155.93 348.847 156.244 348.513C156.568 348.169 157.006 347.997 157.558 347.997C158.101 347.997 158.53 348.169 158.844 348.513C159.158 348.847 159.316 349.33 159.316 349.961V354.347H161.316V349.688C161.316 348.618 161.025 347.787 160.444 347.194Z" fill="#101111"/>
<path fill-rule="evenodd" clip-rule="evenodd" d="M170.004 350.204C170.004 350.491 169.985 350.749 169.946 350.978H164.161C164.208 351.552 164.408 352.001 164.761 352.326C165.113 352.651 165.546 352.813 166.061 352.813C166.803 352.813 167.332 352.493 167.646 351.853H169.804C169.575 352.617 169.137 353.248 168.489 353.745C167.842 354.232 167.046 354.476 166.103 354.476C165.342 354.476 164.656 354.309 164.046 353.974C163.446 353.63 162.975 353.148 162.632 352.527C162.299 351.905 162.132 351.189 162.132 350.376C162.132 349.554 162.299 348.833 162.632 348.212C162.965 347.591 163.432 347.113 164.032 346.778C164.632 346.444 165.322 346.277 166.103 346.277C166.856 346.277 167.527 346.439 168.118 346.764C168.718 347.089 169.18 347.552 169.503 348.154C169.837 348.747 170.004 349.43 170.004 350.204ZM167.932 349.631C167.923 349.115 167.737 348.704 167.375 348.398C167.013 348.083 166.57 347.925 166.046 347.925C165.551 347.925 165.132 348.078 164.789 348.384C164.456 348.68 164.251 349.096 164.175 349.631H167.932Z" fill="#101111"/>
<path d="M173.035 349.889L176.664 354.347H179.192L174.964 349.302L179.078 344.342H176.664L173.035 348.828V344.342H171.035V354.347H173.035V349.889Z" fill="#101111"/>
<path fill-rule="evenodd" clip-rule="evenodd" d="M186.294 350.204C186.294 350.491 186.275 350.749 186.237 350.978H180.451C180.498 351.552 180.698 352.001 181.051 352.326C181.403 352.651 181.836 352.813 182.351 352.813C183.094 352.813 183.622 352.493 183.937 351.853H186.094C185.865 352.617 185.427 353.248 184.78 353.745C184.132 354.232 183.337 354.476 182.394 354.476C181.632 354.476 180.946 354.309 180.336 353.974C179.737 353.63 179.265 353.148 178.922 352.527C178.589 351.905 178.422 351.189 178.422 350.376C178.422 349.554 178.589 348.833 178.922 348.212C179.255 347.591 179.722 347.113 180.322 346.778C180.922 346.444 181.613 346.277 182.394 346.277C183.146 346.277 183.818 346.439 184.408 346.764C185.008 347.089 185.47 347.552 185.794 348.154C186.127 348.747 186.294 349.43 186.294 350.204ZM184.222 349.631C184.213 349.115 184.027 348.704 183.665 348.398C183.303 348.083 182.86 347.925 182.337 347.925C181.841 347.925 181.422 348.078 181.079 348.384C180.746 348.68 180.541 349.096 180.465 349.631H184.222Z" fill="#101111"/>
<path d="M189.711 358.103L194.611 346.406H192.483L190.411 351.953L188.368 346.406H186.125L189.297 354.147L187.582 358.103H189.711Z" fill="#101111"/>
<mask id="path-5-inside-1_6994_33784" fill="white">
<path d="M278.11 78.3916C279.302 78.3916 280.269 79.3584 280.269 80.5511V120.861C280.269 122.054 279.302 123.02 278.11 123.02V78.3916Z"/>
</mask>
<path d="M278.11 78.3916C279.302 78.3916 280.269 79.3584 280.269 80.5511V120.861C280.269 122.054 279.302 123.02 278.11 123.02V78.3916Z" fill="#101111"/>
<path d="M278.11 78.3916V77.3916H277.11V78.3916H278.11ZM278.11 123.02H277.11V124.02H278.11V123.02ZM278.11 79.3916C278.75 79.3916 279.269 79.9107 279.269 80.5511H281.269C281.269 78.8061 279.855 77.3916 278.11 77.3916V79.3916ZM279.269 80.5511V120.861H281.269V80.5511H279.269ZM279.269 120.861C279.269 121.501 278.75 122.02 278.11 122.02V124.02C279.855 124.02 281.269 122.606 281.269 120.861H279.269ZM279.11 123.02V78.3916H277.11V123.02H279.11Z" fill="#101111" mask="url(#path-5-inside-1_6994_33784)"/>
<path d="M172.519 158.308L160.064 158.308L157.881 164.914L164.796 164.914L164.796 178.835L172.519 178.835L172.519 158.308Z" fill="#101111"/>
<path fill-rule="evenodd" clip-rule="evenodd" d="M176.366 207.492C174.03 209.052 171.284 209.886 168.474 209.886C164.707 209.886 161.094 208.389 158.43 205.725C155.766 203.061 154.27 199.448 154.27 195.68C154.27 192.871 155.103 190.124 156.663 187.788C158.224 185.452 160.443 183.631 163.038 182.556C165.634 181.481 168.49 181.2 171.245 181.748C174.001 182.296 176.532 183.649 178.519 185.635C180.505 187.622 181.858 190.153 182.406 192.909C182.954 195.664 182.673 198.521 181.598 201.116C180.523 203.712 178.702 205.931 176.366 207.492ZM172.786 202.129C171.51 202.981 170.009 203.436 168.474 203.435C166.418 203.435 164.445 202.618 162.991 201.164C161.537 199.709 160.72 197.737 160.72 195.68C160.719 194.145 161.174 192.645 162.026 191.368C162.878 190.092 164.09 189.097 165.507 188.509C166.925 187.921 168.485 187.767 169.991 188.066C171.496 188.366 172.879 189.105 173.964 190.19C175.049 191.275 175.788 192.658 176.088 194.164C176.387 195.669 176.233 197.229 175.645 198.647C175.057 200.065 174.062 201.277 172.786 202.129Z" fill="#101111"/>
</svg>
