<svg width="533" height="680" viewBox="0 0 533 680" fill="none" xmlns="http://www.w3.org/2000/svg">
<path d="M154.25 82.5507C154.25 69.6817 164.667 59.25 177.517 59.25H360.429C373.279 59.25 383.696 69.6817 383.696 82.5507V535.347C383.696 548.216 373.279 558.648 360.429 558.648H177.517C164.667 558.648 154.25 548.216 154.25 535.347V82.5507Z" stroke="white" stroke-width="0.5"/>
<mask id="path-2-inside-1_5753_24257" fill="white">
<path d="M383.947 290.695C385.663 290.695 387.054 292.087 387.054 293.803V336.916C387.054 338.632 385.663 340.023 383.947 340.023V290.695Z"/>
</mask>
<path d="M383.947 290.695C385.663 290.695 387.054 292.087 387.054 293.803V336.916C387.054 338.632 385.663 340.023 383.947 340.023V290.695Z" fill="white"/>
<path d="M386.554 293.803V336.916H387.554V293.803H386.554ZM384.447 340.023V290.695H383.447V340.023H384.447ZM386.554 336.916C386.554 338.356 385.387 339.523 383.947 339.523V340.523C385.939 340.523 387.554 338.908 387.554 336.916H386.554ZM383.947 291.195C385.387 291.195 386.554 292.363 386.554 293.803H387.554C387.554 291.81 385.939 290.195 383.947 290.195V291.195Z" fill="white" mask="url(#path-2-inside-1_5753_24257)"/>
<path d="M337.71 417.869C337.015 417.869 336.45 417.305 336.45 416.608C336.45 415.911 337.015 415.347 337.71 415.347C338.406 415.347 338.97 415.911 338.97 416.608C338.97 417.305 338.406 417.869 337.71 417.869Z" fill="white" stroke="white" stroke-width="0.5"/>
<path d="M332.676 413.373C331.98 413.373 331.416 412.808 331.416 412.112C331.416 411.415 331.98 410.851 332.676 410.851C333.371 410.851 333.936 411.415 333.936 412.112C333.936 412.808 333.371 413.373 332.676 413.373Z" fill="white" stroke="white" stroke-width="0.5"/>
<path d="M326.661 408.804C325.966 408.804 325.402 408.24 325.402 407.543C325.402 406.847 325.966 406.282 326.661 406.282C327.357 406.282 327.921 406.847 327.921 407.543C327.921 408.24 327.357 408.804 326.661 408.804Z" fill="white" stroke="white" stroke-width="0.5"/>
<path d="M332.676 422.91C331.98 422.91 331.416 422.346 331.416 421.649C331.416 420.952 331.98 420.388 332.676 420.388C333.371 420.388 333.936 420.952 333.936 421.649C333.936 422.346 333.371 422.91 332.676 422.91Z" fill="white" stroke="white" stroke-width="0.5"/>
<path d="M326.661 427.947C325.966 427.947 325.402 427.383 325.402 426.686C325.402 425.989 325.966 425.425 326.661 425.425C327.357 425.425 327.921 425.989 327.921 426.686C327.921 427.383 327.357 427.947 326.661 427.947Z" fill="white" stroke="white" stroke-width="0.5"/>
<path d="M199.799 417.869C200.495 417.869 201.059 417.305 201.059 416.608C201.059 415.911 200.495 415.347 199.799 415.347C199.103 415.347 198.539 415.911 198.539 416.608C198.539 417.305 199.103 417.869 199.799 417.869Z" fill="white" stroke="white" stroke-width="0.5"/>
<path d="M204.834 413.373C205.529 413.373 206.094 412.808 206.094 412.112C206.094 411.415 205.529 410.851 204.834 410.851C204.138 410.851 203.574 411.415 203.574 412.112C203.574 412.808 204.138 413.373 204.834 413.373Z" fill="white" stroke="white" stroke-width="0.5"/>
<path d="M210.848 408.804C211.543 408.804 212.108 408.24 212.108 407.543C212.108 406.847 211.543 406.282 210.848 406.282C210.152 406.282 209.588 406.847 209.588 407.543C209.588 408.24 210.152 408.804 210.848 408.804Z" fill="white" stroke="white" stroke-width="0.5"/>
<path d="M204.834 422.91C205.529 422.91 206.094 422.346 206.094 421.649C206.094 420.952 205.529 420.388 204.834 420.388C204.138 420.388 203.574 420.952 203.574 421.649C203.574 422.346 204.138 422.91 204.834 422.91Z" fill="white" stroke="white" stroke-width="0.5"/>
<path d="M210.848 427.947C211.543 427.947 212.108 427.383 212.108 426.686C212.108 425.989 211.543 425.425 210.848 425.425C210.152 425.425 209.588 425.989 209.588 426.686C209.588 427.383 210.152 427.947 210.848 427.947Z" fill="white" stroke="white" stroke-width="0.5"/>
<path d="M269.43 348.106C269.43 348.803 268.866 349.367 268.171 349.367C267.475 349.367 266.911 348.803 266.911 348.106C266.911 347.409 267.475 346.845 268.171 346.845C268.866 346.845 269.43 347.409 269.43 348.106Z" fill="white" stroke="white" stroke-width="0.5"/>
<path d="M264.936 353.144C264.936 353.841 264.372 354.405 263.676 354.405C262.98 354.405 262.416 353.841 262.416 353.144C262.416 352.447 262.98 351.883 263.676 351.883C264.372 351.883 264.936 352.447 264.936 353.144Z" fill="white" stroke="white" stroke-width="0.5"/>
<path d="M260.372 359.164C260.372 359.861 259.808 360.426 259.112 360.426C258.416 360.426 257.852 359.861 257.852 359.164C257.852 358.468 258.416 357.903 259.112 357.903C259.808 357.903 260.372 358.468 260.372 359.164Z" fill="white" stroke="white" stroke-width="0.5"/>
<path d="M274.464 353.144C274.464 353.841 273.9 354.405 273.204 354.405C272.509 354.405 271.944 353.841 271.944 353.144C271.944 352.447 272.509 351.883 273.204 351.883C273.9 351.883 274.464 352.447 274.464 353.144Z" fill="white" stroke="white" stroke-width="0.5"/>
<path d="M279.502 359.164C279.502 359.861 278.937 360.426 278.242 360.426C277.546 360.426 276.982 359.861 276.982 359.164C276.982 358.468 277.546 357.903 278.242 357.903C278.937 357.903 279.502 358.468 279.502 359.164Z" fill="white" stroke="white" stroke-width="0.5"/>
<path d="M269.43 492.419C269.43 491.722 268.865 491.157 268.17 491.157C267.474 491.157 266.91 491.722 266.91 492.419C266.91 493.115 267.474 493.68 268.17 493.68C268.865 493.68 269.43 493.115 269.43 492.419Z" fill="white" stroke="white" stroke-width="0.5"/>
<path d="M264.939 487.38C264.939 486.684 264.374 486.119 263.679 486.119C262.983 486.119 262.419 486.684 262.419 487.38C262.419 488.077 262.983 488.642 263.679 488.642C264.374 488.642 264.939 488.077 264.939 487.38Z" fill="white" stroke="white" stroke-width="0.5"/>
<path d="M260.372 481.361C260.372 480.664 259.808 480.1 259.112 480.1C258.416 480.1 257.852 480.664 257.852 481.361C257.852 482.058 258.416 482.622 259.112 482.622C259.808 482.622 260.372 482.058 260.372 481.361Z" fill="white" stroke="white" stroke-width="0.5"/>
<path d="M274.464 487.38C274.464 486.684 273.9 486.119 273.204 486.119C272.509 486.119 271.944 486.684 271.944 487.38C271.944 488.077 272.509 488.642 273.204 488.642C273.9 488.642 274.464 488.077 274.464 487.38Z" fill="white" stroke="white" stroke-width="0.5"/>
<path d="M279.502 481.361C279.502 480.664 278.937 480.1 278.242 480.1C277.546 480.1 276.982 480.664 276.982 481.361C276.982 482.058 277.546 482.622 278.242 482.622C278.937 482.622 279.502 482.058 279.502 481.361Z" fill="white" stroke="white" stroke-width="0.5"/>
<path d="M180.467 91.4127C180.467 88.1294 183.129 85.4678 186.412 85.4678H351.534C354.817 85.4678 357.479 88.1294 357.479 91.4127V261.968C357.479 265.251 354.817 267.913 351.534 267.913H186.412C183.129 267.913 180.467 265.251 180.467 261.968V91.4127Z" stroke="white" stroke-width="0.5"/>
<mask id="path-25-inside-2_5753_24257" fill="white">
<path fill-rule="evenodd" clip-rule="evenodd" d="M269.168 196.175C285.111 196.175 292.261 189.035 292.261 173.117C292.261 157.199 285.111 150.06 269.168 150.06C253.226 150.06 246.075 157.199 246.075 173.117C246.075 189.035 253.226 196.175 269.168 196.175ZM271.088 160.882H265.173L264.135 164.015H267.421V170.614H271.088V160.882ZM275.915 178.6C275.915 182.32 272.895 185.335 269.169 185.335C265.444 185.335 262.424 182.32 262.424 178.6C262.424 174.881 265.444 171.866 269.169 171.866C272.895 171.866 275.915 174.881 275.915 178.6ZM272.852 178.6C272.852 180.631 271.203 182.278 269.169 182.278C267.135 182.278 265.486 180.631 265.486 178.6C265.486 176.569 267.135 174.923 269.169 174.923C271.203 174.923 272.852 176.569 272.852 178.6Z"/>
</mask>
<path fill-rule="evenodd" clip-rule="evenodd" d="M269.168 196.175C285.111 196.175 292.261 189.035 292.261 173.117C292.261 157.199 285.111 150.06 269.168 150.06C253.226 150.06 246.075 157.199 246.075 173.117C246.075 189.035 253.226 196.175 269.168 196.175ZM271.088 160.882H265.173L264.135 164.015H267.421V170.614H271.088V160.882ZM275.915 178.6C275.915 182.32 272.895 185.335 269.169 185.335C265.444 185.335 262.424 182.32 262.424 178.6C262.424 174.881 265.444 171.866 269.169 171.866C272.895 171.866 275.915 174.881 275.915 178.6ZM272.852 178.6C272.852 180.631 271.203 182.278 269.169 182.278C267.135 182.278 265.486 180.631 265.486 178.6C265.486 176.569 267.135 174.923 269.169 174.923C271.203 174.923 272.852 176.569 272.852 178.6Z" fill="white"/>
<path d="M265.173 160.882V160.382H264.812L264.698 160.725L265.173 160.882ZM271.088 160.882H271.588V160.382H271.088V160.882ZM264.135 164.015L263.661 163.858L263.443 164.515H264.135V164.015ZM267.421 164.015H267.921V163.515H267.421V164.015ZM267.421 170.614H266.921V171.114H267.421V170.614ZM271.088 170.614V171.114H271.588V170.614H271.088ZM291.761 173.117C291.761 181.012 289.987 186.62 286.34 190.261C282.693 193.903 277.076 195.675 269.168 195.675V196.675C277.203 196.675 283.133 194.877 287.047 190.969C290.961 187.061 292.761 181.14 292.761 173.117H291.761ZM269.168 150.56C277.076 150.56 282.693 152.332 286.34 155.973C289.987 159.614 291.761 165.222 291.761 173.117H292.761C292.761 165.095 290.961 159.173 287.047 155.265C283.133 151.357 277.203 149.56 269.168 149.56V150.56ZM246.575 173.117C246.575 165.222 248.35 159.614 251.997 155.973C255.644 152.332 261.26 150.56 269.168 150.56V149.56C261.134 149.56 255.204 151.357 251.29 155.265C247.376 159.173 245.575 165.095 245.575 173.117H246.575ZM269.168 195.675C261.26 195.675 255.644 193.903 251.997 190.261C248.35 186.62 246.575 181.012 246.575 173.117H245.575C245.575 181.14 247.376 187.061 251.29 190.969C255.204 194.877 261.134 196.675 269.168 196.675V195.675ZM265.173 161.382H271.088V160.382H265.173V161.382ZM264.61 164.172L265.648 161.039L264.698 160.725L263.661 163.858L264.61 164.172ZM267.421 163.515H264.135V164.515H267.421V163.515ZM267.921 170.614V164.015H266.921V170.614H267.921ZM271.088 170.114H267.421V171.114H271.088V170.114ZM270.588 160.882V170.614H271.588V160.882H270.588ZM269.169 185.835C273.17 185.835 276.415 182.597 276.415 178.6H275.415C275.415 182.043 272.619 184.835 269.169 184.835V185.835ZM261.924 178.6C261.924 182.597 265.169 185.835 269.169 185.835V184.835C265.719 184.835 262.924 182.043 262.924 178.6H261.924ZM269.169 171.366C265.169 171.366 261.924 174.604 261.924 178.6H262.924C262.924 175.158 265.719 172.366 269.169 172.366V171.366ZM276.415 178.6C276.415 174.604 273.17 171.366 269.169 171.366V172.366C272.619 172.366 275.415 175.158 275.415 178.6H276.415ZM269.169 182.778C271.479 182.778 273.352 180.908 273.352 178.6H272.352C272.352 180.354 270.928 181.778 269.169 181.778V182.778ZM264.986 178.6C264.986 180.908 266.86 182.778 269.169 182.778V181.778C267.411 181.778 265.986 180.354 265.986 178.6H264.986ZM269.169 174.423C266.86 174.423 264.986 176.293 264.986 178.6H265.986C265.986 176.846 267.411 175.423 269.169 175.423V174.423ZM273.352 178.6C273.352 176.293 271.479 174.423 269.169 174.423V175.423C270.928 175.423 272.352 176.846 272.352 178.6H273.352Z" fill="white" mask="url(#path-25-inside-2_5753_24257)"/>
<path d="M52.176 361.168C54.324 361.168 55.752 359.788 55.752 357.724V352.6H54.18V357.676C54.18 358.972 53.412 359.776 52.176 359.776C50.94 359.776 50.184 358.972 50.184 357.676V352.6H48.612V357.724C48.612 359.788 50.04 361.168 52.176 361.168ZM57.0749 361H58.6349V358.084H60.4589C62.1989 358.084 63.4109 356.896 63.4109 355.336C63.4109 353.788 62.1989 352.6 60.4589 352.6H57.0749V361ZM58.6349 356.836V353.836H60.3029C61.1909 353.836 61.8269 354.46 61.8269 355.336C61.8269 356.212 61.1909 356.836 60.3029 356.836H58.6349Z" fill="white"/>
<line x1="72.5" y1="356" x2="239.5" y2="356" stroke="white" stroke-linecap="round" stroke-linejoin="round" stroke-dasharray="0.01 4"/>
<line x1="353.5" y1="418" x2="417.5" y2="418" stroke="white" stroke-linecap="round" stroke-linejoin="round" stroke-dasharray="0.01 4"/>
<path d="M430.872 423.24C433.044 423.24 434.748 421.776 434.904 419.784L433.368 419.664C433.224 420.924 432.168 421.848 430.872 421.848C429.288 421.848 428.136 420.552 428.136 418.8C428.136 417.036 429.288 415.74 430.872 415.74C432.156 415.74 433.2 416.616 433.344 417.816L434.88 417.684C434.736 415.764 433.044 414.36 430.872 414.36C428.376 414.36 426.552 416.232 426.552 418.8C426.552 421.368 428.376 423.24 430.872 423.24ZM440.271 423.24C442.767 423.24 444.603 421.368 444.603 418.8C444.603 416.232 442.767 414.36 440.271 414.36C437.775 414.36 435.939 416.232 435.939 418.8C435.939 421.368 437.775 423.24 440.271 423.24ZM437.523 418.8C437.523 417.024 438.687 415.74 440.271 415.74C441.867 415.74 443.019 417.024 443.019 418.8C443.019 420.552 441.867 421.848 440.271 421.848C438.687 421.848 437.523 420.552 437.523 418.8ZM445.856 423H447.38L447.32 417.024L451.424 423H452.996V414.6H451.46L451.52 420.576L447.416 414.6H445.856V423ZM454.376 423H455.936V419.484H459.644V418.272H455.936V415.836H459.884V414.6H454.376V423ZM461.033 423H462.581V414.6H461.033V423ZM464.032 423H465.58V419.772H467.368C468.244 419.772 468.676 420.168 468.748 420.96L468.856 422.28C468.88 422.556 468.928 422.808 468.988 423H470.572C470.476 422.784 470.428 422.556 470.404 422.16L470.296 420.84C470.212 419.748 469.612 419.124 468.52 419.052C469.708 418.932 470.536 418.104 470.536 416.928C470.536 415.524 469.396 414.6 467.608 414.6H464.032V423ZM465.58 418.548V415.836H467.536C468.364 415.836 468.952 416.4 468.952 417.204C468.952 418.02 468.364 418.548 467.536 418.548H465.58ZM471.837 423H473.349L473.253 416.352L475.509 423H477.117L479.373 416.352L479.277 423H480.801V414.6H478.485L476.325 421.38L474.165 414.6H471.837V423Z" fill="white"/>
<line x1="394.5" y1="316" x2="434.5" y2="316" stroke="white" stroke-linecap="round" stroke-linejoin="round" stroke-dasharray="0.01 4"/>
<path d="M443.696 321H449.156V319.716H445.256V312.6H443.696V321ZM453.919 321.24C456.415 321.24 458.251 319.368 458.251 316.8C458.251 314.232 456.415 312.36 453.919 312.36C451.423 312.36 449.587 314.232 449.587 316.8C449.587 319.368 451.423 321.24 453.919 321.24ZM451.171 316.8C451.171 315.024 452.335 313.74 453.919 313.74C455.515 313.74 456.667 315.024 456.667 316.8C456.667 318.552 455.515 319.848 453.919 319.848C452.335 319.848 451.171 318.552 451.171 316.8ZM463.681 321.24C465.853 321.24 467.557 319.776 467.713 317.784L466.177 317.664C466.033 318.924 464.977 319.848 463.681 319.848C462.097 319.848 460.945 318.552 460.945 316.8C460.945 315.036 462.097 313.74 463.681 313.74C464.965 313.74 466.009 314.616 466.153 315.816L467.689 315.684C467.545 313.764 465.853 312.36 463.681 312.36C461.185 312.36 459.361 314.232 459.361 316.8C459.361 319.368 461.185 321.24 463.681 321.24ZM468.88 321H470.404V318.48L471.736 317.052L474.352 321H476.128L472.732 315.996L475.888 312.6H473.98L470.404 316.512V312.6H468.88V321Z" fill="white"/>
<path d="M294.005 482C294.281 482 294.505 481.776 294.505 481.5C294.505 481.224 294.281 481 294.005 481L294.005 482ZM297.995 481C297.719 481 297.495 481.224 297.495 481.5C297.495 481.776 297.719 482 297.995 482L297.995 481ZM298.005 482C298.281 482 298.505 481.776 298.505 481.5C298.505 481.224 298.281 481 298.005 481L298.005 482ZM301.995 481C301.719 481 301.495 481.224 301.495 481.5C301.495 481.776 301.719 482 301.995 482L301.995 481ZM302.005 482C302.281 482 302.505 481.776 302.505 481.5C302.505 481.224 302.281 481 302.005 481L302.005 482ZM305.995 481C305.719 481 305.495 481.224 305.495 481.5C305.495 481.776 305.719 482 305.995 482L305.995 481ZM306.005 482C306.281 482 306.505 481.776 306.505 481.5C306.505 481.224 306.281 481 306.005 481L306.005 482ZM309.995 481C309.719 481 309.495 481.224 309.495 481.5C309.495 481.776 309.719 482 309.995 482L309.995 481ZM310.005 482C310.281 482 310.505 481.776 310.505 481.5C310.505 481.224 310.281 481 310.005 481L310.005 482ZM313.995 481C313.719 481 313.495 481.224 313.495 481.5C313.495 481.776 313.719 482 313.995 482L313.995 481ZM314.005 482C314.281 482 314.505 481.776 314.505 481.5C314.505 481.224 314.281 481 314.005 481L314.005 482ZM317.995 481C317.719 481 317.495 481.224 317.495 481.5C317.495 481.776 317.719 482 317.995 482L317.995 481ZM318.005 482C318.281 482 318.505 481.776 318.505 481.5C318.505 481.224 318.281 481 318.005 481L318.005 482ZM321.995 481C321.719 481 321.495 481.224 321.495 481.5C321.495 481.776 321.719 482 321.995 482L321.995 481ZM322.005 482C322.281 482 322.505 481.776 322.505 481.5C322.505 481.224 322.281 481 322.005 481L322.005 482ZM325.995 481C325.719 481 325.495 481.224 325.495 481.5C325.495 481.776 325.719 482 325.995 482L325.995 481ZM326.005 482C326.281 482 326.505 481.776 326.505 481.5C326.505 481.224 326.281 481 326.005 481L326.005 482ZM329.995 481C329.719 481 329.495 481.224 329.495 481.5C329.495 481.776 329.719 482 329.995 482L329.995 481ZM330.005 482C330.281 482 330.505 481.776 330.505 481.5C330.505 481.224 330.281 481 330.005 481L330.005 482ZM333.995 481C333.719 481 333.495 481.224 333.495 481.5C333.495 481.776 333.719 482 333.995 482L333.995 481ZM334.005 482C334.281 482 334.505 481.776 334.505 481.5C334.505 481.224 334.281 481 334.005 481L334.005 482ZM337.995 481C337.719 481 337.495 481.224 337.495 481.5C337.495 481.776 337.719 482 337.995 482L337.995 481ZM338.005 482C338.281 482 338.505 481.776 338.505 481.5C338.505 481.224 338.281 481 338.005 481L338.005 482ZM341.995 481C341.719 481 341.495 481.224 341.495 481.5C341.495 481.776 341.719 482 341.995 482L341.995 481ZM342.005 482C342.281 482 342.505 481.776 342.505 481.5C342.505 481.224 342.281 481 342.005 481L342.005 482ZM345.995 481C345.719 481 345.495 481.224 345.495 481.5C345.495 481.776 345.719 482 345.995 482L345.995 481ZM346.005 482C346.281 482 346.505 481.776 346.505 481.5C346.505 481.224 346.281 481 346.005 481L346.005 482ZM349.995 481C349.719 481 349.495 481.224 349.495 481.5C349.495 481.776 349.719 482 349.995 482L349.995 481ZM350.005 482C350.281 482 350.505 481.776 350.505 481.5C350.505 481.224 350.281 481 350.005 481L350.005 482ZM353.995 481C353.719 481 353.495 481.224 353.495 481.5C353.495 481.776 353.719 482 353.995 482L353.995 481ZM354.005 482C354.281 482 354.505 481.776 354.505 481.5C354.505 481.224 354.281 481 354.005 481L354.005 482ZM357.995 481C357.719 481 357.495 481.224 357.495 481.5C357.495 481.776 357.719 482 357.995 482L357.995 481ZM358.005 482C358.281 482 358.505 481.776 358.505 481.5C358.505 481.224 358.281 481 358.005 481L358.005 482ZM361.995 481C361.719 481 361.495 481.224 361.495 481.5C361.495 481.776 361.719 482 361.995 482L361.995 481ZM362.005 482C362.281 482 362.505 481.776 362.505 481.5C362.505 481.224 362.281 481 362.005 481L362.005 482ZM365.995 481C365.719 481 365.495 481.224 365.495 481.5C365.495 481.776 365.719 482 365.995 482L365.995 481ZM366.005 482C366.281 482 366.505 481.776 366.505 481.5C366.505 481.224 366.281 481 366.005 481L366.005 482ZM369.995 481C369.719 481 369.495 481.224 369.495 481.5C369.495 481.776 369.719 482 369.995 482L369.995 481ZM370.005 482C370.281 482 370.505 481.776 370.505 481.5C370.505 481.224 370.281 481 370.005 481L370.005 482ZM373.995 481C373.719 481 373.495 481.224 373.495 481.5C373.495 481.776 373.719 482 373.995 482L373.995 481ZM374.005 482C374.281 482 374.505 481.776 374.505 481.5C374.505 481.224 374.281 481 374.005 481L374.005 482ZM377.995 481C377.719 481 377.495 481.224 377.495 481.5C377.495 481.776 377.719 482 377.995 482L377.995 481ZM378.005 482C378.281 482 378.505 481.776 378.505 481.5C378.505 481.224 378.281 481 378.005 481L378.005 482ZM381.995 481C381.719 481 381.495 481.224 381.495 481.5C381.495 481.776 381.719 482 381.995 482L381.995 481ZM382.005 482C382.281 482 382.505 481.776 382.505 481.5C382.505 481.224 382.281 481 382.005 481L382.005 482ZM385.995 481C385.719 481 385.495 481.224 385.495 481.5C385.495 481.776 385.719 482 385.995 482L385.995 481ZM386.005 482C386.281 482 386.505 481.776 386.505 481.5C386.505 481.224 386.281 481 386.005 481L386.005 482ZM389.995 481C389.719 481 389.495 481.224 389.495 481.5C389.495 481.776 389.719 482 389.995 482L389.995 481ZM390.005 482C390.281 482 390.505 481.776 390.505 481.5C390.505 481.224 390.281 481 390.005 481L390.005 482ZM393.995 481C393.719 481 393.495 481.224 393.495 481.5C393.495 481.776 393.719 482 393.995 482L393.995 481ZM394.005 482C394.281 482 394.505 481.776 394.505 481.5C394.505 481.224 394.281 481 394.005 481L394.005 482ZM397.995 481C397.719 481 397.495 481.224 397.495 481.5C397.495 481.776 397.719 482 397.995 482L397.995 481ZM398.005 482C398.281 482 398.505 481.776 398.505 481.5C398.505 481.224 398.281 481 398.005 481L398.005 482ZM401.995 481C401.719 481 401.495 481.224 401.495 481.5C401.495 481.776 401.719 482 401.995 482L401.995 481ZM402.005 482C402.281 482 402.505 481.776 402.505 481.5C402.505 481.224 402.281 481 402.005 481L402.005 482ZM405.995 481C405.719 481 405.495 481.224 405.495 481.5C405.495 481.776 405.719 482 405.995 482L405.995 481ZM406.005 482C406.281 482 406.505 481.776 406.505 481.5C406.505 481.224 406.281 481 406.005 481L406.005 482ZM409.995 481C409.719 481 409.495 481.224 409.495 481.5C409.495 481.776 409.719 482 409.995 482L409.995 481ZM410.005 482C410.281 482 410.505 481.776 410.505 481.5C410.505 481.224 410.281 481 410.005 481L410.005 482ZM413.995 481C413.719 481 413.495 481.224 413.495 481.5C413.495 481.776 413.719 482 413.995 482L413.995 481ZM414.005 482C414.281 482 414.505 481.776 414.505 481.5C414.505 481.224 414.281 481 414.005 481L414.005 482ZM417.995 481C417.719 481 417.495 481.224 417.495 481.5C417.495 481.776 417.719 482 417.995 482L417.995 481ZM418.005 482C418.281 482 418.505 481.776 418.505 481.5C418.505 481.224 418.281 481 418.005 481L418.005 482ZM421.995 481C421.719 481 421.495 481.224 421.495 481.5C421.495 481.776 421.719 482 421.995 482L421.995 481ZM422.005 482C422.281 482 422.505 481.776 422.505 481.5C422.505 481.224 422.281 481 422.005 481L422.005 482ZM425.995 481C425.719 481 425.495 481.224 425.495 481.5C425.495 481.776 425.719 482 425.995 482L425.995 481ZM426.005 482C426.281 482 426.505 481.776 426.505 481.5C426.505 481.224 426.281 481 426.005 481L426.005 482ZM429.995 481C429.719 481 429.495 481.224 429.495 481.5C429.495 481.776 429.719 482 429.995 482L429.995 481ZM430.005 482C430.281 482 430.505 481.776 430.505 481.5C430.505 481.224 430.281 481 430.005 481L430.005 482ZM433.995 481C433.719 481 433.495 481.224 433.495 481.5C433.495 481.776 433.719 482 433.995 482L433.995 481ZM434.005 482C434.281 482 434.505 481.776 434.505 481.5C434.505 481.224 434.281 481 434.005 481L434.005 482ZM437.995 481C437.719 481 437.495 481.224 437.495 481.5C437.495 481.776 437.719 482 437.995 482L437.995 481ZM294 482L294.005 482L294.005 481L294 481L294 482ZM297.995 482L298.005 482L298.005 481L297.995 481L297.995 482ZM301.995 482L302.005 482L302.005 481L301.995 481L301.995 482ZM305.995 482L306.005 482L306.005 481L305.995 481L305.995 482ZM309.995 482L310.005 482L310.005 481L309.995 481L309.995 482ZM313.995 482L314.005 482L314.005 481L313.995 481L313.995 482ZM317.995 482L318.005 482L318.005 481L317.995 481L317.995 482ZM321.995 482L322.005 482L322.005 481L321.995 481L321.995 482ZM325.995 482L326.005 482L326.005 481L325.995 481L325.995 482ZM329.995 482L330.005 482L330.005 481L329.995 481L329.995 482ZM333.995 482L334.005 482L334.005 481L333.995 481L333.995 482ZM337.995 482L338.005 482L338.005 481L337.995 481L337.995 482ZM341.995 482L342.005 482L342.005 481L341.995 481L341.995 482ZM345.995 482L346.005 482L346.005 481L345.995 481L345.995 482ZM349.995 482L350.005 482L350.005 481L349.995 481L349.995 482ZM353.995 482L354.005 482L354.005 481L353.995 481L353.995 482ZM357.995 482L358.005 482L358.005 481L357.995 481L357.995 482ZM361.995 482L362.005 482L362.005 481L361.995 481L361.995 482ZM365.995 482L366.005 482L366.005 481L365.995 481L365.995 482ZM369.995 482L370.005 482L370.005 481L369.995 481L369.995 482ZM373.995 482L374.005 482L374.005 481L373.995 481L373.995 482ZM377.995 482L378.005 482L378.005 481L377.995 481L377.995 482ZM381.995 482L382.005 482L382.005 481L381.995 481L381.995 482ZM385.995 482L386.005 482L386.005 481L385.995 481L385.995 482ZM389.995 482L390.005 482L390.005 481L389.995 481L389.995 482ZM393.995 482L394.005 482L394.005 481L393.995 481L393.995 482ZM397.995 482L398.005 482L398.005 481L397.995 481L397.995 482ZM401.995 482L402.005 482L402.005 481L401.995 481L401.995 482ZM405.995 482L406.005 482L406.005 481L405.995 481L405.995 482ZM409.995 482L410.005 482L410.005 481L409.995 481L409.995 482ZM413.995 482L414.005 482L414.005 481L413.995 481L413.995 482ZM417.995 482L418.005 482L418.005 481L417.995 481L417.995 482ZM421.995 482L422.005 482L422.005 481L421.995 481L421.995 482ZM425.995 482L426.005 482L426.005 481L425.995 481L425.995 482ZM429.995 482L430.005 482L430.005 481L429.995 481L429.995 482ZM433.995 482L434.005 482L434.005 481L433.995 481L433.995 482ZM437.995 482L438 482L438 481L437.995 481L437.995 482Z" fill="white"/>
<path d="M446.696 486H449.912C452.504 486 454.232 484.32 454.232 481.8C454.232 479.28 452.504 477.6 449.912 477.6H446.696V486ZM448.244 484.764V478.836H449.876C451.544 478.836 452.648 480.024 452.648 481.8C452.648 483.576 451.544 484.764 449.876 484.764H448.244ZM459.673 486.24C462.169 486.24 464.005 484.368 464.005 481.8C464.005 479.232 462.169 477.36 459.673 477.36C457.177 477.36 455.341 479.232 455.341 481.8C455.341 484.368 457.177 486.24 459.673 486.24ZM456.925 481.8C456.925 480.024 458.089 478.74 459.673 478.74C461.269 478.74 462.421 480.024 462.421 481.8C462.421 483.552 461.269 484.848 459.673 484.848C458.089 484.848 456.925 483.552 456.925 481.8ZM466.818 486H468.582L470.274 479.532L471.954 486H473.706L476.118 477.6H474.462L472.806 484.008L471.186 477.6H469.362L467.754 484.008L466.062 477.6H464.382L466.818 486ZM477.141 486H478.665L478.605 480.024L482.709 486H484.281V477.6H482.745L482.805 483.576L478.701 477.6H477.141V486Z" fill="white"/>
<g clip-path="url(#clip0_5753_24257)">
<line x1="265.999" y1="650.403" x2="265.999" y2="625.5" stroke="white" stroke-linecap="round" stroke-linejoin="round" stroke-dasharray="0.01 4"/>
</g>
<path d="M236.422 663.881C238.57 663.881 239.998 662.501 239.998 660.437V655.313H238.426V660.389C238.426 661.685 237.658 662.489 236.422 662.489C235.186 662.489 234.43 661.685 234.43 660.389V655.313H232.858V660.437C232.858 662.501 234.286 663.881 236.422 663.881ZM244.513 663.929C246.457 663.929 247.801 662.873 247.801 661.325C247.801 659.981 246.877 659.117 245.101 658.817L244.045 658.625C243.337 658.481 242.893 658.109 242.893 657.509C242.893 656.789 243.517 656.309 244.357 656.309C245.293 656.309 245.977 656.957 246.025 657.917L247.561 657.821C247.513 656.225 246.169 655.097 244.369 655.097C242.593 655.097 241.333 656.081 241.333 657.629C241.333 658.925 242.269 659.825 243.901 660.113L244.957 660.293C245.833 660.473 246.253 660.809 246.253 661.433C246.253 662.189 245.545 662.705 244.537 662.705C243.445 662.705 242.653 662.009 242.617 660.977L241.105 661.073C241.117 662.753 242.545 663.929 244.513 663.929ZM248.985 663.713H252.993C254.553 663.713 255.645 662.801 255.645 661.469C255.645 660.389 254.925 659.597 253.809 659.441C254.721 659.261 255.369 658.505 255.369 657.533C255.369 656.261 254.277 655.313 252.717 655.313H248.985V663.713ZM250.509 662.513V660.053H252.813C253.581 660.053 254.109 660.557 254.109 661.289C254.109 662.009 253.581 662.513 252.813 662.513H250.509ZM250.509 658.901V656.489H252.549C253.329 656.489 253.869 656.993 253.869 657.689C253.869 658.397 253.329 658.901 252.549 658.901H250.509ZM258.942 660.965H262.566V659.741H258.942V660.965ZM270.235 663.953C272.407 663.953 274.111 662.489 274.267 660.497L272.731 660.377C272.587 661.637 271.531 662.561 270.235 662.561C268.651 662.561 267.499 661.265 267.499 659.513C267.499 657.749 268.651 656.453 270.235 656.453C271.519 656.453 272.563 657.329 272.707 658.529L274.243 658.397C274.099 656.477 272.407 655.073 270.235 655.073C267.739 655.073 265.915 656.945 265.915 659.513C265.915 662.081 267.739 663.953 270.235 663.953ZM277.719 663.713H279.279V660.797H281.103C282.843 660.797 284.055 659.609 284.055 658.049C284.055 656.501 282.843 655.313 281.103 655.313H277.719V663.713ZM279.279 659.549V656.549H280.947C281.835 656.549 282.471 657.173 282.471 658.049C282.471 658.925 281.835 659.549 280.947 659.549H279.279ZM287.841 663.893C289.665 663.893 290.985 662.561 290.985 660.689C290.985 658.829 289.665 657.497 287.841 657.497C286.005 657.497 284.685 658.829 284.685 660.689C284.685 662.561 286.005 663.893 287.841 663.893ZM286.185 660.689C286.185 659.561 286.857 658.757 287.841 658.757C288.813 658.757 289.485 659.561 289.485 660.689C289.485 661.829 288.813 662.633 287.841 662.633C286.857 662.633 286.185 661.829 286.185 660.689ZM292.003 663.713H293.491V661.145C293.491 659.501 294.571 658.973 295.735 659.141V657.665C294.715 657.461 293.719 657.929 293.455 659.333L293.491 657.677H292.003V663.713ZM300.195 663.665L300.183 662.417C299.547 662.609 298.911 662.537 298.911 661.577V658.913H300.363V657.677H298.911V656.153H297.423V657.677H296.331V658.913H297.423V661.697C297.423 663.665 298.875 664.037 300.195 663.665Z" fill="white"/>
<path d="M48.696 424H52.704C54.264 424 55.356 423.088 55.356 421.756C55.356 420.676 54.636 419.884 53.52 419.728C54.432 419.548 55.08 418.792 55.08 417.82C55.08 416.548 53.988 415.6 52.428 415.6H48.696V424ZM50.22 422.8V420.34H52.524C53.292 420.34 53.82 420.844 53.82 421.576C53.82 422.296 53.292 422.8 52.524 422.8H50.22ZM50.22 419.188V416.776H52.26C53.04 416.776 53.58 417.28 53.58 417.976C53.58 418.684 53.04 419.188 52.26 419.188H50.22ZM55.9747 424H57.4867L58.2907 421.828H61.8307L62.6227 424H64.2307L61.0867 415.6H59.1187L55.9747 424ZM58.7347 420.604L60.0667 416.98L61.3867 420.604H58.7347ZM68.7626 424.24C70.9346 424.24 72.6386 422.776 72.7946 420.784L71.2586 420.664C71.1146 421.924 70.0586 422.848 68.7626 422.848C67.1786 422.848 66.0266 421.552 66.0266 419.8C66.0266 418.036 67.1786 416.74 68.7626 416.74C70.0466 416.74 71.0906 417.616 71.2346 418.816L72.7706 418.684C72.6266 416.764 70.9346 415.36 68.7626 415.36C66.2666 415.36 64.4426 417.232 64.4426 419.8C64.4426 422.368 66.2666 424.24 68.7626 424.24ZM73.9616 424H75.4856V421.48L76.8176 420.052L79.4336 424H81.2096L77.8136 418.996L80.9696 415.6H79.0616L75.4856 419.512V415.6H73.9616V424Z" fill="white"/>
<line x1="90.5" y1="419" x2="180.5" y2="419" stroke="white" stroke-linecap="round" stroke-linejoin="round" stroke-dasharray="0.01 4"/>
<mask id="path-39-inside-3_5753_24257" fill="white">
<path d="M152 593.157C152 591.369 153.45 589.919 155.238 589.919H377.034C378.822 589.919 380.272 591.369 380.272 593.157V602.061C380.272 616.367 368.675 627.964 354.369 627.964H177.903C163.597 627.964 152 616.367 152 602.061V593.157Z"/>
</mask>
<path d="M155.238 590.419H377.034V589.419H155.238V590.419ZM379.772 593.157V602.061H380.772V593.157H379.772ZM354.369 627.464H177.903V628.464H354.369V627.464ZM152.5 602.061V593.157H151.5V602.061H152.5ZM177.903 627.464C163.873 627.464 152.5 616.091 152.5 602.061H151.5C151.5 616.643 163.321 628.464 177.903 628.464V627.464ZM379.772 602.061C379.772 616.091 368.399 627.464 354.369 627.464V628.464C368.951 628.464 380.772 616.643 380.772 602.061H379.772ZM377.034 590.419C378.546 590.419 379.772 591.645 379.772 593.157H380.772C380.772 591.092 379.099 589.419 377.034 589.419V590.419ZM155.238 589.419C153.174 589.419 151.5 591.092 151.5 593.157H152.5C152.5 591.645 153.726 590.419 155.238 590.419V589.419Z" fill="white" mask="url(#path-39-inside-3_5753_24257)"/>
<rect x="245.339" y="601.502" width="41.5927" height="14.88" rx="7.44002" stroke="white" stroke-width="0.5"/>
<rect x="253.185" y="606.918" width="25.9032" height="4.04738" rx="2.02369" fill="white"/>
<defs>
<clipPath id="clip0_5753_24257">
<rect width="64.7581" height="23.4748" fill="white" transform="translate(234.121 625)"/>
</clipPath>
</defs>
</svg>
