<svg width="388" height="589" viewBox="0 0 388 589" fill="none" xmlns="http://www.w3.org/2000/svg">
<path d="M94.1425 67.399C94.1425 56.295 103.131 47.2942 114.218 47.2942H272.652C283.74 47.2942 292.728 56.295 292.728 67.3991V459.601C292.728 470.705 283.74 479.706 272.652 479.706H114.218C103.131 479.706 94.1425 470.705 94.1425 459.601V67.399Z" stroke="white" stroke-width="0.588315"/>
<mask id="path-2-inside-1_5753_23371" fill="white">
<path d="M293.023 247.689C294.509 247.689 295.714 248.894 295.714 250.381V287.724C295.714 289.211 294.509 290.416 293.023 290.416V247.689Z"/>
</mask>
<path d="M293.023 247.689C294.509 247.689 295.714 248.894 295.714 250.381V287.724C295.714 289.211 294.509 290.416 293.023 290.416V247.689Z" fill="white"/>
<path d="M295.126 250.381V287.724H296.302V250.381H295.126ZM293.611 290.416V247.689H292.434V290.416H293.611ZM295.126 287.724C295.126 288.886 294.184 289.828 293.023 289.828V291.004C294.834 291.004 296.302 289.536 296.302 287.724H295.126ZM293.023 248.278C294.184 248.278 295.126 249.219 295.126 250.381H296.302C296.302 248.57 294.834 247.101 293.023 247.101V248.278Z" fill="white" mask="url(#path-2-inside-1_5753_23371)"/>
<path d="M252.974 357.767C252.414 357.767 251.96 357.313 251.96 356.752C251.96 356.192 252.414 355.738 252.974 355.738C253.534 355.738 253.988 356.192 253.988 356.752C253.988 357.313 253.534 357.767 252.974 357.767Z" fill="white" stroke="white" stroke-width="0.588315"/>
<path d="M248.613 353.873C248.054 353.873 247.6 353.418 247.6 352.858C247.6 352.297 248.054 351.843 248.613 351.843C249.173 351.843 249.627 352.297 249.627 352.858C249.627 353.418 249.173 353.873 248.613 353.873Z" fill="white" stroke="white" stroke-width="0.588315"/>
<path d="M243.404 349.915C242.844 349.915 242.39 349.461 242.39 348.901C242.39 348.34 242.844 347.886 243.404 347.886C243.963 347.886 244.418 348.34 244.418 348.901C244.418 349.461 243.963 349.915 243.404 349.915Z" fill="white" stroke="white" stroke-width="0.588315"/>
<path d="M248.613 362.133C248.054 362.133 247.6 361.679 247.6 361.118C247.6 360.558 248.054 360.104 248.613 360.104C249.173 360.104 249.627 360.558 249.627 361.118C249.627 361.679 249.173 362.133 248.613 362.133Z" fill="white" stroke="white" stroke-width="0.588315"/>
<path d="M243.404 366.497C242.844 366.497 242.39 366.043 242.39 365.482C242.39 364.921 242.844 364.467 243.404 364.467C243.963 364.467 244.418 364.921 244.418 365.482C244.418 366.043 243.963 366.497 243.404 366.497Z" fill="white" stroke="white" stroke-width="0.588315"/>
<path d="M133.519 357.767C134.078 357.767 134.532 357.313 134.532 356.752C134.532 356.192 134.078 355.738 133.519 355.738C132.959 355.738 132.505 356.192 132.505 356.752C132.505 357.313 132.959 357.767 133.519 357.767Z" fill="white" stroke="white" stroke-width="0.588315"/>
<path d="M137.879 353.873C138.439 353.873 138.893 353.418 138.893 352.858C138.893 352.297 138.439 351.843 137.879 351.843C137.32 351.843 136.866 352.297 136.866 352.858C136.866 353.418 137.32 353.873 137.879 353.873Z" fill="white" stroke="white" stroke-width="0.588315"/>
<path d="M143.089 349.915C143.648 349.915 144.103 349.461 144.103 348.901C144.103 348.34 143.648 347.886 143.089 347.886C142.529 347.886 142.075 348.34 142.075 348.901C142.075 349.461 142.529 349.915 143.089 349.915Z" fill="white" stroke="white" stroke-width="0.588315"/>
<path d="M137.879 362.133C138.439 362.133 138.893 361.679 138.893 361.118C138.893 360.558 138.439 360.104 137.879 360.104C137.32 360.104 136.866 360.558 136.866 361.118C136.866 361.679 137.32 362.133 137.879 362.133Z" fill="white" stroke="white" stroke-width="0.588315"/>
<path d="M143.089 366.497C143.648 366.497 144.103 366.043 144.103 365.482C144.103 364.921 143.648 364.467 143.089 364.467C142.529 364.467 142.075 364.921 142.075 365.482C142.075 366.043 142.529 366.497 143.089 366.497Z" fill="white" stroke="white" stroke-width="0.588315"/>
<path d="M193.754 297.416C193.754 297.977 193.3 298.431 192.74 298.431C192.18 298.431 191.726 297.977 191.726 297.416C191.726 296.856 192.18 296.402 192.74 296.402C193.3 296.402 193.754 296.856 193.754 297.416Z" fill="white" stroke="white" stroke-width="0.588315"/>
<path d="M189.861 301.781C189.861 302.341 189.407 302.795 188.847 302.795C188.287 302.795 187.833 302.341 187.833 301.781C187.833 301.22 188.287 300.766 188.847 300.766C189.407 300.766 189.861 301.22 189.861 301.781Z" fill="white" stroke="white" stroke-width="0.588315"/>
<path d="M185.908 306.995C185.908 307.556 185.454 308.01 184.894 308.01C184.334 308.01 183.88 307.556 183.88 306.995C183.88 306.435 184.334 305.981 184.894 305.981C185.454 305.981 185.908 306.435 185.908 306.995Z" fill="white" stroke="white" stroke-width="0.588315"/>
<path d="M198.114 301.781C198.114 302.341 197.66 302.795 197.1 302.795C196.541 302.795 196.087 302.341 196.087 301.781C196.087 301.22 196.541 300.766 197.1 300.766C197.66 300.766 198.114 301.22 198.114 301.781Z" fill="white" stroke="white" stroke-width="0.588315"/>
<path d="M202.477 306.995C202.477 307.556 202.023 308.01 201.464 308.01C200.904 308.01 200.45 307.556 200.45 306.995C200.45 306.435 200.904 305.981 201.464 305.981C202.023 305.981 202.477 306.435 202.477 306.995Z" fill="white" stroke="white" stroke-width="0.588315"/>
<path d="M193.754 422.417C193.754 421.856 193.3 421.402 192.74 421.402C192.18 421.402 191.726 421.856 191.726 422.417C191.726 422.977 192.18 423.431 192.74 423.431C193.3 423.431 193.754 422.977 193.754 422.417Z" fill="white" stroke="white" stroke-width="0.588315"/>
<path d="M189.863 418.052C189.863 417.492 189.409 417.038 188.85 417.038C188.29 417.038 187.836 417.492 187.836 418.052C187.836 418.613 188.29 419.067 188.85 419.067C189.409 419.067 189.863 418.613 189.863 418.052Z" fill="white" stroke="white" stroke-width="0.588315"/>
<path d="M185.908 412.839C185.908 412.278 185.454 411.824 184.894 411.824C184.334 411.824 183.88 412.278 183.88 412.839C183.88 413.399 184.334 413.853 184.894 413.853C185.454 413.853 185.908 413.399 185.908 412.839Z" fill="white" stroke="white" stroke-width="0.588315"/>
<path d="M198.114 418.052C198.114 417.492 197.66 417.038 197.101 417.038C196.541 417.038 196.087 417.492 196.087 418.052C196.087 418.613 196.541 419.067 197.101 419.067C197.66 419.067 198.114 418.613 198.114 418.052Z" fill="white" stroke="white" stroke-width="0.588315"/>
<path d="M202.477 412.839C202.477 412.278 202.023 411.824 201.464 411.824C200.904 411.824 200.45 412.278 200.45 412.839C200.45 413.399 200.904 413.853 201.464 413.853C202.023 413.853 202.477 413.399 202.477 412.839Z" fill="white" stroke="white" stroke-width="0.588315"/>
<path d="M116.852 75.0749C116.852 72.2738 119.122 70.0031 121.923 70.0031H264.948C267.749 70.0031 270.019 72.2738 270.019 75.0749V222.806C270.019 225.607 267.749 227.878 264.948 227.878H121.923C119.122 227.878 116.852 225.607 116.852 222.806V75.0749Z" stroke="white" stroke-width="0.588315"/>
<mask id="path-25-inside-2_5753_23371" fill="white">
<path fill-rule="evenodd" clip-rule="evenodd" d="M193.605 165.818C207.414 165.818 213.607 159.634 213.607 145.846C213.607 132.058 207.414 125.874 193.605 125.874C179.796 125.874 173.602 132.058 173.602 145.846C173.602 159.634 179.796 165.818 193.605 165.818ZM195.267 135.248H190.144L189.245 137.961H192.091V143.677H195.267V135.248ZM199.448 150.595C199.448 153.816 196.832 156.428 193.606 156.428C190.379 156.428 187.763 153.816 187.763 150.595C187.763 147.373 190.379 144.761 193.606 144.761C196.832 144.761 199.448 147.373 199.448 150.595ZM196.796 150.595C196.796 152.354 195.367 153.78 193.606 153.78C191.844 153.78 190.415 152.354 190.415 150.595C190.415 148.835 191.844 147.409 193.606 147.409C195.367 147.409 196.796 148.835 196.796 150.595Z"/>
</mask>
<path fill-rule="evenodd" clip-rule="evenodd" d="M193.605 165.818C207.414 165.818 213.607 159.634 213.607 145.846C213.607 132.058 207.414 125.874 193.605 125.874C179.796 125.874 173.602 132.058 173.602 145.846C173.602 159.634 179.796 165.818 193.605 165.818ZM195.267 135.248H190.144L189.245 137.961H192.091V143.677H195.267V135.248ZM199.448 150.595C199.448 153.816 196.832 156.428 193.606 156.428C190.379 156.428 187.763 153.816 187.763 150.595C187.763 147.373 190.379 144.761 193.606 144.761C196.832 144.761 199.448 147.373 199.448 150.595ZM196.796 150.595C196.796 152.354 195.367 153.78 193.606 153.78C191.844 153.78 190.415 152.354 190.415 150.595C190.415 148.835 191.844 147.409 193.606 147.409C195.367 147.409 196.796 148.835 196.796 150.595Z" fill="white"/>
<path d="M190.144 135.248V134.66H189.719L189.586 135.063L190.144 135.248ZM195.267 135.248H195.855V134.66H195.267V135.248ZM189.245 137.961L188.687 137.777L188.431 138.55H189.245V137.961ZM192.091 137.961H192.679V137.373H192.091V137.961ZM192.091 143.677H191.503V144.265H192.091V143.677ZM195.267 143.677V144.265H195.855V143.677H195.267ZM213.019 145.846C213.019 152.665 211.486 157.473 208.369 160.586C205.251 163.699 200.435 165.229 193.605 165.229V166.406C200.583 166.406 205.768 164.845 209.2 161.419C212.632 157.992 214.196 152.815 214.196 145.846H213.019ZM193.605 126.462C200.435 126.462 205.251 127.993 208.369 131.106C211.486 134.218 213.019 139.027 213.019 145.846H214.196C214.196 138.877 212.632 133.7 209.2 130.273C205.768 126.847 200.583 125.286 193.605 125.286V126.462ZM174.19 145.846C174.19 139.027 175.723 134.218 178.841 131.106C181.958 127.993 186.775 126.462 193.605 126.462V125.286C186.626 125.286 181.441 126.847 178.009 130.273C174.577 133.7 173.014 138.877 173.014 145.846H174.19ZM193.605 165.229C186.775 165.229 181.958 163.699 178.841 160.586C175.723 157.473 174.19 152.665 174.19 145.846H173.014C173.014 152.815 174.577 157.992 178.009 161.419C181.441 164.845 186.626 166.406 193.605 166.406V165.229ZM190.144 135.836H195.267V134.66H190.144V135.836ZM189.804 138.146L190.703 135.433L189.586 135.063L188.687 137.777L189.804 138.146ZM192.091 137.373H189.245V138.55H192.091V137.373ZM192.679 143.677V137.961H191.503V143.677H192.679ZM195.267 143.089H192.091V144.265H195.267V143.089ZM194.679 135.248V143.677H195.855V135.248H194.679ZM193.606 157.016C197.156 157.016 200.036 154.142 200.036 150.595H198.86C198.86 153.491 196.508 155.84 193.606 155.84V157.016ZM187.175 150.595C187.175 154.142 190.055 157.016 193.606 157.016V155.84C190.703 155.84 188.351 153.491 188.351 150.595H187.175ZM193.606 144.173C190.055 144.173 187.175 147.047 187.175 150.595H188.351C188.351 147.699 190.703 145.349 193.606 145.349V144.173ZM200.036 150.595C200.036 147.047 197.156 144.173 193.606 144.173V145.349C196.508 145.349 198.86 147.699 198.86 150.595H200.036ZM193.606 154.368C195.691 154.368 197.384 152.679 197.384 150.595H196.207C196.207 152.028 195.043 153.191 193.606 153.191V154.368ZM189.827 150.595C189.827 152.679 191.52 154.368 193.606 154.368V153.191C192.168 153.191 191.004 152.028 191.004 150.595H189.827ZM193.606 146.821C191.52 146.821 189.827 148.51 189.827 150.595H191.004C191.004 149.161 192.168 147.998 193.606 147.998V146.821ZM197.384 150.595C197.384 148.51 195.691 146.821 193.606 146.821V147.998C195.043 147.998 196.207 149.161 196.207 150.595H197.384Z" fill="white" mask="url(#path-25-inside-2_5753_23371)"/>
<path d="M36.176 307.168C38.324 307.168 39.752 305.788 39.752 303.724V298.6H38.18V303.676C38.18 304.972 37.412 305.776 36.176 305.776C34.94 305.776 34.184 304.972 34.184 303.676V298.6H32.612V303.724C32.612 305.788 34.04 307.168 36.176 307.168ZM41.0749 307H42.6349V304.084H44.4589C46.1989 304.084 47.4109 302.896 47.4109 301.336C47.4109 299.788 46.1989 298.6 44.4589 298.6H41.0749V307ZM42.6349 302.836V299.836H44.3029C45.1909 299.836 45.8269 300.46 45.8269 301.336C45.8269 302.212 45.1909 302.836 44.3029 302.836H42.6349Z" fill="white"/>
<line x1="56.5" y1="302" x2="175.5" y2="302" stroke="white" stroke-linecap="round" stroke-linejoin="round" stroke-dasharray="0.01 4"/>
<path d="M264 358H324" stroke="white" stroke-linecap="round" stroke-linejoin="round" stroke-dasharray="0.01 4"/>
<path d="M336.872 362.74C339.044 362.74 340.748 361.276 340.904 359.284L339.368 359.164C339.224 360.424 338.168 361.348 336.872 361.348C335.288 361.348 334.136 360.052 334.136 358.3C334.136 356.536 335.288 355.24 336.872 355.24C338.156 355.24 339.2 356.116 339.344 357.316L340.88 357.184C340.736 355.264 339.044 353.86 336.872 353.86C334.376 353.86 332.552 355.732 332.552 358.3C332.552 360.868 334.376 362.74 336.872 362.74ZM346.271 362.74C348.767 362.74 350.603 360.868 350.603 358.3C350.603 355.732 348.767 353.86 346.271 353.86C343.775 353.86 341.939 355.732 341.939 358.3C341.939 360.868 343.775 362.74 346.271 362.74ZM343.523 358.3C343.523 356.524 344.687 355.24 346.271 355.24C347.867 355.24 349.019 356.524 349.019 358.3C349.019 360.052 347.867 361.348 346.271 361.348C344.687 361.348 343.523 360.052 343.523 358.3ZM351.856 362.5H353.38L353.32 356.524L357.424 362.5H358.996V354.1H357.46L357.52 360.076L353.416 354.1H351.856V362.5ZM360.376 362.5H361.936V358.984H365.644V357.772H361.936V355.336H365.884V354.1H360.376V362.5ZM367.033 362.5H368.581V354.1H367.033V362.5ZM370.032 362.5H371.58V359.272H373.368C374.244 359.272 374.676 359.668 374.748 360.46L374.856 361.78C374.88 362.056 374.928 362.308 374.988 362.5H376.572C376.476 362.284 376.428 362.056 376.404 361.66L376.296 360.34C376.212 359.248 375.612 358.624 374.52 358.552C375.708 358.432 376.536 357.604 376.536 356.428C376.536 355.024 375.396 354.1 373.608 354.1H370.032V362.5ZM371.58 358.048V355.336H373.536C374.364 355.336 374.952 355.9 374.952 356.704C374.952 357.52 374.364 358.048 373.536 358.048H371.58ZM377.837 362.5H379.349L379.253 355.852L381.509 362.5H383.117L385.373 355.852L385.277 362.5H386.801V354.1H384.485L382.325 360.88L380.165 354.1H377.837V362.5Z" fill="white"/>
<path d="M301 268.5L324 268.5" stroke="white" stroke-linecap="round" stroke-linejoin="round" stroke-dasharray="0.01 4"/>
<path d="M336.872 273.24C339.044 273.24 340.748 271.776 340.904 269.784L339.368 269.664C339.224 270.924 338.168 271.848 336.872 271.848C335.288 271.848 334.136 270.552 334.136 268.8C334.136 267.036 335.288 265.74 336.872 265.74C338.156 265.74 339.2 266.616 339.344 267.816L340.88 267.684C340.736 265.764 339.044 264.36 336.872 264.36C334.376 264.36 332.552 266.232 332.552 268.8C332.552 271.368 334.376 273.24 336.872 273.24ZM346.271 273.24C348.767 273.24 350.603 271.368 350.603 268.8C350.603 266.232 348.767 264.36 346.271 264.36C343.775 264.36 341.939 266.232 341.939 268.8C341.939 271.368 343.775 273.24 346.271 273.24ZM343.523 268.8C343.523 267.024 344.687 265.74 346.271 265.74C347.867 265.74 349.019 267.024 349.019 268.8C349.019 270.552 347.867 271.848 346.271 271.848C344.687 271.848 343.523 270.552 343.523 268.8ZM351.856 273H353.38L353.32 267.024L357.424 273H358.996V264.6H357.46L357.52 270.576L353.416 264.6H351.856V273ZM360.376 273H361.936V269.484H365.644V268.272H361.936V265.836H365.884V264.6H360.376V273ZM367.033 273H368.581V264.6H367.033V273ZM370.032 273H371.58V269.772H373.368C374.244 269.772 374.676 270.168 374.748 270.96L374.856 272.28C374.88 272.556 374.928 272.808 374.988 273H376.572C376.476 272.784 376.428 272.556 376.404 272.16L376.296 270.84C376.212 269.748 375.612 269.124 374.52 269.052C375.708 268.932 376.536 268.104 376.536 266.928C376.536 265.524 375.396 264.6 373.608 264.6H370.032V273ZM371.58 268.548V265.836H373.536C374.364 265.836 374.952 266.4 374.952 267.204C374.952 268.02 374.364 268.548 373.536 268.548H371.58ZM377.837 273H379.349L379.253 266.352L381.509 273H383.117L385.373 266.352L385.277 273H386.801V264.6H384.485L382.325 271.38L380.165 264.6H377.837V273Z" fill="white"/>
<path d="M200.005 419.5C200.281 419.5 200.505 419.276 200.505 419C200.505 418.724 200.281 418.5 200.005 418.5L200.005 419.5ZM204.024 418.5C203.747 418.5 203.524 418.724 203.524 419C203.524 419.276 203.747 419.5 204.024 419.5L204.024 418.5ZM204.034 419.5C204.31 419.5 204.534 419.276 204.534 419C204.534 418.724 204.31 418.5 204.034 418.5L204.034 419.5ZM208.052 418.5C207.776 418.5 207.552 418.724 207.552 419C207.552 419.276 207.776 419.5 208.052 419.5L208.052 418.5ZM208.062 419.5C208.338 419.5 208.562 419.276 208.562 419C208.562 418.724 208.338 418.5 208.062 418.5L208.062 419.5ZM212.081 418.5C211.805 418.5 211.581 418.724 211.581 419C211.581 419.276 211.805 419.5 212.081 419.5L212.081 418.5ZM212.091 419.5C212.367 419.5 212.591 419.276 212.591 419C212.591 418.724 212.367 418.5 212.091 418.5L212.091 419.5ZM216.109 418.5C215.833 418.5 215.609 418.724 215.609 419C215.609 419.276 215.833 419.5 216.109 419.5L216.109 418.5ZM216.119 419.5C216.395 419.5 216.619 419.276 216.619 419C216.619 418.724 216.395 418.5 216.119 418.5L216.119 419.5ZM220.138 418.5C219.862 418.5 219.638 418.724 219.638 419C219.638 419.276 219.862 419.5 220.138 419.5L220.138 418.5ZM220.148 419.5C220.424 419.5 220.648 419.276 220.648 419C220.648 418.724 220.424 418.5 220.148 418.5L220.148 419.5ZM224.166 418.5C223.89 418.5 223.666 418.724 223.666 419C223.666 419.276 223.89 419.5 224.166 419.5L224.166 418.5ZM224.176 419.5C224.453 419.5 224.676 419.276 224.676 419C224.676 418.724 224.453 418.5 224.176 418.5L224.176 419.5ZM228.195 418.5C227.919 418.5 227.695 418.724 227.695 419C227.695 419.276 227.919 419.5 228.195 419.5L228.195 418.5ZM228.205 419.5C228.481 419.5 228.705 419.276 228.705 419C228.705 418.724 228.481 418.5 228.205 418.5L228.205 419.5ZM232.224 418.5C231.947 418.5 231.724 418.724 231.724 419C231.724 419.276 231.947 419.5 232.224 419.5L232.224 418.5ZM232.234 419.5C232.51 419.5 232.734 419.276 232.734 419C232.734 418.724 232.51 418.5 232.234 418.5L232.234 419.5ZM236.252 418.5C235.976 418.5 235.752 418.724 235.752 419C235.752 419.276 235.976 419.5 236.252 419.5L236.252 418.5ZM236.262 419.5C236.538 419.5 236.762 419.276 236.762 419C236.762 418.724 236.538 418.5 236.262 418.5L236.262 419.5ZM240.281 418.5C240.005 418.5 239.781 418.724 239.781 419C239.781 419.276 240.005 419.5 240.281 419.5L240.281 418.5ZM240.291 419.5C240.567 419.5 240.791 419.276 240.791 419C240.791 418.724 240.567 418.5 240.291 418.5L240.291 419.5ZM244.309 418.5C244.033 418.5 243.809 418.724 243.809 419C243.809 419.276 244.033 419.5 244.309 419.5L244.309 418.5ZM244.319 419.5C244.595 419.5 244.819 419.276 244.819 419C244.819 418.724 244.595 418.5 244.319 418.5L244.319 419.5ZM248.338 418.5C248.062 418.5 247.838 418.724 247.838 419C247.838 419.276 248.062 419.5 248.338 419.5L248.338 418.5ZM248.348 419.5C248.624 419.5 248.848 419.276 248.848 419C248.848 418.724 248.624 418.5 248.348 418.5L248.348 419.5ZM252.366 418.5C252.09 418.5 251.866 418.724 251.866 419C251.866 419.276 252.09 419.5 252.366 419.5L252.366 418.5ZM252.376 419.5C252.653 419.5 252.876 419.276 252.876 419C252.876 418.724 252.653 418.5 252.376 418.5L252.376 419.5ZM256.395 418.5C256.119 418.5 255.895 418.724 255.895 419C255.895 419.276 256.119 419.5 256.395 419.5L256.395 418.5ZM256.405 419.5C256.681 419.5 256.905 419.276 256.905 419C256.905 418.724 256.681 418.5 256.405 418.5L256.405 419.5ZM260.424 418.5C260.147 418.5 259.924 418.724 259.924 419C259.924 419.276 260.147 419.5 260.424 419.5L260.424 418.5ZM260.434 419.5C260.71 419.5 260.934 419.276 260.934 419C260.934 418.724 260.71 418.5 260.434 418.5L260.434 419.5ZM264.452 418.5C264.176 418.5 263.952 418.724 263.952 419C263.952 419.276 264.176 419.5 264.452 419.5L264.452 418.5ZM264.462 419.5C264.738 419.5 264.962 419.276 264.962 419C264.962 418.724 264.738 418.5 264.462 418.5L264.462 419.5ZM268.481 418.5C268.205 418.5 267.981 418.724 267.981 419C267.981 419.276 268.205 419.5 268.481 419.5L268.481 418.5ZM268.491 419.5C268.767 419.5 268.991 419.276 268.991 419C268.991 418.724 268.767 418.5 268.491 418.5L268.491 419.5ZM272.509 418.5C272.233 418.5 272.009 418.724 272.009 419C272.009 419.276 272.233 419.5 272.509 419.5L272.509 418.5ZM272.519 419.5C272.795 419.5 273.019 419.276 273.019 419C273.019 418.724 272.795 418.5 272.519 418.5L272.519 419.5ZM276.538 418.5C276.262 418.5 276.038 418.724 276.038 419C276.038 419.276 276.262 419.5 276.538 419.5L276.538 418.5ZM276.548 419.5C276.824 419.5 277.048 419.276 277.048 419C277.048 418.724 276.824 418.5 276.548 418.5L276.548 419.5ZM280.566 418.5C280.29 418.5 280.066 418.724 280.066 419C280.066 419.276 280.29 419.5 280.566 419.5L280.566 418.5ZM280.576 419.5C280.853 419.5 281.076 419.276 281.076 419C281.076 418.724 280.853 418.5 280.576 418.5L280.576 419.5ZM284.595 418.5C284.319 418.5 284.095 418.724 284.095 419C284.095 419.276 284.319 419.5 284.595 419.5L284.595 418.5ZM284.605 419.5C284.881 419.5 285.105 419.276 285.105 419C285.105 418.724 284.881 418.5 284.605 418.5L284.605 419.5ZM288.624 418.5C288.347 418.5 288.124 418.724 288.124 419C288.124 419.276 288.347 419.5 288.624 419.5L288.624 418.5ZM288.634 419.5C288.91 419.5 289.134 419.276 289.134 419C289.134 418.724 288.91 418.5 288.634 418.5L288.634 419.5ZM292.652 418.5C292.376 418.5 292.152 418.724 292.152 419C292.152 419.276 292.376 419.5 292.652 419.5L292.652 418.5ZM292.662 419.5C292.938 419.5 293.162 419.276 293.162 419C293.162 418.724 292.938 418.5 292.662 418.5L292.662 419.5ZM296.681 418.5C296.405 418.5 296.181 418.724 296.181 419C296.181 419.276 296.405 419.5 296.681 419.5L296.681 418.5ZM296.691 419.5C296.967 419.5 297.191 419.276 297.191 419C297.191 418.724 296.967 418.5 296.691 418.5L296.691 419.5ZM300.709 418.5C300.433 418.5 300.209 418.724 300.209 419C300.209 419.276 300.433 419.5 300.709 419.5L300.709 418.5ZM300.719 419.5C300.995 419.5 301.219 419.276 301.219 419C301.219 418.724 300.995 418.5 300.719 418.5L300.719 419.5ZM304.738 418.5C304.462 418.5 304.238 418.724 304.238 419C304.238 419.276 304.462 419.5 304.738 419.5L304.738 418.5ZM304.748 419.5C305.024 419.5 305.248 419.276 305.248 419C305.248 418.724 305.024 418.5 304.748 418.5L304.748 419.5ZM308.766 418.5C308.49 418.5 308.266 418.724 308.266 419C308.266 419.276 308.49 419.5 308.766 419.5L308.766 418.5ZM308.776 419.5C309.053 419.5 309.276 419.276 309.276 419C309.276 418.724 309.053 418.5 308.776 418.5L308.776 419.5ZM312.795 418.5C312.519 418.5 312.295 418.724 312.295 419C312.295 419.276 312.519 419.5 312.795 419.5L312.795 418.5ZM312.805 419.5C313.081 419.5 313.305 419.276 313.305 419C313.305 418.724 313.081 418.5 312.805 418.5L312.805 419.5ZM316.824 418.5C316.547 418.5 316.324 418.724 316.324 419C316.324 419.276 316.547 419.5 316.824 419.5L316.824 418.5ZM316.834 419.5C317.11 419.5 317.334 419.276 317.334 419C317.334 418.724 317.11 418.5 316.834 418.5L316.834 419.5ZM320.852 418.5C320.576 418.5 320.352 418.724 320.352 419C320.352 419.276 320.576 419.5 320.852 419.5L320.852 418.5ZM320.862 419.5C321.138 419.5 321.362 419.276 321.362 419C321.362 418.724 321.138 418.5 320.862 418.5L320.862 419.5ZM324.881 418.5C324.605 418.5 324.381 418.724 324.381 419C324.381 419.276 324.605 419.5 324.881 419.5L324.881 418.5ZM324.891 419.5C325.167 419.5 325.391 419.276 325.391 419C325.391 418.724 325.167 418.5 324.891 418.5L324.891 419.5ZM328.909 418.5C328.633 418.5 328.409 418.724 328.409 419C328.409 419.276 328.633 419.5 328.909 419.5L328.909 418.5ZM328.919 419.5C329.195 419.5 329.419 419.276 329.419 419C329.419 418.724 329.195 418.5 328.919 418.5L328.919 419.5ZM332.938 418.5C332.662 418.5 332.438 418.724 332.438 419C332.438 419.276 332.662 419.5 332.938 419.5L332.938 418.5ZM332.948 419.5C333.224 419.5 333.448 419.276 333.448 419C333.448 418.724 333.224 418.5 332.948 418.5L332.948 419.5ZM336.966 418.5C336.69 418.5 336.466 418.724 336.466 419C336.466 419.276 336.69 419.5 336.966 419.5L336.966 418.5ZM336.976 419.5C337.253 419.5 337.476 419.276 337.476 419C337.476 418.724 337.253 418.5 336.976 418.5L336.976 419.5ZM340.995 418.5C340.719 418.5 340.495 418.724 340.495 419C340.495 419.276 340.719 419.5 340.995 419.5L340.995 418.5ZM200 419.5L200.005 419.5L200.005 418.5L200 418.5L200 419.5ZM204.024 419.5L204.034 419.5L204.034 418.5L204.024 418.5L204.024 419.5ZM208.052 419.5L208.062 419.5L208.062 418.5L208.052 418.5L208.052 419.5ZM212.081 419.5L212.091 419.5L212.091 418.5L212.081 418.5L212.081 419.5ZM216.109 419.5L216.119 419.5L216.119 418.5L216.109 418.5L216.109 419.5ZM220.138 419.5L220.148 419.5L220.148 418.5L220.138 418.5L220.138 419.5ZM224.166 419.5L224.176 419.5L224.176 418.5L224.166 418.5L224.166 419.5ZM228.195 419.5L228.205 419.5L228.205 418.5L228.195 418.5L228.195 419.5ZM232.224 419.5L232.234 419.5L232.234 418.5L232.224 418.5L232.224 419.5ZM236.252 419.5L236.262 419.5L236.262 418.5L236.252 418.5L236.252 419.5ZM240.281 419.5L240.291 419.5L240.291 418.5L240.281 418.5L240.281 419.5ZM244.309 419.5L244.319 419.5L244.319 418.5L244.309 418.5L244.309 419.5ZM248.338 419.5L248.348 419.5L248.348 418.5L248.338 418.5L248.338 419.5ZM252.366 419.5L252.376 419.5L252.376 418.5L252.366 418.5L252.366 419.5ZM256.395 419.5L256.405 419.5L256.405 418.5L256.395 418.5L256.395 419.5ZM260.424 419.5L260.434 419.5L260.434 418.5L260.424 418.5L260.424 419.5ZM264.452 419.5L264.462 419.5L264.462 418.5L264.452 418.5L264.452 419.5ZM268.481 419.5L268.491 419.5L268.491 418.5L268.481 418.5L268.481 419.5ZM272.509 419.5L272.519 419.5L272.519 418.5L272.509 418.5L272.509 419.5ZM276.538 419.5L276.548 419.5L276.548 418.5L276.538 418.5L276.538 419.5ZM280.566 419.5L280.576 419.5L280.576 418.5L280.566 418.5L280.566 419.5ZM284.595 419.5L284.605 419.5L284.605 418.5L284.595 418.5L284.595 419.5ZM288.624 419.5L288.634 419.5L288.634 418.5L288.624 418.5L288.624 419.5ZM292.652 419.5L292.662 419.5L292.662 418.5L292.652 418.5L292.652 419.5ZM296.681 419.5L296.691 419.5L296.691 418.5L296.681 418.5L296.681 419.5ZM300.709 419.5L300.719 419.5L300.719 418.5L300.709 418.5L300.709 419.5ZM304.738 419.5L304.748 419.5L304.748 418.5L304.738 418.5L304.738 419.5ZM308.766 419.5L308.776 419.5L308.776 418.5L308.766 418.5L308.766 419.5ZM312.795 419.5L312.805 419.5L312.805 418.5L312.795 418.5L312.795 419.5ZM316.824 419.5L316.834 419.5L316.834 418.5L316.824 418.5L316.824 419.5ZM320.852 419.5L320.862 419.5L320.862 418.5L320.852 418.5L320.852 419.5ZM324.881 419.5L324.891 419.5L324.891 418.5L324.881 418.5L324.881 419.5ZM328.909 419.5L328.919 419.5L328.919 418.5L328.909 418.5L328.909 419.5ZM332.938 419.5L332.948 419.5L332.948 418.5L332.938 418.5L332.938 419.5ZM336.966 419.5L336.976 419.5L336.976 418.5L336.966 418.5L336.966 419.5ZM340.995 419.5L341 419.5L341 418.5L340.995 418.5L340.995 419.5Z" fill="white"/>
<path d="M349.696 423.5H352.912C355.504 423.5 357.232 421.82 357.232 419.3C357.232 416.78 355.504 415.1 352.912 415.1H349.696V423.5ZM351.244 422.264V416.336H352.876C354.544 416.336 355.648 417.524 355.648 419.3C355.648 421.076 354.544 422.264 352.876 422.264H351.244ZM362.673 423.74C365.169 423.74 367.005 421.868 367.005 419.3C367.005 416.732 365.169 414.86 362.673 414.86C360.177 414.86 358.341 416.732 358.341 419.3C358.341 421.868 360.177 423.74 362.673 423.74ZM359.925 419.3C359.925 417.524 361.089 416.24 362.673 416.24C364.269 416.24 365.421 417.524 365.421 419.3C365.421 421.052 364.269 422.348 362.673 422.348C361.089 422.348 359.925 421.052 359.925 419.3ZM369.818 423.5H371.582L373.274 417.032L374.954 423.5H376.706L379.118 415.1H377.462L375.806 421.508L374.186 415.1H372.362L370.754 421.508L369.062 415.1H367.382L369.818 423.5ZM380.141 423.5H381.665L381.605 417.524L385.709 423.5H387.281V415.1H385.745L385.805 421.076L381.701 415.1H380.141V423.5Z" fill="white"/>
<g clip-path="url(#clip0_5753_23371)">
<line x1="193.999" y1="572.403" x2="193.999" y2="547.5" stroke="white" stroke-linecap="round" stroke-linejoin="round" stroke-dasharray="0.01 4"/>
</g>
<path d="M164.422 585.881C166.57 585.881 167.998 584.501 167.998 582.437V577.313H166.426V582.389C166.426 583.685 165.658 584.489 164.422 584.489C163.186 584.489 162.43 583.685 162.43 582.389V577.313H160.858V582.437C160.858 584.501 162.286 585.881 164.422 585.881ZM172.513 585.929C174.457 585.929 175.801 584.873 175.801 583.325C175.801 581.981 174.877 581.117 173.101 580.817L172.045 580.625C171.337 580.481 170.893 580.109 170.893 579.509C170.893 578.789 171.517 578.309 172.357 578.309C173.293 578.309 173.977 578.957 174.025 579.917L175.561 579.821C175.513 578.225 174.169 577.097 172.369 577.097C170.593 577.097 169.333 578.081 169.333 579.629C169.333 580.925 170.269 581.825 171.901 582.113L172.957 582.293C173.833 582.473 174.253 582.809 174.253 583.433C174.253 584.189 173.545 584.705 172.537 584.705C171.445 584.705 170.653 584.009 170.617 582.977L169.105 583.073C169.117 584.753 170.545 585.929 172.513 585.929ZM176.985 585.713H180.993C182.553 585.713 183.645 584.801 183.645 583.469C183.645 582.389 182.925 581.597 181.809 581.441C182.721 581.261 183.369 580.505 183.369 579.533C183.369 578.261 182.277 577.313 180.717 577.313H176.985V585.713ZM178.509 584.513V582.053H180.813C181.581 582.053 182.109 582.557 182.109 583.289C182.109 584.009 181.581 584.513 180.813 584.513H178.509ZM178.509 580.901V578.489H180.549C181.329 578.489 181.869 578.993 181.869 579.689C181.869 580.397 181.329 580.901 180.549 580.901H178.509ZM186.942 582.965H190.566V581.741H186.942V582.965ZM198.235 585.953C200.407 585.953 202.111 584.489 202.267 582.497L200.731 582.377C200.587 583.637 199.531 584.561 198.235 584.561C196.651 584.561 195.499 583.265 195.499 581.513C195.499 579.749 196.651 578.453 198.235 578.453C199.519 578.453 200.563 579.329 200.707 580.529L202.243 580.397C202.099 578.477 200.407 577.073 198.235 577.073C195.739 577.073 193.915 578.945 193.915 581.513C193.915 584.081 195.739 585.953 198.235 585.953ZM205.719 585.713H207.279V582.797H209.103C210.843 582.797 212.055 581.609 212.055 580.049C212.055 578.501 210.843 577.313 209.103 577.313H205.719V585.713ZM207.279 581.549V578.549H208.947C209.835 578.549 210.471 579.173 210.471 580.049C210.471 580.925 209.835 581.549 208.947 581.549H207.279ZM215.841 585.893C217.665 585.893 218.985 584.561 218.985 582.689C218.985 580.829 217.665 579.497 215.841 579.497C214.005 579.497 212.685 580.829 212.685 582.689C212.685 584.561 214.005 585.893 215.841 585.893ZM214.185 582.689C214.185 581.561 214.857 580.757 215.841 580.757C216.813 580.757 217.485 581.561 217.485 582.689C217.485 583.829 216.813 584.633 215.841 584.633C214.857 584.633 214.185 583.829 214.185 582.689ZM220.003 585.713H221.491V583.145C221.491 581.501 222.571 580.973 223.735 581.141V579.665C222.715 579.461 221.719 579.929 221.455 581.333L221.491 579.677H220.003V585.713ZM228.195 585.665L228.183 584.417C227.547 584.609 226.911 584.537 226.911 583.577V580.913H228.363V579.677H226.911V578.153H225.423V579.677H224.331V580.913H225.423V583.697C225.423 585.665 226.875 586.037 228.195 585.665Z" fill="white"/>
<path d="M0.696 363H4.704C6.264 363 7.356 362.088 7.356 360.756C7.356 359.676 6.636 358.884 5.52 358.728C6.432 358.548 7.08 357.792 7.08 356.82C7.08 355.548 5.988 354.6 4.428 354.6H0.696V363ZM2.22 361.8V359.34H4.524C5.292 359.34 5.82 359.844 5.82 360.576C5.82 361.296 5.292 361.8 4.524 361.8H2.22ZM2.22 358.188V355.776H4.26C5.04 355.776 5.58 356.28 5.58 356.976C5.58 357.684 5.04 358.188 4.26 358.188H2.22ZM7.97466 363H9.48666L10.2907 360.828H13.8307L14.6227 363H16.2307L13.0867 354.6H11.1187L7.97466 363ZM10.7347 359.604L12.0667 355.98L13.3867 359.604H10.7347ZM20.7626 363.24C22.9346 363.24 24.6386 361.776 24.7946 359.784L23.2586 359.664C23.1146 360.924 22.0586 361.848 20.7626 361.848C19.1786 361.848 18.0266 360.552 18.0266 358.8C18.0266 357.036 19.1786 355.74 20.7626 355.74C22.0466 355.74 23.0906 356.616 23.2346 357.816L24.7706 357.684C24.6266 355.764 22.9346 354.36 20.7626 354.36C18.2666 354.36 16.4426 356.232 16.4426 358.8C16.4426 361.368 18.2666 363.24 20.7626 363.24ZM25.9616 363H27.4856V360.48L28.8176 359.052L31.4336 363H33.2096L29.8136 357.996L32.9696 354.6H31.0616L27.4856 358.512V354.6H25.9616V363Z" fill="white"/>
<line x1="42.5" y1="358" x2="132.5" y2="358" stroke="white" stroke-linecap="round" stroke-linejoin="round" stroke-dasharray="0.01 4"/>
<mask id="path-39-inside-3_5753_23371" fill="white">
<path d="M95 512.238C95 510.45 96.4497 509 98.2379 509H289.762C291.55 509 293 510.45 293 512.238V515.097C293 529.403 281.403 541 267.097 541H120.903C106.597 541 95 529.403 95 515.097V512.238Z"/>
</mask>
<path d="M98.2379 509.5H289.762V508.5H98.2379V509.5ZM292.5 512.238V515.097H293.5V512.238H292.5ZM267.097 540.5H120.903V541.5H267.097V540.5ZM95.5 515.097V512.238H94.5V515.097H95.5ZM120.903 540.5C106.873 540.5 95.5 529.127 95.5 515.097H94.5C94.5 529.679 106.321 541.5 120.903 541.5V540.5ZM292.5 515.097C292.5 529.127 281.127 540.5 267.097 540.5V541.5C281.679 541.5 293.5 529.679 293.5 515.097H292.5ZM289.762 509.5C291.274 509.5 292.5 510.726 292.5 512.238H293.5C293.5 510.174 291.826 508.5 289.762 508.5V509.5ZM98.2379 508.5C96.1735 508.5 94.5 510.174 94.5 512.238H95.5C95.5 510.726 96.7258 509.5 98.2379 509.5V508.5Z" fill="white" mask="url(#path-39-inside-3_5753_23371)"/>
<rect x="176.106" y="519.095" width="36.0604" height="12.8586" rx="6.42931" stroke="white" stroke-width="0.5"/>
<rect x="182.886" y="523.764" width="22.4987" height="3.51543" rx="1.75771" fill="white"/>
<defs>
<clipPath id="clip0_5753_23371">
<rect width="64.7581" height="23.4748" fill="white" transform="translate(162.121 547)"/>
</clipPath>
</defs>
</svg>
