<svg width="148" height="320" viewBox="0 0 148 320" fill="none" xmlns="http://www.w3.org/2000/svg">
<path d="M15.1075 0.249201H132.61C140.816 0.249201 147.468 6.90689 147.468 15.12V304.08C147.468 312.293 140.816 318.951 132.61 318.951H15.1075C6.90167 318.951 0.249201 312.293 0.249201 304.08V15.12C0.249201 6.90689 6.90167 0.249201 15.1075 0.249201Z" stroke="white" stroke-width="0.498403"/>
<ellipse cx="118.24" cy="229.293" rx="0.972637" ry="0.971823" transform="rotate(90 118.24 229.293)" fill="white"/>
<ellipse cx="115" cy="226.399" rx="0.97262" ry="0.971831" transform="rotate(90 115 226.399)" fill="white"/>
<ellipse cx="111.13" cy="223.459" rx="0.972603" ry="0.971814" transform="rotate(90 111.13 223.459)" fill="white"/>
<ellipse cx="115" cy="232.538" rx="0.972603" ry="0.971831" transform="rotate(90 115 232.538)" fill="white"/>
<ellipse cx="111.13" cy="235.779" rx="0.972654" ry="0.971814" transform="rotate(90 111.13 235.779)" fill="white"/>
<ellipse rx="0.972637" ry="0.971823" transform="matrix(0 1 1 0 29.4787 229.293)" fill="white"/>
<ellipse rx="0.97262" ry="0.971831" transform="matrix(0 1 1 0 32.7189 226.399)" fill="white"/>
<ellipse rx="0.972603" ry="0.971823" transform="matrix(0 1 1 0 36.589 223.459)" fill="white"/>
<ellipse rx="0.972603" ry="0.971831" transform="matrix(0 1 1 0 32.7189 232.538)" fill="white"/>
<ellipse rx="0.972654" ry="0.971823" transform="matrix(0 1 1 0 36.589 235.779)" fill="white"/>
<ellipse cx="73.4826" cy="185.201" rx="0.971823" ry="0.972646" fill="white"/>
<ellipse cx="70.59" cy="188.444" rx="0.971806" ry="0.972646" fill="white"/>
<ellipse cx="67.6525" cy="192.318" rx="0.971831" ry="0.972637" fill="white"/>
<ellipse cx="76.7228" cy="188.444" rx="0.971831" ry="0.972646" fill="white"/>
<ellipse cx="79.965" cy="192.318" rx="0.971814" ry="0.972637" fill="white"/>
<ellipse rx="0.971831" ry="0.97262" transform="matrix(1 -4.37469e-08 -4.36759e-08 -1 73.4835 278.087)" fill="white"/>
<ellipse rx="0.971823" ry="0.97262" transform="matrix(1 -4.37472e-08 -4.36756e-08 -1 70.591 274.844)" fill="white"/>
<ellipse rx="0.971823" ry="0.97262" transform="matrix(1 -4.37472e-08 -4.36756e-08 -1 67.6525 270.97)" fill="white"/>
<ellipse rx="0.971831" ry="0.97262" transform="matrix(1 -4.37469e-08 -4.36759e-08 -1 76.7228 274.844)" fill="white"/>
<ellipse rx="0.971806" ry="0.97262" transform="matrix(1 -4.3748e-08 -4.36748e-08 -1 79.965 270.97)" fill="white"/>
<rect x="16.8488" y="17.6926" width="113.831" height="115.951" rx="3.73802" stroke="white" stroke-width="0.498403"/>
<path fill-rule="evenodd" clip-rule="evenodd" d="M73.7851 89.4775C84.046 89.4775 88.6483 84.8822 88.6483 74.6372C88.6483 64.3921 84.046 59.7969 73.7851 59.7969C63.5242 59.7969 58.9219 64.3921 58.9219 74.6372C58.9219 84.8822 63.5242 89.4775 73.7851 89.4775ZM75.1272 66.0866H70.9923L70.2669 68.2767H72.5636V72.89H75.1272V66.0866ZM78.5022 78.4715C78.5022 81.0719 76.3909 83.1799 73.7866 83.1799C71.1822 83.1799 69.0709 81.0719 69.0709 78.4715C69.0709 75.8712 71.1822 73.7632 73.7866 73.7632C76.3909 73.7632 78.5022 75.8712 78.5022 78.4715ZM76.3613 78.4715C76.3613 79.8914 75.2086 81.0424 73.7865 81.0424C72.3645 81.0424 71.2117 79.8914 71.2117 78.4715C71.2117 77.0517 72.3645 75.9007 73.7865 75.9007C75.2086 75.9007 76.3613 77.0517 76.3613 78.4715Z" fill="white"/>
</svg>
