<svg width="172" height="368" viewBox="0 0 172 368" fill="none" xmlns="http://www.w3.org/2000/svg">
<path d="M0.46875 17.3368C0.46875 7.8997 8.1081 0.25 17.531 0.25H152.182C161.604 0.25 169.244 7.8997 169.244 17.3368V350.663C169.244 360.1 161.604 367.75 152.182 367.75H17.531C8.1081 367.75 0.46875 360.1 0.46875 350.663V17.3368Z" stroke="white" stroke-width="0.5"/>
<mask id="path-2-inside-1_5933_25676" fill="white">
<path d="M169.494 170.562C170.757 170.562 171.782 171.587 171.782 172.85V204.588C171.782 205.851 170.757 206.875 169.494 206.875V170.562Z"/>
</mask>
<path d="M169.494 170.562C170.757 170.562 171.782 171.587 171.782 172.85V204.588C171.782 205.851 170.757 206.875 169.494 206.875V170.562Z" fill="white"/>
<path d="M171.282 172.85V204.588H172.282V172.85H171.282ZM169.994 206.875V170.562H168.994V206.875H169.994ZM171.282 204.588C171.282 205.575 170.481 206.375 169.494 206.375V207.375C171.034 207.375 172.282 206.127 172.282 204.588H171.282ZM169.494 171.062C170.481 171.062 171.282 171.863 171.282 172.85H172.282C172.282 171.311 171.034 170.062 169.494 170.062V171.062Z" fill="white" mask="url(#path-2-inside-1_5933_25676)"/>
<path d="M135.457 264.117C134.981 264.117 134.595 263.731 134.595 263.254C134.595 262.778 134.981 262.392 135.457 262.392C135.932 262.392 136.318 262.778 136.318 263.254C136.318 263.731 135.932 264.117 135.457 264.117Z" fill="white" stroke="white" stroke-width="0.5"/>
<path d="M131.752 260.807C131.276 260.807 130.89 260.421 130.89 259.944C130.89 259.468 131.276 259.082 131.752 259.082C132.227 259.082 132.613 259.468 132.613 259.944C132.613 260.421 132.227 260.807 131.752 260.807Z" fill="white" stroke="white" stroke-width="0.5"/>
<path d="M127.324 257.444C126.848 257.444 126.463 257.058 126.463 256.581C126.463 256.105 126.848 255.719 127.324 255.719C127.8 255.719 128.186 256.105 128.186 256.581C128.186 257.058 127.8 257.444 127.324 257.444Z" fill="white" stroke="white" stroke-width="0.5"/>
<path d="M131.752 267.827C131.276 267.827 130.89 267.441 130.89 266.965C130.89 266.488 131.276 266.103 131.752 266.103C132.227 266.103 132.613 266.488 132.613 266.965C132.613 267.441 132.227 267.827 131.752 267.827Z" fill="white" stroke="white" stroke-width="0.5"/>
<path d="M127.324 271.535C126.848 271.535 126.463 271.15 126.463 270.673C126.463 270.196 126.848 269.811 127.324 269.811C127.8 269.811 128.186 270.196 128.186 270.673C128.186 271.15 127.8 271.535 127.324 271.535Z" fill="white" stroke="white" stroke-width="0.5"/>
<path d="M33.9338 264.117C34.4094 264.117 34.7953 263.731 34.7953 263.254C34.7953 262.778 34.4094 262.392 33.9338 262.392C33.4582 262.392 33.0723 262.778 33.0723 263.254C33.0723 263.731 33.4582 264.117 33.9338 264.117Z" fill="white" stroke="white" stroke-width="0.5"/>
<path d="M37.6408 260.807C38.1164 260.807 38.5024 260.421 38.5024 259.944C38.5024 259.468 38.1164 259.082 37.6408 259.082C37.1652 259.082 36.7793 259.468 36.7793 259.944C36.7793 260.421 37.1652 260.807 37.6408 260.807Z" fill="white" stroke="white" stroke-width="0.5"/>
<path d="M42.0666 257.444C42.5422 257.444 42.9281 257.058 42.9281 256.581C42.9281 256.105 42.5422 255.719 42.0666 255.719C41.591 255.719 41.2051 256.105 41.2051 256.581C41.2051 257.058 41.591 257.444 42.0666 257.444Z" fill="white" stroke="white" stroke-width="0.5"/>
<path d="M37.6408 267.827C38.1165 267.827 38.5024 267.441 38.5024 266.965C38.5024 266.488 38.1165 266.103 37.6408 266.103C37.1652 266.103 36.7793 266.488 36.7793 266.965C36.7793 267.441 37.1652 267.827 37.6408 267.827Z" fill="white" stroke="white" stroke-width="0.5"/>
<path d="M42.0666 271.535C42.5422 271.535 42.9281 271.15 42.9281 270.673C42.9281 270.196 42.5422 269.811 42.0666 269.811C41.591 269.811 41.2051 270.196 41.2051 270.673C41.2051 271.15 41.591 271.535 42.0666 271.535Z" fill="white" stroke="white" stroke-width="0.5"/>
<path d="M85.1273 212.824C85.1273 213.301 84.7414 213.687 84.2658 213.687C83.7902 213.687 83.4043 213.301 83.4043 212.824C83.4043 212.348 83.7902 211.962 84.2658 211.962C84.7414 211.962 85.1273 212.348 85.1273 212.824Z" fill="white" stroke="white" stroke-width="0.5"/>
<path d="M81.8187 216.533C81.8187 217.01 81.4328 217.396 80.9572 217.396C80.4816 217.396 80.0957 217.01 80.0957 216.533C80.0957 216.057 80.4816 215.671 80.9572 215.671C81.4328 215.671 81.8187 216.057 81.8187 216.533Z" fill="white" stroke="white" stroke-width="0.5"/>
<path d="M78.4594 220.965C78.4594 221.442 78.0735 221.827 77.5979 221.827C77.1222 221.827 76.7363 221.442 76.7363 220.965C76.7363 220.488 77.1222 220.103 77.5979 220.103C78.0735 220.103 78.4594 220.488 78.4594 220.965Z" fill="white" stroke="white" stroke-width="0.5"/>
<path d="M88.8344 216.533C88.8344 217.01 88.4485 217.396 87.9729 217.396C87.4972 217.396 87.1113 217.01 87.1113 216.533C87.1113 216.057 87.4972 215.671 87.9729 215.671C88.4485 215.671 88.8344 216.057 88.8344 216.533Z" fill="white" stroke="white" stroke-width="0.5"/>
<path d="M92.5414 220.965C92.5414 221.442 92.1555 221.827 91.6799 221.827C91.2043 221.827 90.8184 221.442 90.8184 220.965C90.8184 220.488 91.2043 220.103 91.6799 220.103C92.1555 220.103 92.5414 220.488 92.5414 220.965Z" fill="white" stroke="white" stroke-width="0.5"/>
<path d="M85.1274 319.061C85.1274 318.585 84.7414 318.199 84.2658 318.199C83.7902 318.199 83.4043 318.585 83.4043 319.061C83.4043 319.538 83.7902 319.924 84.2658 319.924C84.7414 319.924 85.1274 319.538 85.1274 319.061Z" fill="white" stroke="white" stroke-width="0.5"/>
<path d="M81.8207 315.352C81.8207 314.876 81.4348 314.49 80.9592 314.49C80.4836 314.49 80.0977 314.876 80.0977 315.352C80.0977 315.829 80.4836 316.215 80.9592 316.215C81.4348 316.215 81.8207 315.829 81.8207 315.352Z" fill="white" stroke="white" stroke-width="0.5"/>
<path d="M78.4594 310.921C78.4594 310.444 78.0735 310.058 77.5979 310.058C77.1222 310.058 76.7363 310.444 76.7363 310.921C76.7363 311.397 77.1222 311.783 77.5979 311.783C78.0735 311.783 78.4594 311.397 78.4594 310.921Z" fill="white" stroke="white" stroke-width="0.5"/>
<path d="M88.8344 315.352C88.8344 314.876 88.4485 314.49 87.9729 314.49C87.4972 314.49 87.1113 314.876 87.1113 315.352C87.1113 315.829 87.4972 316.215 87.9729 316.215C88.4485 316.215 88.8344 315.829 88.8344 315.352Z" fill="white" stroke="white" stroke-width="0.5"/>
<path d="M92.5414 310.921C92.5414 310.444 92.1555 310.058 91.6799 310.058C91.2043 310.058 90.8184 310.444 90.8184 310.921C90.8184 311.397 91.2043 311.783 91.6799 311.783C92.1555 311.783 92.5414 311.397 92.5414 310.921Z" fill="white" stroke="white" stroke-width="0.5"/>
<path d="M19.7695 23.8602C19.7695 21.4796 21.6994 19.5498 24.0799 19.5498H145.634C148.015 19.5498 149.945 21.4796 149.945 23.8602V149.414C149.945 151.795 148.015 153.725 145.634 153.725H24.0799C21.6994 153.725 19.7695 151.795 19.7695 149.414V23.8602Z" stroke="white" stroke-width="0.5"/>
<mask id="path-25-inside-2_5933_25676" fill="white">
<path fill-rule="evenodd" clip-rule="evenodd" d="M85 100.981C96.736 100.981 102 95.7249 102 84.007C102 72.289 96.736 67.0332 85 67.0332C73.264 67.0332 68 72.289 68 84.007C68 95.7249 73.264 100.981 85 100.981ZM86.413 75H82.059L81.2952 77.3061H83.7135V82.1638H86.413V75ZM89.9663 88.0424C89.9663 90.7805 87.7432 93.0002 85.0008 93.0002C82.2584 93.0002 80.0353 90.7805 80.0353 88.0424C80.0353 85.3043 82.2584 83.0846 85.0008 83.0846C87.7432 83.0846 89.9663 85.3043 89.9663 88.0424ZM87.712 88.0424C87.712 89.5375 86.4982 90.7495 85.0008 90.7495C83.5034 90.7495 82.2896 89.5375 82.2896 88.0424C82.2896 86.5474 83.5034 85.3353 85.0008 85.3353C86.4982 85.3353 87.712 86.5474 87.712 88.0424Z"/>
</mask>
<path fill-rule="evenodd" clip-rule="evenodd" d="M85 100.981C96.736 100.981 102 95.7249 102 84.007C102 72.289 96.736 67.0332 85 67.0332C73.264 67.0332 68 72.289 68 84.007C68 95.7249 73.264 100.981 85 100.981ZM86.413 75H82.059L81.2952 77.3061H83.7135V82.1638H86.413V75ZM89.9663 88.0424C89.9663 90.7805 87.7432 93.0002 85.0008 93.0002C82.2584 93.0002 80.0353 90.7805 80.0353 88.0424C80.0353 85.3043 82.2584 83.0846 85.0008 83.0846C87.7432 83.0846 89.9663 85.3043 89.9663 88.0424ZM87.712 88.0424C87.712 89.5375 86.4982 90.7495 85.0008 90.7495C83.5034 90.7495 82.2896 89.5375 82.2896 88.0424C82.2896 86.5474 83.5034 85.3353 85.0008 85.3353C86.4982 85.3353 87.712 86.5474 87.712 88.0424Z" fill="white"/>
<path d="M82.059 75V74.5H81.6979L81.5844 74.8428L82.059 75ZM86.413 75H86.913V74.5H86.413V75ZM81.2952 77.3061L80.8205 77.1489L80.6029 77.8061H81.2952V77.3061ZM83.7135 77.3061H84.2135V76.8061H83.7135V77.3061ZM83.7135 82.1638H83.2135V82.6638H83.7135V82.1638ZM86.413 82.1638V82.6638H86.913V82.1638H86.413ZM101.5 84.007C101.5 89.8024 100.197 93.889 97.5477 96.5343C94.8982 99.1798 90.8048 100.481 85 100.481V101.481C90.9313 101.481 95.3379 100.154 98.2543 97.242C101.171 94.3299 102.5 89.9296 102.5 84.007H101.5ZM85 67.5332C90.8048 67.5332 94.8982 68.8342 97.5477 71.4797C100.197 74.125 101.5 78.2116 101.5 84.007H102.5C102.5 78.0844 101.171 73.6841 98.2543 70.772C95.3379 67.8601 90.9313 66.5332 85 66.5332V67.5332ZM68.5 84.007C68.5 78.2116 69.8029 74.125 72.4523 71.4797C75.1018 68.8342 79.1952 67.5332 85 67.5332V66.5332C79.0687 66.5332 74.6621 67.8601 71.7457 70.772C68.8291 73.6841 67.5 78.0844 67.5 84.007H68.5ZM85 100.481C79.1952 100.481 75.1018 99.1798 72.4523 96.5343C69.8029 93.889 68.5 89.8024 68.5 84.007H67.5C67.5 89.9296 68.8291 94.3299 71.7457 97.242C74.6621 100.154 79.0687 101.481 85 101.481V100.481ZM82.059 75.5H86.413V74.5H82.059V75.5ZM81.7698 77.4634L82.5337 75.1572L81.5844 74.8428L80.8205 77.1489L81.7698 77.4634ZM83.7135 76.8061H81.2952V77.8061H83.7135V76.8061ZM84.2135 82.1638V77.3061H83.2135V82.1638H84.2135ZM86.413 81.6638H83.7135V82.6638H86.413V81.6638ZM85.913 75V82.1638H86.913V75H85.913ZM85.0008 93.5002C88.0186 93.5002 90.4663 91.0574 90.4663 88.0424H89.4663C89.4663 90.5037 87.4678 92.5002 85.0008 92.5002V93.5002ZM79.5353 88.0424C79.5353 91.0574 81.983 93.5002 85.0008 93.5002V92.5002C82.5338 92.5002 80.5353 90.5037 80.5353 88.0424H79.5353ZM85.0008 82.5846C81.983 82.5846 79.5353 85.0274 79.5353 88.0424H80.5353C80.5353 85.5811 82.5338 83.5846 85.0008 83.5846V82.5846ZM90.4663 88.0424C90.4663 85.0274 88.0186 82.5846 85.0008 82.5846V83.5846C87.4678 83.5846 89.4663 85.5811 89.4663 88.0424H90.4663ZM85.0008 91.2495C86.7736 91.2495 88.212 89.8143 88.212 88.0424H87.212C87.212 89.2606 86.2228 90.2495 85.0008 90.2495V91.2495ZM81.7896 88.0424C81.7896 89.8143 83.228 91.2495 85.0008 91.2495V90.2495C83.7788 90.2495 82.7896 89.2606 82.7896 88.0424H81.7896ZM85.0008 84.8353C83.228 84.8353 81.7896 86.2705 81.7896 88.0424H82.7896C82.7896 86.8242 83.7788 85.8353 85.0008 85.8353V84.8353ZM88.212 88.0424C88.212 86.2705 86.7736 84.8353 85.0008 84.8353V85.8353C86.2228 85.8353 87.212 86.8242 87.212 88.0424H88.212Z" fill="white" mask="url(#path-25-inside-2_5933_25676)"/>
</svg>
