<svg width="192" height="320" viewBox="0 0 192 320" fill="none" xmlns="http://www.w3.org/2000/svg">
<rect x="0.967285" y="0.25" width="190.11" height="318.7" rx="14.3809" stroke="white" stroke-width="0.5"/>
<rect x="13.79" y="13.1553" width="164.468" height="292.889" rx="8.52852" stroke="white" stroke-width="0.5"/>
<path fill-rule="evenodd" clip-rule="evenodd" d="M95.6991 175.97C107.027 175.97 112.107 170.901 112.107 159.601C112.107 148.3 107.027 143.231 95.6991 143.231C84.3717 143.231 79.291 148.3 79.291 159.601C79.291 170.901 84.3717 175.97 95.6991 175.97ZM97.1823 150.168H92.6177L91.8168 152.583H94.3522V157.672H97.1823V150.168ZM100.907 163.83C100.907 166.698 98.5761 169.024 95.701 169.024C92.826 169.024 90.4952 166.698 90.4952 163.83C90.4952 160.962 92.826 158.637 95.701 158.637C98.5761 158.637 100.907 160.962 100.907 163.83ZM98.5434 163.83C98.5434 165.396 97.2708 166.666 95.701 166.666C94.1312 166.666 92.8586 165.396 92.8586 163.83C92.8586 162.264 94.1312 160.995 95.701 160.995C97.2708 160.995 98.5434 162.264 98.5434 163.83Z" fill="white"/>
</svg>
