<svg width="424" height="526" viewBox="0 0 424 526" fill="none" xmlns="http://www.w3.org/2000/svg">
<path d="M109.93 63.2073C109.93 51.9677 119.028 42.8574 130.25 42.8574H292.185C303.407 42.8574 312.506 51.9677 312.506 63.2073V464.077C312.506 475.317 303.407 484.427 292.185 484.427H130.25C119.028 484.427 109.93 475.317 109.93 464.077V63.2073Z" stroke="white"/>
<mask id="path-2-inside-1_6934_33112" fill="white">
<path d="M313.006 247.481C314.525 247.481 315.757 248.713 315.757 250.232V288.401C315.757 289.92 314.525 291.152 313.006 291.152V247.481Z"/>
</mask>
<path d="M313.006 247.481C314.525 247.481 315.757 248.713 315.757 250.232V288.401C315.757 289.92 314.525 291.152 313.006 291.152V247.481Z" fill="white"/>
<path d="M314.757 250.232V288.401H316.757V250.232H314.757ZM314.006 291.152V247.481H312.006V291.152H314.006ZM314.757 288.401C314.757 289.368 313.973 290.152 313.006 290.152V292.152C315.077 292.152 316.757 290.473 316.757 288.401H314.757ZM313.006 248.481C313.973 248.481 314.757 249.265 314.757 250.232H316.757C316.757 248.161 315.077 246.481 313.006 246.481V248.481Z" fill="white" mask="url(#path-2-inside-1_6934_33112)"/>
<path d="M272.071 359.795C271.61 359.795 271.235 359.42 271.235 358.957C271.235 358.494 271.61 358.119 272.071 358.119C272.533 358.119 272.908 358.494 272.908 358.957C272.908 359.42 272.533 359.795 272.071 359.795Z" fill="white" stroke="white"/>
<path d="M267.614 355.814C267.153 355.814 266.778 355.44 266.778 354.977C266.778 354.513 267.153 354.139 267.614 354.139C268.076 354.139 268.451 354.513 268.451 354.977C268.451 355.44 268.076 355.814 267.614 355.814Z" fill="white" stroke="white"/>
<path d="M262.29 351.769C261.828 351.769 261.453 351.395 261.453 350.932C261.453 350.468 261.828 350.094 262.29 350.094C262.752 350.094 263.127 350.468 263.127 350.932C263.127 351.395 262.752 351.769 262.29 351.769Z" fill="white" stroke="white"/>
<path d="M267.614 364.257C267.153 364.257 266.778 363.882 266.778 363.419C266.778 362.956 267.153 362.581 267.614 362.581C268.076 362.581 268.451 362.956 268.451 363.419C268.451 363.882 268.076 364.257 267.614 364.257Z" fill="white" stroke="white"/>
<path d="M262.29 368.717C261.828 368.717 261.453 368.342 261.453 367.879C261.453 367.416 261.828 367.041 262.29 367.041C262.752 367.041 263.127 367.416 263.127 367.879C263.127 368.342 262.752 368.717 262.29 368.717Z" fill="white" stroke="white"/>
<path d="M149.975 359.795C150.437 359.795 150.812 359.42 150.812 358.957C150.812 358.494 150.437 358.119 149.975 358.119C149.514 358.119 149.139 358.494 149.139 358.957C149.139 359.42 149.514 359.795 149.975 359.795Z" fill="white" stroke="white"/>
<path d="M154.434 355.814C154.896 355.814 155.271 355.44 155.271 354.977C155.271 354.513 154.896 354.139 154.434 354.139C153.973 354.139 153.598 354.513 153.598 354.977C153.598 355.44 153.973 355.814 154.434 355.814Z" fill="white" stroke="white"/>
<path d="M159.757 351.769C160.218 351.769 160.593 351.395 160.593 350.932C160.593 350.468 160.218 350.094 159.757 350.094C159.295 350.094 158.92 350.468 158.92 350.932C158.92 351.395 159.295 351.769 159.757 351.769Z" fill="white" stroke="white"/>
<path d="M154.434 364.257C154.896 364.257 155.271 363.882 155.271 363.419C155.271 362.956 154.896 362.581 154.434 362.581C153.973 362.581 153.598 362.956 153.598 363.419C153.598 363.882 153.973 364.257 154.434 364.257Z" fill="white" stroke="white"/>
<path d="M159.757 368.717C160.218 368.717 160.593 368.342 160.593 367.879C160.593 367.416 160.218 367.041 159.757 367.041C159.295 367.041 158.92 367.416 158.92 367.879C158.92 368.342 159.295 368.717 159.757 368.717Z" fill="white" stroke="white"/>
<path d="M211.345 298.309C211.345 298.772 210.97 299.146 210.509 299.146C210.047 299.146 209.672 298.772 209.672 298.309C209.672 297.845 210.047 297.471 210.509 297.471C210.97 297.471 211.345 297.845 211.345 298.309Z" fill="white" stroke="white"/>
<path d="M207.365 302.77C207.365 303.233 206.99 303.607 206.528 303.607C206.066 303.607 205.691 303.233 205.691 302.77C205.691 302.306 206.066 301.932 206.528 301.932C206.99 301.932 207.365 302.306 207.365 302.77Z" fill="white" stroke="white"/>
<path d="M203.326 308.098C203.326 308.561 202.951 308.936 202.489 308.936C202.027 308.936 201.652 308.561 201.652 308.098C201.652 307.635 202.027 307.26 202.489 307.26C202.951 307.26 203.326 307.635 203.326 308.098Z" fill="white" stroke="white"/>
<path d="M215.802 302.77C215.802 303.233 215.427 303.607 214.966 303.607C214.504 303.607 214.129 303.233 214.129 302.77C214.129 302.306 214.504 301.932 214.966 301.932C215.427 301.932 215.802 302.306 215.802 302.77Z" fill="white" stroke="white"/>
<path d="M220.261 308.098C220.261 308.561 219.886 308.936 219.425 308.936C218.963 308.936 218.588 308.561 218.588 308.098C218.588 307.634 218.963 307.26 219.425 307.26C219.886 307.26 220.261 307.634 220.261 308.098Z" fill="white" stroke="white"/>
<path d="M211.345 426.073C211.345 425.61 210.97 425.235 210.509 425.235C210.047 425.235 209.672 425.61 209.672 426.073C209.672 426.536 210.047 426.911 210.509 426.911C210.97 426.911 211.345 426.536 211.345 426.073Z" fill="white" stroke="white"/>
<path d="M207.367 421.612C207.367 421.149 206.992 420.774 206.53 420.774C206.068 420.774 205.693 421.149 205.693 421.612C205.693 422.075 206.068 422.45 206.53 422.45C206.992 422.45 207.367 422.075 207.367 421.612Z" fill="white" stroke="white"/>
<path d="M203.326 416.284C203.326 415.821 202.951 415.446 202.489 415.446C202.027 415.446 201.652 415.821 201.652 416.284C201.652 416.747 202.027 417.122 202.489 417.122C202.951 417.122 203.326 416.747 203.326 416.284Z" fill="white" stroke="white"/>
<path d="M215.802 421.612C215.802 421.149 215.427 420.774 214.966 420.774C214.504 420.774 214.129 421.149 214.129 421.612C214.129 422.075 214.504 422.45 214.966 422.45C215.427 422.45 215.802 422.075 215.802 421.612Z" fill="white" stroke="white"/>
<path d="M220.261 416.284C220.261 415.821 219.886 415.446 219.425 415.446C218.963 415.446 218.588 415.821 218.588 416.284C218.588 416.747 218.963 417.122 219.425 417.122C219.886 417.122 220.261 416.747 220.261 416.284Z" fill="white" stroke="white"/>
<path d="M133.141 71.0519C133.141 68.299 135.372 66.0674 138.125 66.0674H285.668C288.421 66.0674 290.653 68.299 290.653 71.0519V222.048C290.653 224.801 288.421 227.032 285.668 227.032H138.125C135.372 227.032 133.141 224.801 133.141 222.048V71.0519Z" stroke="white"/>
<path fill-rule="evenodd" clip-rule="evenodd" d="M214.636 125L205.943 125L204.419 129.611L209.246 129.611L209.246 139.327L214.636 139.327L214.636 125ZM217.321 159.329C215.691 160.418 213.774 161 211.813 161C209.183 161 206.662 159.955 204.802 158.096C202.943 156.236 201.898 153.714 201.898 151.085C201.898 149.124 202.48 147.207 203.569 145.576C204.659 143.946 206.207 142.675 208.019 141.925C209.83 141.174 211.824 140.978 213.747 141.36C215.67 141.743 217.437 142.687 218.824 144.074C220.21 145.46 221.154 147.227 221.537 149.15C221.92 151.074 221.723 153.067 220.973 154.879C220.222 156.691 218.952 158.239 217.321 159.329ZM214.822 155.586C213.932 156.181 212.884 156.498 211.813 156.497C210.378 156.497 209.001 155.927 207.986 154.912C206.971 153.897 206.401 152.52 206.401 151.085C206.4 150.013 206.717 148.966 207.312 148.075C207.907 147.184 208.753 146.49 209.742 146.079C210.732 145.669 211.821 145.562 212.871 145.771C213.922 145.979 214.887 146.495 215.645 147.253C216.402 148.01 216.918 148.976 217.127 150.026C217.336 151.077 217.228 152.166 216.818 153.156C216.408 154.145 215.713 154.991 214.822 155.586Z" fill="white"/>
</svg>
