<svg width="166" height="275" viewBox="0 0 166 275" fill="none" xmlns="http://www.w3.org/2000/svg">
<rect x="1.23154" y="0.731544" width="163.801" height="273.483" rx="13.8993" stroke="#101111" stroke-width="1.46309"/>
<rect x="12.3487" y="11.8478" width="141.568" height="251.25" rx="8.04698" stroke="#101111" stroke-width="1.46309"/>
<path fill-rule="evenodd" clip-rule="evenodd" d="M87.1383 106.629L74.111 106.629L71.8281 113.539L79.0605 113.539L79.0605 128.098L87.1382 128.098L87.1383 106.629ZM91.1616 158.069C88.7184 159.702 85.846 160.573 82.9076 160.573C78.9673 160.573 75.1884 159.008 72.4022 156.222C69.6161 153.435 68.0508 149.656 68.0508 145.716C68.0508 142.777 68.9221 139.905 70.5546 137.462C72.1871 135.018 74.5074 133.114 77.2221 131.989C79.9369 130.865 82.9241 130.571 85.806 131.144C88.688 131.717 91.3352 133.132 93.413 135.21C95.4907 137.288 96.9057 139.935 97.479 142.817C98.0522 145.699 97.758 148.687 96.6335 151.402C95.509 154.116 93.6048 156.437 91.1616 158.069ZM87.4173 152.461C86.0823 153.352 84.5129 153.827 82.9076 153.827C80.7566 153.827 78.6937 152.972 77.1727 151.451C75.6517 149.93 74.7972 147.867 74.7972 145.716C74.7964 144.111 75.2717 142.541 76.163 141.206C77.0544 139.871 78.3216 138.83 79.8045 138.215C81.2874 137.601 82.9193 137.44 84.4937 137.753C86.0682 138.066 87.5144 138.839 88.6495 139.974C89.7846 141.109 90.5575 142.555 90.8705 144.13C91.1834 145.704 91.0224 147.336 90.4077 148.819C89.7931 150.302 88.7524 151.569 87.4173 152.461Z" fill="#101111"/>
<path d="M134.145 29.2685C133.525 29.2685 133.15 29.76 133.15 30.6774V31.342C133.15 32.264 133.525 32.7508 134.145 32.7508C134.761 32.7508 135.136 32.264 135.136 31.342V30.6774C135.136 29.76 134.761 29.2685 134.145 29.2685Z" fill="#101111"/>
<path d="M121.276 29.2639H121.702C122.239 29.2639 122.596 29.5728 122.596 30.1625C122.596 30.7382 122.239 31.0612 121.702 31.0612H121.276V29.2639Z" fill="#101111"/>
<path d="M127.146 30.7616V29.2217H127.845C128.252 29.2217 128.641 29.4792 128.641 30.0034C128.641 30.5229 128.271 30.7616 127.845 30.7616H127.146Z" fill="#101111"/>
<path fill-rule="evenodd" clip-rule="evenodd" d="M121.423 24.21C117.6 24.21 114.5 27.344 114.5 31.21C114.5 35.076 117.6 38.21 121.423 38.21H134.577C138.4 38.21 141.5 35.076 141.5 31.21C141.5 27.344 138.4 24.21 134.577 24.21H121.423ZM134.145 34.3094C132.215 34.3094 131.159 33.1252 131.159 31.3326V30.7055C131.159 28.8894 132.215 27.71 134.145 27.71C136.08 27.71 137.126 28.9035 137.126 30.7055V31.3326C137.126 33.1252 136.08 34.3094 134.145 34.3094ZM119.346 27.8129V34.2018H121.286V32.4747H122.202C123.804 32.4747 124.558 31.4075 124.558 30.1625C124.558 28.9409 123.827 27.8129 122.23 27.8129H119.346ZM128.141 27.8129H125.244V34.2018H127.146V32.0721H127.632L128.646 34.2018H130.78L129.539 31.8241C129.896 31.6603 130.646 31.0705 130.646 30.0127C130.646 28.6929 129.794 27.8129 128.141 27.8129Z" fill="#101111"/>
</svg>
