<svg width="424" height="525" viewBox="0 0 424 525" fill="none" xmlns="http://www.w3.org/2000/svg">
<path d="M81.5234 30.7861H342.643C348.363 30.7861 353 35.4233 353 41.1435V483.81C353 489.53 348.363 494.167 342.643 494.167H239.498H188.468H81.5234C75.8032 494.167 71.166 489.53 71.166 483.81V41.1435C71.166 35.4233 75.8032 30.7861 81.5234 30.7861Z" stroke="white"/>
<path d="M188.469 494.667V450.966C188.469 444.969 193.33 440.108 199.326 440.108H228.641C234.637 440.108 239.498 444.969 239.498 450.966V494.667" stroke="white"/>
<path d="M103.781 74.835H320.928C321.851 74.835 322.6 75.5833 322.6 76.5064V199.195C322.6 200.118 321.851 200.866 320.928 200.866H103.781C102.858 200.866 102.109 200.118 102.109 199.195V76.5064C102.109 75.5833 102.858 74.835 103.781 74.835Z" stroke="white"/>
<path fill-rule="evenodd" clip-rule="evenodd" d="M149.467 259.995C149.467 273.235 138.735 283.967 125.495 283.967C112.256 283.967 101.523 273.235 101.523 259.995C101.523 246.756 112.256 236.023 125.495 236.023C138.735 236.023 149.467 246.756 149.467 259.995ZM150.467 259.995C150.467 273.787 139.287 284.967 125.495 284.967C111.704 284.967 100.523 273.787 100.523 259.995C100.523 246.204 111.704 235.023 125.495 235.023C139.287 235.023 150.467 246.204 150.467 259.995ZM207.554 259.995C207.554 273.235 196.822 283.967 183.582 283.967C170.343 283.967 159.61 273.235 159.61 259.995C159.61 246.756 170.343 236.023 183.582 236.023C196.822 236.023 207.554 246.756 207.554 259.995ZM208.554 259.995C208.554 273.787 197.374 284.967 183.582 284.967C169.791 284.967 158.61 273.787 158.61 259.995C158.61 246.204 169.791 235.023 183.582 235.023C197.374 235.023 208.554 246.204 208.554 259.995ZM241.669 283.967C254.909 283.967 265.641 273.235 265.641 259.995C265.641 246.756 254.909 236.023 241.669 236.023C228.43 236.023 217.697 246.756 217.697 259.995C217.697 273.235 228.43 283.967 241.669 283.967ZM241.669 284.967C255.461 284.967 266.641 273.787 266.641 259.995C266.641 246.204 255.461 235.023 241.669 235.023C227.878 235.023 216.697 246.204 216.697 259.995C216.697 273.787 227.878 284.967 241.669 284.967ZM323.728 259.995C323.728 273.235 312.995 283.967 299.756 283.967C286.517 283.967 275.784 273.235 275.784 259.995C275.784 246.756 286.517 236.023 299.756 236.023C312.995 236.023 323.728 246.756 323.728 259.995ZM324.728 259.995C324.728 273.787 313.548 284.967 299.756 284.967C285.964 284.967 274.784 273.787 274.784 259.995C274.784 246.204 285.964 235.023 299.756 235.023C313.548 235.023 324.728 246.204 324.728 259.995Z" fill="white"/>
<path d="M215.562 115.05L204.852 115.05L202.975 120.891L208.921 120.891L208.921 133.198L215.562 133.198L215.562 115.05Z" fill="white"/>
<path fill-rule="evenodd" clip-rule="evenodd" d="M218.87 158.534C216.861 159.914 214.499 160.651 212.084 160.651C208.844 160.651 205.737 159.328 203.447 156.972C201.156 154.617 199.869 151.422 199.869 148.091C199.869 145.607 200.586 143.179 201.928 141.114C203.27 139.048 205.177 137.439 207.409 136.488C209.641 135.538 212.097 135.289 214.467 135.773C216.836 136.258 219.012 137.454 220.721 139.211C222.429 140.967 223.592 143.205 224.064 145.641C224.535 148.078 224.293 150.603 223.368 152.898C222.444 155.193 220.878 157.154 218.87 158.534ZM215.791 153.793C214.694 154.546 213.403 154.948 212.084 154.948C210.315 154.948 208.619 154.225 207.369 152.939C206.118 151.654 205.416 149.91 205.416 148.091C205.415 146.734 205.806 145.408 206.539 144.279C207.271 143.151 208.313 142.271 209.532 141.751C210.752 141.232 212.093 141.095 213.388 141.36C214.682 141.625 215.871 142.278 216.804 143.237C217.738 144.197 218.373 145.42 218.63 146.751C218.888 148.082 218.755 149.461 218.25 150.715C217.745 151.968 216.889 153.04 215.791 153.793Z" fill="white"/>
</svg>
