<svg width="424" height="526" viewBox="0 0 424 526" fill="none" xmlns="http://www.w3.org/2000/svg">
<rect x="78.5" y="39.5" width="265.254" height="445.958" rx="16.9593" stroke="white"/>
<rect x="103.5" y="62.5" width="216.368" height="363.899" rx="1.24593" stroke="white"/>
<path fill-rule="evenodd" clip-rule="evenodd" d="M181.734 459.635C182.74 460.202 183.845 460.485 185.047 460.485C186.25 460.485 187.355 460.202 188.361 459.635C189.367 459.069 190.159 458.287 190.736 457.29C191.325 456.28 191.619 455.141 191.619 453.872C191.619 452.616 191.325 451.49 190.736 450.492C190.159 449.483 189.367 448.694 188.361 448.128C187.367 447.562 186.262 447.278 185.047 447.278C183.845 447.278 182.74 447.562 181.734 448.128C180.727 448.694 179.93 449.483 179.341 450.492C178.752 451.49 178.457 452.616 178.457 453.872C178.457 455.141 178.752 456.28 179.341 457.29C179.93 458.287 180.727 459.069 181.734 459.635ZM187.091 457.659C186.502 458.004 185.82 458.176 185.047 458.176C184.274 458.176 183.587 458.004 182.986 457.659C182.396 457.302 181.936 456.797 181.605 456.144C181.274 455.492 181.108 454.734 181.108 453.872C181.108 453.01 181.274 452.259 181.605 451.619C181.936 450.966 182.396 450.468 182.986 450.123C183.587 449.778 184.274 449.606 185.047 449.606C185.82 449.606 186.502 449.778 187.091 450.123C187.68 450.468 188.14 450.966 188.471 451.619C188.803 452.259 188.968 453.01 188.968 453.872C188.968 454.734 188.803 455.492 188.471 456.144C188.14 456.797 187.68 457.302 187.091 457.659Z" fill="white"/>
<path d="M201.213 451.139C200.464 450.363 199.482 449.975 198.268 449.975C197.629 449.975 197.04 450.104 196.5 450.363C195.973 450.609 195.537 450.954 195.193 451.397V450.123H192.616V460.356H195.193V454.704C195.193 453.891 195.396 453.269 195.801 452.838C196.218 452.395 196.783 452.173 197.494 452.173C198.194 452.173 198.746 452.395 199.151 452.838C199.556 453.269 199.759 453.891 199.759 454.704V460.356H202.336V454.353C202.336 452.974 201.962 451.902 201.213 451.139Z" fill="white"/>
<path fill-rule="evenodd" clip-rule="evenodd" d="M213.531 455.017C213.531 455.387 213.506 455.719 213.457 456.015H206.002C206.063 456.754 206.321 457.333 206.775 457.751C207.229 458.17 207.787 458.379 208.45 458.379C209.407 458.379 210.088 457.967 210.493 457.142H213.273C212.978 458.127 212.414 458.94 211.579 459.58C210.745 460.208 209.72 460.522 208.505 460.522C207.523 460.522 206.64 460.306 205.854 459.875C205.081 459.432 204.474 458.81 204.032 458.01C203.602 457.209 203.388 456.286 203.388 455.239C203.388 454.18 203.602 453.25 204.032 452.45C204.461 451.65 205.063 451.034 205.836 450.603C206.609 450.172 207.499 449.956 208.505 449.956C209.475 449.956 210.34 450.166 211.101 450.584C211.874 451.003 212.469 451.6 212.886 452.376C213.316 453.14 213.531 454.02 213.531 455.017ZM210.861 454.279C210.849 453.614 210.61 453.084 210.143 452.69C209.677 452.284 209.106 452.081 208.432 452.081C207.793 452.081 207.253 452.278 206.811 452.672C206.382 453.053 206.118 453.589 206.02 454.279H210.861Z" fill="white"/>
<path d="M217.437 454.611L222.113 460.356H225.371L219.922 453.854L225.224 447.463H222.113L217.437 453.245V447.463H214.86V460.356H217.437V454.611Z" fill="white"/>
<path fill-rule="evenodd" clip-rule="evenodd" d="M234.522 455.017C234.522 455.387 234.497 455.719 234.448 456.015H226.992C227.054 456.754 227.311 457.333 227.766 457.751C228.22 458.17 228.778 458.379 229.441 458.379C230.398 458.379 231.079 457.967 231.484 457.142H234.264C233.969 458.127 233.405 458.94 232.57 459.58C231.736 460.208 230.711 460.522 229.496 460.522C228.514 460.522 227.631 460.306 226.845 459.875C226.072 459.432 225.465 458.81 225.023 458.01C224.593 457.209 224.378 456.286 224.378 455.239C224.378 454.18 224.593 453.25 225.023 452.45C225.452 451.65 226.054 451.034 226.827 450.603C227.6 450.172 228.49 449.956 229.496 449.956C230.465 449.956 231.331 450.166 232.092 450.584C232.865 451.003 233.46 451.6 233.877 452.376C234.307 453.14 234.522 454.02 234.522 455.017ZM231.852 454.279C231.84 453.614 231.601 453.084 231.134 452.69C230.668 452.284 230.097 452.081 229.422 452.081C228.784 452.081 228.244 452.278 227.802 452.672C227.373 453.053 227.109 453.589 227.011 454.279H231.852Z" fill="white"/>
<path d="M238.925 465.195L245.239 450.123H242.496L239.827 457.271L237.194 450.123H234.304L238.391 460.097L236.182 465.195H238.925Z" fill="white"/>
<mask id="path-4-inside-1_6934_33166" fill="white">
<path d="M343.381 70.4268C344.827 70.4268 346 71.5993 346 73.0456V127.169C346 128.616 344.827 129.788 343.381 129.788V70.4268Z"/>
</mask>
<path d="M343.381 70.4268C344.827 70.4268 346 71.5993 346 73.0456V127.169C346 128.616 344.827 129.788 343.381 129.788V70.4268Z" fill="white"/>
<path d="M345 73.0456V127.169H347V73.0456H345ZM344.381 129.788V70.4268H342.381V129.788H344.381ZM345 127.169C345 128.064 344.275 128.788 343.381 128.788V130.788C345.38 130.788 347 129.168 347 127.169H345ZM343.381 71.4268C344.275 71.4268 345 72.1516 345 73.0456H347C347 71.047 345.38 69.4268 343.381 69.4268V71.4268Z" fill="white" mask="url(#path-4-inside-1_6934_33166)"/>
<path fill-rule="evenodd" clip-rule="evenodd" d="M216.595 199L201.174 199L198.471 207.18L207.033 207.18L207.033 224.415L216.595 224.415L216.595 199ZM221.357 259.894C218.465 261.827 215.065 262.858 211.587 262.858C206.922 262.858 202.449 261.005 199.151 257.707C195.853 254.409 194 249.935 194 245.271C194 241.792 195.031 238.392 196.964 235.5C198.896 232.607 201.643 230.353 204.857 229.022C208.07 227.691 211.606 227.343 215.018 228.021C218.429 228.7 221.563 230.375 224.023 232.835C226.482 235.294 228.157 238.428 228.836 241.84C229.514 245.251 229.166 248.788 227.835 252.001C226.504 255.215 224.25 257.962 221.357 259.894ZM216.925 253.255C215.345 254.31 213.487 254.873 211.587 254.872C209.041 254.872 206.599 253.86 204.798 252.06C202.998 250.259 201.986 247.817 201.986 245.271C201.985 243.37 202.548 241.513 203.603 239.932C204.658 238.352 206.158 237.12 207.914 236.392C209.669 235.664 211.601 235.474 213.464 235.844C215.328 236.215 217.04 237.13 218.384 238.474C219.727 239.817 220.642 241.529 221.013 243.393C221.383 245.257 221.193 247.189 220.465 248.944C219.737 250.7 218.506 252.2 216.925 253.255Z" fill="white"/>
</svg>
