<svg width="424" height="526" viewBox="0 0 424 526" fill="none" xmlns="http://www.w3.org/2000/svg">
<rect x="76.9004" y="35.5" width="270.817" height="455.296" rx="22.6713" stroke="white"/>
<rect x="91.1602" y="49.7578" width="242.299" height="412.519" rx="6.62963" stroke="white"/>
<rect x="106.5" y="64.5" width="211.998" height="347.461" rx="3.06482" stroke="white"/>
<path fill-rule="evenodd" clip-rule="evenodd" d="M182.928 441.025C183.895 441.569 184.956 441.841 186.112 441.841C187.267 441.841 188.328 441.569 189.295 441.025C190.262 440.48 191.023 439.729 191.577 438.771C192.143 437.8 192.426 436.706 192.426 435.487C192.426 434.28 192.143 433.198 191.577 432.239C191.023 431.269 190.262 430.512 189.295 429.968C188.34 429.424 187.279 429.151 186.112 429.151C184.956 429.151 183.895 429.424 182.928 429.968C181.961 430.512 181.194 431.269 180.628 432.239C180.062 433.198 179.779 434.28 179.779 435.487C179.779 436.706 180.062 437.8 180.628 438.771C181.194 439.729 181.961 440.48 182.928 441.025ZM188.075 439.126C187.509 439.457 186.854 439.623 186.112 439.623C185.369 439.623 184.708 439.457 184.13 439.126C183.564 438.782 183.122 438.297 182.804 437.67C182.486 437.043 182.326 436.316 182.326 435.487C182.326 434.659 182.486 433.937 182.804 433.322C183.122 432.695 183.564 432.216 184.13 431.885C184.708 431.553 185.369 431.388 186.112 431.388C186.854 431.388 187.509 431.553 188.075 431.885C188.641 432.216 189.083 432.695 189.401 433.322C189.72 433.937 189.879 434.659 189.879 435.487C189.879 436.316 189.72 437.043 189.401 437.67C189.083 438.297 188.641 438.782 188.075 439.126Z" fill="white"/>
<path d="M201.644 432.861C200.925 432.115 199.981 431.743 198.814 431.743C198.201 431.743 197.635 431.867 197.116 432.115C196.609 432.352 196.19 432.683 195.86 433.109V431.884H193.384V441.717H195.86V436.286C195.86 435.505 196.055 434.908 196.444 434.493C196.845 434.067 197.387 433.854 198.071 433.854C198.743 433.854 199.274 434.067 199.663 434.493C200.052 434.908 200.247 435.505 200.247 436.286V441.717H202.723V435.949C202.723 434.624 202.363 433.594 201.644 432.861Z" fill="white"/>
<path fill-rule="evenodd" clip-rule="evenodd" d="M213.48 436.587C213.48 436.942 213.456 437.262 213.409 437.546H206.245C206.304 438.256 206.552 438.812 206.988 439.214C207.424 439.616 207.961 439.818 208.598 439.818C209.517 439.818 210.172 439.421 210.561 438.628H213.232C212.949 439.575 212.407 440.356 211.605 440.971C210.803 441.575 209.818 441.876 208.651 441.876C207.707 441.876 206.858 441.669 206.104 441.255C205.361 440.829 204.777 440.232 204.353 439.463C203.94 438.694 203.734 437.806 203.734 436.8C203.734 435.783 203.94 434.89 204.353 434.121C204.765 433.351 205.343 432.76 206.086 432.346C206.829 431.932 207.684 431.725 208.651 431.725C209.582 431.725 210.414 431.926 211.145 432.328C211.888 432.73 212.46 433.304 212.86 434.05C213.273 434.783 213.48 435.629 213.48 436.587ZM210.915 435.878C210.903 435.239 210.673 434.73 210.225 434.351C209.777 433.961 209.229 433.766 208.58 433.766C207.967 433.766 207.448 433.955 207.023 434.334C206.611 434.7 206.357 435.215 206.263 435.878H210.915Z" fill="white"/>
<path d="M217.233 436.197L221.725 441.717H224.856L219.62 435.47L224.715 429.329H221.725L217.233 434.884V429.329H214.756V441.717H217.233V436.197Z" fill="white"/>
<path fill-rule="evenodd" clip-rule="evenodd" d="M233.648 436.587C233.648 436.942 233.625 437.262 233.578 437.546H226.414C226.473 438.256 226.721 438.812 227.157 439.214C227.593 439.616 228.13 439.818 228.767 439.818C229.686 439.818 230.341 439.421 230.73 438.628H233.401C233.118 439.575 232.575 440.356 231.774 440.971C230.972 441.575 229.987 441.876 228.82 441.876C227.876 441.876 227.027 441.669 226.273 441.255C225.53 440.829 224.946 440.232 224.521 439.463C224.109 438.694 223.903 437.806 223.903 436.8C223.903 435.783 224.109 434.89 224.521 434.121C224.934 433.351 225.512 432.76 226.255 432.346C226.998 431.932 227.853 431.725 228.82 431.725C229.751 431.725 230.583 431.926 231.314 432.328C232.057 432.73 232.628 433.304 233.029 434.05C233.442 434.783 233.648 435.629 233.648 436.587ZM231.084 435.878C231.072 435.239 230.842 434.73 230.394 434.351C229.946 433.961 229.397 433.766 228.749 433.766C228.136 433.766 227.617 433.955 227.192 434.334C226.78 434.7 226.526 435.215 226.432 435.878H231.084Z" fill="white"/>
<path d="M237.879 446.367L243.946 431.885H241.311L238.746 438.753L236.216 431.885H233.44L237.366 441.468L235.244 446.367H237.879Z" fill="white"/>
<mask id="path-5-inside-1_6934_33150" fill="white">
<path d="M347.326 100.057C348.803 100.057 350 101.254 350 102.73V152.638C350 154.114 348.803 155.311 347.326 155.311V100.057Z"/>
</mask>
<path d="M347.326 100.057C348.803 100.057 350 101.254 350 102.73V152.638C350 154.114 348.803 155.311 347.326 155.311V100.057Z" fill="white"/>
<path d="M349 102.73V152.638H351V102.73H349ZM348.326 155.311V100.057H346.326V155.311H348.326ZM349 152.638C349 153.562 348.25 154.311 347.326 154.311V156.311C349.355 156.311 351 154.667 351 152.638H349ZM347.326 101.057C348.25 101.057 349 101.806 349 102.73H351C351 100.701 349.355 99.0566 347.326 99.0566V101.057Z" fill="white" mask="url(#path-5-inside-1_6934_33150)"/>
<path fill-rule="evenodd" clip-rule="evenodd" d="M216.595 199L201.174 199L198.471 207.18L207.033 207.18L207.033 224.415L216.595 224.415L216.595 199ZM221.357 259.894C218.465 261.827 215.065 262.858 211.587 262.858C206.922 262.858 202.449 261.005 199.151 257.707C195.853 254.409 194 249.935 194 245.271C194 241.792 195.031 238.392 196.964 235.5C198.896 232.607 201.643 230.353 204.857 229.022C208.07 227.691 211.606 227.343 215.018 228.021C218.429 228.7 221.563 230.375 224.023 232.835C226.482 235.294 228.157 238.428 228.836 241.84C229.514 245.251 229.166 248.788 227.835 252.001C226.504 255.215 224.25 257.962 221.357 259.894ZM216.925 253.255C215.345 254.31 213.487 254.873 211.587 254.872C209.041 254.872 206.599 253.86 204.798 252.06C202.998 250.259 201.986 247.817 201.986 245.271C201.985 243.37 202.548 241.513 203.603 239.932C204.658 238.352 206.158 237.12 207.914 236.392C209.669 235.664 211.601 235.474 213.464 235.844C215.328 236.215 217.04 237.13 218.384 238.474C219.727 239.817 220.642 241.529 221.013 243.393C221.383 245.257 221.193 247.189 220.465 248.944C219.737 250.7 218.506 252.2 216.925 253.255Z" fill="white"/>
</svg>
