<svg width="436" height="589" viewBox="0 0 436 589" fill="none" xmlns="http://www.w3.org/2000/svg">
<path d="M119.143 67.399C119.143 56.295 128.131 47.2942 139.218 47.2942H297.652C308.74 47.2942 317.728 56.295 317.728 67.3991V459.601C317.728 470.705 308.74 479.706 297.652 479.706H139.218C128.131 479.706 119.143 470.705 119.143 459.601V67.399Z" stroke="white" stroke-width="0.588315"/>
<mask id="path-2-inside-1_5933_26059" fill="white">
<path d="M318.022 247.689C319.509 247.689 320.714 248.894 320.714 250.381V287.724C320.714 289.211 319.509 290.416 318.022 290.416V247.689Z"/>
</mask>
<path d="M318.022 247.689C319.509 247.689 320.714 248.894 320.714 250.381V287.724C320.714 289.211 319.509 290.416 318.022 290.416V247.689Z" fill="white"/>
<path d="M320.126 250.381V287.724H321.302V250.381H320.126ZM318.611 290.416V247.689H317.434V290.416H318.611ZM320.126 287.724C320.126 288.886 319.184 289.828 318.022 289.828V291.004C319.834 291.004 321.302 289.536 321.302 287.724H320.126ZM318.022 248.278C319.184 248.278 320.126 249.219 320.126 250.381H321.302C321.302 248.57 319.834 247.101 318.022 247.101V248.278Z" fill="white" mask="url(#path-2-inside-1_5933_26059)"/>
<path d="M277.974 357.767C277.414 357.767 276.96 357.313 276.96 356.752C276.96 356.192 277.414 355.738 277.974 355.738C278.534 355.738 278.988 356.192 278.988 356.752C278.988 357.313 278.534 357.767 277.974 357.767Z" fill="white" stroke="white" stroke-width="0.588315"/>
<path d="M273.613 353.873C273.054 353.873 272.6 353.418 272.6 352.858C272.6 352.297 273.054 351.843 273.613 351.843C274.173 351.843 274.627 352.297 274.627 352.858C274.627 353.418 274.173 353.873 273.613 353.873Z" fill="white" stroke="white" stroke-width="0.588315"/>
<path d="M268.404 349.915C267.844 349.915 267.39 349.461 267.39 348.901C267.39 348.34 267.844 347.886 268.404 347.886C268.963 347.886 269.418 348.34 269.418 348.901C269.418 349.461 268.963 349.915 268.404 349.915Z" fill="white" stroke="white" stroke-width="0.588315"/>
<path d="M273.613 362.133C273.054 362.133 272.6 361.679 272.6 361.118C272.6 360.558 273.054 360.104 273.613 360.104C274.173 360.104 274.627 360.558 274.627 361.118C274.627 361.679 274.173 362.133 273.613 362.133Z" fill="white" stroke="white" stroke-width="0.588315"/>
<path d="M268.404 366.497C267.844 366.497 267.39 366.043 267.39 365.482C267.39 364.921 267.844 364.467 268.404 364.467C268.963 364.467 269.418 364.921 269.418 365.482C269.418 366.043 268.963 366.497 268.404 366.497Z" fill="white" stroke="white" stroke-width="0.588315"/>
<path d="M158.519 357.767C159.078 357.767 159.532 357.313 159.532 356.752C159.532 356.192 159.078 355.738 158.519 355.738C157.959 355.738 157.505 356.192 157.505 356.752C157.505 357.313 157.959 357.767 158.519 357.767Z" fill="white" stroke="white" stroke-width="0.588315"/>
<path d="M162.879 353.873C163.439 353.873 163.893 353.418 163.893 352.858C163.893 352.297 163.439 351.843 162.879 351.843C162.32 351.843 161.865 352.297 161.865 352.858C161.865 353.418 162.32 353.873 162.879 353.873Z" fill="white" stroke="white" stroke-width="0.588315"/>
<path d="M168.089 349.915C168.648 349.915 169.103 349.461 169.103 348.901C169.103 348.34 168.648 347.886 168.089 347.886C167.529 347.886 167.075 348.34 167.075 348.901C167.075 349.461 167.529 349.915 168.089 349.915Z" fill="white" stroke="white" stroke-width="0.588315"/>
<path d="M162.879 362.133C163.439 362.133 163.893 361.679 163.893 361.118C163.893 360.558 163.439 360.104 162.879 360.104C162.32 360.104 161.865 360.558 161.865 361.118C161.865 361.679 162.32 362.133 162.879 362.133Z" fill="white" stroke="white" stroke-width="0.588315"/>
<path d="M168.089 366.497C168.648 366.497 169.103 366.043 169.103 365.482C169.103 364.921 168.648 364.467 168.089 364.467C167.529 364.467 167.075 364.921 167.075 365.482C167.075 366.043 167.529 366.497 168.089 366.497Z" fill="white" stroke="white" stroke-width="0.588315"/>
<path d="M218.754 297.416C218.754 297.977 218.3 298.431 217.74 298.431C217.18 298.431 216.726 297.977 216.726 297.416C216.726 296.856 217.18 296.402 217.74 296.402C218.3 296.402 218.754 296.856 218.754 297.416Z" fill="white" stroke="white" stroke-width="0.588315"/>
<path d="M214.861 301.781C214.861 302.341 214.407 302.795 213.847 302.795C213.288 302.795 212.833 302.341 212.833 301.781C212.833 301.22 213.288 300.766 213.847 300.766C214.407 300.766 214.861 301.22 214.861 301.781Z" fill="white" stroke="white" stroke-width="0.588315"/>
<path d="M210.908 306.995C210.908 307.556 210.454 308.01 209.894 308.01C209.334 308.01 208.88 307.556 208.88 306.995C208.88 306.435 209.334 305.981 209.894 305.981C210.454 305.981 210.908 306.435 210.908 306.995Z" fill="white" stroke="white" stroke-width="0.588315"/>
<path d="M223.114 301.781C223.114 302.341 222.66 302.795 222.101 302.795C221.541 302.795 221.087 302.341 221.087 301.781C221.087 301.22 221.541 300.766 222.101 300.766C222.66 300.766 223.114 301.22 223.114 301.781Z" fill="white" stroke="white" stroke-width="0.588315"/>
<path d="M227.478 306.995C227.478 307.556 227.023 308.01 226.464 308.01C225.904 308.01 225.45 307.556 225.45 306.995C225.45 306.435 225.904 305.981 226.464 305.981C227.023 305.981 227.478 306.435 227.478 306.995Z" fill="white" stroke="white" stroke-width="0.588315"/>
<path d="M218.754 422.417C218.754 421.856 218.3 421.402 217.74 421.402C217.18 421.402 216.726 421.856 216.726 422.417C216.726 422.977 217.18 423.431 217.74 423.431C218.3 423.431 218.754 422.977 218.754 422.417Z" fill="white" stroke="white" stroke-width="0.588315"/>
<path d="M214.864 418.052C214.864 417.492 214.409 417.038 213.85 417.038C213.29 417.038 212.836 417.492 212.836 418.052C212.836 418.613 213.29 419.067 213.85 419.067C214.409 419.067 214.864 418.613 214.864 418.052Z" fill="white" stroke="white" stroke-width="0.588315"/>
<path d="M210.908 412.839C210.908 412.278 210.454 411.824 209.894 411.824C209.334 411.824 208.88 412.278 208.88 412.839C208.88 413.399 209.334 413.853 209.894 413.853C210.454 413.853 210.908 413.399 210.908 412.839Z" fill="white" stroke="white" stroke-width="0.588315"/>
<path d="M223.114 418.052C223.114 417.492 222.66 417.038 222.101 417.038C221.541 417.038 221.087 417.492 221.087 418.052C221.087 418.613 221.541 419.067 222.101 419.067C222.66 419.067 223.114 418.613 223.114 418.052Z" fill="white" stroke="white" stroke-width="0.588315"/>
<path d="M227.478 412.839C227.478 412.278 227.023 411.824 226.464 411.824C225.904 411.824 225.45 412.278 225.45 412.839C225.45 413.399 225.904 413.853 226.464 413.853C227.023 413.853 227.478 413.399 227.478 412.839Z" fill="white" stroke="white" stroke-width="0.588315"/>
<path d="M141.852 75.0749C141.852 72.2738 144.122 70.0031 146.923 70.0031H289.948C292.749 70.0031 295.019 72.2738 295.019 75.0749V222.806C295.019 225.607 292.749 227.878 289.948 227.878H146.923C144.122 227.878 141.852 225.607 141.852 222.806V75.0749Z" stroke="white" stroke-width="0.588315"/>
<mask id="path-25-inside-2_5933_26059" fill="white">
<path fill-rule="evenodd" clip-rule="evenodd" d="M218.605 165.818C232.414 165.818 238.607 159.634 238.607 145.846C238.607 132.058 232.414 125.874 218.605 125.874C204.796 125.874 198.602 132.058 198.602 145.846C198.602 159.634 204.796 165.818 218.605 165.818ZM220.267 135.248H215.144L214.245 137.961H217.091V143.677H220.267V135.248ZM224.448 150.595C224.448 153.816 221.832 156.428 218.605 156.428C215.379 156.428 212.763 153.816 212.763 150.595C212.763 147.373 215.379 144.761 218.605 144.761C221.832 144.761 224.448 147.373 224.448 150.595ZM221.796 150.595C221.796 152.354 220.367 153.78 218.605 153.78C216.844 153.78 215.415 152.354 215.415 150.595C215.415 148.835 216.844 147.409 218.605 147.409C220.367 147.409 221.796 148.835 221.796 150.595Z"/>
</mask>
<path fill-rule="evenodd" clip-rule="evenodd" d="M218.605 165.818C232.414 165.818 238.607 159.634 238.607 145.846C238.607 132.058 232.414 125.874 218.605 125.874C204.796 125.874 198.602 132.058 198.602 145.846C198.602 159.634 204.796 165.818 218.605 165.818ZM220.267 135.248H215.144L214.245 137.961H217.091V143.677H220.267V135.248ZM224.448 150.595C224.448 153.816 221.832 156.428 218.605 156.428C215.379 156.428 212.763 153.816 212.763 150.595C212.763 147.373 215.379 144.761 218.605 144.761C221.832 144.761 224.448 147.373 224.448 150.595ZM221.796 150.595C221.796 152.354 220.367 153.78 218.605 153.78C216.844 153.78 215.415 152.354 215.415 150.595C215.415 148.835 216.844 147.409 218.605 147.409C220.367 147.409 221.796 148.835 221.796 150.595Z" fill="white"/>
<path d="M215.144 135.248V134.66H214.719L214.586 135.063L215.144 135.248ZM220.267 135.248H220.855V134.66H220.267V135.248ZM214.245 137.961L213.687 137.777L213.431 138.55H214.245V137.961ZM217.091 137.961H217.679V137.373H217.091V137.961ZM217.091 143.677H216.502V144.265H217.091V143.677ZM220.267 143.677V144.265H220.855V143.677H220.267ZM238.019 145.846C238.019 152.665 236.486 157.473 233.369 160.586C230.251 163.699 225.435 165.229 218.605 165.229V166.406C225.583 166.406 230.768 164.845 234.2 161.419C237.632 157.992 239.196 152.815 239.196 145.846H238.019ZM218.605 126.462C225.435 126.462 230.251 127.993 233.369 131.106C236.486 134.218 238.019 139.027 238.019 145.846H239.196C239.196 138.877 237.632 133.7 234.2 130.273C230.768 126.847 225.583 125.286 218.605 125.286V126.462ZM199.19 145.846C199.19 139.027 200.723 134.218 203.84 131.106C206.958 127.993 211.774 126.462 218.605 126.462V125.286C211.626 125.286 206.441 126.847 203.009 130.273C199.577 133.7 198.013 138.877 198.013 145.846H199.19ZM218.605 165.229C211.774 165.229 206.958 163.699 203.84 160.586C200.723 157.473 199.19 152.665 199.19 145.846H198.013C198.013 152.815 199.577 157.992 203.009 161.419C206.441 164.845 211.626 166.406 218.605 166.406V165.229ZM215.144 135.836H220.267V134.66H215.144V135.836ZM214.804 138.146L215.703 135.433L214.586 135.063L213.687 137.777L214.804 138.146ZM217.091 137.373H214.245V138.55H217.091V137.373ZM217.679 143.677V137.961H216.502V143.677H217.679ZM220.267 143.089H217.091V144.265H220.267V143.089ZM219.679 135.248V143.677H220.855V135.248H219.679ZM218.605 157.016C222.156 157.016 225.036 154.142 225.036 150.595H223.86C223.86 153.491 221.508 155.84 218.605 155.84V157.016ZM212.175 150.595C212.175 154.142 215.055 157.016 218.605 157.016V155.84C215.703 155.84 213.351 153.491 213.351 150.595H212.175ZM218.605 144.173C215.055 144.173 212.175 147.047 212.175 150.595H213.351C213.351 147.699 215.703 145.349 218.605 145.349V144.173ZM225.036 150.595C225.036 147.047 222.156 144.173 218.605 144.173V145.349C221.508 145.349 223.86 147.699 223.86 150.595H225.036ZM218.605 154.368C220.691 154.368 222.384 152.679 222.384 150.595H221.207C221.207 152.028 220.043 153.191 218.605 153.191V154.368ZM214.827 150.595C214.827 152.679 216.52 154.368 218.605 154.368V153.191C217.168 153.191 216.004 152.028 216.004 150.595H214.827ZM218.605 146.821C216.52 146.821 214.827 148.51 214.827 150.595H216.004C216.004 149.161 217.168 147.998 218.605 147.998V146.821ZM222.384 150.595C222.384 148.51 220.691 146.821 218.605 146.821V147.998C220.043 147.998 221.207 149.161 221.207 150.595H222.384Z" fill="white" mask="url(#path-25-inside-2_5933_26059)"/>
<path d="M36.176 307.168C38.324 307.168 39.752 305.788 39.752 303.724V298.6H38.18V303.676C38.18 304.972 37.412 305.776 36.176 305.776C34.94 305.776 34.184 304.972 34.184 303.676V298.6H32.612V303.724C32.612 305.788 34.04 307.168 36.176 307.168ZM41.0749 307H42.6349V304.084H44.4589C46.1989 304.084 47.4109 302.896 47.4109 301.336C47.4109 299.788 46.1989 298.6 44.4589 298.6H41.0749V307ZM42.6349 302.836V299.836H44.3029C45.1909 299.836 45.8269 300.46 45.8269 301.336C45.8269 302.212 45.1909 302.836 44.3029 302.836H42.6349Z" fill="white"/>
<line x1="56.5" y1="302" x2="175.5" y2="302" stroke="white" stroke-linecap="round" stroke-linejoin="round" stroke-dasharray="0.01 4"/>
<path d="M292 358H352" stroke="white" stroke-linecap="round" stroke-linejoin="round" stroke-dasharray="0.01 4"/>
<path d="M364.872 362.74C367.044 362.74 368.748 361.276 368.904 359.284L367.368 359.164C367.224 360.424 366.168 361.348 364.872 361.348C363.288 361.348 362.136 360.052 362.136 358.3C362.136 356.536 363.288 355.24 364.872 355.24C366.156 355.24 367.2 356.116 367.344 357.316L368.88 357.184C368.736 355.264 367.044 353.86 364.872 353.86C362.376 353.86 360.552 355.732 360.552 358.3C360.552 360.868 362.376 362.74 364.872 362.74ZM374.271 362.74C376.767 362.74 378.603 360.868 378.603 358.3C378.603 355.732 376.767 353.86 374.271 353.86C371.775 353.86 369.939 355.732 369.939 358.3C369.939 360.868 371.775 362.74 374.271 362.74ZM371.523 358.3C371.523 356.524 372.687 355.24 374.271 355.24C375.867 355.24 377.019 356.524 377.019 358.3C377.019 360.052 375.867 361.348 374.271 361.348C372.687 361.348 371.523 360.052 371.523 358.3ZM379.856 362.5H381.38L381.32 356.524L385.424 362.5H386.996V354.1H385.46L385.52 360.076L381.416 354.1H379.856V362.5ZM388.376 362.5H389.936V358.984H393.644V357.772H389.936V355.336H393.884V354.1H388.376V362.5ZM395.033 362.5H396.581V354.1H395.033V362.5ZM398.032 362.5H399.58V359.272H401.368C402.244 359.272 402.676 359.668 402.748 360.46L402.856 361.78C402.88 362.056 402.928 362.308 402.988 362.5H404.572C404.476 362.284 404.428 362.056 404.404 361.66L404.296 360.34C404.212 359.248 403.612 358.624 402.52 358.552C403.708 358.432 404.536 357.604 404.536 356.428C404.536 355.024 403.396 354.1 401.608 354.1H398.032V362.5ZM399.58 358.048V355.336H401.536C402.364 355.336 402.952 355.9 402.952 356.704C402.952 357.52 402.364 358.048 401.536 358.048H399.58ZM405.837 362.5H407.349L407.253 355.852L409.509 362.5H411.117L413.373 355.852L413.277 362.5H414.801V354.1H412.485L410.325 360.88L408.165 354.1H405.837V362.5Z" fill="white"/>
<path d="M326 268.75L374 268.25" stroke="white" stroke-linecap="round" stroke-linejoin="round" stroke-dasharray="0.01 4"/>
<path d="M382.696 273H388.156V271.716H384.256V264.6H382.696V273ZM392.919 273.24C395.415 273.24 397.251 271.368 397.251 268.8C397.251 266.232 395.415 264.36 392.919 264.36C390.423 264.36 388.587 266.232 388.587 268.8C388.587 271.368 390.423 273.24 392.919 273.24ZM390.171 268.8C390.171 267.024 391.335 265.74 392.919 265.74C394.515 265.74 395.667 267.024 395.667 268.8C395.667 270.552 394.515 271.848 392.919 271.848C391.335 271.848 390.171 270.552 390.171 268.8ZM402.681 273.24C404.853 273.24 406.557 271.776 406.713 269.784L405.177 269.664C405.033 270.924 403.977 271.848 402.681 271.848C401.097 271.848 399.945 270.552 399.945 268.8C399.945 267.036 401.097 265.74 402.681 265.74C403.965 265.74 405.009 266.616 405.153 267.816L406.689 267.684C406.545 265.764 404.853 264.36 402.681 264.36C400.185 264.36 398.361 266.232 398.361 268.8C398.361 271.368 400.185 273.24 402.681 273.24ZM407.88 273H409.404V270.48L410.736 269.052L413.352 273H415.128L411.732 267.996L414.888 264.6H412.98L409.404 268.512V264.6H407.88V273Z" fill="white"/>
<path d="M241.005 419.5C241.281 419.5 241.505 419.276 241.505 419C241.505 418.724 241.281 418.5 241.005 418.5L241.005 419.5ZM245.024 418.5C244.747 418.5 244.524 418.724 244.524 419C244.524 419.276 244.747 419.5 245.024 419.5L245.024 418.5ZM245.034 419.5C245.31 419.5 245.534 419.276 245.534 419C245.534 418.724 245.31 418.5 245.034 418.5L245.034 419.5ZM249.052 418.5C248.776 418.5 248.552 418.724 248.552 419C248.552 419.276 248.776 419.5 249.052 419.5L249.052 418.5ZM249.062 419.5C249.338 419.5 249.562 419.276 249.562 419C249.562 418.724 249.338 418.5 249.062 418.5L249.062 419.5ZM253.081 418.5C252.805 418.5 252.581 418.724 252.581 419C252.581 419.276 252.805 419.5 253.081 419.5L253.081 418.5ZM253.091 419.5C253.367 419.5 253.591 419.276 253.591 419C253.591 418.724 253.367 418.5 253.091 418.5L253.091 419.5ZM257.109 418.5C256.833 418.5 256.609 418.724 256.609 419C256.609 419.276 256.833 419.5 257.109 419.5L257.109 418.5ZM257.119 419.5C257.395 419.5 257.619 419.276 257.619 419C257.619 418.724 257.395 418.5 257.119 418.5L257.119 419.5ZM261.138 418.5C260.862 418.5 260.638 418.724 260.638 419C260.638 419.276 260.862 419.5 261.138 419.5L261.138 418.5ZM261.148 419.5C261.424 419.5 261.648 419.276 261.648 419C261.648 418.724 261.424 418.5 261.148 418.5L261.148 419.5ZM265.166 418.5C264.89 418.5 264.666 418.724 264.666 419C264.666 419.276 264.89 419.5 265.166 419.5L265.166 418.5ZM265.176 419.5C265.453 419.5 265.676 419.276 265.676 419C265.676 418.724 265.453 418.5 265.176 418.5L265.176 419.5ZM269.195 418.5C268.919 418.5 268.695 418.724 268.695 419C268.695 419.276 268.919 419.5 269.195 419.5L269.195 418.5ZM269.205 419.5C269.481 419.5 269.705 419.276 269.705 419C269.705 418.724 269.481 418.5 269.205 418.5L269.205 419.5ZM273.224 418.5C272.947 418.5 272.724 418.724 272.724 419C272.724 419.276 272.947 419.5 273.224 419.5L273.224 418.5ZM273.234 419.5C273.51 419.5 273.734 419.276 273.734 419C273.734 418.724 273.51 418.5 273.234 418.5L273.234 419.5ZM277.252 418.5C276.976 418.5 276.752 418.724 276.752 419C276.752 419.276 276.976 419.5 277.252 419.5L277.252 418.5ZM277.262 419.5C277.538 419.5 277.762 419.276 277.762 419C277.762 418.724 277.538 418.5 277.262 418.5L277.262 419.5ZM281.281 418.5C281.005 418.5 280.781 418.724 280.781 419C280.781 419.276 281.005 419.5 281.281 419.5L281.281 418.5ZM281.291 419.5C281.567 419.5 281.791 419.276 281.791 419C281.791 418.724 281.567 418.5 281.291 418.5L281.291 419.5ZM285.309 418.5C285.033 418.5 284.809 418.724 284.809 419C284.809 419.276 285.033 419.5 285.309 419.5L285.309 418.5ZM285.319 419.5C285.595 419.5 285.819 419.276 285.819 419C285.819 418.724 285.595 418.5 285.319 418.5L285.319 419.5ZM289.338 418.5C289.062 418.5 288.838 418.724 288.838 419C288.838 419.276 289.062 419.5 289.338 419.5L289.338 418.5ZM289.348 419.5C289.624 419.5 289.848 419.276 289.848 419C289.848 418.724 289.624 418.5 289.348 418.5L289.348 419.5ZM293.366 418.5C293.09 418.5 292.866 418.724 292.866 419C292.866 419.276 293.09 419.5 293.366 419.5L293.366 418.5ZM293.376 419.5C293.653 419.5 293.876 419.276 293.876 419C293.876 418.724 293.653 418.5 293.376 418.5L293.376 419.5ZM297.395 418.5C297.119 418.5 296.895 418.724 296.895 419C296.895 419.276 297.119 419.5 297.395 419.5L297.395 418.5ZM297.405 419.5C297.681 419.5 297.905 419.276 297.905 419C297.905 418.724 297.681 418.5 297.405 418.5L297.405 419.5ZM301.424 418.5C301.147 418.5 300.924 418.724 300.924 419C300.924 419.276 301.147 419.5 301.424 419.5L301.424 418.5ZM301.434 419.5C301.71 419.5 301.934 419.276 301.934 419C301.934 418.724 301.71 418.5 301.434 418.5L301.434 419.5ZM305.452 418.5C305.176 418.5 304.952 418.724 304.952 419C304.952 419.276 305.176 419.5 305.452 419.5L305.452 418.5ZM305.462 419.5C305.738 419.5 305.962 419.276 305.962 419C305.962 418.724 305.738 418.5 305.462 418.5L305.462 419.5ZM309.481 418.5C309.205 418.5 308.981 418.724 308.981 419C308.981 419.276 309.205 419.5 309.481 419.5L309.481 418.5ZM309.491 419.5C309.767 419.5 309.991 419.276 309.991 419C309.991 418.724 309.767 418.5 309.491 418.5L309.491 419.5ZM313.509 418.5C313.233 418.5 313.009 418.724 313.009 419C313.009 419.276 313.233 419.5 313.509 419.5L313.509 418.5ZM313.519 419.5C313.795 419.5 314.019 419.276 314.019 419C314.019 418.724 313.795 418.5 313.519 418.5L313.519 419.5ZM317.538 418.5C317.262 418.5 317.038 418.724 317.038 419C317.038 419.276 317.262 419.5 317.538 419.5L317.538 418.5ZM317.548 419.5C317.824 419.5 318.048 419.276 318.048 419C318.048 418.724 317.824 418.5 317.548 418.5L317.548 419.5ZM321.566 418.5C321.29 418.5 321.066 418.724 321.066 419C321.066 419.276 321.29 419.5 321.566 419.5L321.566 418.5ZM321.576 419.5C321.853 419.5 322.076 419.276 322.076 419C322.076 418.724 321.853 418.5 321.576 418.5L321.576 419.5ZM325.595 418.5C325.319 418.5 325.095 418.724 325.095 419C325.095 419.276 325.319 419.5 325.595 419.5L325.595 418.5ZM325.605 419.5C325.881 419.5 326.105 419.276 326.105 419C326.105 418.724 325.881 418.5 325.605 418.5L325.605 419.5ZM329.624 418.5C329.347 418.5 329.124 418.724 329.124 419C329.124 419.276 329.347 419.5 329.624 419.5L329.624 418.5ZM329.634 419.5C329.91 419.5 330.134 419.276 330.134 419C330.134 418.724 329.91 418.5 329.634 418.5L329.634 419.5ZM333.652 418.5C333.376 418.5 333.152 418.724 333.152 419C333.152 419.276 333.376 419.5 333.652 419.5L333.652 418.5ZM333.662 419.5C333.938 419.5 334.162 419.276 334.162 419C334.162 418.724 333.938 418.5 333.662 418.5L333.662 419.5ZM337.681 418.5C337.405 418.5 337.181 418.724 337.181 419C337.181 419.276 337.405 419.5 337.681 419.5L337.681 418.5ZM337.691 419.5C337.967 419.5 338.191 419.276 338.191 419C338.191 418.724 337.967 418.5 337.691 418.5L337.691 419.5ZM341.709 418.5C341.433 418.5 341.209 418.724 341.209 419C341.209 419.276 341.433 419.5 341.709 419.5L341.709 418.5ZM341.719 419.5C341.995 419.5 342.219 419.276 342.219 419C342.219 418.724 341.995 418.5 341.719 418.5L341.719 419.5ZM345.738 418.5C345.462 418.5 345.238 418.724 345.238 419C345.238 419.276 345.462 419.5 345.738 419.5L345.738 418.5ZM345.748 419.5C346.024 419.5 346.248 419.276 346.248 419C346.248 418.724 346.024 418.5 345.748 418.5L345.748 419.5ZM349.766 418.5C349.49 418.5 349.266 418.724 349.266 419C349.266 419.276 349.49 419.5 349.766 419.5L349.766 418.5ZM349.776 419.5C350.053 419.5 350.276 419.276 350.276 419C350.276 418.724 350.053 418.5 349.776 418.5L349.776 419.5ZM353.795 418.5C353.519 418.5 353.295 418.724 353.295 419C353.295 419.276 353.519 419.5 353.795 419.5L353.795 418.5ZM353.805 419.5C354.081 419.5 354.305 419.276 354.305 419C354.305 418.724 354.081 418.5 353.805 418.5L353.805 419.5ZM357.824 418.5C357.547 418.5 357.324 418.724 357.324 419C357.324 419.276 357.547 419.5 357.824 419.5L357.824 418.5ZM357.834 419.5C358.11 419.5 358.334 419.276 358.334 419C358.334 418.724 358.11 418.5 357.834 418.5L357.834 419.5ZM361.852 418.5C361.576 418.5 361.352 418.724 361.352 419C361.352 419.276 361.576 419.5 361.852 419.5L361.852 418.5ZM361.862 419.5C362.138 419.5 362.362 419.276 362.362 419C362.362 418.724 362.138 418.5 361.862 418.5L361.862 419.5ZM365.881 418.5C365.605 418.5 365.381 418.724 365.381 419C365.381 419.276 365.605 419.5 365.881 419.5L365.881 418.5ZM365.891 419.5C366.167 419.5 366.391 419.276 366.391 419C366.391 418.724 366.167 418.5 365.891 418.5L365.891 419.5ZM369.909 418.5C369.633 418.5 369.409 418.724 369.409 419C369.409 419.276 369.633 419.5 369.909 419.5L369.909 418.5ZM369.919 419.5C370.195 419.5 370.419 419.276 370.419 419C370.419 418.724 370.195 418.5 369.919 418.5L369.919 419.5ZM373.938 418.5C373.662 418.5 373.438 418.724 373.438 419C373.438 419.276 373.662 419.5 373.938 419.5L373.938 418.5ZM373.948 419.5C374.224 419.5 374.448 419.276 374.448 419C374.448 418.724 374.224 418.5 373.948 418.5L373.948 419.5ZM377.966 418.5C377.69 418.5 377.466 418.724 377.466 419C377.466 419.276 377.69 419.5 377.966 419.5L377.966 418.5ZM377.976 419.5C378.253 419.5 378.476 419.276 378.476 419C378.476 418.724 378.253 418.5 377.976 418.5L377.976 419.5ZM381.995 418.5C381.719 418.5 381.495 418.724 381.495 419C381.495 419.276 381.719 419.5 381.995 419.5L381.995 418.5ZM241 419.5L241.005 419.5L241.005 418.5L241 418.5L241 419.5ZM245.024 419.5L245.034 419.5L245.034 418.5L245.024 418.5L245.024 419.5ZM249.052 419.5L249.062 419.5L249.062 418.5L249.052 418.5L249.052 419.5ZM253.081 419.5L253.091 419.5L253.091 418.5L253.081 418.5L253.081 419.5ZM257.109 419.5L257.119 419.5L257.119 418.5L257.109 418.5L257.109 419.5ZM261.138 419.5L261.148 419.5L261.148 418.5L261.138 418.5L261.138 419.5ZM265.166 419.5L265.176 419.5L265.176 418.5L265.166 418.5L265.166 419.5ZM269.195 419.5L269.205 419.5L269.205 418.5L269.195 418.5L269.195 419.5ZM273.224 419.5L273.234 419.5L273.234 418.5L273.224 418.5L273.224 419.5ZM277.252 419.5L277.262 419.5L277.262 418.5L277.252 418.5L277.252 419.5ZM281.281 419.5L281.291 419.5L281.291 418.5L281.281 418.5L281.281 419.5ZM285.309 419.5L285.319 419.5L285.319 418.5L285.309 418.5L285.309 419.5ZM289.338 419.5L289.348 419.5L289.348 418.5L289.338 418.5L289.338 419.5ZM293.366 419.5L293.376 419.5L293.376 418.5L293.366 418.5L293.366 419.5ZM297.395 419.5L297.405 419.5L297.405 418.5L297.395 418.5L297.395 419.5ZM301.424 419.5L301.434 419.5L301.434 418.5L301.424 418.5L301.424 419.5ZM305.452 419.5L305.462 419.5L305.462 418.5L305.452 418.5L305.452 419.5ZM309.481 419.5L309.491 419.5L309.491 418.5L309.481 418.5L309.481 419.5ZM313.509 419.5L313.519 419.5L313.519 418.5L313.509 418.5L313.509 419.5ZM317.538 419.5L317.548 419.5L317.548 418.5L317.538 418.5L317.538 419.5ZM321.566 419.5L321.576 419.5L321.576 418.5L321.566 418.5L321.566 419.5ZM325.595 419.5L325.605 419.5L325.605 418.5L325.595 418.5L325.595 419.5ZM329.624 419.5L329.634 419.5L329.634 418.5L329.624 418.5L329.624 419.5ZM333.652 419.5L333.662 419.5L333.662 418.5L333.652 418.5L333.652 419.5ZM337.681 419.5L337.691 419.5L337.691 418.5L337.681 418.5L337.681 419.5ZM341.709 419.5L341.719 419.5L341.719 418.5L341.709 418.5L341.709 419.5ZM345.738 419.5L345.748 419.5L345.748 418.5L345.738 418.5L345.738 419.5ZM349.766 419.5L349.776 419.5L349.776 418.5L349.766 418.5L349.766 419.5ZM353.795 419.5L353.805 419.5L353.805 418.5L353.795 418.5L353.795 419.5ZM357.824 419.5L357.834 419.5L357.834 418.5L357.824 418.5L357.824 419.5ZM361.852 419.5L361.862 419.5L361.862 418.5L361.852 418.5L361.852 419.5ZM365.881 419.5L365.891 419.5L365.891 418.5L365.881 418.5L365.881 419.5ZM369.909 419.5L369.919 419.5L369.919 418.5L369.909 418.5L369.909 419.5ZM373.938 419.5L373.948 419.5L373.948 418.5L373.938 418.5L373.938 419.5ZM377.966 419.5L377.976 419.5L377.976 418.5L377.966 418.5L377.966 419.5ZM381.995 419.5L382 419.5L382 418.5L381.995 418.5L381.995 419.5Z" fill="white"/>
<path d="M390.696 423.5H393.912C396.504 423.5 398.232 421.82 398.232 419.3C398.232 416.78 396.504 415.1 393.912 415.1H390.696V423.5ZM392.244 422.264V416.336H393.876C395.544 416.336 396.648 417.524 396.648 419.3C396.648 421.076 395.544 422.264 393.876 422.264H392.244ZM403.673 423.74C406.169 423.74 408.005 421.868 408.005 419.3C408.005 416.732 406.169 414.86 403.673 414.86C401.177 414.86 399.341 416.732 399.341 419.3C399.341 421.868 401.177 423.74 403.673 423.74ZM400.925 419.3C400.925 417.524 402.089 416.24 403.673 416.24C405.269 416.24 406.421 417.524 406.421 419.3C406.421 421.052 405.269 422.348 403.673 422.348C402.089 422.348 400.925 421.052 400.925 419.3ZM410.818 423.5H412.582L414.274 417.032L415.954 423.5H417.706L420.118 415.1H418.462L416.806 421.508L415.186 415.1H413.362L411.754 421.508L410.062 415.1H408.382L410.818 423.5ZM421.141 423.5H422.665L422.605 417.524L426.709 423.5H428.281V415.1H426.745L426.805 421.076L422.701 415.1H421.141V423.5Z" fill="white"/>
<g clip-path="url(#clip0_5933_26059)">
<line x1="217.999" y1="572.403" x2="217.999" y2="547.5" stroke="white" stroke-linecap="round" stroke-linejoin="round" stroke-dasharray="0.01 4"/>
</g>
<path d="M188.422 585.881C190.57 585.881 191.998 584.501 191.998 582.437V577.313H190.426V582.389C190.426 583.685 189.658 584.489 188.422 584.489C187.186 584.489 186.43 583.685 186.43 582.389V577.313H184.858V582.437C184.858 584.501 186.286 585.881 188.422 585.881ZM196.513 585.929C198.457 585.929 199.801 584.873 199.801 583.325C199.801 581.981 198.877 581.117 197.101 580.817L196.045 580.625C195.337 580.481 194.893 580.109 194.893 579.509C194.893 578.789 195.517 578.309 196.357 578.309C197.293 578.309 197.977 578.957 198.025 579.917L199.561 579.821C199.513 578.225 198.169 577.097 196.369 577.097C194.593 577.097 193.333 578.081 193.333 579.629C193.333 580.925 194.269 581.825 195.901 582.113L196.957 582.293C197.833 582.473 198.253 582.809 198.253 583.433C198.253 584.189 197.545 584.705 196.537 584.705C195.445 584.705 194.653 584.009 194.617 582.977L193.105 583.073C193.117 584.753 194.545 585.929 196.513 585.929ZM200.985 585.713H204.993C206.553 585.713 207.645 584.801 207.645 583.469C207.645 582.389 206.925 581.597 205.809 581.441C206.721 581.261 207.369 580.505 207.369 579.533C207.369 578.261 206.277 577.313 204.717 577.313H200.985V585.713ZM202.509 584.513V582.053H204.813C205.581 582.053 206.109 582.557 206.109 583.289C206.109 584.009 205.581 584.513 204.813 584.513H202.509ZM202.509 580.901V578.489H204.549C205.329 578.489 205.869 578.993 205.869 579.689C205.869 580.397 205.329 580.901 204.549 580.901H202.509ZM210.942 582.965H214.566V581.741H210.942V582.965ZM222.235 585.953C224.407 585.953 226.111 584.489 226.267 582.497L224.731 582.377C224.587 583.637 223.531 584.561 222.235 584.561C220.651 584.561 219.499 583.265 219.499 581.513C219.499 579.749 220.651 578.453 222.235 578.453C223.519 578.453 224.563 579.329 224.707 580.529L226.243 580.397C226.099 578.477 224.407 577.073 222.235 577.073C219.739 577.073 217.915 578.945 217.915 581.513C217.915 584.081 219.739 585.953 222.235 585.953ZM229.719 585.713H231.279V582.797H233.103C234.843 582.797 236.055 581.609 236.055 580.049C236.055 578.501 234.843 577.313 233.103 577.313H229.719V585.713ZM231.279 581.549V578.549H232.947C233.835 578.549 234.471 579.173 234.471 580.049C234.471 580.925 233.835 581.549 232.947 581.549H231.279ZM239.841 585.893C241.665 585.893 242.985 584.561 242.985 582.689C242.985 580.829 241.665 579.497 239.841 579.497C238.005 579.497 236.685 580.829 236.685 582.689C236.685 584.561 238.005 585.893 239.841 585.893ZM238.185 582.689C238.185 581.561 238.857 580.757 239.841 580.757C240.813 580.757 241.485 581.561 241.485 582.689C241.485 583.829 240.813 584.633 239.841 584.633C238.857 584.633 238.185 583.829 238.185 582.689ZM244.003 585.713H245.491V583.145C245.491 581.501 246.571 580.973 247.735 581.141V579.665C246.715 579.461 245.719 579.929 245.455 581.333L245.491 579.677H244.003V585.713ZM252.195 585.665L252.183 584.417C251.547 584.609 250.911 584.537 250.911 583.577V580.913H252.363V579.677H250.911V578.153H249.423V579.677H248.331V580.913H249.423V583.697C249.423 585.665 250.875 586.037 252.195 585.665Z" fill="white"/>
<path d="M0.696 363H4.704C6.264 363 7.356 362.088 7.356 360.756C7.356 359.676 6.636 358.884 5.52 358.728C6.432 358.548 7.08 357.792 7.08 356.82C7.08 355.548 5.988 354.6 4.428 354.6H0.696V363ZM2.22 361.8V359.34H4.524C5.292 359.34 5.82 359.844 5.82 360.576C5.82 361.296 5.292 361.8 4.524 361.8H2.22ZM2.22 358.188V355.776H4.26C5.04 355.776 5.58 356.28 5.58 356.976C5.58 357.684 5.04 358.188 4.26 358.188H2.22ZM7.97466 363H9.48666L10.2907 360.828H13.8307L14.6227 363H16.2307L13.0867 354.6H11.1187L7.97466 363ZM10.7347 359.604L12.0667 355.98L13.3867 359.604H10.7347ZM20.7626 363.24C22.9346 363.24 24.6386 361.776 24.7946 359.784L23.2586 359.664C23.1146 360.924 22.0586 361.848 20.7626 361.848C19.1786 361.848 18.0266 360.552 18.0266 358.8C18.0266 357.036 19.1786 355.74 20.7626 355.74C22.0466 355.74 23.0906 356.616 23.2346 357.816L24.7706 357.684C24.6266 355.764 22.9346 354.36 20.7626 354.36C18.2666 354.36 16.4426 356.232 16.4426 358.8C16.4426 361.368 18.2666 363.24 20.7626 363.24ZM25.9616 363H27.4856V360.48L28.8176 359.052L31.4336 363H33.2096L29.8136 357.996L32.9696 354.6H31.0616L27.4856 358.512V354.6H25.9616V363Z" fill="white"/>
<line x1="42.5" y1="358" x2="132.5" y2="358" stroke="white" stroke-linecap="round" stroke-linejoin="round" stroke-dasharray="0.01 4"/>
<mask id="path-39-inside-3_5933_26059" fill="white">
<path d="M119 512.238C119 510.45 120.45 509 122.238 509H313.762C315.55 509 317 510.45 317 512.238V515.097C317 529.403 305.403 541 291.097 541H144.903C130.597 541 119 529.403 119 515.097V512.238Z"/>
</mask>
<path d="M122.238 509.5H313.762V508.5H122.238V509.5ZM316.5 512.238V515.097H317.5V512.238H316.5ZM291.097 540.5H144.903V541.5H291.097V540.5ZM119.5 515.097V512.238H118.5V515.097H119.5ZM144.903 540.5C130.873 540.5 119.5 529.127 119.5 515.097H118.5C118.5 529.679 130.321 541.5 144.903 541.5V540.5ZM316.5 515.097C316.5 529.127 305.127 540.5 291.097 540.5V541.5C305.679 541.5 317.5 529.679 317.5 515.097H316.5ZM313.762 509.5C315.274 509.5 316.5 510.726 316.5 512.238H317.5C317.5 510.174 315.826 508.5 313.762 508.5V509.5ZM122.238 508.5C120.174 508.5 118.5 510.174 118.5 512.238H119.5C119.5 510.726 120.726 509.5 122.238 509.5V508.5Z" fill="white" mask="url(#path-39-inside-3_5933_26059)"/>
<rect x="200.105" y="519.095" width="36.0604" height="12.8586" rx="6.42931" stroke="white" stroke-width="0.5"/>
<rect x="206.886" y="523.764" width="22.4987" height="3.51543" rx="1.75771" fill="white"/>
<defs>
<clipPath id="clip0_5933_26059">
<rect width="64.7581" height="23.4748" fill="white" transform="translate(186.121 547)"/>
</clipPath>
</defs>
</svg>
