<svg width="160" height="81" viewBox="0 0 160 81" fill="none" xmlns="http://www.w3.org/2000/svg">
<g clip-path="url(#clip0_9438_65094)">
<path d="M55.5258 39.9252V39.6023C55.5258 38.7911 55.2483 38.1703 54.6936 37.7398C54.1556 37.2928 53.4495 37.0693 52.5754 37.0693C51.903 37.0693 51.3733 37.1852 50.9867 37.417C50.6169 37.6322 50.2638 37.9633 49.9276 38.4103C49.8267 38.5428 49.7175 38.6338 49.5998 38.6835C49.4822 38.7331 49.3224 38.758 49.1207 38.758H48.3642C48.1793 38.758 48.0112 38.6918 47.8599 38.5593C47.7253 38.4269 47.6666 38.2696 47.6833 38.0875C47.7338 37.5908 47.9775 37.1024 48.4146 36.6223C48.8685 36.1256 49.4654 35.72 50.205 35.4054C50.9447 35.0909 51.7349 34.9336 52.5754 34.9336C54.1388 34.9336 55.3995 35.364 56.3577 36.225C57.3328 37.0859 57.8204 38.2944 57.8204 39.8507V47.4249C57.8204 47.607 57.7531 47.7644 57.6187 47.8968C57.4841 48.0292 57.3245 48.0954 57.1395 48.0954H56.2065C56.0215 48.0954 55.8619 48.0292 55.7274 47.8968C55.593 47.7644 55.5258 47.607 55.5258 47.4249V46.4067C55.2568 47.0028 54.6851 47.4746 53.8109 47.8223C52.9367 48.17 52.0626 48.3438 51.1884 48.3438C50.331 48.3438 49.5662 48.1947 48.8937 47.8968C48.2213 47.5821 47.7001 47.16 47.3303 46.6302C46.9772 46.1004 46.8008 45.5045 46.8008 44.8422C46.8008 43.6005 47.2716 42.632 48.2129 41.9366C49.1543 41.2247 50.4067 40.7447 51.9702 40.4963L55.5258 39.9252ZM55.5258 41.9119L52.5502 42.3836C51.4574 42.5492 50.6085 42.8225 50.0033 43.2032C49.3981 43.5674 49.0955 44.031 49.0955 44.594C49.0955 45.0078 49.2888 45.3803 49.6755 45.7115C50.062 46.0425 50.6505 46.2081 51.4407 46.2081C52.6511 46.2081 53.6345 45.8687 54.3909 45.1899C55.1474 44.5112 55.5258 43.6254 55.5258 42.5327V41.9119Z" fill="#101111"/>
<path d="M63.7908 47.4243C63.7908 47.6064 63.7236 47.7638 63.589 47.8961C63.4546 48.0285 63.2948 48.0948 63.1099 48.0948H62.177C61.9921 48.0948 61.8323 48.0285 61.6979 47.8961C61.5633 47.7638 61.4961 47.6064 61.4961 47.4243V31.1334C61.4961 30.9513 61.5633 30.794 61.6979 30.6616C61.8323 30.5291 61.9921 30.4629 62.177 30.4629H63.1099C63.2948 30.4629 63.4546 30.5291 63.589 30.6616C63.7236 30.794 63.7908 30.9513 63.7908 31.1334V47.4243Z" fill="#101111"/>
<path d="M72.875 46.2081C74.5562 46.2081 75.6909 45.5624 76.2794 44.271C76.397 44.0228 76.5147 43.8489 76.6324 43.7495C76.75 43.6502 76.9098 43.6005 77.1115 43.6005H77.868C78.0529 43.6005 78.2125 43.6667 78.3471 43.7993C78.4815 43.9151 78.5487 44.0558 78.5487 44.2214C78.5487 44.7843 78.3219 45.3885 77.868 46.0343C77.4141 46.6799 76.7585 47.2263 75.901 47.6733C75.0437 48.1203 74.0351 48.3438 72.875 48.3438C71.6815 48.3438 70.6476 48.0954 69.7735 47.5988C68.8994 47.1021 68.2268 46.4234 67.7562 45.5624C67.2854 44.6849 67.0249 43.7081 66.9744 42.632C66.9576 42.4334 66.9492 42.0526 66.9492 41.4896C66.9492 41.0924 66.9576 40.8109 66.9744 40.6453C67.1258 38.9567 67.7057 37.5825 68.7144 36.523C69.723 35.4634 71.11 34.9336 72.875 34.9336C74.0351 34.9336 75.0353 35.1571 75.8758 35.6041C76.7332 36.0346 77.3804 36.5726 77.8175 37.2183C78.2714 37.8474 78.5152 38.4434 78.5487 39.0063C78.5656 39.1884 78.4984 39.3457 78.3471 39.4782C78.2125 39.6106 78.0529 39.6768 77.868 39.6768H77.1115C76.9098 39.6768 76.75 39.6272 76.6324 39.5278C76.5147 39.4285 76.397 39.2547 76.2794 39.0063C75.6909 37.715 74.5562 37.0693 72.875 37.0693C71.9505 37.0693 71.1435 37.3756 70.4543 37.9881C69.765 38.6007 69.37 39.5278 69.2691 40.7695C69.2524 40.9516 69.2439 41.2496 69.2439 41.6636C69.2439 42.0443 69.2524 42.3257 69.2691 42.5078C69.3868 43.7495 69.7819 44.6766 70.4543 45.2892C71.1435 45.9018 71.9505 46.2081 72.875 46.2081Z" fill="#101111"/>
<path d="M93.2163 47.4243C93.2163 47.6064 93.1491 47.7638 93.0147 47.8961C92.8801 48.0285 92.7205 48.0948 92.5355 48.0948H91.6025C91.4175 48.0948 91.2578 48.0285 91.1234 47.8961C90.989 47.7638 90.9216 47.6064 90.9216 47.4243V40.8682C90.9216 39.6265 90.6106 38.6829 89.9887 38.0372C89.3667 37.3915 88.5008 37.0687 87.3913 37.0687C86.2987 37.0687 85.4329 37.3915 84.794 38.0372C84.1721 38.6829 83.8611 39.6265 83.8611 40.8682V47.4243C83.8611 47.6064 83.7937 47.7638 83.6593 47.8961C83.5249 48.0285 83.3651 48.0948 83.1802 48.0948H82.2471C82.0622 48.0948 81.9026 48.0285 81.768 47.8961C81.6336 47.7638 81.5664 47.6064 81.5664 47.4243V31.1334C81.5664 30.9513 81.6336 30.794 81.768 30.6616C81.9026 30.5291 82.0622 30.4629 82.2471 30.4629H83.1802C83.3651 30.4629 83.5249 30.5291 83.6593 30.6616C83.7937 30.794 83.8611 30.9513 83.8611 31.1334V36.6216C84.2308 36.1415 84.7353 35.7442 85.374 35.4296C86.0297 35.0985 86.8282 34.933 87.7696 34.933C88.8287 34.933 89.7701 35.1565 90.5939 35.6035C91.4176 36.0505 92.0564 36.6961 92.5104 37.5405C92.981 38.3683 93.2163 39.3534 93.2163 40.4957V47.4243Z" fill="#101111"/>
<path d="M102.055 34.9336C103.854 34.9336 105.275 35.4965 106.317 36.6223C107.359 37.7481 107.88 39.2795 107.88 41.2166V41.8871C107.88 42.0692 107.813 42.2264 107.679 42.3589C107.544 42.4913 107.385 42.5576 107.2 42.5576H98.5252V42.7065C98.5588 43.7993 98.895 44.6601 99.5338 45.2892C100.189 45.9018 101.03 46.2081 102.055 46.2081C102.896 46.2081 103.543 46.1004 103.997 45.8853C104.468 45.6701 104.888 45.3638 105.258 44.9664C105.392 44.834 105.51 44.7429 105.611 44.6933C105.729 44.6435 105.88 44.6187 106.065 44.6187H106.821C107.023 44.6187 107.191 44.6849 107.326 44.8175C107.46 44.9498 107.519 45.1071 107.502 45.2892C107.435 45.7362 107.183 46.1999 106.746 46.6799C106.325 47.1435 105.712 47.5409 104.905 47.8719C104.115 48.1865 103.165 48.3438 102.055 48.3438C100.98 48.3438 100.021 48.1038 99.1807 47.6235C98.3402 47.127 97.6678 46.4481 97.1635 45.5873C96.6759 44.7263 96.3817 43.7579 96.2808 42.6818C96.2473 42.185 96.2305 41.8043 96.2305 41.5394C96.2305 41.2745 96.2473 40.8937 96.2808 40.397C96.3817 39.3705 96.6759 38.4434 97.1635 37.6156C97.6678 36.7878 98.3319 36.1339 99.1555 35.6538C99.9962 35.1737 100.963 34.9336 102.055 34.9336ZM105.611 40.4715V40.397C105.611 39.3871 105.283 38.5841 104.628 37.9881C103.989 37.3756 103.131 37.0693 102.055 37.0693C101.08 37.0693 100.248 37.3756 99.5591 37.9881C98.8865 38.6007 98.542 39.4037 98.5252 40.397V40.4715H105.611Z" fill="#101111"/>
<path d="M113.217 36.6223C113.62 36.1091 114.074 35.7034 114.578 35.4054C115.082 35.0909 115.755 34.9336 116.596 34.9336C118.562 34.9336 119.941 35.6538 120.731 37.0941C121.219 36.3988 121.773 35.869 122.395 35.5048C123.017 35.124 123.833 34.9336 124.841 34.9336C126.489 34.9336 127.708 35.422 128.498 36.3988C129.305 37.3756 129.708 38.758 129.708 40.546V47.4249C129.708 47.607 129.641 47.7644 129.506 47.8968C129.372 48.0292 129.212 48.0954 129.027 48.0954H128.094C127.909 48.0954 127.75 48.0292 127.615 47.8968C127.481 47.7644 127.413 47.607 127.413 47.4249V40.7944C127.413 38.311 126.422 37.0693 124.438 37.0693C123.53 37.0693 122.807 37.3673 122.269 37.9633C121.731 38.5593 121.462 39.4451 121.462 40.6205V47.4249C121.462 47.607 121.395 47.7644 121.261 47.8968C121.126 48.0292 120.966 48.0954 120.782 48.0954H119.848C119.664 48.0954 119.504 48.0292 119.369 47.8968C119.235 47.7644 119.168 47.607 119.168 47.4249V40.7944C119.168 38.311 118.176 37.0693 116.192 37.0693C115.284 37.0693 114.561 37.3673 114.023 37.9633C113.486 38.5593 113.217 39.4451 113.217 40.6205V47.4249C113.217 47.607 113.149 47.7644 113.015 47.8968C112.88 48.0292 112.721 48.0954 112.536 48.0954H111.603C111.418 48.0954 111.258 48.0292 111.124 47.8968C110.989 47.7644 110.922 47.607 110.922 47.4249V35.8524C110.922 35.6703 110.989 35.513 111.124 35.3806C111.258 35.2482 111.418 35.1819 111.603 35.1819H112.536C112.721 35.1819 112.88 35.2482 113.015 35.3806C113.149 35.513 113.217 35.6703 113.217 35.8524V36.6223Z" fill="#101111"/>
<path d="M136.767 52.2175C136.615 52.6149 136.372 52.8136 136.035 52.8136H135.001C134.833 52.8136 134.69 52.7556 134.573 52.6398C134.455 52.5238 134.396 52.3831 134.396 52.2175C134.396 52.1514 134.405 52.0933 134.421 52.0437L136.842 46.8534L131.849 35.9515C131.833 35.9018 131.824 35.8439 131.824 35.7777C131.824 35.6121 131.883 35.4714 132.001 35.3555C132.118 35.2396 132.261 35.1816 132.429 35.1816H133.463C133.799 35.1816 134.043 35.3803 134.194 35.7777L138.078 44.2211L142.012 35.7777C142.163 35.3803 142.407 35.1816 142.743 35.1816H143.777C143.945 35.1816 144.088 35.2396 144.206 35.3555C144.323 35.4714 144.382 35.6121 144.382 35.7777C144.382 35.8439 144.374 35.9018 144.357 35.9515L136.767 52.2175Z" fill="#101111"/>
<path d="M37.2628 39.8801L28.7955 25.5048C28.7545 25.4338 28.6951 25.3747 28.6234 25.3334C28.5516 25.2921 28.47 25.2701 28.3868 25.2695C28.3036 25.269 28.2217 25.29 28.1494 25.3304C28.0771 25.3708 28.017 25.4292 27.9751 25.4997L25.4393 29.8071C25.3562 29.9481 25.3125 30.1081 25.3125 30.2709C25.3125 30.4337 25.3562 30.5936 25.4393 30.7346L30.9604 40.1126C31.0435 40.2538 31.1632 40.371 31.3072 40.4524C31.4512 40.5338 31.6146 40.5766 31.7808 40.5764H36.8526C36.9355 40.5762 37.0171 40.5546 37.0888 40.5138C37.1608 40.473 37.2204 40.4144 37.262 40.3439C37.3034 40.2734 37.3254 40.1935 37.3256 40.1121C37.3256 40.0307 37.304 39.9507 37.2628 39.8801Z" fill="#101111"/>
<path d="M15.0653 47.394L23.5325 33.0187C23.574 32.9483 23.6338 32.8898 23.7057 32.8492C23.7775 32.8085 23.859 32.7871 23.942 32.7871C24.025 32.7871 24.1066 32.8085 24.1784 32.8492C24.2503 32.8898 24.31 32.9483 24.3516 33.0187L26.8887 37.3223C26.9718 37.4635 27.0155 37.6237 27.0155 37.7867C27.0155 37.9497 26.9718 38.1099 26.8887 38.2511L21.3675 47.6292C21.2847 47.7702 21.1654 47.8874 21.0216 47.9688C20.8778 48.0502 20.7146 48.093 20.5485 48.0929H15.4755C15.3919 48.0933 15.3097 48.0719 15.2373 48.0312C15.1648 47.9902 15.1047 47.9314 15.063 47.8604C15.0214 47.7894 14.9996 47.7088 15 47.627C15.0004 47.545 15.0229 47.4647 15.0653 47.394Z" fill="#101111"/>
<path d="M24.3554 48.0891H41.2899C41.373 48.0891 41.4545 48.0676 41.5264 48.0268C41.5984 47.986 41.658 47.9273 41.6994 47.8568C41.7408 47.7863 41.7627 47.7062 41.7625 47.6248C41.7624 47.5433 41.7405 47.4633 41.6988 47.393L39.1655 43.0867C39.0824 42.9456 38.9628 42.8285 38.8187 42.7471C38.6747 42.6655 38.5113 42.6229 38.3451 42.623H27.3028C27.1365 42.6229 26.9732 42.6655 26.8292 42.7471C26.6852 42.8285 26.5655 42.9456 26.4824 43.0867L23.9466 47.393C23.9049 47.4633 23.8829 47.5433 23.8828 47.6248C23.8827 47.7062 23.9044 47.7863 23.9459 47.8568C23.9873 47.9273 24.047 47.986 24.1189 48.0268C24.1908 48.0676 24.2724 48.0891 24.3554 48.0891Z" fill="#101111"/>
</g>
<defs>
<clipPath id="clip0_9438_65094">
<rect width="129.38" height="27.5444" fill="white" transform="translate(15 25.2695)"/>
</clipPath>
</defs>
</svg>
