<svg width="130" height="28" viewBox="0 0 130 28" fill="none" xmlns="http://www.w3.org/2000/svg">
<g clip-path="url(#clip0_4502_16845)">
<path d="M40.5258 14.6556V14.3328C40.5258 13.5216 40.2483 12.9007 39.6936 12.4703C39.1556 12.0233 38.4495 11.7998 37.5754 11.7998C36.903 11.7998 36.3733 11.9157 35.9867 12.1474C35.6169 12.3627 35.2638 12.6938 34.9276 13.1408C34.8267 13.2732 34.7175 13.3643 34.5998 13.4139C34.4822 13.4636 34.3224 13.4885 34.1207 13.4885H33.3642C33.1793 13.4885 33.0112 13.4222 32.8599 13.2898C32.7253 13.1573 32.6666 13.0001 32.6833 12.8179C32.7338 12.3213 32.9775 11.8329 33.4146 11.3528C33.8685 10.8561 34.4654 10.4505 35.205 10.1359C35.9447 9.82135 36.7349 9.66406 37.5754 9.66406C39.1388 9.66406 40.3995 10.0945 41.3577 10.9554C42.3328 11.8163 42.8204 13.0249 42.8204 14.5811V22.1554C42.8204 22.3375 42.7531 22.4949 42.6187 22.6272C42.4841 22.7596 42.3245 22.8259 42.1395 22.8259H41.2065C41.0215 22.8259 40.8619 22.7596 40.7274 22.6272C40.593 22.4949 40.5258 22.3375 40.5258 22.1554V21.1372C40.2568 21.7332 39.6851 22.2051 38.8109 22.5528C37.9367 22.9005 37.0626 23.0743 36.1884 23.0743C35.331 23.0743 34.5662 22.9252 33.8937 22.6272C33.2213 22.3126 32.7001 21.8905 32.3303 21.3607C31.9772 20.8309 31.8008 20.235 31.8008 19.5727C31.8008 18.331 32.2716 17.3625 33.2129 16.6671C34.1543 15.9552 35.4067 15.4751 36.9702 15.2268L40.5258 14.6556ZM40.5258 16.6424L37.5502 17.1141C36.4574 17.2797 35.6085 17.5529 35.0033 17.9337C34.3981 18.2979 34.0955 18.7614 34.0955 19.3244C34.0955 19.7382 34.2888 20.1108 34.6755 20.442C35.062 20.773 35.6505 20.9385 36.4407 20.9385C37.6511 20.9385 38.6345 20.5992 39.3909 19.9203C40.1474 19.2416 40.5258 18.3558 40.5258 17.2632V16.6424Z" fill="#101111"/>
<path d="M48.7908 22.1557C48.7908 22.3378 48.7236 22.4952 48.589 22.6276C48.4546 22.76 48.2948 22.8262 48.1099 22.8262H47.177C46.9921 22.8262 46.8323 22.76 46.6979 22.6276C46.5633 22.4952 46.4961 22.3378 46.4961 22.1557V5.86485C46.4961 5.68274 46.5633 5.52545 46.6979 5.393C46.8323 5.26055 46.9921 5.19434 47.177 5.19434H48.1099C48.2948 5.19434 48.4546 5.26055 48.589 5.393C48.7236 5.52545 48.7908 5.68274 48.7908 5.86485V22.1557Z" fill="#101111"/>
<path d="M57.875 20.9385C59.5562 20.9385 60.6909 20.2929 61.2794 19.0015C61.397 18.7532 61.5147 18.5793 61.6324 18.48C61.75 18.3807 61.9098 18.331 62.1115 18.331H62.868C63.0529 18.331 63.2125 18.3972 63.3471 18.5297C63.4815 18.6456 63.5487 18.7863 63.5487 18.9519C63.5487 19.5147 63.3219 20.119 62.868 20.7648C62.4141 21.4104 61.7585 21.9567 60.901 22.4037C60.0437 22.8508 59.0351 23.0743 57.875 23.0743C56.6815 23.0743 55.6476 22.8259 54.7735 22.3293C53.8994 21.8326 53.2268 21.1539 52.7562 20.2929C52.2854 19.4154 52.0249 18.4386 51.9744 17.3625C51.9576 17.1639 51.9492 16.7831 51.9492 16.2201C51.9492 15.8228 51.9576 15.5414 51.9744 15.3758C52.1258 13.6871 52.7057 12.313 53.7144 11.2534C54.723 10.1938 56.11 9.66406 57.875 9.66406C59.0351 9.66406 60.0353 9.88757 60.8758 10.3346C61.7332 10.765 62.3804 11.3031 62.8175 11.9488C63.2714 12.5779 63.5152 13.1739 63.5487 13.7368C63.5656 13.9189 63.4984 14.0762 63.3471 14.2086C63.2125 14.3411 63.0529 14.4073 62.868 14.4073H62.1115C61.9098 14.4073 61.75 14.3576 61.6324 14.2583C61.5147 14.159 61.397 13.9851 61.2794 13.7368C60.6909 12.4454 59.5562 11.7998 57.875 11.7998C56.9505 11.7998 56.1435 12.106 55.4543 12.7186C54.765 13.3312 54.37 14.2583 54.2691 15.5C54.2524 15.6821 54.2439 15.9801 54.2439 16.394C54.2439 16.7748 54.2524 17.0562 54.2691 17.2383C54.3868 18.48 54.7819 19.4071 55.4543 20.0197C56.1435 20.6322 56.9505 20.9385 57.875 20.9385Z" fill="#101111"/>
<path d="M78.2163 22.1557C78.2163 22.3378 78.1491 22.4952 78.0147 22.6276C77.8801 22.76 77.7205 22.8262 77.5355 22.8262H76.6025C76.4175 22.8262 76.2578 22.76 76.1234 22.6276C75.989 22.4952 75.9216 22.3378 75.9216 22.1557V15.5997C75.9216 14.358 75.6106 13.4143 74.9887 12.7686C74.3667 12.1229 73.5008 11.8001 72.3913 11.8001C71.2987 11.8001 70.4329 12.1229 69.794 12.7686C69.1721 13.4143 68.8611 14.358 68.8611 15.5997V22.1557C68.8611 22.3378 68.7937 22.4952 68.6593 22.6276C68.5249 22.76 68.3651 22.8262 68.1802 22.8262H67.2471C67.0622 22.8262 66.9026 22.76 66.768 22.6276C66.6336 22.4952 66.5664 22.3378 66.5664 22.1557V5.86485C66.5664 5.68274 66.6336 5.52545 66.768 5.393C66.9026 5.26055 67.0622 5.19434 67.2471 5.19434H68.1802C68.3651 5.19434 68.5249 5.26055 68.6593 5.393C68.7937 5.52545 68.8611 5.68274 68.8611 5.86485V11.3531C69.2308 10.873 69.7353 10.4756 70.374 10.1611C71.0297 9.82995 71.8282 9.6644 72.7696 9.6644C73.8287 9.6644 74.7701 9.88791 75.5939 10.3349C76.4176 10.7819 77.0564 11.4276 77.5104 12.2719C77.981 13.0997 78.2163 14.0848 78.2163 15.2271V22.1557Z" fill="#101111"/>
<path d="M87.0554 9.66406C88.8543 9.66406 90.2748 10.227 91.3171 11.3528C92.3594 12.4786 92.8805 14.01 92.8805 15.947V16.6175C92.8805 16.7996 92.8133 16.9569 92.6787 17.0894C92.5443 17.2218 92.3845 17.288 92.1996 17.288H83.5252V17.4369C83.5588 18.5297 83.895 19.3905 84.5338 20.0197C85.1895 20.6322 86.03 20.9385 87.0554 20.9385C87.8961 20.9385 88.5433 20.8309 88.9972 20.6157C89.4678 20.4006 89.8881 20.0943 90.258 19.6968C90.3924 19.5645 90.5101 19.4733 90.611 19.4238C90.7287 19.374 90.88 19.3491 91.0649 19.3491H91.8214C92.0232 19.3491 92.1913 19.4154 92.3257 19.5479C92.4602 19.6803 92.519 19.8376 92.5023 20.0197C92.4349 20.4667 92.1828 20.9304 91.7457 21.4104C91.3254 21.874 90.7119 22.2714 89.9049 22.6024C89.1148 22.917 88.1651 23.0743 87.0554 23.0743C85.9796 23.0743 85.0214 22.8342 84.1807 22.354C83.3402 21.8574 82.6678 21.1786 82.1635 20.3178C81.6759 19.4568 81.3817 18.4883 81.2808 17.4122C81.2473 16.9155 81.2305 16.5347 81.2305 16.2698C81.2305 16.0049 81.2473 15.6242 81.2808 15.1275C81.3817 14.101 81.6759 13.1739 82.1635 12.3461C82.6678 11.5183 83.3319 10.8644 84.1555 10.3842C84.9962 9.90412 85.9628 9.66406 87.0554 9.66406ZM90.611 15.202V15.1275C90.611 14.1176 90.2831 13.3146 89.6276 12.7186C88.9887 12.106 88.1314 11.7998 87.0554 11.7998C86.0805 11.7998 85.2483 12.106 84.5591 12.7186C83.8865 13.3312 83.542 14.1341 83.5252 15.1275V15.202H90.611Z" fill="#101111"/>
<path d="M98.2166 11.3528C98.62 10.8395 99.0739 10.4339 99.5782 10.1359C100.082 9.82135 100.755 9.66406 101.596 9.66406C103.562 9.66406 104.941 10.3842 105.731 11.8246C106.219 11.1293 106.773 10.5995 107.395 10.2352C108.017 9.85445 108.833 9.66406 109.841 9.66406C111.489 9.66406 112.708 10.1525 113.498 11.1293C114.305 12.106 114.708 13.4885 114.708 15.2765V22.1554C114.708 22.3375 114.641 22.4949 114.506 22.6273C114.372 22.7596 114.212 22.8259 114.027 22.8259H113.094C112.909 22.8259 112.75 22.7596 112.615 22.6273C112.481 22.4949 112.413 22.3375 112.413 22.1554V15.5248C112.413 13.0414 111.422 11.7998 109.438 11.7998C108.53 11.7998 107.807 12.0978 107.269 12.6938C106.731 13.2898 106.462 14.1755 106.462 15.351V22.1554C106.462 22.3375 106.395 22.4949 106.261 22.6273C106.126 22.7596 105.966 22.8259 105.782 22.8259H104.848C104.664 22.8259 104.504 22.7596 104.369 22.6273C104.235 22.4949 104.168 22.3375 104.168 22.1554V15.5248C104.168 13.0414 103.176 11.7998 101.192 11.7998C100.284 11.7998 99.5614 12.0978 99.0234 12.6938C98.4856 13.2898 98.2166 14.1755 98.2166 15.351V22.1554C98.2166 22.3375 98.1492 22.4949 98.0148 22.6273C97.8802 22.7596 97.7206 22.8259 97.5357 22.8259H96.6026C96.4177 22.8259 96.2581 22.7596 96.1235 22.6273C95.9891 22.4949 95.9219 22.3375 95.9219 22.1554V10.5829C95.9219 10.4008 95.9891 10.2435 96.1235 10.1111C96.2581 9.97862 96.4177 9.9124 96.6026 9.9124H97.5357C97.7206 9.9124 97.8802 9.97862 98.0148 10.1111C98.1492 10.2435 98.2166 10.4008 98.2166 10.5829V11.3528Z" fill="#101111"/>
<path d="M121.767 26.948C121.615 27.3454 121.372 27.544 121.035 27.544H120.001C119.833 27.544 119.69 27.4861 119.573 27.3703C119.455 27.2543 119.396 27.1136 119.396 26.948C119.396 26.8819 119.405 26.8238 119.421 26.7742L121.842 21.5839L116.849 10.682C116.833 10.6323 116.824 10.5743 116.824 10.5081C116.824 10.3426 116.883 10.2018 117.001 10.0859C117.118 9.97005 117.261 9.91211 117.429 9.91211H118.463C118.799 9.91211 119.043 10.1108 119.194 10.5081L123.078 18.9516L127.012 10.5081C127.163 10.1108 127.407 9.91211 127.743 9.91211H128.777C128.945 9.91211 129.088 9.97005 129.206 10.0859C129.323 10.2018 129.382 10.3426 129.382 10.5081C129.382 10.5743 129.374 10.6323 129.357 10.682L121.767 26.948Z" fill="#101111"/>
<path d="M22.2628 14.6106L13.7955 0.235283C13.7545 0.1643 13.6951 0.105172 13.6234 0.063864C13.5516 0.0225564 13.47 0.000530668 13.3868 9.46978e-06C13.3036 -0.000511728 13.2217 0.0204899 13.1494 0.0608952C13.0771 0.1013 13.017 0.15968 12.9751 0.230144L10.4393 4.5376C10.3562 4.6786 10.3125 4.83855 10.3125 5.00136C10.3125 5.16417 10.3562 5.32412 10.4393 5.46511L15.9604 14.8431C16.0435 14.9843 16.1632 15.1014 16.3072 15.1828C16.4512 15.2643 16.6146 15.307 16.7808 15.3069H21.8526C21.9355 15.3066 22.0171 15.285 22.0888 15.2442C22.1608 15.2034 22.2204 15.1449 22.262 15.0744C22.3034 15.0039 22.3254 14.924 22.3256 14.8426C22.3256 14.7612 22.304 14.6812 22.2628 14.6106Z" fill="#101111"/>
<path d="M0.065291 22.1235L8.5325 7.74818C8.57404 7.67776 8.63377 7.61929 8.70566 7.57865C8.77754 7.53799 8.85904 7.5166 8.94203 7.5166C9.02501 7.5166 9.10656 7.53799 9.17844 7.57865C9.25033 7.61929 9.31003 7.67776 9.35156 7.74818L11.8887 12.0518C11.9718 12.193 12.0155 12.3532 12.0155 12.5162C12.0155 12.6792 11.9718 12.8393 11.8887 12.9806L6.36753 22.3587C6.28472 22.4997 6.16538 22.6169 6.02157 22.6983C5.87776 22.7797 5.71455 22.8225 5.54847 22.8223H0.475481C0.391913 22.8228 0.309728 22.8014 0.23728 22.7606C0.16483 22.7197 0.104713 22.6609 0.0630353 22.5899C0.0213579 22.5189 -0.00039236 22.4383 5.35806e-06 22.3564C0.000403077 22.2744 0.0229261 22.1942 0.065291 22.1235Z" fill="#101111"/>
<path d="M9.35544 22.8196H26.2899C26.373 22.8196 26.4545 22.798 26.5264 22.7573C26.5984 22.7165 26.658 22.6578 26.6994 22.5873C26.7408 22.5168 26.7627 22.4366 26.7625 22.3553C26.7624 22.2737 26.7405 22.1938 26.6988 22.1234L24.1655 17.8172C24.0824 17.676 23.9628 17.5589 23.8187 17.4775C23.6747 17.396 23.5113 17.3534 23.3451 17.3535H12.3028C12.1365 17.3534 11.9732 17.396 11.8292 17.4775C11.6852 17.5589 11.5655 17.676 11.4824 17.8172L8.94659 22.1234C8.90493 22.1938 8.88294 22.2737 8.88281 22.3553C8.8827 22.4366 8.90444 22.5168 8.94588 22.5873C8.98732 22.6578 9.04701 22.7165 9.11891 22.7573C9.19081 22.798 9.27237 22.8196 9.35544 22.8196Z" fill="#101111"/>
</g>
<defs>
<clipPath id="clip0_4502_16845">
<rect width="129.38" height="27.5444" fill="white"/>
</clipPath>
</defs>
</svg>
