<svg width="87" height="66" viewBox="0 0 87 66" fill="none" xmlns="http://www.w3.org/2000/svg">
<path d="M7.08686 55.8215H2.95703L9.31394 43.5402H13.8762L19.952 55.8215H15.3681L14.4384 53.6161H8.05985L7.08686 55.8215ZM13.3356 50.9349L11.368 46.4592L9.29231 50.9349H13.3356Z" fill="#101111"/>
<path d="M20.8864 43.5398H24.8432V55.8212H20.8864V43.5398Z" fill="#101111"/>
<path d="M26.8558 43.5398H30.8126V46.048H26.8558V43.5398ZM26.8558 47.2588H30.8126V55.8212H26.8558V47.2588Z" fill="#101111"/>
<path d="M36.9294 43.5303V48.4817C37.4051 48.0061 37.924 47.6385 38.5078 47.4006C39.0916 47.1628 39.7186 47.0331 40.4105 47.0331C41.7511 47.0331 42.8322 47.4655 43.6539 48.3304C44.4755 49.1953 44.8863 50.3412 44.8863 51.7467C44.8863 53.044 44.4755 54.0819 43.6755 54.8603C42.8755 55.6387 41.7944 56.0279 40.4538 56.0279C39.7186 56.0279 39.0484 55.8981 38.4429 55.617C37.8375 55.3576 37.3402 54.9468 36.9078 54.4278C36.9078 54.7089 36.9078 54.9684 36.8645 55.2062C36.8429 55.4441 36.7997 55.6387 36.7564 55.8116H32.7996C32.8428 55.6603 32.886 55.4441 32.9077 55.2062C32.9293 54.9684 32.9509 54.6873 32.9509 54.3846V43.5303H36.9294ZM40.9079 51.5737C40.9079 50.8169 40.7349 50.2331 40.3673 49.7791C40.0213 49.3466 39.524 49.1304 38.9186 49.1304C38.27 49.1304 37.7726 49.3466 37.4051 49.7574C37.0591 50.1683 36.8861 50.7953 36.8861 51.5953C36.8861 52.3521 37.0591 52.9359 37.4051 53.3467C37.751 53.7575 38.2483 53.9738 38.8754 53.9738C39.5024 53.9738 39.9781 53.7575 40.3457 53.3251C40.7133 52.8927 40.9079 52.3089 40.9079 51.5737Z" fill="#101111"/>
<path d="M53.9218 54.445C53.5543 54.9424 53.0569 55.3099 52.4515 55.5478C51.8461 55.7856 51.1326 55.9153 50.2677 55.9153C49.0569 55.9153 48.1055 55.6991 47.4568 55.2667C46.8082 54.8342 46.4838 54.2288 46.4838 53.4288C46.4838 52.3477 47.046 51.5693 48.1704 51.0936C49.2947 50.6179 51.1974 50.3585 53.857 50.3368C53.857 50.3152 53.857 50.2936 53.857 50.2504C53.857 50.2071 53.857 50.1639 53.857 50.1422C53.857 49.7098 53.7272 49.3855 53.4678 49.1693C53.2083 48.953 52.8191 48.8449 52.2786 48.8449C51.8029 48.8449 51.4353 48.9314 51.1758 49.0828C50.9164 49.2341 50.765 49.472 50.7218 49.7963H47.0676C47.0892 48.8449 47.5433 48.1314 48.4082 47.6773C49.2947 47.2233 50.6353 46.9854 52.4515 46.9854C54.1813 46.9854 55.4786 47.2449 56.3435 47.8071C57.1868 48.3476 57.6192 49.1693 57.6192 50.272V54.6396C57.6192 54.8991 57.6408 55.137 57.6625 55.2883C57.6841 55.4613 57.7273 55.6126 57.7922 55.7424H54.1164C54.0516 55.5478 53.9867 55.3315 53.9651 55.1153C53.9435 54.8991 53.9218 54.6829 53.9218 54.445ZM53.8353 52.0017C52.5596 52.0017 51.6731 52.0882 51.2191 52.2612C50.765 52.4342 50.5272 52.7153 50.5272 53.1261C50.5272 53.4072 50.6353 53.6234 50.8731 53.7964C51.0893 53.9477 51.4137 54.0342 51.8245 54.0342C52.4948 54.0342 52.9921 53.8829 53.338 53.5585C53.684 53.2558 53.8353 52.7801 53.8353 52.1315V52.0017Z" fill="#101111"/>
<path d="M63.388 43.5303V48.4817C63.8636 48.0061 64.3826 47.6385 64.9664 47.4006C65.5502 47.1628 66.1772 47.0331 66.8691 47.0331C68.2097 47.0331 69.2908 47.4655 70.1124 48.3304C70.9341 49.1953 71.3449 50.3412 71.3449 51.7467C71.3449 53.044 70.9341 54.0819 70.1341 54.8603C69.334 55.6387 68.2529 56.0279 66.9124 56.0279C66.1772 56.0279 65.5069 55.8981 64.9015 55.617C64.2961 55.3576 63.7988 54.9468 63.3663 54.4278C63.3663 54.7089 63.3447 54.9684 63.3231 55.2062C63.3015 55.4441 63.2582 55.6387 63.215 55.8116H59.2581C59.3014 55.6603 59.3446 55.4441 59.3662 55.2062C59.3879 54.9684 59.4095 54.6873 59.4095 54.3846V43.5303H63.388ZM67.3664 51.5737C67.3664 50.8169 67.1935 50.2331 66.8259 49.7791C66.4799 49.3466 65.9826 49.1304 65.3772 49.1304C64.7285 49.1304 64.2312 49.3466 63.8853 49.7574C63.5393 50.1683 63.3663 50.7953 63.3663 51.5953C63.3663 52.3521 63.5393 52.9359 63.8853 53.3467C64.2312 53.7575 64.7285 53.9738 65.3556 53.9738C65.961 53.9738 66.4583 53.7575 66.8259 53.3251C67.1935 52.8927 67.3664 52.3089 67.3664 51.5737Z" fill="#101111"/>
<path d="M80.3854 54.445C80.0178 54.9424 79.5205 55.3099 78.9151 55.5478C78.3097 55.7856 77.5961 55.9153 76.7312 55.9153C75.5204 55.9153 74.569 55.6991 73.9204 55.2667C73.2717 54.8342 72.9474 54.2288 72.9474 53.4288C72.9474 52.3477 73.5095 51.5693 74.6339 51.0936C75.7582 50.6179 77.661 50.3585 80.3205 50.3368C80.3205 50.3152 80.3205 50.2936 80.3205 50.2504C80.3205 50.2071 80.3205 50.1639 80.3205 50.1422C80.3205 49.7098 80.1908 49.3855 79.9313 49.1693C79.6719 48.953 79.2827 48.8449 78.7421 48.8449C78.2664 48.8449 77.8988 48.9314 77.6394 49.0828C77.3799 49.2341 77.2286 49.472 77.1853 49.7963H73.5312C73.5528 48.8449 74.0069 48.1314 74.8717 47.6773C75.7582 47.2233 77.0988 46.9854 78.9151 46.9854C80.6449 46.9854 81.9422 47.2449 82.8071 47.8071C83.6503 48.3476 84.0828 49.1693 84.0828 50.272V54.6396C84.0828 54.8991 84.1044 55.137 84.126 55.2883C84.1476 55.4613 84.1909 55.6126 84.2557 55.7424H80.58C80.5151 55.5478 80.4502 55.3315 80.4286 55.1153C80.407 54.8991 80.3854 54.6829 80.3854 54.445ZM80.2989 52.0017C79.0232 52.0017 78.1583 52.0882 77.6826 52.2612C77.2285 52.4342 76.9907 52.7153 76.9907 53.1261C76.9907 53.4072 77.0988 53.6234 77.3367 53.7964C77.5529 53.9477 77.8772 54.0342 78.288 54.0342C78.9583 54.0342 79.4556 53.8829 79.8016 53.5585C80.1475 53.2558 80.2989 52.7801 80.2989 52.1315V52.0017Z" fill="#101111"/>
<path d="M30.0799 22.0264C30.5449 22.1462 34.9148 24.3892 40.0296 21.1751C40.0296 21.1751 40.1403 21.1152 40.1403 21.0753C39.9853 20.8557 39.631 20.5962 39.2103 20.2568C40.716 20.3567 41.6903 21.5345 41.5131 22.7722H40.8046C40.8489 22.3729 40.7603 21.9337 40.6053 21.6542C36.6419 24.2694 32.0363 24.6487 28.1172 23.411L30.0799 22.0264Z" fill="#101111"/>
<path d="M42.2769 32.9645C38.1254 35.0618 34.147 36.7484 28.0279 36.9862C20.0493 36.8132 18.8169 31.5158 22.5791 25.9806C26.1468 20.4021 31.8118 15.3425 40.8066 12.1856C43.4229 11.2559 47.25 10.218 50.9473 10.1532C56.2664 10.1099 61.4341 11.7532 61.0881 16.856C60.8935 20.7696 55.2502 26.2616 52.2879 30.2185C51.0122 31.9483 50.796 33.0726 52.9798 32.9645C60.8719 32.4456 68.0072 29.7212 74.6452 26.8887C70.1478 29.9374 46.9473 41.4188 46.8608 33.5915C46.8824 32.5969 47.3365 31.5374 48.0932 30.4131C48.8284 29.2887 49.8446 28.1211 50.9041 26.9319C52.4825 25.1373 56.4177 20.8129 57.7367 18.2182C59.9638 13.3749 54.9907 13.137 50.6879 11.6235L48.85 12.6613L49.9744 13.7208C43.7039 14.7587 40.612 15.7965 32.8929 18.4561L33.7794 20.7048L31.1631 23.2994C31.0982 23.2346 30.709 23.2129 29.8874 22.694V27.0184C26.4495 28.532 23.4656 31.1482 25.7792 33.4186C26.017 33.6132 26.363 33.8078 26.5792 33.8294C30.8172 36.2078 42.2985 32.9645 42.2769 32.9645Z" fill="#101111"/>
<path d="M67.0859 35.7739H67.6264C67.7345 35.7739 67.821 35.7522 67.8859 35.7306C67.9507 35.709 67.994 35.6658 68.0372 35.6225C68.0805 35.5576 68.0805 35.5144 68.0805 35.4495C68.0805 35.363 68.0372 35.2766 67.9724 35.2333C67.9075 35.1684 67.7994 35.1468 67.6696 35.1468H67.0859V35.7739ZM66.848 36.855V34.9306H67.7129C67.8859 34.9306 68.0156 34.9522 68.1021 34.9738C68.1886 35.0171 68.2534 35.0603 68.3183 35.1685C68.3832 35.2549 68.4048 35.3414 68.4048 35.4495C68.4048 35.5793 68.3616 35.709 68.2751 35.7955C68.1886 35.882 68.0588 35.9468 67.8642 35.9685C67.9291 35.9901 67.994 36.0333 68.0156 36.055C68.0805 36.1198 68.167 36.2063 68.2318 36.3144L68.5778 36.8334H68.2534L67.994 36.4442C67.9291 36.3144 67.8642 36.2279 67.7994 36.1631C67.7561 36.0982 67.7129 36.055 67.6696 36.0333C67.6264 36.0117 67.6048 35.9901 67.5615 35.9901C67.5399 35.9901 67.4967 35.9901 67.4102 35.9901H67.0859V36.855H66.848Z" fill="#101111"/>
<path d="M67.6152 37.7461C68.6315 37.7461 69.4531 36.9244 69.4531 35.9082C69.4531 34.892 68.6315 34.0703 67.6152 34.0703C66.599 34.0703 65.7773 34.892 65.7773 35.9082C65.7773 36.9244 66.599 37.7461 67.6152 37.7461ZM66.0584 35.9082C66.0584 35.0433 66.7503 34.3514 67.6152 34.3514C68.4801 34.3514 69.172 35.0433 69.172 35.9082C69.172 36.7515 68.4801 37.465 67.6152 37.465C66.7503 37.465 66.0584 36.7731 66.0584 35.9082Z" fill="#101111"/>
</svg>
