<svg width="117" height="20" viewBox="0 0 117 20" fill="none" xmlns="http://www.w3.org/2000/svg">
<g clip-path="url(#clip0_4488_14805)">
<path d="M91.4774 8.27399V11.6483H80.8761V16.0858H91.8478V19.7143H77.1956C77.2188 15.9239 77.2188 12.1336 77.2188 8.27399H91.4774ZM12.592 0.0462234C12.8004 0.0462234 12.9161 0.0924468 13.0087 0.300453C15.8558 6.67928 18.726 13.0582 21.5731 19.4138C21.5963 19.4831 21.6194 19.5525 21.6657 19.6681H20.2074C19.4668 19.6681 18.7492 19.645 18.0085 19.6681C17.7307 19.6681 17.5918 19.5988 17.4761 19.3214C15.7863 15.4617 14.0966 11.579 12.4069 7.71931C11.8976 6.56372 11.3884 5.38503 10.856 4.16011C10.7866 4.32189 10.7402 4.41433 10.6708 4.52989C8.49499 9.45268 6.34231 14.3755 4.18963 19.2983C4.0739 19.5525 3.95815 19.645 3.65725 19.645C2.67581 19.6265 1.70918 19.6376 0.733671 19.6191L0 19.5988C0.0694414 19.4831 0.138883 19.3676 0.208324 19.2521C3.03227 12.9657 5.85622 6.67928 8.68017 0.392899C8.7959 0.13867 8.91164 0.0462234 9.21255 0.0462234C10.3467 0.0693351 11.481 0.0693351 12.592 0.0462234ZM29.7672 0.115558C29.9986 0.115558 30.1144 0.184893 30.2302 0.369788C32.1282 2.98141 34.0263 5.56992 35.9244 8.18155C35.9937 8.27399 36.0632 8.38955 36.179 8.50511C36.2715 8.38955 36.341 8.2971 36.4104 8.20465C38.3085 5.59303 40.2066 3.00453 42.1046 0.392899C42.2666 0.184893 42.4055 0.115558 42.6601 0.115558C43.8175 0.13867 44.9981 0.115558 46.1554 0.115558H46.5257V19.6681H42.8684V5.61615C42.8453 5.59303 42.8222 5.59303 42.799 5.56992C42.7296 5.66237 42.6601 5.75482 42.5907 5.84726C40.6232 8.45889 38.6557 11.0705 36.6882 13.6821C36.341 14.1444 35.8317 14.1444 35.5077 13.659C33.6096 11.0474 31.6884 8.45889 29.7904 5.84726C29.7209 5.75482 29.6515 5.63925 29.5589 5.54681C29.5357 5.56992 29.5126 5.56992 29.4894 5.59303V19.6681H25.8091V0.13867C25.9016 0.13867 26.0173 0.115558 26.11 0.115558H29.7672ZM108.374 0C109.509 0 110.597 0.231117 111.615 0.716462C113.953 1.80271 115.365 4.16011 115.226 6.77173C115.18 7.60375 115.064 8.41266 114.764 9.17534C114.022 11.0243 112.611 12.0874 110.736 12.5959C110.597 12.619 110.481 12.6652 110.296 12.7115C110.481 12.9195 110.62 13.1044 110.782 13.2661C112.541 15.2306 114.278 17.1951 116.036 19.1827C116.129 19.2983 116.199 19.4601 116.314 19.645H112.101C111.94 19.645 111.754 19.5525 111.639 19.4369C109.88 17.4262 108.12 15.4387 106.384 13.4048C106.176 13.1737 105.967 13.0812 105.667 13.0812C104.648 13.1044 103.606 13.0812 102.565 13.0812V19.6218C101.292 19.5988 100.088 19.5988 98.8386 19.5988V9.70692H99.2545C102.149 9.70692 105.042 9.73003 107.958 9.73003C108.467 9.73003 109 9.6838 109.486 9.54513C110.898 9.12912 111.684 7.78864 111.523 6.14771C111.384 4.76101 110.296 3.65165 108.861 3.48987C108.56 3.44364 108.236 3.44364 107.935 3.44364H98.8612V0.0231117C98.9312 0.0231117 99.0239 0 99.0929 0H108.374ZM63.1453 0C64.3258 0 65.4832 0.208005 66.5711 0.693351C68.446 1.54849 69.4182 3.02763 69.6033 5.06147C69.7886 7.07218 69.0247 8.55133 67.1498 9.45268C67.1961 9.49891 67.2424 9.52202 67.2655 9.54513C69.3025 10.2616 70.3441 12.5728 70.2284 14.2137C70.0895 16.4787 69.0941 18.1196 66.9414 18.9516C66.3165 19.1827 65.6452 19.3676 64.9971 19.4601C64.2795 19.5756 63.5388 19.6218 62.8212 19.6218H53.5856V7.99665H54.0023C57.1271 7.95043 60.252 7.92731 63.3536 7.85798C63.7934 7.83487 64.2564 7.74242 64.6731 7.58064C65.8536 7.14152 66.2933 5.98593 65.7378 4.85346C65.3212 3.99832 64.5573 3.58231 63.6546 3.42054C63.3536 3.37431 63.0296 3.3512 62.7287 3.3512C59.8121 3.32809 56.9188 3.32809 54.0023 3.30497H53.5856V0.0231117C53.6782 0.0231117 53.7476 0 53.8402 0H63.1453ZM62.8907 11.1399H57.5437C57.428 11.1399 57.3354 11.1629 57.2197 11.1629V16.1551C59.3261 16.1551 61.363 16.1782 63.4231 16.1551C64.1176 16.1551 64.7657 15.9701 65.3906 15.6466C65.923 15.3693 66.3165 14.9764 66.4785 14.3986C66.7331 13.5204 66.409 12.6652 65.599 12.0412C64.8119 11.4403 63.886 11.1399 62.8907 11.1399ZM91.8709 0.115558V3.65165H77.2188V0.115558H91.8709Z" fill="#101111"/>
</g>
<defs>
<clipPath id="clip0_4488_14805">
<rect width="116.314" height="19.7143" fill="white"/>
</clipPath>
</defs>
</svg>
