<svg width="160" height="81" viewBox="0 0 160 81" fill="none" xmlns="http://www.w3.org/2000/svg">
<g clip-path="url(#clip0_9438_65091)">
<path d="M109.86 37.5495V40.5574H100.41V44.5131H110.19V47.7477H97.1287C97.1494 44.3688 97.1494 40.9901 97.1494 37.5495H109.86ZM39.5393 30.215C39.7251 30.215 39.8282 30.2562 39.9107 30.4417C42.4488 36.1279 45.0073 41.8142 47.5453 47.4799C47.566 47.5416 47.5866 47.6035 47.6279 47.7065H46.3279C45.6677 47.7065 45.028 47.6859 44.3677 47.7065C44.1201 47.7065 43.9963 47.6447 43.8931 47.3974C42.3868 43.9568 40.8805 40.4957 39.3743 37.055C38.9203 36.0249 38.4663 34.9742 37.9918 33.8823C37.9299 34.0265 37.8886 34.1089 37.8267 34.2119C35.8871 38.6002 33.9682 42.9885 32.0492 47.3769C31.946 47.6035 31.8429 47.6859 31.5746 47.6859C30.6997 47.6694 29.8381 47.6793 28.9685 47.6628L28.3145 47.6447C28.3764 47.5416 28.4383 47.4386 28.5002 47.3357C31.0175 41.7318 33.5348 36.1279 36.0522 30.5241C36.1554 30.2974 36.2585 30.215 36.5268 30.215C37.5378 30.2356 38.5489 30.2356 39.5393 30.215ZM54.8497 30.2768C55.0561 30.2768 55.1592 30.3386 55.2625 30.5035C56.9544 32.8315 58.6464 35.139 60.3384 37.4671C60.4003 37.5495 60.4622 37.6525 60.5654 37.7555C60.6479 37.6525 60.7098 37.5701 60.7717 37.4877C62.4637 35.1596 64.1557 32.8521 65.8476 30.5241C65.9921 30.3386 66.1159 30.2768 66.3429 30.2768C67.3745 30.2974 68.4269 30.2768 69.4586 30.2768H69.7887V47.7065H66.5285V35.1802C66.508 35.1596 66.4873 35.1596 66.4667 35.139C66.4048 35.2214 66.3429 35.3038 66.281 35.3862C64.527 37.7143 62.7732 40.0423 61.0193 42.3704C60.7098 42.7825 60.2558 42.7825 59.967 42.3499C58.275 40.0218 56.5624 37.7143 54.8704 35.3862C54.8084 35.3038 54.7466 35.2008 54.6641 35.1184C54.6434 35.139 54.6228 35.139 54.6021 35.1596V47.7065H51.3213V30.2974C51.4039 30.2974 51.507 30.2768 51.5896 30.2768H54.8497ZM124.922 30.1738C125.934 30.1738 126.904 30.3799 127.811 30.8125C129.896 31.7808 131.154 33.8823 131.03 36.2103C130.989 36.952 130.886 37.6731 130.618 38.353C129.957 40.0012 128.699 40.9489 127.028 41.4021C126.904 41.4228 126.8 41.464 126.636 41.5052C126.8 41.6906 126.924 41.8554 127.069 41.9996C128.637 43.7508 130.185 45.502 131.752 47.2738C131.835 47.3769 131.897 47.5211 132 47.6859H128.245C128.101 47.6859 127.935 47.6035 127.833 47.5004C126.264 45.7081 124.696 43.9363 123.148 42.1233C122.963 41.9172 122.777 41.8348 122.509 41.8348C121.601 41.8554 120.672 41.8348 119.743 41.8348V47.6653C118.609 47.6447 117.536 47.6447 116.422 47.6447V38.8268H116.793C119.372 38.8268 121.951 38.8474 124.551 38.8474C125.005 38.8474 125.48 38.8062 125.913 38.6826C127.172 38.3118 127.873 37.1168 127.729 35.6541C127.605 34.4179 126.636 33.429 125.356 33.2848C125.088 33.2436 124.799 33.2436 124.53 33.2436H116.442V30.1944C116.504 30.1944 116.587 30.1738 116.649 30.1738H124.922ZM84.6039 30.1738C85.6563 30.1738 86.6879 30.3592 87.6577 30.7919C89.3291 31.5542 90.1958 32.8727 90.3608 34.6858C90.5259 36.4782 89.845 37.7967 88.1736 38.6002C88.2149 38.6414 88.2561 38.662 88.2768 38.6826C90.0926 39.3213 91.0211 41.3816 90.918 42.8443C90.7942 44.8634 89.9068 46.3261 87.9879 47.0678C87.4308 47.2738 86.8324 47.4386 86.2547 47.5211C85.615 47.624 84.9547 47.6653 84.315 47.6653H76.0821V37.3023H76.4535C79.2391 37.2611 82.0247 37.2404 84.7896 37.1786C85.1817 37.158 85.5944 37.0756 85.9658 36.9314C87.0181 36.54 87.4101 35.5098 86.9149 34.5003C86.5436 33.738 85.8626 33.3672 85.0579 33.223C84.7896 33.1818 84.5008 33.1612 84.2325 33.1612C81.6326 33.1406 79.0534 33.1406 76.4535 33.12H76.0821V30.1944C76.1646 30.1944 76.2266 30.1738 76.3091 30.1738H84.6039ZM84.377 40.1042H79.6105C79.5073 40.1042 79.4248 40.1248 79.3217 40.1248V44.5749C81.1994 44.5749 83.0151 44.5955 84.8516 44.5749C85.4706 44.5749 86.0483 44.4101 86.6054 44.1217C87.08 43.8744 87.4308 43.5242 87.5752 43.0092C87.8022 42.2262 87.5133 41.464 86.7912 40.9077C86.0895 40.372 85.2642 40.1042 84.377 40.1042ZM110.211 30.2768V33.429H97.1494V30.2768H110.211Z" fill="#101111"/>
</g>
<defs>
<clipPath id="clip0_9438_65091">
<rect width="103.686" height="17.5739" fill="white" transform="translate(28.3145 30.1738)"/>
</clipPath>
</defs>
</svg>
