<svg width="131" height="19" viewBox="0 0 131 19" fill="none" xmlns="http://www.w3.org/2000/svg">
<g clip-path="url(#clip0_4488_14823)">
<g opacity="0.6">
<path d="M86.0658 10.9512L88.5428 17.1527L91.0429 10.9512H92.0383L89.0418 18.2304H88.0669L85.0601 10.9512H86.0658Z" fill="#101111"/>
<path d="M97.0468 17.3918C96.7845 17.6969 96.449 17.9305 96.0719 18.0708C95.6782 18.2237 95.2596 18.3022 94.8373 18.3023C94.4799 18.3175 94.1231 18.2606 93.7882 18.1352C93.4533 18.0097 93.147 17.8181 92.8876 17.5718C92.4025 17.0525 92.1393 16.3643 92.1541 15.6538C92.169 14.9433 92.4606 14.2667 92.967 13.768C93.4733 13.2694 94.1543 12.9882 94.865 12.9842C95.5756 12.9803 96.2597 13.254 96.7715 13.747C97.2602 14.2614 97.4557 15.0057 97.358 15.9796H92.9956C93.0127 16.1963 93.074 16.4071 93.1757 16.5991C93.2775 16.7911 93.4175 16.9602 93.5872 17.096C93.9454 17.3805 94.3928 17.529 94.8501 17.5152C95.1642 17.5143 95.4754 17.4559 95.7684 17.3429C96.043 17.2527 96.2883 17.0901 96.4783 16.8722L97.0493 17.3866L97.0468 17.3918ZM96.5478 15.2749C96.5509 15.0613 96.5082 14.8496 96.4225 14.6539C96.3369 14.4582 96.2103 14.2832 96.0513 14.1405C95.7027 13.8603 95.2635 13.7176 94.8167 13.7393C94.3798 13.7332 93.9547 13.8807 93.6155 14.156C93.2715 14.4299 93.0489 14.8281 92.9956 15.2646H96.54L96.5478 15.2749Z" fill="#101111"/>
<path d="M98.6543 13.0757H99.426L99.4671 13.8962C99.6622 13.612 99.9255 13.3813 100.233 13.2253C100.54 13.0694 100.882 12.9931 101.227 13.0036C101.528 12.9912 101.829 13.0414 102.11 13.1512C102.391 13.261 102.647 13.428 102.86 13.6415C103.075 13.8748 103.242 14.1489 103.349 14.4475C103.457 14.7461 103.504 15.0633 103.487 15.3803V18.2097H102.636V15.3803C102.648 15.1676 102.617 14.9545 102.546 14.7536C102.475 14.5527 102.365 14.368 102.222 14.21C102.071 14.0644 101.892 13.9516 101.695 13.8786C101.499 13.8056 101.289 13.7739 101.08 13.7856C100.866 13.7814 100.653 13.8233 100.456 13.9085C100.26 13.9938 100.084 14.1202 99.9404 14.2794C99.6448 14.6014 99.4862 15.0257 99.498 15.4626V18.2097H98.6543V13.0654V13.0757Z" fill="#101111"/>
<path d="M106.402 13.0963H107.987V13.8242H106.39V16.5301C106.39 17.1869 106.66 17.5152 107.2 17.5152C107.45 17.5101 107.695 17.4457 107.915 17.3275L108.172 18.0348C107.862 18.1882 107.523 18.2757 107.177 18.292C106.1 18.3126 105.561 17.7287 105.559 16.5404V13.8242H104.53V13.0963H105.559V11.6867L106.41 11.5941L106.402 13.0963Z" fill="#101111"/>
<path d="M113.18 18.2098L113.139 17.3919C112.944 17.6476 112.697 17.8591 112.414 18.0126C112.132 18.1661 111.82 18.258 111.499 18.2823C111.178 18.3066 110.856 18.2627 110.554 18.1536C110.251 18.0444 109.975 17.8725 109.744 17.6491C109.531 17.415 109.367 17.141 109.261 16.8429C109.155 16.5449 109.109 16.2287 109.126 15.9129V13.0835H109.97V15.9129C109.958 16.1263 109.988 16.3399 110.06 16.5414C110.132 16.7428 110.243 16.9279 110.387 17.0858C110.702 17.3699 111.114 17.5217 111.538 17.5098C111.962 17.4978 112.365 17.3229 112.663 17.0215C112.958 16.7005 113.116 16.2767 113.103 15.8408V13.0861H113.952V18.2098H113.18Z" fill="#101111"/>
<path d="M116.437 13.0757L116.498 13.8473C116.802 13.2789 117.329 12.996 118.075 12.996C118.506 12.9787 118.928 13.1165 119.266 13.3844L118.883 14.1097C118.622 13.9276 118.311 13.8305 117.993 13.8319C117.592 13.8241 117.204 13.9758 116.915 14.2537C116.77 14.3974 116.656 14.5698 116.582 14.7597C116.507 14.9497 116.472 15.1532 116.48 15.3572V18.2097H115.629V13.086H116.419L116.437 13.0757Z" fill="#101111"/>
<path d="M124.633 17.3918C124.371 17.6969 124.035 17.9305 123.658 18.0708C123.265 18.2237 122.846 18.3022 122.424 18.3023C122.066 18.3178 121.709 18.2611 121.374 18.1356C121.039 18.0101 120.733 17.8183 120.474 17.5718C119.989 17.0525 119.726 16.3643 119.741 15.6538C119.755 14.9433 120.047 14.2667 120.553 13.768C121.06 13.2694 121.741 12.9882 122.451 12.9842C123.162 12.9803 123.846 13.254 124.358 13.747C124.843 14.2614 125.039 15.0057 124.944 15.9796H120.574C120.592 16.1961 120.654 16.4068 120.755 16.5987C120.857 16.7906 120.997 16.9598 121.166 17.096C121.525 17.3801 121.973 17.5285 122.431 17.5152C122.745 17.5137 123.057 17.4553 123.35 17.3429C123.624 17.252 123.869 17.0895 124.06 16.8722L124.631 17.3866L124.633 17.3918ZM124.119 15.2749C124.122 15.0613 124.079 14.8496 123.994 14.6539C123.908 14.4582 123.781 14.2832 123.622 14.1405C123.274 13.8603 122.834 13.7176 122.388 13.7393C121.951 13.7343 121.526 13.8816 121.186 14.156C120.844 14.4345 120.624 14.8362 120.574 15.2749H124.119Z" fill="#101111"/>
<path d="M129.52 14.2281C129.12 13.8829 128.604 13.7042 128.077 13.7291C127.76 13.7112 127.445 13.7759 127.161 13.9169C127.054 13.965 126.963 14.0441 126.901 14.1441C126.839 14.244 126.809 14.3602 126.814 14.4776C126.814 14.884 127.242 15.1361 128.1 15.2338C128.341 15.2621 128.542 15.2878 128.696 15.3161C128.888 15.3542 129.077 15.4049 129.262 15.4679C129.447 15.5231 129.621 15.6101 129.777 15.7251C129.916 15.8463 130.03 15.993 130.114 16.1572C130.212 16.3548 130.258 16.5745 130.247 16.7951C130.253 17.0223 130.199 17.247 130.089 17.4463C129.98 17.6455 129.82 17.8122 129.625 17.9294C129.167 18.211 128.637 18.3506 128.1 18.3307C127.083 18.3307 126.32 18.0092 125.81 17.3661L126.297 16.7745C126.519 17.0384 126.8 17.2469 127.117 17.3835C127.434 17.5201 127.778 17.5811 128.123 17.5616C128.432 17.568 128.738 17.5038 129.018 17.3739C129.138 17.3242 129.24 17.2394 129.311 17.1306C129.383 17.0219 129.419 16.8942 129.417 16.7643C129.425 16.6462 129.395 16.5286 129.333 16.4281C129.271 16.3275 129.179 16.249 129.069 16.2035C128.742 16.0633 128.395 15.9765 128.041 15.9463C127.789 15.919 127.54 15.8743 127.295 15.8126C127.077 15.7524 126.865 15.6723 126.662 15.5733C126.463 15.4795 126.294 15.3315 126.176 15.1464C126.042 14.904 125.985 14.6267 126.012 14.3511C126.039 14.0756 126.149 13.8148 126.327 13.6031C126.536 13.3716 126.802 13.2002 127.099 13.1066C127.416 13.0063 127.747 12.9602 128.079 12.9703C128.795 12.941 129.494 13.1867 130.034 13.6571L129.548 14.2178L129.52 14.2281Z" fill="#101111"/>
</g>
<path d="M49.1598 0.335938H43.2053L39.684 5.12531L36.1858 0.335938H30.2313L36.7054 9.19961L30.1001 18.2433H36.0572L39.684 13.2739L43.3339 18.2433H49.2884L42.66 9.19961L49.1598 0.335938Z" fill="#101111"/>
<path d="M26.2606 0.335938H21.1445V18.2433H26.2606V0.335938Z" fill="#101111"/>
<path d="M58.242 0.333008H53.126V18.2404H58.242V0.333008Z" fill="#101111"/>
<path d="M74.8693 9.72655L67.4306 0.348441H63.3589V18.2404L68.4723 18.225L68.4749 8.85973L75.9368 18.2404H79.9879V0.333008H74.8719L74.8693 9.72655Z" fill="#101111"/>
<path d="M14.4136 8.83694L14.5654 8.7392C14.7711 8.60287 16.5794 7.35794 16.5794 5.17675C16.5794 2.37309 14.3982 0.335938 11.3887 0.335938H0.667969V18.2459H11.8466C15.0541 18.2459 17.2919 16.1599 17.2919 13.171C17.2919 10.3417 14.8534 9.05557 14.5757 8.91667L14.4136 8.83694ZM5.84573 4.10416H10.0512C11.1187 4.10416 11.808 4.73176 11.808 5.70404C11.808 6.45254 11.3476 7.24734 10.0512 7.24734H5.84573V4.10416ZM10.0847 14.5497H5.8483V10.9667H10.0847C11.2884 10.9667 12.0678 11.6715 12.0678 12.7672C12.0678 13.8629 11.2524 14.5497 10.0847 14.5497Z" fill="#101111"/>
</g>
<defs>
<clipPath id="clip0_4488_14823">
<rect width="129.58" height="18" fill="white" transform="translate(0.666992 0.333008)"/>
</clipPath>
</defs>
</svg>
