<svg width="160" height="81" viewBox="0 0 160 81" fill="none" xmlns="http://www.w3.org/2000/svg">
<g clip-path="url(#clip0_9438_65106)">
<g opacity="0.6">
<path d="M75.6175 53L78.3697 59.8905L81.1476 53H82.2536L78.9241 61.088H77.841L74.5 53H75.6175Z" fill="#101111"/>
<path d="M87.8186 60.1562C87.5271 60.4953 87.1544 60.7549 86.7354 60.9107C86.298 61.0806 85.8328 61.1678 85.3636 61.1679C84.9665 61.1848 84.5701 61.1216 84.1979 60.9822C83.8258 60.8428 83.4855 60.6299 83.1972 60.3563C82.6582 59.7792 82.3658 59.0146 82.3823 58.2251C82.3988 57.4357 82.7229 56.6839 83.2855 56.1298C83.8481 55.5758 84.6048 55.2633 85.3944 55.259C86.184 55.2546 86.9441 55.5587 87.5128 56.1065C88.0558 56.6781 88.273 57.505 88.1644 58.5872H83.3173C83.3362 58.8279 83.4044 59.0621 83.5174 59.2755C83.6305 59.4888 83.7861 59.6767 83.9746 59.8275C84.3727 60.1437 84.8698 60.3087 85.3779 60.2934C85.7268 60.2924 86.0726 60.2275 86.3981 60.1019C86.7033 60.0017 86.9758 59.821 87.1869 59.5789L87.8214 60.1505L87.8186 60.1562ZM87.2641 57.8041C87.2676 57.5668 87.2201 57.3315 87.125 57.1141C87.0298 56.8967 86.8892 56.7022 86.7125 56.5438C86.3252 56.2324 85.8371 56.0738 85.3407 56.0979C84.8553 56.0911 84.383 56.255 84.006 56.5609C83.6238 56.8653 83.3765 57.3077 83.3173 57.7927H87.2555L87.2641 57.8041Z" fill="#101111"/>
<path d="M89.6048 55.3606H90.4621L90.5079 56.2722C90.7246 55.9564 91.0171 55.7001 91.3587 55.5268C91.7003 55.3536 92.0799 55.2689 92.4627 55.2805C92.7978 55.2667 93.1321 55.3225 93.4445 55.4445C93.7569 55.5665 94.0405 55.752 94.2775 55.9893C94.5168 56.2485 94.7017 56.553 94.8215 56.8848C94.9413 57.2166 94.9934 57.569 94.9749 57.9213V61.065H94.0289V57.9213C94.0421 57.6849 94.0082 57.4482 93.9292 57.225C93.8502 57.0017 93.7277 56.7964 93.5687 56.6209C93.4011 56.4592 93.2018 56.3338 92.9835 56.2527C92.7651 56.1715 92.5324 56.1364 92.2998 56.1493C92.0618 56.1447 91.8255 56.1913 91.6071 56.286C91.3886 56.3806 91.1931 56.5212 91.0337 56.6981C90.7053 57.0558 90.529 57.5273 90.5422 58.0127V61.065H89.6048V55.3491V55.3606Z" fill="#101111"/>
<path d="M98.2138 55.3834H99.9743V56.1922H98.1995V59.1988C98.1995 59.9285 98.4996 60.2934 99.0998 60.2934C99.3774 60.2877 99.6497 60.2162 99.8943 60.0848L100.18 60.8707C99.835 61.0411 99.4585 61.1384 99.0741 61.1565C97.8775 61.1794 97.2783 60.5306 97.2764 59.2102V56.1922H96.1332V55.3834H97.2764V53.8173L98.2224 53.7144L98.2138 55.3834Z" fill="#101111"/>
<path d="M105.744 61.0651L105.699 60.1563C105.482 60.4405 105.208 60.6755 104.894 60.846C104.579 61.0166 104.233 61.1187 103.877 61.1457C103.52 61.1727 103.162 61.1239 102.826 61.0027C102.49 60.8814 102.183 60.6904 101.926 60.4421C101.69 60.1821 101.507 59.8776 101.39 59.5464C101.272 59.2152 101.221 58.864 101.24 58.513V55.3692H102.178V58.513C102.164 58.7501 102.198 58.9875 102.278 59.2113C102.357 59.4351 102.481 59.6408 102.641 59.8162C102.991 60.1319 103.449 60.3006 103.92 60.2873C104.391 60.274 104.838 60.0797 105.17 59.7448C105.498 59.3881 105.673 58.9173 105.659 58.433V55.3721H106.602V61.0651H105.744Z" fill="#101111"/>
<path d="M109.363 55.3606L109.431 56.218C109.769 55.5864 110.355 55.272 111.183 55.272C111.662 55.2528 112.131 55.4059 112.507 55.7035L112.081 56.5095C111.791 56.3071 111.445 56.1993 111.092 56.2008C110.646 56.1921 110.216 56.3607 109.894 56.6695C109.733 56.8292 109.607 57.0206 109.524 57.2317C109.441 57.4428 109.402 57.6689 109.411 57.8956V61.0651H108.465V55.372H109.343L109.363 55.3606Z" fill="#101111"/>
<path d="M118.47 60.1562C118.179 60.4953 117.806 60.7549 117.387 60.9107C116.95 61.0806 116.484 61.1678 116.015 61.1679C115.618 61.1851 115.222 61.1221 114.849 60.9827C114.477 60.8432 114.137 60.6302 113.849 60.3563C113.31 59.7792 113.017 59.0146 113.034 58.2251C113.05 57.4357 113.374 56.6839 113.937 56.1298C114.5 55.5758 115.256 55.2633 116.046 55.259C116.836 55.2546 117.596 55.5587 118.164 56.1065C118.704 56.6781 118.921 57.505 118.816 58.5872H113.96C113.98 58.8277 114.048 59.0618 114.161 59.275C114.274 59.4882 114.43 59.6762 114.618 59.8275C115.017 60.1432 115.515 60.3082 116.024 60.2934C116.373 60.2917 116.718 60.2268 117.044 60.1019C117.349 60.0009 117.621 59.8204 117.833 59.5789L118.467 60.1505L118.47 60.1562ZM117.899 57.8041C117.902 57.5668 117.855 57.3315 117.759 57.1141C117.664 56.8967 117.524 56.7022 117.347 56.5438C116.96 56.2324 116.472 56.0738 115.975 56.0979C115.49 56.0923 115.018 56.2561 114.64 56.5609C114.26 56.8704 114.016 57.3167 113.96 57.8041H117.899Z" fill="#101111"/>
<path d="M123.899 56.641C123.456 56.2574 122.882 56.0589 122.296 56.0866C121.945 56.0667 121.594 56.1386 121.279 56.2952C121.16 56.3487 121.059 56.4366 120.99 56.5477C120.922 56.6587 120.888 56.7878 120.893 56.9183C120.893 57.3698 121.369 57.6499 122.322 57.7585C122.59 57.7899 122.813 57.8185 122.985 57.8499C123.198 57.8922 123.408 57.9486 123.614 58.0186C123.819 58.0799 124.013 58.1766 124.185 58.3044C124.34 58.439 124.467 58.602 124.56 58.7845C124.669 59.0041 124.72 59.2482 124.708 59.4933C124.715 59.7457 124.654 59.9954 124.532 60.2168C124.411 60.4382 124.233 60.6234 124.017 60.7536C123.508 61.0664 122.918 61.2216 122.322 61.1995C121.192 61.1995 120.344 60.8422 119.778 60.1277L120.318 59.4704C120.566 59.7636 120.878 59.9952 121.23 60.147C121.582 60.2988 121.965 60.3665 122.348 60.3449C122.691 60.3521 123.031 60.2807 123.342 60.1363C123.476 60.0811 123.589 59.9869 123.668 59.8661C123.747 59.7452 123.788 59.6033 123.785 59.459C123.794 59.3278 123.762 59.1972 123.692 59.0854C123.623 58.9737 123.521 58.8864 123.399 58.8359C123.036 58.6801 122.65 58.5837 122.256 58.5501C121.977 58.5198 121.7 58.4701 121.427 58.4015C121.185 58.3347 120.95 58.2457 120.724 58.1357C120.503 58.0315 120.316 57.8671 120.184 57.6613C120.035 57.392 119.972 57.0839 120.002 56.7777C120.032 56.4716 120.154 56.1818 120.353 55.9465C120.584 55.6893 120.88 55.4989 121.21 55.395C121.562 55.2834 121.93 55.2322 122.299 55.2435C123.094 55.2109 123.871 55.4839 124.471 56.0066L123.931 56.6296L123.899 56.641Z" fill="#101111"/>
</g>
<path d="M90.3913 30.0039H83.7752L79.8626 35.3254L75.9758 30.0039H69.3596L76.5531 39.8524L69.2139 49.901H75.8329L79.8626 44.3794L83.9181 49.901H90.5342L83.1693 39.8524L90.3913 30.0039Z" fill="#101111"/>
<path d="M64.9482 30.0039H59.2637V49.901H64.9482V30.0039Z" fill="#101111"/>
<path d="M100.483 30H94.7988V49.8971H100.483V30Z" fill="#101111"/>
<path d="M118.958 40.4373L110.693 30.0171H106.169V49.8971L111.851 49.88L111.853 39.4741L120.144 49.8971H124.646V30H118.961L118.958 40.4373Z" fill="#101111"/>
<path d="M51.7846 39.4495L51.9533 39.3409C52.1819 39.1894 54.191 37.8061 54.191 35.3826C54.191 32.2674 51.7675 30.0039 48.4237 30.0039H36.5117V49.9039H48.9324C52.4963 49.9039 54.9827 47.5861 54.9827 44.2651C54.9827 41.1214 52.2734 39.6924 51.9647 39.5381L51.7846 39.4495ZM42.2648 34.1908H46.9376C48.1236 34.1908 48.8895 34.8882 48.8895 35.9685C48.8895 36.8001 48.378 37.6832 46.9376 37.6832H42.2648V34.1908ZM46.9747 45.797H42.2676V41.8159H46.9747C48.3122 41.8159 49.1782 42.5989 49.1782 43.8164C49.1782 45.0339 48.2722 45.797 46.9747 45.797Z" fill="#101111"/>
</g>
<defs>
<clipPath id="clip0_9438_65106">
<rect width="89" height="31" fill="white" transform="translate(36 30)"/>
</clipPath>
</defs>
</svg>
