<svg width="89" height="29" viewBox="0 0 89 29" fill="none" xmlns="http://www.w3.org/2000/svg">
<path d="M43.5198 17.9004C43.5335 22.8952 39.9857 27.1905 35.0783 28.1207C30.1708 29.0508 25.2973 26.3515 23.4824 21.698L27.4355 17.7352V17.9004C27.4348 20.6204 29.3557 22.9621 32.0233 23.4933C34.691 24.0246 37.3624 22.5974 38.4038 20.0847C39.4452 17.5719 38.5666 14.6734 36.3053 13.1618C34.044 11.6502 31.0298 11.9466 29.1061 13.8696L17.7325 25.2432C14.7639 28.2149 10.2971 29.1052 6.41597 27.4988C2.5348 25.8924 0.00390625 22.1057 0.00390625 17.9052C0.00390625 13.7047 2.5348 9.91805 6.41597 8.31161C10.2971 6.70517 14.7639 7.59549 17.7325 10.5672C18.3189 11.1606 18.5443 12.0218 18.3236 12.8263C18.1029 13.6309 17.4698 14.2566 16.6627 14.4678C15.8556 14.679 14.9972 14.4435 14.4107 13.8501C12.1784 11.6255 8.56593 11.6297 6.33873 13.8595C4.11152 16.0893 4.11152 19.7017 6.33873 21.9315C8.56593 24.1613 12.1784 24.1655 14.4107 21.9408L25.8038 10.6158C28.7695 7.6437 33.2344 6.75251 37.1139 8.35833C40.9934 9.96414 43.5222 13.7502 43.5198 17.9489V17.9004ZM88.5965 17.9004C88.5974 22.8901 85.0488 27.1749 80.1462 28.1036C75.2436 29.0324 70.3737 26.3424 68.5495 21.698L72.5026 17.7352V17.9004C72.5019 20.6204 74.4228 22.9621 77.0904 23.4933C79.758 24.0246 82.4294 22.5974 83.4708 20.0847C84.5123 17.5719 83.6337 14.6734 81.3723 13.1618C79.111 11.6502 76.0968 11.9466 74.1731 13.8696L62.8384 25.1849C59.8824 28.1869 55.4043 29.1029 51.5069 27.5026C47.6096 25.9023 45.0672 22.1037 45.0738 17.8906V3.32155C45.0177 2.45106 45.4502 1.62155 46.1961 1.16928C46.942 0.71701 47.8775 0.71701 48.6234 1.16928C49.3693 1.62155 49.8018 2.45106 49.7456 3.32155V9.2366C52.6209 7.34286 56.2479 6.99753 59.4289 8.31467C62.6099 9.6318 64.9311 12.4401 65.6259 15.8121L70.8708 10.5672C73.8391 7.59816 78.3033 6.70883 82.1828 8.31377C86.0623 9.9187 88.5934 13.702 88.5965 17.9004ZM61.1678 17.9004C61.1678 14.7462 58.6109 12.1893 55.4567 12.1893C52.3026 12.1893 49.7456 14.7462 49.7456 17.9004C49.7456 21.0545 52.3026 23.6114 55.4567 23.6114C56.9722 23.614 58.4263 23.0131 59.4979 21.9416C60.5695 20.87 61.1704 19.4158 61.1678 17.9004Z" fill="#101111"/>
</svg>
