<svg width="160" height="81" viewBox="0 0 160 81" fill="none" xmlns="http://www.w3.org/2000/svg">
<path d="M78.5198 39.2129C78.5335 44.2077 74.9857 48.503 70.0783 49.4332C65.1708 50.3633 60.2973 47.664 58.4824 43.0105L62.4355 39.0477V39.2129C62.4348 41.9329 64.3557 44.2746 67.0233 44.8058C69.691 45.3371 72.3624 43.9099 73.4038 41.3972C74.4452 38.8844 73.5666 35.9859 71.3053 34.4743C69.044 32.9627 66.0298 33.2591 64.1061 35.1821L52.7325 46.5557C49.7639 49.5274 45.2971 50.4177 41.416 48.8113C37.5348 47.2049 35.0039 43.4182 35.0039 39.2177C35.0039 35.0172 37.5348 31.2305 41.416 29.6241C45.2971 28.0177 49.7639 28.908 52.7325 31.8797C53.3189 32.4731 53.5443 33.3343 53.3236 34.1388C53.1029 34.9434 52.4698 35.5691 51.6627 35.7803C50.8556 35.9915 49.9972 35.756 49.4107 35.1626C47.1784 32.938 43.5659 32.9422 41.3387 35.172C39.1115 37.4018 39.1115 41.0142 41.3387 43.244C43.5659 45.4738 47.1784 45.478 49.4107 43.2533L60.8038 31.9283C63.7695 28.9562 68.2344 28.065 72.1139 29.6708C75.9934 31.2766 78.5222 35.0627 78.5198 39.2614V39.2129ZM123.597 39.2129C123.597 44.2026 120.049 48.4874 115.146 49.4161C110.244 50.3449 105.374 47.6549 103.549 43.0105L107.503 39.0477V39.2129C107.502 41.9329 109.423 44.2746 112.09 44.8058C114.758 45.3371 117.429 43.9099 118.471 41.3972C119.512 38.8844 118.634 35.9859 116.372 34.4743C114.111 32.9627 111.097 33.2591 109.173 35.1821L97.8384 46.4974C94.8824 49.4994 90.4043 50.4154 86.5069 48.8151C82.6096 47.2148 80.0672 43.4162 80.0738 39.2031V24.634C80.0177 23.7636 80.4502 22.9341 81.1961 22.4818C81.942 22.0295 82.8775 22.0295 83.6234 22.4818C84.3693 22.9341 84.8018 23.7636 84.7456 24.634V30.5491C87.6209 28.6554 91.2479 28.31 94.4289 29.6272C97.6099 30.9443 99.9311 33.7526 100.626 37.1246L105.871 31.8797C108.839 28.9107 113.303 28.0213 117.183 29.6263C121.062 31.2312 123.593 35.0145 123.597 39.2129ZM96.1678 39.2129C96.1678 36.0587 93.6109 33.5018 90.4567 33.5018C87.3026 33.5018 84.7456 36.0587 84.7456 39.2129C84.7456 42.367 87.3026 44.9239 90.4567 44.9239C91.9722 44.9265 93.4263 44.3256 94.4979 43.2541C95.5695 42.1825 96.1704 40.7283 96.1678 39.2129Z" fill="#101111"/>
</svg>
