<svg width="160" height="81" viewBox="0 0 160 81" fill="none" xmlns="http://www.w3.org/2000/svg">
<g clip-path="url(#clip0_9438_65114)">
<path d="M42.976 33.142C38.4804 33.142 34.9678 36.5383 34.9678 41.0849C34.9678 45.6316 38.3916 48.9989 42.976 48.9989C47.5602 48.9989 51.0436 45.5735 51.0436 41.0559C51.0436 36.5674 47.6198 33.142 42.976 33.142ZM43.0063 45.7222C40.4462 45.7222 38.5703 43.7434 38.5703 41.0861C38.5703 38.3985 40.4159 36.4209 42.976 36.4209C45.5663 36.4209 47.4412 38.4287 47.4412 41.0861C47.4412 43.7434 45.5663 45.7222 43.0063 45.7222ZM52.0254 36.5975H54.2584V48.7049H57.8306V33.4371H52.0254V36.5975ZM25.9778 36.4198C27.8538 36.4198 29.3422 37.5713 29.9072 39.2839H33.6883C33.0031 35.6227 29.9668 33.142 26.0082 33.142C21.5126 33.142 18 36.5383 18 41.0861C18 45.6339 21.4239 49 26.0082 49C29.878 49 32.9739 46.5193 33.6591 42.8278H29.9072C29.3714 44.5405 27.883 45.7222 26.007 45.7222C23.4167 45.7222 21.6014 43.7434 21.6014 41.0861C21.6025 38.3985 23.3886 36.4198 25.9778 36.4198ZM119.899 39.6093L117.279 39.2258C116.029 39.0492 115.136 38.6356 115.136 37.6607C115.136 36.5975 116.297 36.0665 117.875 36.0665C119.601 36.0665 120.703 36.8044 120.941 38.0151H124.394C124.007 34.9441 121.625 33.1431 117.964 33.1431C114.183 33.1431 111.683 35.0626 111.683 37.7792C111.683 40.3773 113.32 41.8843 116.624 42.3561L119.244 42.7395C120.525 42.9161 121.239 43.4192 121.239 44.3639C121.239 45.5746 119.989 46.0766 118.262 46.0766C116.148 46.0766 114.957 45.2202 114.779 43.9212H111.266C111.594 46.9038 113.945 49 118.232 49C122.132 49 124.721 47.2281 124.721 44.1861C124.721 41.4695 122.846 40.052 119.899 39.6093ZM56.0445 27.1476C54.7347 27.1476 53.7521 28.0922 53.7521 29.3913C53.7521 30.6903 54.7337 31.635 56.0445 31.635C57.3543 31.635 58.3373 30.6903 58.3373 29.3913C58.3373 28.0922 57.3543 27.1476 56.0445 27.1476ZM108.468 38.6646C108.468 35.3577 106.444 33.1431 102.157 33.1431C98.1085 33.1431 95.8461 35.1811 95.3991 38.3113H98.9419C99.1205 37.1006 100.073 36.0967 102.098 36.0967C103.914 36.0967 104.807 36.8938 104.807 37.8687C104.807 39.1386 103.169 39.4628 101.145 39.6697C98.4062 39.9648 95.0126 40.9094 95.0126 44.4533C95.0126 47.2001 97.0671 48.9709 100.342 48.9709C102.902 48.9709 104.509 47.9078 105.314 46.2241C105.433 47.73 106.564 48.7049 108.142 48.7049H110.226V45.5456H108.469V38.6646H108.468ZM104.955 42.5036C104.955 44.5416 103.169 46.0475 100.995 46.0475C99.6556 46.0475 98.5244 45.4863 98.5244 44.3057C98.5244 42.7999 100.34 42.3863 102.008 42.2096C103.615 42.0621 104.508 41.7077 104.955 41.028V42.5036ZM85.9924 33.142C83.9974 33.142 82.3304 33.9693 81.1398 35.3566V27H77.5677V48.7049H81.0801V46.697C82.2707 48.1437 83.9683 49 85.9924 49C90.2789 49 93.5243 45.6339 93.5243 41.0861C93.5243 36.5383 90.2195 33.142 85.9924 33.142ZM85.4567 45.7222C82.8966 45.7222 81.0207 43.7434 81.0207 41.0861C81.0207 38.4287 82.9259 36.4209 85.4857 36.4209C88.0762 36.4209 89.8913 38.3997 89.8913 41.0861C89.8913 43.7434 88.0165 45.7222 85.4567 45.7222ZM69.0234 33.142C66.7016 33.142 65.1829 34.0866 64.29 35.4159V33.4371H60.7468V48.7038H64.319V40.4064C64.319 38.0732 65.8074 36.4198 68.0103 36.4198C70.0648 36.4198 71.3442 37.8664 71.3442 39.9637V48.7049H74.9163V39.6987C74.9177 35.8586 72.9237 33.142 69.0234 33.142ZM141.75 40.5841C141.75 36.2141 138.535 33.1431 134.218 33.1431C129.634 33.1431 126.269 36.5685 126.269 41.0861C126.269 45.8407 129.871 49 134.277 49C137.999 49 140.916 46.8144 141.66 43.7144H137.938C137.402 45.0727 136.093 45.8407 134.336 45.8407C132.043 45.8407 130.316 44.4231 129.93 41.9424H141.749V40.5841H141.75ZM130.139 39.4025C130.705 37.2761 132.312 36.2432 134.158 36.2432C136.182 36.2432 137.73 37.3946 138.088 39.4025H130.139Z" fill="#101111"/>
</g>
<defs>
<clipPath id="clip0_9438_65114">
<rect width="124" height="22" fill="white" transform="translate(18 28)"/>
</clipPath>
</defs>
</svg>
