<svg width="109" height="18" viewBox="0 0 109 18" fill="none" xmlns="http://www.w3.org/2000/svg">
<g clip-path="url(#clip0_4488_14820)">
<path d="M52.5181 0.722191V2.97952H41.5078V7.42338H51.2866V9.65396H41.5078V17.6846H39.2501V0.722191H52.5181ZM67.8826 11.2416C67.8826 11.4238 67.8328 15.6991 63.5205 15.6991C59.507 15.6991 59.1671 12.2861 59.1585 11.2416V0.722191H56.9008V11.2416C56.9008 14.3109 58.6347 17.895 63.5205 17.895C68.4061 17.895 70.14 14.3107 70.14 11.2416V0.722191H67.8826V11.2416ZM85.4068 11.2144L89.3804 17.6844H86.6586L82.848 11.4455H78.5064V17.6844H76.2494V0.722516H83.5156C87.6612 0.722516 89.5171 3.41553 89.5171 6.08418C89.5173 9.91002 86.4771 10.9626 85.4068 11.2144ZM83.5159 9.1884C85.2247 9.1884 87.2615 8.64976 87.2615 6.08407C87.2615 3.36475 84.9149 2.95863 83.5159 2.95863H78.5064V9.1884H83.5159ZM29.9505 0.722191V14.2023H29.4576L21.4913 0.722191H18.5704V17.6844H20.8276V4.63054H21.3202L28.9258 17.6843H32.2073V0.722191H29.9505ZM0.333496 0.722191V2.81603H5.3462V15.5911H0.333496V17.6844H12.6158V15.5911H7.60332V2.81603H12.6158V0.722191H0.333496ZM108.604 17.6843H106.231L104.371 12.5437H97.8046L95.9474 17.6843H93.5747L99.7374 0.708008H102.442L108.604 17.6843ZM103.577 10.3475L101.355 4.20677H100.817L98.5978 10.3475H103.577Z" fill="#101111"/>
</g>
<defs>
<clipPath id="clip0_4488_14820">
<rect width="108.27" height="17.187" fill="white" transform="translate(0.333496 0.708008)"/>
</clipPath>
</defs>
</svg>
