<svg width="160" height="81" viewBox="0 0 160 81" fill="none" xmlns="http://www.w3.org/2000/svg">
<g clip-path="url(#clip0_9438_65118)">
<path d="M78.1846 30.0767V32.334H67.1743V36.7779H76.9531V39.0085H67.1743V47.0391H64.9166V30.0767H78.1846ZM93.5491 40.5961C93.5491 40.7782 93.4993 45.0536 89.187 45.0536C85.1735 45.0536 84.8336 41.6406 84.825 40.5961V30.0767H82.5673V40.5961C82.5673 43.6654 84.3012 47.2495 89.187 47.2495C94.0726 47.2495 95.8065 43.6652 95.8065 40.5961V30.0767H93.5491V40.5961ZM111.073 40.5689L115.047 47.0389H112.325L108.515 40.8H104.173V47.0389H101.916V30.077H109.182C113.328 30.077 115.184 32.77 115.184 35.4387C115.184 39.2645 112.144 40.3171 111.073 40.5689ZM109.182 38.5429C110.891 38.5429 112.928 38.0042 112.928 35.4386C112.928 32.7192 110.581 32.3131 109.182 32.3131H104.173V38.5429H109.182ZM55.617 30.0767V43.5568H55.1241L47.1578 30.0767H44.2369V47.0389H46.4941V33.985H46.9867L54.5923 47.0388H57.8739V30.0767H55.617ZM26 30.0767V32.1705H31.0127V44.9456H26V47.0389H38.2823V44.9456H33.2698V32.1705H38.2823V30.0767H26ZM134.27 47.0388H131.898L130.038 41.8982H123.471L121.614 47.0388H119.241L125.404 30.0625H128.108L134.27 47.0388ZM129.243 39.702L127.022 33.5613H126.483L124.264 39.702H129.243Z" fill="#101111"/>
</g>
<defs>
<clipPath id="clip0_9438_65118">
<rect width="108.27" height="17.187" fill="white" transform="translate(26 30.0625)"/>
</clipPath>
</defs>
</svg>
