<svg width="120" height="24" viewBox="0 0 120 24" fill="none" xmlns="http://www.w3.org/2000/svg">
<path d="M43.7163 0.770508H48.2301L55.9053 14.6542L63.5803 0.77052H67.9964V23.5841H64.3137V6.09919L57.5837 18.2067H54.129L47.399 6.09919V23.5841H43.7163V0.770508Z" fill="#101111"/>
<path d="M79.8764 23.9916C78.1707 23.9916 76.6715 23.6141 75.3789 22.8591C74.086 22.1041 73.0784 21.0584 72.3561 19.7222C71.6335 18.386 71.2723 16.8542 71.2725 15.1269C71.2725 13.378 71.6255 11.8299 72.3316 10.4827C73.0378 9.13584 74.0182 8.08203 75.273 7.32132C76.5278 6.56109 77.9699 6.18087 79.5994 6.18066C81.218 6.18066 82.6112 6.56359 83.7792 7.32944C84.9468 8.09549 85.8457 9.1683 86.476 10.5479C87.106 11.9276 87.421 13.5463 87.4212 15.4039V16.4141H74.9226C75.1508 17.8049 75.713 18.8994 76.6093 19.6977C77.5055 20.4962 78.638 20.8954 80.0068 20.8953C81.1039 20.8953 82.0491 20.7324 82.8422 20.4065C83.6351 20.0806 84.3792 19.5863 85.0747 18.9237L87.0301 21.3191C85.0853 23.1009 82.7007 23.9918 79.8764 23.9916ZM82.5652 10.4582C81.7937 9.67068 80.7834 9.27687 79.5343 9.27672C78.3174 9.27672 77.299 9.67872 76.4789 10.4827C75.6585 11.2867 75.1397 12.3676 74.9226 13.7255H83.8851C83.7764 12.3349 83.3364 11.2458 82.5652 10.4582Z" fill="#101111"/>
<path d="M91.8827 9.6026H88.4932V6.58791H91.8827V1.60156H95.435V6.58791H100.584V9.6026H95.435V17.2451C95.435 18.516 95.6523 19.4231 96.0868 19.9663C96.5211 20.5097 97.2653 20.7813 98.3193 20.7811C98.7862 20.7811 99.1827 20.7621 99.5089 20.7241C99.8348 20.6862 100.193 20.6346 100.584 20.5692V23.5512C100.138 23.6803 99.6834 23.7784 99.2237 23.8447C98.6976 23.9221 98.1666 23.9602 97.6349 23.9587C93.7999 23.9587 91.8825 21.8621 91.8827 17.6688V9.6026Z" fill="#101111"/>
<path d="M119.097 23.5841H115.61V21.205C114.991 22.0959 114.203 22.7831 113.247 23.2664C112.291 23.7496 111.205 23.9913 109.988 23.9916C108.489 23.9916 107.161 23.6086 106.004 22.8427C104.847 22.0768 103.937 21.0231 103.274 19.6814C102.612 18.3398 102.28 16.8053 102.28 15.078C102.28 13.3399 102.617 11.8026 103.291 10.4663C103.964 9.13022 104.896 8.0819 106.085 7.32132C107.275 6.56109 108.641 6.18087 110.183 6.18066C111.346 6.18066 112.389 6.40612 113.312 6.85703C114.223 7.29768 115.012 7.9551 115.61 8.77165V6.58815H119.097V23.5841ZM115.545 12.5359C115.164 11.5691 114.564 10.8058 113.744 10.2463C112.924 9.6869 111.976 9.4072 110.901 9.4072C109.379 9.4072 108.168 9.91777 107.267 10.9389C106.365 11.9601 105.914 13.3398 105.914 15.078C105.914 16.8272 106.349 18.2123 107.218 19.2334C108.087 20.2546 109.265 20.7651 110.754 20.7651C111.851 20.7651 112.829 20.4826 113.687 19.9176C114.545 19.353 115.164 18.5926 115.545 17.6363V12.5359Z" fill="#101111"/>
<path d="M25.92 0C22.9586 0 20.6437 2.23046 18.5481 5.06383C15.6683 1.39717 13.26 0 10.3779 0C4.50207 0 0 7.6469 0 15.7407C0 20.8055 2.45029 24 6.55448 24C9.50842 24 11.6329 22.6074 15.4097 16.0055C15.4097 16.0055 16.984 13.2253 18.0671 11.3102C18.4466 11.923 18.8463 12.5832 19.2662 13.291L21.0372 16.2703C24.4872 22.0435 26.4094 24 29.8924 24C33.8907 24 36.1158 20.7618 36.1158 15.5917C36.1159 7.11724 31.5123 0 25.92 0ZM12.5297 14.2179C9.46759 19.0179 8.40827 20.0938 6.70345 20.0938C4.94897 20.0938 3.9062 18.5535 3.9062 15.8069C3.9062 9.93104 6.83586 3.92276 10.3283 3.92276C12.2195 3.92276 13.8 5.015 16.2208 8.48067C13.9221 12.0065 12.5297 14.2179 12.5297 14.2179ZM24.0863 13.6137L21.9688 10.0821C21.3958 9.15013 20.8451 8.29229 20.3167 7.50858C22.2252 4.56294 23.7994 3.09518 25.6717 3.09518C29.5614 3.09518 32.6731 8.82208 32.6731 15.8566C32.6731 18.5379 31.7949 20.0938 29.9752 20.0938C28.2311 20.0938 27.3979 18.9419 24.0863 13.6137Z" fill="#101111"/>
</svg>
