<svg width="160" height="81" viewBox="0 0 160 81" fill="none" xmlns="http://www.w3.org/2000/svg">
<path d="M64.0479 26.2949H68.5959L76.3292 40.2839L84.0624 26.2949H88.512V49.2814H84.8014V31.664L78.0204 43.8633H74.5395L67.7585 31.664V49.2814H64.0479V26.2949Z" fill="#101111"/>
<path d="M100.482 49.6921C98.763 49.6921 97.2525 49.3117 95.9501 48.551C94.6474 47.7902 93.6321 46.7367 92.9044 45.3903C92.1763 44.0439 91.8124 42.5005 91.8125 40.7602C91.8125 38.998 92.1682 37.4382 92.8797 36.0808C93.5912 34.7237 94.5791 33.6619 95.8434 32.8954C97.1077 32.1294 98.5607 31.7463 100.203 31.7461C101.833 31.7461 103.237 32.1319 104.414 32.9036C105.591 33.6754 106.496 34.7564 107.131 36.1464C107.766 37.5366 108.083 39.1676 108.084 41.0393V42.0571H95.4903C95.7203 43.4585 96.2867 44.5613 97.1897 45.3656C98.0928 46.1701 99.2339 46.5724 100.613 46.5723C101.719 46.5723 102.671 46.4081 103.47 46.0798C104.269 45.7514 105.019 45.2534 105.719 44.5857L107.69 46.9993C105.73 48.7946 103.327 49.6922 100.482 49.6921ZM103.191 36.056C102.414 35.2626 101.396 34.8658 100.137 34.8656C98.9109 34.8656 97.8847 35.2707 97.0584 36.0808C96.2318 36.8908 95.7091 37.9799 95.4903 39.3481H104.521C104.411 37.947 103.968 36.8496 103.191 36.056Z" fill="#101111"/>
<path d="M112.579 35.1926H109.164V32.155H112.579V27.1309H116.159V32.155H121.347V35.1926H116.159V42.893C116.159 44.1735 116.377 45.0875 116.815 45.6348C117.253 46.1823 118.003 46.456 119.065 46.4558C119.535 46.4558 119.935 46.4366 120.263 46.3983C120.592 46.3602 120.953 46.3082 121.347 46.2423V49.247C120.897 49.377 120.439 49.4758 119.976 49.5426C119.446 49.6206 118.911 49.659 118.375 49.6575C114.511 49.6575 112.579 47.545 112.579 43.3199V35.1926Z" fill="#101111"/>
<path d="M140 49.2815H136.486V46.8844C135.862 47.782 135.069 48.4743 134.106 48.9613C133.142 49.4482 132.048 49.6918 130.822 49.6921C129.311 49.6921 127.973 49.3062 126.807 48.5344C125.642 47.7627 124.725 46.701 124.057 45.3492C123.389 43.9974 123.056 42.4513 123.056 40.7109C123.056 38.9596 123.395 37.4107 124.074 36.0642C124.752 34.718 125.691 33.6617 126.89 32.8954C128.088 32.1294 129.465 31.7463 131.019 31.7461C132.19 31.7461 133.241 31.9733 134.171 32.4276C135.089 32.8716 135.884 33.534 136.486 34.3567V32.1567H140V49.2815ZM136.421 38.1496C136.037 37.1753 135.433 36.4063 134.606 35.8426C133.78 35.2789 132.825 34.9971 131.741 34.9971C130.209 34.9971 128.988 35.5115 128.08 36.5404C127.171 37.5693 126.717 38.9595 126.717 40.7109C126.717 42.4733 127.155 43.869 128.031 44.8978C128.906 45.9267 130.094 46.4411 131.594 46.4411C132.699 46.4411 133.684 46.1565 134.549 45.5872C135.413 45.0183 136.037 44.2521 136.421 43.2886V38.1496Z" fill="#101111"/>
<path d="M46.1165 25.5176C43.1327 25.5176 40.8002 27.765 38.6887 30.6198C35.7871 26.9253 33.3605 25.5176 30.4566 25.5176C24.5362 25.5176 20 33.2224 20 41.3776C20 46.4808 22.4689 49.6995 26.6042 49.6995C29.5805 49.6995 31.7211 48.2964 35.5265 41.6444C35.5265 41.6444 37.1128 38.8432 38.204 36.9135C38.5864 37.5309 38.9892 38.1962 39.4123 38.9094L41.1967 41.9113C44.6728 47.7282 46.6096 49.6995 50.119 49.6995C54.1476 49.6995 56.3897 46.4368 56.3897 41.2275C56.3897 32.6888 51.7512 25.5176 46.1165 25.5176ZM32.6246 39.8433C29.5394 44.6797 28.472 45.7637 26.7543 45.7637C24.9865 45.7637 23.9358 44.2118 23.9358 41.4443C23.9358 35.5239 26.8877 29.4701 30.4066 29.4701C32.3121 29.4701 33.9046 30.5706 36.3438 34.0625C34.0277 37.6151 32.6246 39.8433 32.6246 39.8433ZM44.2689 39.2344L42.1354 35.6761C41.558 34.7371 41.0031 33.8727 40.4707 33.0831C42.3937 30.1151 43.9798 28.6362 45.8663 28.6362C49.7855 28.6362 52.9208 34.4065 52.9208 41.4943C52.9208 44.1961 52.0359 45.7637 50.2024 45.7637C48.4451 45.7637 47.6056 44.6031 44.2689 39.2344Z" fill="#101111"/>
</svg>
