<svg width="49" height="48" viewBox="0 0 49 48" fill="none" xmlns="http://www.w3.org/2000/svg">
<path d="M25.3864 40H24.6364V41.6171L25.8708 40.5725L25.3864 40ZM25.3864 8L25.8708 7.42746L24.6364 6.38292V8H25.3864ZM33.9287 15.2281L34.4131 14.6556L33.9287 15.2281ZM33.9203 16.7619L33.4421 16.1841L33.9203 16.7619ZM33.9203 31.2381L34.3985 30.6603L33.9203 31.2381ZM33.9287 32.7719L34.4131 33.3444L33.9287 32.7719ZM13.2718 15.1233L33.4421 31.8159L34.3985 30.6603L14.2282 13.9677L13.2718 15.1233ZM33.4442 32.1994L24.9019 39.4275L25.8708 40.5725L34.4131 33.3444L33.4442 32.1994ZM26.1364 40V8H24.6364V40H26.1364ZM24.9019 8.57254L33.4442 15.8006L34.4131 14.6556L25.8708 7.42746L24.9019 8.57254ZM33.4421 16.1841L13.2718 32.8768L14.2282 34.0323L34.3985 17.3397L33.4421 16.1841ZM33.4442 15.8006C33.5631 15.9012 33.5621 16.0848 33.4421 16.1841L34.3985 17.3397C35.2382 16.6448 35.2452 15.3596 34.4131 14.6556L33.4442 15.8006ZM33.4421 31.8159C33.5621 31.9152 33.5631 32.0988 33.4442 32.1994L34.4131 33.3444C35.2452 32.6404 35.2382 31.3552 34.3985 30.6603L33.4421 31.8159Z" fill="#101111"/>
</svg>
