<svg width="49" height="48" viewBox="0 0 49 48" fill="none" xmlns="http://www.w3.org/2000/svg">
<g clip-path="url(#clip0_7385_34579)">
<path d="M29.3481 32.5781C28.2469 32.4917 27.35 31.6046 27.35 30.5V18.5C27.35 16.6 25.75 15 23.85 15C21.95 15 20.35 16.6 20.35 18.5V38C20.35 39 19.45 39.7 18.45 39.7C17.85 39.7 17.35 39.4 17.05 38.9C15.193 35.6925 11.4836 34.2661 8.08669 35.2224C7.02363 35.5217 6.6983 36.7748 7.2514 37.7307L15.45 51.9C18.25 56.9 23.35 61 29.65 61C38.35 61 45.35 54 45.35 45.4V45.4C45.35 41.9424 44.0621 38.4896 41.1652 36.6022C37.637 34.3036 33.5965 32.9115 29.3481 32.5781Z" stroke="#101111" stroke-width="1.5" stroke-miterlimit="10"/>
<path d="M31.2365 27.5C34.8711 24.9711 37.25 20.7634 37.25 16C37.25 8.26801 30.982 2 23.25 2C15.518 2 9.25 8.26801 9.25 16C9.25 20.7634 11.6289 24.9711 15.2635 27.5" stroke="#101111" stroke-width="1.5" stroke-miterlimit="10"/>
</g>
<defs>
<clipPath id="clip0_7385_34579">
<rect width="48" height="48" fill="white" transform="translate(0.75)"/>
</clipPath>
</defs>
</svg>
