<svg width="88" height="88" viewBox="0 0 88 88" fill="none" xmlns="http://www.w3.org/2000/svg">
<g clip-path="url(#clip0_3833_17651)">
<path d="M40.3159 24.6625H46.3661V34.6326H42.6149V27.872H39.2544L40.3159 24.6625Z" fill="#101111"/>
<path fill-rule="evenodd" clip-rule="evenodd" d="M44.4004 49.7139C48.2112 49.7139 51.3004 46.6246 51.3004 42.8139C51.3004 39.0031 48.2112 35.9139 44.4004 35.9139C40.5897 35.9139 37.5004 39.0031 37.5004 42.8139C37.5004 46.6246 40.5897 49.7139 44.4004 49.7139ZM44.4004 46.5814C46.4811 46.5814 48.1679 44.8946 48.1679 42.8139C48.1679 40.7332 46.4811 39.0463 44.4004 39.0463C42.3197 39.0463 40.6329 40.7332 40.6329 42.8139C40.6329 44.8946 42.3197 46.5814 44.4004 46.5814Z" fill="#101111"/>
<rect x="4.00039" y="11" width="80.8" height="53.2" rx="3.09688" stroke="#101111" stroke-width="2"/>
<path d="M50.6144 64V78H52.6144V64H50.6144ZM51.6144 77H36.3856V79H51.6144V77ZM37.3856 78V64H35.3856V78H37.3856ZM51.6144 79H56V77H51.6144V79ZM36.3856 77H32V79H36.3856V77Z" fill="#101111"/>
</g>
<defs>
<clipPath id="clip0_3833_17651">
<rect width="82.8" height="69" fill="white" transform="translate(3 10)"/>
</clipPath>
</defs>
</svg>
