<svg width="88" height="88" viewBox="0 0 88 88" fill="none" xmlns="http://www.w3.org/2000/svg">
<g clip-path="url(#clip0_4502_15874)">
<path d="M37.47 52.299L36.86 53.239C36.43 53.959 35.49 54.209 34.76 53.789C34.02 53.369 33.77 52.439 34.19 51.709L34.57 51.149C34.71 50.939 35.07 50.579 35.79 50.639C35.79 50.639 37.48 50.819 37.61 51.689C37.61 51.689 37.62 51.969 37.43 52.259L37.47 52.299ZM54.46 46.169H50.84C50.59 46.149 50.48 46.059 50.44 46.009L50.43 45.999L46.97 40.389C46.58 39.809 45.98 41.279 45.98 41.279C45.25 42.919 46.08 44.779 46.36 45.349L51.08 53.199C51.5 53.919 52.44 54.169 53.17 53.749C53.9 53.329 54.15 52.399 53.73 51.669L52.38 49.359C52.35 49.299 52.3 49.149 52.58 49.149H54.4C55.24 49.149 55.93 48.469 55.93 47.629C55.93 46.789 55.24 46.109 54.39 46.109L54.46 46.169ZM45.75 48.229C45.75 48.229 45.94 49.199 45.19 49.199L33.51 49.189C32.66 49.189 31.97 48.509 31.97 47.669C31.97 46.829 32.65 46.149 33.5 46.149H36.93C37.48 46.109 37.61 45.799 37.61 45.799L42.09 38.099L42.08 38.089C42.16 37.939 42.09 37.799 42.08 37.769L40.59 35.21C40.16 34.48 40.41 33.55 41.15 33.13C41.88 32.71 42.81 32.95 43.24 33.68L43.92 34.85L44.6 33.67C45.02 32.94 45.96 32.69 46.693 33.11C47.423 33.52 47.673 34.45 47.253 35.18L41.013 45.88C40.983 45.94 40.973 46.04 41.173 46.06H43.213C43.213 46.06 45.363 46.12 45.663 48.12L45.75 48.229Z" fill="#101111"/>
</g>
<circle cx="44" cy="44" r="37" stroke="#101111" stroke-width="2"/>
<defs>
<clipPath id="clip0_4502_15874">
<rect width="24" height="24" fill="white" transform="translate(32 32)"/>
</clipPath>
</defs>
</svg>
