<svg width="33" height="32" viewBox="0 0 33 32" fill="none" xmlns="http://www.w3.org/2000/svg">
<path d="M9.71016 12.3477V22.0868C9.71016 24.765 11.9015 26.9564 14.5797 26.9564H20.058" stroke="#16D629" stroke-width="2" stroke-linecap="square" stroke-linejoin="round"/>
<path d="M9.71016 12.3477V22.0868C9.71016 24.765 11.9015 26.9564 14.5797 26.9564H20.058" stroke="#2EDB43" stroke-width="2" stroke-linecap="square" stroke-linejoin="round"/>
<path d="M9.71016 12.3477V22.0868C9.71016 24.765 11.9015 26.9564 14.5797 26.9564H20.058" stroke="#45E655" stroke-width="2" stroke-linecap="square" stroke-linejoin="round"/>
<path d="M9.71017 8.08696C11.391 8.08696 12.7536 6.72434 12.7536 5.04348C12.7536 3.36261 11.391 2 9.71017 2C8.0293 2 6.66669 3.36261 6.66669 5.04348C6.66669 6.72434 8.0293 8.08696 9.71017 8.08696Z" stroke="#16D629" stroke-width="2" stroke-linecap="square" stroke-linejoin="round"/>
<path d="M9.71017 8.08696C11.391 8.08696 12.7536 6.72434 12.7536 5.04348C12.7536 3.36261 11.391 2 9.71017 2C8.0293 2 6.66669 3.36261 6.66669 5.04348C6.66669 6.72434 8.0293 8.08696 9.71017 8.08696Z" stroke="#2EDB43" stroke-width="2" stroke-linecap="square" stroke-linejoin="round"/>
<path d="M9.71017 8.08696C11.391 8.08696 12.7536 6.72434 12.7536 5.04348C12.7536 3.36261 11.391 2 9.71017 2C8.0293 2 6.66669 3.36261 6.66669 5.04348C6.66669 6.72434 8.0293 8.08696 9.71017 8.08696Z" stroke="#45E655" stroke-width="2" stroke-linecap="square" stroke-linejoin="round"/>
<path d="M23.1015 30C24.7823 30 26.1449 28.6374 26.1449 26.9566C26.1449 25.2757 24.7823 23.9131 23.1015 23.9131C21.4206 23.9131 20.058 25.2757 20.058 26.9566C20.058 28.6374 21.4206 30 23.1015 30Z" stroke="#16D629" stroke-width="2" stroke-linecap="square" stroke-linejoin="round"/>
<path d="M23.1015 30C24.7823 30 26.1449 28.6374 26.1449 26.9566C26.1449 25.2757 24.7823 23.9131 23.1015 23.9131C21.4206 23.9131 20.058 25.2757 20.058 26.9566C20.058 28.6374 21.4206 30 23.1015 30Z" stroke="#2EDB43" stroke-width="2" stroke-linecap="square" stroke-linejoin="round"/>
<path d="M23.1015 30C24.7823 30 26.1449 28.6374 26.1449 26.9566C26.1449 25.2757 24.7823 23.9131 23.1015 23.9131C21.4206 23.9131 20.058 25.2757 20.058 26.9566C20.058 28.6374 21.4206 30 23.1015 30Z" stroke="#45E655" stroke-width="2" stroke-linecap="square" stroke-linejoin="round"/>
<path d="M9.71016 8.08691V12.3478C9.71016 15.026 11.9015 17.2173 14.5797 17.2173H20.058" stroke="#16D629" stroke-width="2" stroke-linecap="square" stroke-linejoin="round"/>
<path d="M9.71016 8.08691V12.3478C9.71016 15.026 11.9015 17.2173 14.5797 17.2173H20.058" stroke="#2EDB43" stroke-width="2" stroke-linecap="square" stroke-linejoin="round"/>
<path d="M9.71016 8.08691V12.3478C9.71016 15.026 11.9015 17.2173 14.5797 17.2173H20.058" stroke="#45E655" stroke-width="2" stroke-linecap="square" stroke-linejoin="round"/>
<path d="M23.1015 20.2608C24.7823 20.2608 26.1449 18.8982 26.1449 17.2173C26.1449 15.5364 24.7823 14.1738 23.1015 14.1738C21.4206 14.1738 20.058 15.5364 20.058 17.2173C20.058 18.8982 21.4206 20.2608 23.1015 20.2608Z" stroke="#16D629" stroke-width="2" stroke-linecap="square" stroke-linejoin="round"/>
<path d="M23.1015 20.2608C24.7823 20.2608 26.1449 18.8982 26.1449 17.2173C26.1449 15.5364 24.7823 14.1738 23.1015 14.1738C21.4206 14.1738 20.058 15.5364 20.058 17.2173C20.058 18.8982 21.4206 20.2608 23.1015 20.2608Z" stroke="#2EDB43" stroke-width="2" stroke-linecap="square" stroke-linejoin="round"/>
<path d="M23.1015 20.2608C24.7823 20.2608 26.1449 18.8982 26.1449 17.2173C26.1449 15.5364 24.7823 14.1738 23.1015 14.1738C21.4206 14.1738 20.058 15.5364 20.058 17.2173C20.058 18.8982 21.4206 20.2608 23.1015 20.2608Z" stroke="#45E655" stroke-width="2" stroke-linecap="square" stroke-linejoin="round"/>
</svg>
