<svg width="24" height="24" viewBox="0 0 24 24" fill="none" xmlns="http://www.w3.org/2000/svg">
<path fill-rule="evenodd" clip-rule="evenodd" d="M12 20.5C16.6944 20.5 20.5 16.6944 20.5 12C20.5 7.30558 16.6944 3.5 12 3.5C7.30558 3.5 3.5 7.30558 3.5 12C3.5 16.6944 7.30558 20.5 12 20.5ZM12 22C17.5228 22 22 17.5228 22 12C22 6.47715 17.5228 2 12 2C6.47715 2 2 6.47715 2 12C2 17.5228 6.47715 22 12 22Z" fill="#101111"/>
<path fill-rule="evenodd" clip-rule="evenodd" d="M10.5643 5.48602C9.92743 7.07816 9.5 9.38055 9.5 12C9.5 14.6194 9.92743 16.9218 10.5643 18.514C10.8844 19.3142 11.228 19.8611 11.5329 20.1835C11.8326 20.5004 11.9908 20.5 11.9998 20.5C12.0088 20.5 12.1674 20.5004 12.4671 20.1835C12.772 19.8611 13.1156 19.3142 13.4357 18.514C14.0726 16.9218 14.5 14.6194 14.5 12C14.5 9.38055 14.0726 7.07816 13.4357 5.48602C13.1156 4.68579 12.772 4.13885 12.4671 3.81651C12.1674 3.4996 12.0092 3.49998 12.0002 3.5C11.9912 3.49998 11.8326 3.4996 11.5329 3.81651C11.228 4.13885 10.8844 4.68578 10.5643 5.48602ZM12 2C9.79086 2 8 6.47715 8 12C8 17.5228 9.79086 22 12 22C14.2091 22 16 17.5228 16 12C16 6.47715 14.2091 2 12 2Z" fill="#101111"/>
<path fill-rule="evenodd" clip-rule="evenodd" d="M2.5 11.25L21.5 11.25L21.5 12.75L2.5 12.75L2.5 11.25Z" fill="#101111"/>
</svg>
