<svg width="33" height="32" viewBox="0 0 33 32" fill="none" xmlns="http://www.w3.org/2000/svg">
<path d="M27.6904 4.97631L28.3975 4.2692V4.2692L27.6904 4.97631ZM9.33343 28.0473V29.0473C9.59865 29.0473 9.853 28.9419 10.0405 28.7544L9.33343 28.0473ZM4.66676 28.0473H3.66676C3.66676 28.5996 4.11448 29.0473 4.66676 29.0473V28.0473ZM4.66676 23.2859L3.95966 22.5788C3.77212 22.7663 3.66676 23.0207 3.66676 23.2859H4.66676ZM23.6834 5.68342C24.5947 4.77219 26.072 4.77219 26.9833 5.68342L28.3975 4.2692C26.7052 2.57693 23.9615 2.57693 22.2692 4.2692L23.6834 5.68342ZM26.9833 5.68342C27.8945 6.59464 27.8945 8.07203 26.9833 8.98325L28.3975 10.3975C30.0898 8.70519 30.0898 5.96148 28.3975 4.2692L26.9833 5.68342ZM26.9833 8.98325L8.62632 27.3402L10.0405 28.7544L28.3975 10.3975L26.9833 8.98325ZM9.33343 27.0473H4.66676V29.0473H9.33343V27.0473ZM22.2692 4.2692L3.95966 22.5788L5.37387 23.993L23.6834 5.68342L22.2692 4.2692ZM3.66676 23.2859V28.0473H5.66676V23.2859H3.66676ZM20.2692 7.68342L24.9833 12.3975L26.3975 10.9832L21.6834 6.2692L20.2692 7.68342Z" fill="#16D629"/>
</svg>
