<svg width="33" height="32" viewBox="0 0 33 32" fill="none" xmlns="http://www.w3.org/2000/svg">
<path d="M23.3333 18.6668V26.6668M19.3333 22.6668H27.3333M8.66668 13.3335H11.3333C12.8061 13.3335 14 12.1396 14 10.6668V8.00016C14 6.5274 12.8061 5.3335 11.3333 5.3335H8.66668C7.19392 5.3335 6.00002 6.5274 6.00002 8.00016V10.6668C6.00002 12.1396 7.19392 13.3335 8.66668 13.3335ZM22 13.3335H24.6667C26.1394 13.3335 27.3333 12.1396 27.3333 10.6668V8.00016C27.3333 6.5274 26.1394 5.3335 24.6667 5.3335H22C20.5273 5.3335 19.3333 6.5274 19.3333 8.00016V10.6668C19.3333 12.1396 20.5273 13.3335 22 13.3335ZM8.66668 26.6668H11.3333C12.8061 26.6668 14 25.4729 14 24.0002V21.3335C14 19.8607 12.8061 18.6668 11.3333 18.6668H8.66668C7.19392 18.6668 6.00002 19.8607 6.00002 21.3335V24.0002C6.00002 25.4729 7.19392 26.6668 8.66668 26.6668Z" stroke="#16D629" stroke-width="2" stroke-linecap="square" stroke-linejoin="round"/>
</svg>
