<svg width="24" height="24" viewBox="0 0 24 24" fill="none" xmlns="http://www.w3.org/2000/svg">
<path d="M4 6H4.5M4 10H4.5M4 14H4.5M4 18H4.5" stroke="#16D629" stroke-width="2" stroke-linecap="square" stroke-linejoin="round"/>
<path d="M4 6H4.5M4 10H4.5M4 14H4.5M4 18H4.5" stroke="#2EDB43" stroke-width="2" stroke-linecap="square" stroke-linejoin="round"/>
<path d="M4 6H4.5M4 10H4.5M4 14H4.5M4 18H4.5" stroke="#45E655" stroke-width="2" stroke-linecap="square" stroke-linejoin="round"/>
<path d="M8 6H20M8 10H20M8 14H20M8 18H20" stroke="#16D629" stroke-width="2" stroke-linecap="square" stroke-linejoin="round"/>
<path d="M8 6H20M8 10H20M8 14H20M8 18H20" stroke="#2EDB43" stroke-width="2" stroke-linecap="square" stroke-linejoin="round"/>
<path d="M8 6H20M8 10H20M8 14H20M8 18H20" stroke="#45E655" stroke-width="2" stroke-linecap="square" stroke-linejoin="round"/>
</svg>
