<svg width="88" height="88" viewBox="0 0 88 88" fill="none" xmlns="http://www.w3.org/2000/svg">
<g clip-path="url(#clip0_3833_17649)">
<rect x="4.99936" y="12" width="78.6667" height="64" rx="1.75" stroke="#101111" stroke-width="2"/>
<circle cx="13.59" cy="21.1009" r="3.92599" fill="#101111"/>
<circle cx="25.3671" cy="21.1009" r="3.92599" fill="#101111"/>
<circle cx="37.1423" cy="21.1009" r="3.92599" fill="#101111"/>
<path d="M39.9917 40.5052H46.4219V51.1015H42.4351V43.9164H38.8636L39.9917 40.5052Z" fill="#101111"/>
<path fill-rule="evenodd" clip-rule="evenodd" d="M44.3327 67.1299C48.3828 67.1299 51.666 63.8467 51.666 59.7966C51.666 55.7465 48.3828 52.4633 44.3327 52.4633C40.2826 52.4633 36.9994 55.7465 36.9994 59.7966C36.9994 63.8467 40.2826 67.1299 44.3327 67.1299ZM44.3327 63.8007C46.5441 63.8007 48.3368 62.008 48.3368 59.7966C48.3368 57.5852 46.5441 55.7925 44.3327 55.7925C42.1213 55.7925 40.3286 57.5852 40.3286 59.7966C40.3286 62.008 42.1213 63.8007 44.3327 63.8007Z" fill="#101111"/>
<line x1="9.49936" y1="29.25" x2="82.8327" y2="29.25" stroke="#101111" stroke-width="2"/>
</g>
<defs>
<clipPath id="clip0_3833_17649">
<rect width="80.6667" height="66" fill="white" transform="translate(3.99968 11)"/>
</clipPath>
</defs>
</svg>
