<svg width="88" height="88" viewBox="0 0 88 88" fill="none" xmlns="http://www.w3.org/2000/svg">
<path d="M38.97 51.9701C38.88 52.0501 38.98 52.1801 39.08 52.1201C41.66 50.7201 45.16 48.8201 48.11 47.2201C48.16 47.1801 48.17 47.1001 48.13 47.0601L46.04 45.0101C46 44.9701 45.93 44.9701 45.89 45.0101L38.93 51.9501L38.97 51.9701Z" fill="#101111"/>
<path d="M45.921 42.7761C45.951 42.8061 46.021 42.8061 46.061 42.7661L48.141 40.6861C48.181 40.6361 48.171 40.5561 48.111 40.5261L47.091 39.9661C45.861 39.2961 44.221 38.4161 42.551 37.5161C41.301 36.8361 40.031 36.1561 38.921 35.5561C38.811 35.4961 38.721 35.6261 38.801 35.7061L45.891 42.7361L45.921 42.7761Z" fill="#101111"/>
<path d="M35 35.1901C35 34.9501 35.03 34.7601 35.09 34.6001C35.15 34.4301 35.36 34.4201 35.48 34.5401L44.84 43.8101C44.87 43.8401 44.87 43.9101 44.84 43.9501L35.44 53.3201C35.3 53.4501 35.07 53.4201 35.02 53.2301C34.98 53.0901 34.97 52.9301 34.97 52.7701V35.1601L35 35.1901Z" fill="#101111"/>
<path d="M49.68 46.3801C49.64 46.4001 49.59 46.3901 49.56 46.3601L47.12 43.9601C47.08 43.9201 47.08 43.8501 47.11 43.8101L49.56 41.3701C49.59 41.3301 49.63 41.3301 49.67 41.3501C51.75 42.4801 53.38 43.3701 53.87 43.6301C53.88 43.6301 53.9 43.6501 53.91 43.6701C53.95 43.7701 53.96 43.8701 53.95 43.9701C53.94 43.9901 53.92 44.0201 53.9 44.0301C53.61 44.1801 52.65 44.7001 51.32 45.4201H51.31C50.8 45.6901 50.23 46.0001 49.63 46.3301L49.68 46.3801Z" fill="#101111"/>
<circle cx="44" cy="44" r="37" stroke="#101111" stroke-width="2"/>
</svg>
