<svg width="533" height="680" viewBox="0 0 533 680" fill="none" xmlns="http://www.w3.org/2000/svg">
<path d="M114.25 71.6902C114.25 65.3715 119.363 60.25 125.67 60.25H406.33C412.637 60.25 417.75 65.3715 417.75 71.6901V548.31C417.75 554.628 412.637 559.75 406.33 559.75H295.466H240.618H125.67C119.363 559.75 114.25 554.629 114.25 548.31V71.6902Z" stroke="white" stroke-width="0.5"/>
<path d="M147.567 109.766C147.567 108.613 148.502 107.678 149.655 107.678H383.458C384.611 107.678 385.546 108.613 385.546 109.766V241.864C385.546 243.018 384.611 243.952 383.458 243.952H149.655C148.502 243.952 147.567 243.018 147.567 241.864V109.766Z" stroke="white" stroke-width="0.5"/>
<path fill-rule="evenodd" clip-rule="evenodd" d="M199.5 307C199.5 321.636 187.636 333.5 173 333.5C158.364 333.5 146.5 321.636 146.5 307C146.5 292.364 158.364 280.5 173 280.5C187.636 280.5 199.5 292.364 199.5 307ZM200 307C200 321.912 187.912 334 173 334C158.088 334 146 321.912 146 307C146 292.088 158.088 280 173 280C187.912 280 200 292.088 200 307ZM173 296C173.276 296 173.5 296.224 173.5 296.5V304.5C173.5 304.776 173.276 305 173 305C172.724 305 172.5 304.776 172.5 304.5V296.5C172.5 296.224 172.724 296 173 296ZM167.373 300.958C167.557 301.163 167.539 301.479 167.333 301.664C165.594 303.221 164.5 305.482 164.5 307.999C164.5 312.694 168.306 316.499 173 316.499C177.694 316.499 181.5 312.694 181.5 307.999C181.5 305.482 180.406 303.221 178.667 301.664C178.461 301.479 178.443 301.163 178.627 300.958C178.812 300.752 179.128 300.734 179.333 300.918C181.276 302.657 182.5 305.186 182.5 307.999C182.5 313.246 178.247 317.499 173 317.499C167.753 317.499 163.5 313.246 163.5 307.999C163.5 305.186 164.724 302.657 166.667 300.918C166.872 300.734 167.188 300.752 167.373 300.958Z" fill="white"/>
<path fill-rule="evenodd" clip-rule="evenodd" d="M262.5 307C262.5 321.636 250.636 333.5 236 333.5C221.364 333.5 209.5 321.636 209.5 307C209.5 292.364 221.364 280.5 236 280.5C250.636 280.5 262.5 292.364 262.5 307ZM263 307C263 321.912 250.912 334 236 334C221.088 334 209 321.912 209 307C209 292.088 221.088 280 236 280C250.912 280 263 292.088 263 307ZM236.095 301.138C235.899 300.951 235.589 300.954 235.396 301.146L224.896 311.646C224.701 311.842 224.701 312.158 224.896 312.354C225.092 312.549 225.408 312.549 225.604 312.354L235.758 302.199L246.405 312.362C246.605 312.552 246.921 312.545 247.112 312.345C247.302 312.145 247.295 311.829 247.095 311.638L236.095 301.138Z" fill="white"/>
<path fill-rule="evenodd" clip-rule="evenodd" d="M324.5 307C324.5 321.636 312.636 333.5 298 333.5C283.364 333.5 271.5 321.636 271.5 307C271.5 292.364 283.364 280.5 298 280.5C312.636 280.5 324.5 292.364 324.5 307ZM325 307C325 321.912 312.912 334 298 334C283.088 334 271 321.912 271 307C271 292.088 283.088 280 298 280C312.912 280 325 292.088 325 307ZM298.095 313.362C297.899 313.549 297.589 313.546 297.396 313.354L286.896 302.854C286.701 302.658 286.701 302.342 286.896 302.146C287.092 301.951 287.408 301.951 287.604 302.146L297.758 312.301L308.405 302.138C308.605 301.948 308.921 301.955 309.112 302.155C309.302 302.355 309.295 302.671 309.095 302.862L298.095 313.362Z" fill="white"/>
<path fill-rule="evenodd" clip-rule="evenodd" d="M387.5 307C387.5 321.636 375.636 333.5 361 333.5C346.364 333.5 334.5 321.636 334.5 307C334.5 292.364 346.364 280.5 361 280.5C375.636 280.5 387.5 292.364 387.5 307ZM388 307C388 321.912 375.912 334 361 334C346.088 334 334 321.912 334 307C334 292.088 346.088 280 361 280C375.912 280 388 292.088 388 307ZM369 307C369 311.418 365.418 315 361 315C356.582 315 353 311.418 353 307C353 302.582 356.582 299 361 299C365.418 299 369 302.582 369 307ZM370 307C370 311.971 365.971 316 361 316C356.029 316 352 311.971 352 307C352 302.029 356.029 298 361 298C365.971 298 370 302.029 370 307Z" fill="white"/>
<path d="M270.009 151.266L258.477 151.266L256.457 157.555L262.859 157.555L262.859 170.806L270.009 170.806L270.009 151.266Z" fill="white"/>
<path fill-rule="evenodd" clip-rule="evenodd" d="M273.571 198.085C271.408 199.571 268.865 200.364 266.264 200.364C262.776 200.364 259.431 198.94 256.965 196.404C254.498 193.868 253.113 190.428 253.113 186.842C253.113 184.167 253.884 181.553 255.329 179.329C256.774 177.105 258.828 175.372 261.231 174.348C263.634 173.325 266.279 173.057 268.83 173.579C271.381 174.101 273.724 175.389 275.564 177.28C277.403 179.171 278.655 181.58 279.163 184.204C279.67 186.827 279.41 189.546 278.415 192.017C277.419 194.487 275.733 196.599 273.571 198.085ZM270.256 192.981C269.074 193.792 267.685 194.224 266.264 194.224C264.36 194.224 262.534 193.446 261.188 192.062C259.841 190.677 259.085 188.799 259.085 186.842C259.084 185.381 259.505 183.952 260.294 182.737C261.083 181.522 262.205 180.575 263.517 180.015C264.83 179.456 266.275 179.309 267.668 179.594C269.062 179.879 270.342 180.582 271.347 181.615C272.352 182.649 273.036 183.965 273.313 185.398C273.59 186.831 273.448 188.316 272.903 189.666C272.359 191.016 271.438 192.169 270.256 192.981Z" fill="white"/>
<path d="M247.88 603.895C247.88 602.044 249.309 600.543 251.072 600.543H281.928C283.691 600.543 285.12 602.044 285.12 603.895C285.12 605.746 283.691 607.246 281.928 607.246H251.072C249.309 607.246 247.88 605.746 247.88 603.895Z" fill="white"/>
<path d="M266.5 589C150.123 589 133.365 590.676 125.172 591.979C116.979 593.283 114.931 594.586 114.559 595.331C114.186 596.076 114 599.8 114 603.896" stroke="white" stroke-width="0.5"/>
<path d="M114.186 598.123C124.986 596.447 189.924 595.516 228.142 595.516C237.08 595.516 242.293 589.185 248.624 589.186H266.686" stroke="white" stroke-width="0.5" stroke-linecap="round" stroke-linejoin="round"/>
<path d="M266.5 589C382.877 589 399.635 590.676 407.828 591.979C416.021 593.283 418.069 594.586 418.441 595.331C418.814 596.076 419 599.8 419 603.896" stroke="white" stroke-width="0.5"/>
<path d="M418.814 598.123C408.014 596.447 343.076 595.516 304.858 595.516C295.92 595.516 290.707 589.185 284.376 589.186H266.314" stroke="white" stroke-width="0.5" stroke-linecap="round" stroke-linejoin="round"/>
<path d="M266.5 618.793C150.123 618.793 133.365 617.117 125.172 615.814C116.979 614.51 114.931 613.207 114.559 612.462C114.186 611.717 114 607.993 114 603.897" stroke="white" stroke-width="0.5"/>
<path d="M114.186 609.67C124.986 611.346 189.924 612.277 228.142 612.277C237.08 612.277 242.293 618.608 248.624 618.607H266.686" stroke="white" stroke-width="0.5" stroke-linecap="round" stroke-linejoin="round"/>
<path d="M266.5 618.793C382.877 618.793 399.635 617.117 407.828 615.814C416.021 614.51 418.069 613.207 418.441 612.462C418.814 611.717 419 607.993 419 603.897" stroke="white" stroke-width="0.5"/>
<path d="M418.814 609.67C408.014 611.346 343.076 612.277 304.858 612.277C295.92 612.277 290.707 618.608 284.376 618.607H266.314" stroke="white" stroke-width="0.5" stroke-linecap="round" stroke-linejoin="round"/>
<rect x="241.304" y="595.459" width="50.7643" height="16.8755" rx="8.43773" stroke="white"/>
<path d="M265.5 645.5L265.5 615.5" stroke="white" stroke-linecap="round" stroke-linejoin="round" stroke-dasharray="0.01 4"/>
<path d="M236.422 659.88C238.57 659.88 239.998 658.5 239.998 656.436V651.312H238.426V656.388C238.426 657.684 237.658 658.488 236.422 658.488C235.186 658.488 234.43 657.684 234.43 656.388V651.312H232.858V656.436C232.858 658.5 234.286 659.88 236.422 659.88Z" fill="white"/>
<path d="M244.513 659.928C246.457 659.928 247.801 658.872 247.801 657.324C247.801 655.98 246.877 655.116 245.101 654.816L244.045 654.624C243.337 654.48 242.893 654.108 242.893 653.508C242.893 652.788 243.517 652.308 244.357 652.308C245.293 652.308 245.977 652.956 246.025 653.916L247.561 653.82C247.513 652.224 246.169 651.096 244.369 651.096C242.593 651.096 241.333 652.08 241.333 653.628C241.333 654.924 242.269 655.824 243.901 656.112L244.957 656.292C245.833 656.472 246.253 656.808 246.253 657.432C246.253 658.188 245.545 658.704 244.537 658.704C243.445 658.704 242.653 658.008 242.617 656.976L241.105 657.072C241.117 658.752 242.545 659.928 244.513 659.928Z" fill="white"/>
<path d="M248.985 659.712H252.993C254.553 659.712 255.645 658.8 255.645 657.468C255.645 656.388 254.925 655.596 253.809 655.44C254.721 655.26 255.369 654.504 255.369 653.532C255.369 652.26 254.277 651.312 252.717 651.312H248.985V659.712ZM250.509 658.512V656.052H252.813C253.581 656.052 254.109 656.556 254.109 657.288C254.109 658.008 253.581 658.512 252.813 658.512H250.509ZM250.509 654.9V652.488H252.549C253.329 652.488 253.869 652.992 253.869 653.688C253.869 654.396 253.329 654.9 252.549 654.9H250.509Z" fill="white"/>
<path d="M258.942 656.964H262.566V655.74H258.942V656.964Z" fill="white"/>
<path d="M270.235 659.952C272.407 659.952 274.111 658.488 274.267 656.496L272.731 656.376C272.587 657.636 271.531 658.56 270.235 658.56C268.651 658.56 267.499 657.264 267.499 655.512C267.499 653.748 268.651 652.452 270.235 652.452C271.519 652.452 272.563 653.328 272.707 654.528L274.243 654.396C274.099 652.476 272.407 651.072 270.235 651.072C267.739 651.072 265.915 652.944 265.915 655.512C265.915 658.08 267.739 659.952 270.235 659.952Z" fill="white"/>
<path d="M277.719 659.712H279.279V656.796H281.103C282.843 656.796 284.055 655.608 284.055 654.048C284.055 652.5 282.843 651.312 281.103 651.312H277.719V659.712ZM279.279 655.548V652.548H280.947C281.835 652.548 282.471 653.172 282.471 654.048C282.471 654.924 281.835 655.548 280.947 655.548H279.279Z" fill="white"/>
<path d="M287.841 659.892C289.665 659.892 290.985 658.56 290.985 656.688C290.985 654.828 289.665 653.496 287.841 653.496C286.005 653.496 284.685 654.828 284.685 656.688C284.685 658.56 286.005 659.892 287.841 659.892ZM286.185 656.688C286.185 655.56 286.857 654.756 287.841 654.756C288.813 654.756 289.485 655.56 289.485 656.688C289.485 657.828 288.813 658.632 287.841 658.632C286.857 658.632 286.185 657.828 286.185 656.688Z" fill="white"/>
<path d="M292.002 659.712H293.49V657.144C293.49 655.5 294.57 654.972 295.734 655.14V653.664C294.714 653.46 293.718 653.928 293.454 655.332L293.49 653.676H292.002V659.712Z" fill="white"/>
<path d="M300.195 659.664L300.183 658.416C299.547 658.608 298.911 658.536 298.911 657.576V654.912H300.363V653.676H298.911V652.152H297.423V653.676H296.331V654.912H297.423V657.696C297.423 659.664 298.875 660.036 300.195 659.664Z" fill="white"/>
<path d="M41 308H133" stroke="white" stroke-linecap="round" stroke-linejoin="round" stroke-dasharray="0.01 4"/>
<path d="M494 308H401" stroke="white" stroke-linecap="round" stroke-linejoin="round" stroke-dasharray="0.01 4"/>
<path d="M41 350H237V338" stroke="white" stroke-linecap="round" stroke-linejoin="round" stroke-dasharray="0.01 4"/>
<path d="M494 350H298V338" stroke="white" stroke-linecap="round" stroke-linejoin="round" stroke-dasharray="0.01 4"/>
<path d="M42 324.64H47.46V323.356H43.56V316.24H42V324.64Z" fill="white"/>
<path d="M52.2232 324.88C54.7192 324.88 56.5552 323.008 56.5552 320.44C56.5552 317.872 54.7192 316 52.2232 316C49.7272 316 47.8912 317.872 47.8912 320.44C47.8912 323.008 49.7272 324.88 52.2232 324.88ZM49.4752 320.44C49.4752 318.664 50.6392 317.38 52.2232 317.38C53.8192 317.38 54.9712 318.664 54.9712 320.44C54.9712 322.192 53.8192 323.488 52.2232 323.488C50.6392 323.488 49.4752 322.192 49.4752 320.44Z" fill="white"/>
<path d="M61.9846 324.88C64.1566 324.88 65.8606 323.416 66.0166 321.424L64.4806 321.304C64.3366 322.564 63.2806 323.488 61.9846 323.488C60.4006 323.488 59.2486 322.192 59.2486 320.44C59.2486 318.676 60.4006 317.38 61.9846 317.38C63.2686 317.38 64.3126 318.256 64.4566 319.456L65.9926 319.324C65.8486 317.404 64.1566 316 61.9846 316C59.4886 316 57.6646 317.872 57.6646 320.44C57.6646 323.008 59.4886 324.88 61.9846 324.88Z" fill="white"/>
<path d="M67.1836 324.64H68.7076V322.12L70.0396 320.692L72.6556 324.64H74.4316L71.0356 319.636L74.1916 316.24H72.2836L68.7076 320.152V316.24H67.1836V324.64Z" fill="white"/>
<path d="M45.1758 370.168C47.3238 370.168 48.7518 368.788 48.7518 366.724V361.6H47.1798V366.676C47.1798 367.972 46.4118 368.776 45.1758 368.776C43.9398 368.776 43.1838 367.972 43.1838 366.676V361.6H41.6118V366.724C41.6118 368.788 43.0398 370.168 45.1758 370.168Z" fill="white"/>
<path d="M50.0747 370H51.6347V367.084H53.4587C55.1987 367.084 56.4107 365.896 56.4107 364.336C56.4107 362.788 55.1987 361.6 53.4587 361.6H50.0747V370ZM51.6347 365.836V362.836H53.3027C54.1907 362.836 54.8267 363.46 54.8267 364.336C54.8267 365.212 54.1907 365.836 53.3027 365.836H51.6347Z" fill="white"/>
<path d="M455.731 369.999H458.947C461.539 369.999 463.267 368.319 463.267 365.799C463.267 363.279 461.539 361.599 458.947 361.599H455.731V369.999ZM457.279 368.763V362.835H458.911C460.579 362.835 461.683 364.023 461.683 365.799C461.683 367.575 460.579 368.763 458.911 368.763H457.279Z" fill="white"/>
<path d="M468.708 370.239C471.204 370.239 473.04 368.367 473.04 365.799C473.04 363.231 471.204 361.359 468.708 361.359C466.212 361.359 464.376 363.231 464.376 365.799C464.376 368.367 466.212 370.239 468.708 370.239ZM465.96 365.799C465.96 364.023 467.124 362.739 468.708 362.739C470.304 362.739 471.456 364.023 471.456 365.799C471.456 367.551 470.304 368.847 468.708 368.847C467.124 368.847 465.96 367.551 465.96 365.799Z" fill="white"/>
<path d="M475.853 369.999H477.617L479.309 363.531L480.989 369.999H482.741L485.153 361.599H483.497L481.841 368.007L480.221 361.599H478.397L476.789 368.007L475.097 361.599H473.417L475.853 369.999Z" fill="white"/>
<path d="M486.176 369.999H487.7L487.64 364.023L491.744 369.999H493.316V361.599H491.78L491.84 367.575L487.736 361.599H486.176V369.999Z" fill="white"/>
<path d="M444.32 324.88C446.492 324.88 448.196 323.416 448.352 321.424L446.816 321.304C446.672 322.564 445.616 323.488 444.32 323.488C442.736 323.488 441.584 322.192 441.584 320.44C441.584 318.676 442.736 317.38 444.32 317.38C445.604 317.38 446.648 318.256 446.792 319.456L448.328 319.324C448.184 317.404 446.492 316 444.32 316C441.824 316 440 317.872 440 320.44C440 323.008 441.824 324.88 444.32 324.88Z" fill="white"/>
<path d="M453.719 324.88C456.215 324.88 458.051 323.008 458.051 320.44C458.051 317.872 456.215 316 453.719 316C451.223 316 449.387 317.872 449.387 320.44C449.387 323.008 451.223 324.88 453.719 324.88ZM450.971 320.44C450.971 318.664 452.135 317.38 453.719 317.38C455.315 317.38 456.467 318.664 456.467 320.44C456.467 322.192 455.315 323.488 453.719 323.488C452.135 323.488 450.971 322.192 450.971 320.44Z" fill="white"/>
<path d="M459.304 324.64H460.828L460.768 318.664L464.872 324.64H466.444V316.24H464.908L464.968 322.216L460.864 316.24H459.304V324.64Z" fill="white"/>
<path d="M467.824 324.64H469.384V321.124H473.092V319.912H469.384V317.476H473.332V316.24H467.824V324.64Z" fill="white"/>
<path d="M474.481 324.64H476.029V316.24H474.481V324.64Z" fill="white"/>
<path d="M477.48 324.64H479.028V321.412H480.816C481.692 321.412 482.124 321.808 482.196 322.6L482.304 323.92C482.328 324.196 482.376 324.448 482.436 324.64H484.02C483.924 324.424 483.876 324.196 483.852 323.8L483.744 322.48C483.66 321.388 483.06 320.764 481.968 320.692C483.156 320.572 483.984 319.744 483.984 318.568C483.984 317.164 482.844 316.24 481.056 316.24H477.48V324.64ZM479.028 320.188V317.476H480.984C481.812 317.476 482.4 318.04 482.4 318.844C482.4 319.66 481.812 320.188 480.984 320.188H479.028Z" fill="white"/>
<path d="M485.285 324.64H486.797L486.701 317.992L488.957 324.64H490.565L492.821 317.992L492.725 324.64H494.249V316.24H491.933L489.773 323.02L487.613 316.24H485.285V324.64Z" fill="white"/>
</svg>
