<svg width="533" height="680" viewBox="0 0 533 680" fill="none" xmlns="http://www.w3.org/2000/svg">
<path d="M117.25 84.3906C117.25 70.5058 128.506 59.25 142.391 59.25H389.461C403.346 59.25 414.602 70.5058 414.602 84.3906V533.609C414.602 547.494 403.346 558.75 389.461 558.75H142.391C128.506 558.75 117.25 547.494 117.25 533.609V84.3906Z" stroke="white" stroke-width="0.5"/>
<path d="M132.875 82.4375C132.875 78.2608 136.261 74.875 140.438 74.875H391.414C395.591 74.875 398.977 78.2608 398.977 82.4375V519.938C398.977 524.114 395.591 527.5 391.414 527.5H140.437C136.261 527.5 132.875 524.114 132.875 519.938V82.4375Z" stroke="white" stroke-width="0.5"/>
<path d="M149.49 95.1455C149.49 93.1262 151.127 91.4893 153.146 91.4893H378.732C380.752 91.4893 382.389 93.1262 382.389 95.1455V469.169C382.389 471.188 380.752 472.825 378.732 472.825H153.146C151.127 472.825 149.49 471.188 149.49 469.169V95.1455Z" stroke="white" stroke-width="0.5"/>
<path fill-rule="evenodd" clip-rule="evenodd" d="M233.731 503.912C234.791 504.508 235.954 504.806 237.22 504.806C238.486 504.806 239.649 504.508 240.709 503.912C241.768 503.315 242.602 502.492 243.209 501.442C243.829 500.379 244.139 499.18 244.139 497.844C244.139 496.522 243.829 495.335 243.209 494.285C242.602 493.222 241.768 492.392 240.709 491.796C239.662 491.2 238.499 490.901 237.22 490.901C235.954 490.901 234.791 491.2 233.731 491.796C232.672 492.392 231.832 493.222 231.212 494.285C230.591 495.335 230.281 496.522 230.281 497.844C230.281 499.18 230.591 500.379 231.212 501.442C231.832 502.492 232.672 503.315 233.731 503.912ZM239.371 501.831C238.751 502.194 238.034 502.375 237.22 502.375C236.406 502.375 235.682 502.194 235.049 501.831C234.429 501.455 233.944 500.923 233.596 500.236C233.247 499.549 233.072 498.752 233.072 497.844C233.072 496.937 233.247 496.146 233.596 495.472C233.944 494.784 234.429 494.259 235.049 493.896C235.682 493.533 236.406 493.352 237.22 493.352C238.034 493.352 238.751 493.533 239.371 493.896C239.992 494.259 240.476 494.784 240.825 495.472C241.174 496.146 241.348 496.937 241.348 497.844C241.348 498.752 241.174 499.549 240.825 500.236C240.476 500.923 239.992 501.455 239.371 501.831Z" fill="white"/>
<path d="M254.24 494.966C253.452 494.149 252.418 493.741 251.139 493.741C250.467 493.741 249.847 493.877 249.278 494.149C248.723 494.408 248.264 494.771 247.902 495.238V493.896H245.189V504.67H247.902V498.719C247.902 497.864 248.116 497.209 248.542 496.755C248.981 496.288 249.576 496.055 250.325 496.055C251.062 496.055 251.643 496.288 252.07 496.755C252.496 497.209 252.709 497.864 252.709 498.719V504.67H255.422V498.35C255.422 496.898 255.028 495.77 254.24 494.966Z" fill="white"/>
<path fill-rule="evenodd" clip-rule="evenodd" d="M267.209 499.05C267.209 499.439 267.183 499.789 267.132 500.1H259.282C259.347 500.878 259.618 501.487 260.096 501.928C260.574 502.369 261.162 502.589 261.86 502.589C262.868 502.589 263.585 502.155 264.011 501.286H266.938C266.628 502.323 266.033 503.179 265.155 503.853C264.276 504.514 263.197 504.845 261.918 504.845C260.884 504.845 259.954 504.618 259.127 504.164C258.313 503.698 257.673 503.043 257.208 502.2C256.756 501.357 256.53 500.385 256.53 499.283C256.53 498.168 256.756 497.189 257.208 496.346C257.66 495.504 258.294 494.856 259.108 494.402C259.922 493.948 260.858 493.721 261.918 493.721C262.939 493.721 263.85 493.941 264.651 494.382C265.465 494.823 266.092 495.452 266.531 496.269C266.983 497.073 267.209 498 267.209 499.05ZM264.399 498.272C264.386 497.572 264.134 497.014 263.643 496.599C263.152 496.171 262.551 495.958 261.84 495.958C261.168 495.958 260.6 496.165 260.135 496.58C259.683 496.982 259.405 497.546 259.301 498.272H264.399Z" fill="white"/>
<path d="M271.322 498.622L276.245 504.67H279.675L273.938 497.825L279.52 491.096H276.245L271.322 497.183V491.096H268.608V504.67H271.322V498.622Z" fill="white"/>
<path fill-rule="evenodd" clip-rule="evenodd" d="M289.31 499.05C289.31 499.439 289.284 499.789 289.232 500.1H281.383C281.447 500.878 281.719 501.487 282.197 501.928C282.675 502.369 283.263 502.589 283.96 502.589C284.968 502.589 285.685 502.155 286.112 501.286H289.039C288.728 502.323 288.134 503.179 287.255 503.853C286.377 504.514 285.298 504.845 284.019 504.845C282.985 504.845 282.055 504.618 281.228 504.164C280.414 503.698 279.774 503.043 279.309 502.2C278.857 501.357 278.631 500.385 278.631 499.283C278.631 498.168 278.857 497.189 279.309 496.346C279.761 495.504 280.394 494.856 281.208 494.402C282.022 493.948 282.959 493.721 284.019 493.721C285.039 493.721 285.95 493.941 286.751 494.382C287.566 494.823 288.192 495.452 288.632 496.269C289.084 497.073 289.31 498 289.31 499.05ZM286.499 498.272C286.487 497.572 286.235 497.014 285.744 496.599C285.253 496.171 284.652 495.958 283.941 495.958C283.269 495.958 282.701 496.165 282.235 496.58C281.783 496.982 281.505 497.546 281.402 498.272H286.499Z" fill="white"/>
<path d="M293.946 509.766L300.594 493.897H297.706L294.896 501.423L292.124 493.897H289.081L293.384 504.398L291.058 509.766H293.946Z" fill="white"/>
<path d="M414.125 130.551C415.488 130.677 416.555 131.823 416.555 133.219V187.906C416.555 189.302 415.488 190.448 414.125 190.574V130.551Z" fill="white" stroke="white" stroke-width="0.5"/>
<path d="M272.82 238.864L251.785 238.864L248.099 250.022L259.777 250.022L259.777 273.531L272.82 273.531L272.82 238.864Z" fill="white"/>
<path fill-rule="evenodd" clip-rule="evenodd" d="M279.317 321.926C275.372 324.562 270.734 325.969 265.989 325.969C259.627 325.969 253.525 323.441 249.026 318.942C244.527 314.443 242 308.341 242 301.979C242 297.234 243.407 292.596 246.043 288.651C248.679 284.705 252.425 281.631 256.809 279.815C261.192 277.999 266.016 277.524 270.669 278.45C275.322 279.375 279.597 281.66 282.952 285.015C286.307 288.37 288.591 292.645 289.517 297.298C290.443 301.952 289.968 306.776 288.152 311.159C286.336 315.543 283.262 319.29 279.317 321.926ZM273.271 312.87C271.115 314.309 268.581 315.076 265.989 315.075C262.516 315.075 259.185 313.695 256.729 311.239C254.273 308.783 252.893 305.452 252.893 301.979C252.892 299.387 253.659 296.852 255.099 294.697C256.538 292.541 258.584 290.86 260.979 289.868C263.373 288.875 266.008 288.615 268.55 289.121C271.092 289.626 273.428 290.874 275.26 292.707C277.093 294.54 278.341 296.875 278.846 299.417C279.352 301.96 279.092 304.595 278.099 306.989C277.107 309.384 275.426 311.43 273.271 312.87Z" fill="white"/>
<mask id="path-7-inside-1_7029_35357" fill="white">
<path d="M117 625.707H415C407.434 632.265 397.756 635.875 387.743 635.875H144.256C134.244 635.875 124.566 632.265 117 625.707Z"/>
</mask>
<path d="M117 625.707V625.207H115.66L116.673 626.085L117 625.707ZM415 625.707L415.327 626.085L416.34 625.207H415V625.707ZM117 626.207H415V625.207H117V626.207ZM387.743 635.375H144.256V636.375H387.743V635.375ZM144.256 635.375C134.364 635.375 124.803 631.808 117.327 625.329L116.673 626.085C124.33 632.722 134.123 636.375 144.256 636.375V635.375ZM414.673 625.329C407.197 631.808 397.636 635.375 387.743 635.375V636.375C397.877 636.375 407.67 632.722 415.327 626.085L414.673 625.329Z" fill="white" mask="url(#path-7-inside-1_7029_35357)"/>
<mask id="path-9-inside-2_7029_35357" fill="white">
<path d="M117 587.067H415L403.916 583.224C403.487 583.076 403.037 583 402.583 583H129.417C128.963 583 128.513 583.076 128.084 583.224L117 587.067Z"/>
</mask>
<path d="M117 587.067L116.836 586.595L117 587.567V587.067ZM415 587.067V587.567L415.164 586.595L415 587.067ZM128.084 583.224L128.248 583.697L128.084 583.224ZM403.916 583.224L404.079 582.752V582.752L403.916 583.224ZM117 587.567H415V586.567H117V587.567ZM415.164 586.595L404.079 582.752L403.752 583.697L414.836 587.54L415.164 586.595ZM402.583 582.5H129.417V583.5H402.583V582.5ZM127.921 582.752L116.836 586.595L117.164 587.54L128.248 583.697L127.921 582.752ZM129.417 582.5C128.907 582.5 128.402 582.585 127.921 582.752L128.248 583.697C128.624 583.567 129.019 583.5 129.417 583.5V582.5ZM404.079 582.752C403.598 582.585 403.093 582.5 402.583 582.5V583.5C402.981 583.5 403.376 583.567 403.752 583.697L404.079 582.752Z" fill="white" mask="url(#path-9-inside-2_7029_35357)"/>
<path d="M414.28 587.067V625.706H414.78V587.067H414.28ZM117.72 625.706V587.067H117.22V625.706H117.72Z" fill="white"/>
<path d="M238.796 605.37C238.796 599.331 243.692 594.436 249.731 594.436H283.285C289.324 594.436 294.22 599.331 294.22 605.37C294.22 611.41 289.324 616.305 283.285 616.305H249.731C243.692 616.305 238.796 611.41 238.796 605.37Z" stroke="white" stroke-width="0.5"/>
<path d="M248.715 605.37C248.715 603.685 250.081 602.319 251.765 602.319H281.253C282.937 602.319 284.303 603.685 284.303 605.37C284.303 607.054 282.937 608.42 281.253 608.42H251.765C250.081 608.42 248.715 607.054 248.715 605.37Z" fill="white"/>
<path d="M421.508 162.758L453.508 163.243" stroke="white" stroke-linecap="round" stroke-linejoin="round" stroke-dasharray="0.01 4"/>
<path d="M462.696 168H468.156V166.716H464.256V159.6H462.696V168Z" fill="white"/>
<path d="M472.919 168.24C475.415 168.24 477.251 166.368 477.251 163.8C477.251 161.232 475.415 159.36 472.919 159.36C470.423 159.36 468.587 161.232 468.587 163.8C468.587 166.368 470.423 168.24 472.919 168.24ZM470.171 163.8C470.171 162.024 471.335 160.74 472.919 160.74C474.515 160.74 475.667 162.024 475.667 163.8C475.667 165.552 474.515 166.848 472.919 166.848C471.335 166.848 470.171 165.552 470.171 163.8Z" fill="white"/>
<path d="M482.681 168.24C484.853 168.24 486.557 166.776 486.713 164.784L485.177 164.664C485.033 165.924 483.977 166.848 482.681 166.848C481.097 166.848 479.945 165.552 479.945 163.8C479.945 162.036 481.097 160.74 482.681 160.74C483.965 160.74 485.009 161.616 485.153 162.816L486.689 162.684C486.545 160.764 484.853 159.36 482.681 159.36C480.185 159.36 478.361 161.232 478.361 163.8C478.361 166.368 480.185 168.24 482.681 168.24Z" fill="white"/>
<path d="M487.88 168H489.404V165.48L490.736 164.052L493.352 168H495.128L491.732 162.996L494.888 159.6H492.98L489.404 163.512V159.6H487.88V168Z" fill="white"/>
<path d="M265.5 645.5L265.5 615.5" stroke="white" stroke-linecap="round" stroke-linejoin="round" stroke-dasharray="0.01 4"/>
<path d="M236.422 659.881C238.57 659.881 239.998 658.501 239.998 656.437V651.313H238.426V656.389C238.426 657.685 237.658 658.489 236.422 658.489C235.186 658.489 234.43 657.685 234.43 656.389V651.313H232.858V656.437C232.858 658.501 234.286 659.881 236.422 659.881Z" fill="white"/>
<path d="M244.514 659.929C246.458 659.929 247.802 658.873 247.802 657.325C247.802 655.981 246.878 655.117 245.102 654.817L244.046 654.625C243.338 654.481 242.894 654.109 242.894 653.509C242.894 652.789 243.518 652.309 244.358 652.309C245.294 652.309 245.978 652.957 246.026 653.917L247.562 653.821C247.514 652.225 246.17 651.097 244.37 651.097C242.594 651.097 241.334 652.081 241.334 653.629C241.334 654.925 242.27 655.825 243.902 656.113L244.958 656.293C245.834 656.473 246.254 656.809 246.254 657.433C246.254 658.189 245.546 658.705 244.538 658.705C243.446 658.705 242.654 658.009 242.618 656.977L241.106 657.073C241.118 658.753 242.546 659.929 244.514 659.929Z" fill="white"/>
<path d="M248.985 659.713H252.993C254.553 659.713 255.645 658.801 255.645 657.469C255.645 656.389 254.925 655.597 253.809 655.441C254.721 655.261 255.369 654.505 255.369 653.533C255.369 652.261 254.277 651.313 252.717 651.313H248.985V659.713ZM250.509 658.513V656.053H252.813C253.581 656.053 254.109 656.557 254.109 657.289C254.109 658.009 253.581 658.513 252.813 658.513H250.509ZM250.509 654.901V652.489H252.549C253.329 652.489 253.869 652.993 253.869 653.689C253.869 654.397 253.329 654.901 252.549 654.901H250.509Z" fill="white"/>
<path d="M258.942 656.965H262.566V655.741H258.942V656.965Z" fill="white"/>
<path d="M270.236 659.953C272.408 659.953 274.112 658.489 274.268 656.497L272.732 656.377C272.588 657.637 271.532 658.561 270.236 658.561C268.652 658.561 267.5 657.265 267.5 655.513C267.5 653.749 268.652 652.453 270.236 652.453C271.52 652.453 272.564 653.329 272.708 654.529L274.244 654.397C274.1 652.477 272.408 651.073 270.236 651.073C267.74 651.073 265.916 652.945 265.916 655.513C265.916 658.081 267.74 659.953 270.236 659.953Z" fill="white"/>
<path d="M277.72 659.713H279.28V656.797H281.104C282.844 656.797 284.056 655.609 284.056 654.049C284.056 652.501 282.844 651.313 281.104 651.313H277.72V659.713ZM279.28 655.549V652.549H280.948C281.836 652.549 282.472 653.173 282.472 654.049C282.472 654.925 281.836 655.549 280.948 655.549H279.28Z" fill="white"/>
<path d="M287.842 659.893C289.666 659.893 290.986 658.561 290.986 656.689C290.986 654.829 289.666 653.497 287.842 653.497C286.006 653.497 284.686 654.829 284.686 656.689C284.686 658.561 286.006 659.893 287.842 659.893ZM286.186 656.689C286.186 655.561 286.858 654.757 287.842 654.757C288.814 654.757 289.486 655.561 289.486 656.689C289.486 657.829 288.814 658.633 287.842 658.633C286.858 658.633 286.186 657.829 286.186 656.689Z" fill="white"/>
<path d="M292.003 659.713H293.491V657.145C293.491 655.501 294.571 654.973 295.735 655.141V653.665C294.715 653.461 293.719 653.929 293.455 655.333L293.491 653.677H292.003V659.713Z" fill="white"/>
<path d="M300.196 659.665L300.184 658.417C299.548 658.609 298.912 658.537 298.912 657.577V654.913H300.364V653.677H298.912V652.153H297.424V653.677H296.332V654.913H297.424V657.697C297.424 659.665 298.876 660.037 300.196 659.665Z" fill="white"/>
<path d="M34.9762 416H36.5482V408.92H39.1162V407.6H32.4082V408.92H34.9762V416Z" fill="white"/>
<path d="M43.8569 416.24C46.3529 416.24 48.1889 414.368 48.1889 411.8C48.1889 409.232 46.3529 407.36 43.8569 407.36C41.3609 407.36 39.5249 409.232 39.5249 411.8C39.5249 414.368 41.3609 416.24 43.8569 416.24ZM41.1089 411.8C41.1089 410.024 42.2729 408.74 43.8569 408.74C45.4529 408.74 46.6049 410.024 46.6049 411.8C46.6049 413.552 45.4529 414.848 43.8569 414.848C42.2729 414.848 41.1089 413.552 41.1089 411.8Z" fill="white"/>
<path d="M52.9457 416.168C55.0937 416.168 56.5217 414.788 56.5217 412.724V407.6H54.9497V412.676C54.9497 413.972 54.1817 414.776 52.9457 414.776C51.7097 414.776 50.9537 413.972 50.9537 412.676V407.6H49.3817V412.724C49.3817 414.788 50.8097 416.168 52.9457 416.168Z" fill="white"/>
<path d="M62.0324 416.24C64.2044 416.24 65.9084 414.776 66.0644 412.784L64.5284 412.664C64.3844 413.924 63.3284 414.848 62.0324 414.848C60.4484 414.848 59.2964 413.552 59.2964 411.8C59.2964 410.036 60.4484 408.74 62.0324 408.74C63.3164 408.74 64.3604 409.616 64.5044 410.816L66.0404 410.684C65.8964 408.764 64.2044 407.36 62.0324 407.36C59.5364 407.36 57.7124 409.232 57.7124 411.8C57.7124 414.368 59.5364 416.24 62.0324 416.24Z" fill="white"/>
<path d="M67.2314 416H68.7914V412.376H72.5594V416H74.1314V407.6H72.5594V411.104H68.7914V407.6H67.2314V416Z" fill="white"/>
<path d="M35.9002 431.216C37.8442 431.216 39.1882 430.16 39.1882 428.612C39.1882 427.268 38.2642 426.404 36.4882 426.104L35.4322 425.912C34.7242 425.768 34.2802 425.396 34.2802 424.796C34.2802 424.076 34.9042 423.596 35.7442 423.596C36.6802 423.596 37.3642 424.244 37.4122 425.204L38.9482 425.108C38.9002 423.512 37.5562 422.384 35.7562 422.384C33.9802 422.384 32.7202 423.368 32.7202 424.916C32.7202 426.212 33.6562 427.112 35.2882 427.4L36.3442 427.58C37.2202 427.76 37.6402 428.096 37.6402 428.72C37.6402 429.476 36.9322 429.992 35.9242 429.992C34.8322 429.992 34.0402 429.296 34.0042 428.264L32.4922 428.36C32.5042 430.04 33.9322 431.216 35.9002 431.216Z" fill="white"/>
<path d="M44.5245 431.24C46.6965 431.24 48.4005 429.776 48.5565 427.784L47.0205 427.664C46.8765 428.924 45.8205 429.848 44.5245 429.848C42.9405 429.848 41.7885 428.552 41.7885 426.8C41.7885 425.036 42.9405 423.74 44.5245 423.74C45.8085 423.74 46.8525 424.616 46.9965 425.816L48.5325 425.684C48.3885 423.764 46.6965 422.36 44.5245 422.36C42.0285 422.36 40.2045 424.232 40.2045 426.8C40.2045 429.368 42.0285 431.24 44.5245 431.24Z" fill="white"/>
<path d="M49.7235 431H51.2715V427.772H53.0595C53.9355 427.772 54.3675 428.168 54.4395 428.96L54.5475 430.28C54.5715 430.556 54.6195 430.808 54.6795 431H56.2635C56.1675 430.784 56.1195 430.556 56.0955 430.16L55.9875 428.84C55.9035 427.748 55.3035 427.124 54.2115 427.052C55.3995 426.932 56.2275 426.104 56.2275 424.928C56.2275 423.524 55.0875 422.6 53.2995 422.6H49.7235V431ZM51.2715 426.548V423.836H53.2275C54.0555 423.836 54.6435 424.4 54.6435 425.204C54.6435 426.02 54.0555 426.548 53.2275 426.548H51.2715Z" fill="white"/>
<path d="M57.5282 431H63.3482V429.764H59.0882V427.316H62.8922V426.164H59.0882V423.824H63.2882V422.6H57.5282V431Z" fill="white"/>
<path d="M64.5712 431H70.3912V429.764H66.1312V427.316H69.9352V426.164H66.1312V423.824H70.3312V422.6H64.5712V431Z" fill="white"/>
<path d="M71.6142 431H73.1382L73.0782 425.024L77.1822 431H78.7542V422.6H77.2182L77.2782 428.576L73.1742 422.6H71.6142V431Z" fill="white"/>
<path d="M88.5 418.5H187.5" stroke="white" stroke-linecap="round" stroke-linejoin="round" stroke-dasharray="0.01 4"/>
</svg>
