<svg width="312" height="96" viewBox="0 0 312 96" fill="none" xmlns="http://www.w3.org/2000/svg">
<g clip-path="url(#clip0_9896_74818)">
<path fill-rule="evenodd" clip-rule="evenodd" d="M46.7893 94.6926C79.0906 94.6926 93.5786 80.2046 93.5786 47.9033C93.5786 15.6021 79.0906 1.11401 46.7893 1.11401C14.4881 1.11401 0 15.6021 0 47.9033C0 80.2046 14.4881 94.6926 46.7893 94.6926ZM38.0047 20.9534H51.0213V42.4034H42.9509V27.8585H35.7211L38.0047 20.9534ZM46.7935 74.8514C54.992 74.8514 61.6382 68.2051 61.6382 60.0066C61.6382 51.808 54.992 45.1619 46.7935 45.1619C38.595 45.1619 31.9487 51.808 31.9487 60.0066C31.9487 68.2051 38.595 74.8514 46.7935 74.8514ZM46.7934 68.112C51.2699 68.112 54.8988 64.4831 54.8988 60.0066C54.8988 55.5301 51.2699 51.9011 46.7934 51.9011C42.3169 51.9011 38.688 55.5301 38.688 60.0066C38.688 64.4831 42.3169 68.112 46.7934 68.112Z" fill="#101111"/>
</g>
<path d="M130.327 69.6685C141.737 69.6685 150.13 61.1108 150.13 49.3714C150.13 37.6319 141.737 29.0742 130.327 29.0742C118.917 29.0742 110.523 37.6319 110.523 49.3714C110.523 61.1108 118.917 69.6685 130.327 69.6685ZM117.765 49.3714C117.765 41.2525 123.086 35.3828 130.327 35.3828C137.623 35.3828 142.889 41.2525 142.889 49.3714C142.889 57.3805 137.623 63.3051 130.327 63.3051C123.086 63.3051 117.765 57.3805 117.765 49.3714Z" fill="#101111"/>
<path d="M155.476 68.5714H162.279V53.8148C162.279 48.7131 164.473 45.8056 168.368 45.8056C171.988 45.8056 174.018 48.3291 174.018 52.6079V68.5714H180.82V51.5656C180.82 44.7634 176.816 40.3199 170.836 40.3199C166.393 40.3199 163.321 42.7885 162.114 46.8479L162.279 40.9782H155.476V68.5714Z" fill="#101111"/>
<path d="M199.555 69.5588C206.248 69.5588 211.295 65.5542 212.392 60.4525L206.577 59.5748C205.644 62.3725 202.902 64.2376 199.61 64.2376C195.441 64.2376 192.424 61.1108 192.204 56.8319H212.886C214.092 48.2194 208.991 39.9908 199.446 39.9908C191.272 39.9908 185.347 46.1896 185.347 54.7474C185.347 63.3599 191.272 69.5588 199.555 69.5588ZM192.259 51.7302C192.753 47.7805 195.66 45.0925 199.446 45.0925C203.505 45.0925 206.303 48.0548 206.303 51.7302H192.259Z" fill="#101111"/>
<path d="M218.11 68.5714H225.077V57.0514L231.166 50.5234L243.125 68.5714H251.244L235.719 45.6959L250.147 30.1714H241.425L225.077 48.0548V30.1714H218.11V68.5714Z" fill="#101111"/>
<path d="M266.359 69.5588C273.051 69.5588 278.098 65.5542 279.195 60.4525L273.381 59.5748C272.448 62.3725 269.705 64.2376 266.414 64.2376C262.245 64.2376 259.227 61.1108 259.008 56.8319H279.689C280.896 48.2194 275.794 39.9908 266.249 39.9908C258.075 39.9908 252.151 46.1896 252.151 54.7474C252.151 63.3599 258.075 69.5588 266.359 69.5588ZM259.063 51.7302C259.557 47.7805 262.464 45.0925 266.249 45.0925C270.309 45.0925 273.106 48.0548 273.106 51.7302H259.063Z" fill="#101111"/>
<path d="M287.426 78.9942H294.448L310.74 40.9782H303.719L295.874 60.0136L288.03 40.9782H280.843L292.308 67.8034L287.426 78.9942Z" fill="#101111"/>
<defs>
<clipPath id="clip0_9896_74818">
<rect width="93.5786" height="93.5786" fill="white" transform="translate(0 1.11328)"/>
</clipPath>
</defs>
</svg>
