<svg width="24" height="24" viewBox="0 0 24 24" fill="none" xmlns="http://www.w3.org/2000/svg">
<g clip-path="url(#clip0_6071_29426)">
<path fill-rule="evenodd" clip-rule="evenodd" d="M7.88115 1.03047e-05C7.84606 0.000369187 7.81336 0.00942306 7.78112 0.0272904C7.67526 0.0859684 7.64045 0.207611 7.69928 0.313736L8.74503 2.20291C6.73305 3.2498 5.37407 5.23931 5.37134 7.5226H18.6115C18.6088 5.23931 17.2498 3.2498 15.2378 2.20291L16.2835 0.313736C16.3424 0.207611 16.3076 0.0859684 16.2017 0.0272904C16.1695 0.00942306 16.1368 0.000344783 16.1017 1.03047e-05C16.0265 -0.000714638 15.9553 0.0368217 15.9153 0.109132L14.8559 2.01877C13.9892 1.63436 13.0172 1.4186 11.9914 1.4186C10.9656 1.4186 9.99358 1.63436 9.12696 2.01877L8.06756 0.109132C8.02748 0.0368217 7.95627 -0.000710331 7.88115 1.03047e-05ZM5.37134 8.04548V17.6414C5.37134 18.528 6.08515 19.2418 6.9718 19.2418H8.03353V22.5155C8.03353 23.3422 8.69134 24 9.51804 24C10.3447 24 11.0026 23.3422 11.0026 22.5155V19.2418H12.9804V22.5155C12.9804 23.3422 13.6382 24 14.4649 24C15.2916 24 15.9494 23.3422 15.9494 22.5155V19.2418H17.011C17.8977 19.2418 18.6115 18.528 18.6115 17.6414V8.04548H5.37134ZM8.93591 3.99428C8.63367 3.99428 8.38348 4.24446 8.38348 4.54671C8.38348 4.84896 8.63367 5.09914 8.93591 5.09914C9.23816 5.09914 9.48834 4.84896 9.48834 4.54671C9.48834 4.24446 9.23816 3.99428 8.93591 3.99428ZM15.0467 3.99428C14.7445 3.99428 14.4943 4.24446 14.4943 4.54671C14.4943 4.84896 14.7445 5.09914 15.0467 5.09914C15.349 5.09914 15.5992 4.84896 15.5992 4.54671C15.5992 4.24446 15.349 3.99428 15.0467 3.99428ZM3.33449 7.79083C2.50779 7.79083 1.84998 8.44865 1.84998 9.27534V15.4589C1.84998 16.2856 2.50779 16.9434 3.33449 16.9434C4.16119 16.9434 4.819 16.2856 4.819 15.4589V9.27534C4.819 8.44865 4.16119 7.79083 3.33449 7.79083ZM20.6485 7.79083C19.8218 7.79083 19.164 8.44865 19.164 9.27534V15.4589C19.164 16.2856 19.8218 16.9434 20.6485 16.9434C21.4752 16.9434 22.133 16.2856 22.133 15.4589V9.27534C22.133 8.44865 21.4752 7.79083 20.6485 7.79083Z" fill="currentColor"/>
</g>
<defs>
<clipPath id="clip0_6071_29426">
<rect width="24" height="24" fill="white"/>
</clipPath>
</defs>
</svg>
