<svg width="24" height="24" viewBox="0 0 24 24" fill="none" xmlns="http://www.w3.org/2000/svg">
<g clip-path="url(#clip0_6071_29442)">
<path d="M3.2057 8.8224C1.17632 12.3429 2.46658 17.6865 4.71022 20.9263C5.82996 22.5457 6.96386 23.9998 8.51717 23.9998C8.54629 23.9998 8.5754 23.999 8.6053 23.9975C9.33475 23.9684 9.86196 23.7433 10.3719 23.5261C10.9439 23.2822 11.5357 23.0296 12.4642 23.0296C13.3471 23.0296 13.9113 23.2735 14.4558 23.5088C14.9925 23.7409 15.5464 23.9817 16.364 23.966C18.1134 23.9329 19.1873 22.3639 20.1347 20.9798C21.1231 19.5343 21.6196 18.1316 21.7864 17.5954L21.7927 17.5733C21.8242 17.4773 21.7793 17.3735 21.6881 17.3318C21.6849 17.3302 21.6763 17.3263 21.6731 17.3255C21.3646 17.1988 18.6625 16.0004 18.6342 12.7332C18.6074 10.0783 20.6612 8.67281 21.0727 8.41802L21.0916 8.40543C21.1357 8.37631 21.1671 8.33067 21.1774 8.27874C21.1876 8.22602 21.1766 8.17251 21.1467 8.12845C19.7287 6.05343 17.5561 5.74104 16.6819 5.70327C16.5544 5.68989 16.4238 5.68359 16.2924 5.68359C15.2647 5.68359 14.2803 6.07153 13.4895 6.38337C12.9434 6.59819 12.4721 6.78389 12.1471 6.78389C11.7812 6.78389 11.3075 6.59504 10.7582 6.37786C10.0241 6.08593 9.19193 5.75622 8.31101 5.75622C8.28976 5.75622 8.2693 5.75622 8.24885 5.75622C6.20058 5.78612 4.26485 6.9578 3.19783 8.81327L3.2057 8.8224Z" fill="currentColor"/>
<path d="M16.6897 0.00031691C15.4488 0.0506776 13.9614 0.81435 13.0716 1.85603C12.3154 2.73104 11.5775 4.19142 11.7717 5.66219C11.7835 5.75426 11.8583 5.82508 11.9511 5.83216C12.0345 5.83845 12.1203 5.84199 12.2053 5.8416C13.4179 5.8416 14.7265 5.17039 15.6196 4.08999C16.5599 2.94901 17.0355 1.48509 16.8912 0.173668C16.8794 0.0705858 16.7889 -0.0057421 16.6874 -0.00180768L16.6897 0.00031691Z" fill="currentColor"/>
</g>
<defs>
<clipPath id="clip0_6071_29442">
<rect width="24" height="24" fill="white"/>
</clipPath>
</defs>
</svg>
