<svg width="24" height="24" viewBox="0 0 24 24" fill="none" xmlns="http://www.w3.org/2000/svg">
<path fill-rule="evenodd" clip-rule="evenodd" d="M22 8.75H5V7.25H22V8.75Z" fill="currentColor"/>
<path fill-rule="evenodd" clip-rule="evenodd" d="M4.29483 2.25H19.7052L22.7649 7.83521L21.8898 19.2109C21.7796 20.6437 20.5849 21.75 19.1479 21.75H4.85206C3.41509 21.75 2.22037 20.6437 2.11016 19.2109L1.23511 7.83521L4.29483 2.25ZM5.18343 3.75L2.76489 8.16479L3.60574 19.0959C3.65584 19.7471 4.19889 20.25 4.85206 20.25H19.1479C19.8011 20.25 20.3442 19.7471 20.3943 19.0959L21.2351 8.16479L18.8166 3.75H5.18343Z" fill="currentColor"/>
<path fill-rule="evenodd" clip-rule="evenodd" d="M11.25 12V8H12.75V12H11.25Z" fill="currentColor"/>
</svg>
