<svg width="24" height="25" viewBox="0 0 24 25" fill="none" xmlns="http://www.w3.org/2000/svg">
<path d="M17.7199 3.36044L15.6623 0.980957H12.0409H8.41952L6.36191 3.36044C6.36191 3.36044 4.55121 2.86814 3.68701 3.72967C3.68701 3.72967 6.115 3.52455 6.93804 4.87839C6.93804 4.87839 9.16026 5.32968 9.48948 5.32968C9.8187 5.32968 10.436 5.08352 11.0533 4.87839C11.6294 4.63224 12.0409 4.63224 12.0409 4.63224C12.0409 4.63224 12.4524 4.63224 13.0286 4.83737C13.6459 5.0425 14.2631 5.28865 14.5924 5.28865C14.9216 5.28865 17.1438 4.83737 17.1438 4.83737C17.9668 3.48352 20.3948 3.68865 20.3948 3.68865C19.5306 2.82711 17.7199 3.36044 17.7199 3.36044Z" fill="white"/>
<path d="M21.3827 6.72468L21.9177 5.32981C21.9177 5.32981 21.2181 4.55032 20.3539 3.68878C19.4897 2.82724 17.679 3.31955 17.679 3.31955L15.6214 0.940063H12H8.3786L6.32099 3.31955C6.32099 3.31955 4.51029 2.82724 3.64609 3.68878C2.78189 4.55032 2.0823 5.32981 2.0823 5.32981L2.69959 6.72468L2 8.77596C2 8.77596 4.05761 16.7349 4.30453 17.7195C4.79835 19.6478 5.12757 20.3862 6.44444 21.3298C7.76132 22.2734 10.2716 23.9965 10.642 24.2426C11.0535 24.4888 11.5473 24.9401 12 24.9401C12.4527 24.9401 12.9465 24.4888 13.358 24.2426C13.7695 23.9965 16.2387 22.3144 17.5556 21.3298C18.8724 20.3452 19.2428 19.6067 19.6955 17.7195C19.9424 16.7349 22 8.77596 22 8.77596L21.3827 6.72468Z" fill="currentColor"/>
<path d="M12.0412 15.8735C12.1646 15.8735 13.07 16.2017 13.7696 16.5709C14.4692 16.9401 15.0042 17.1863 15.1688 17.3094C15.3334 17.4324 15.2511 17.5965 15.0865 17.7196C14.9218 17.8427 12.9465 19.4017 12.7408 19.5658C12.535 19.7299 12.247 20.0171 12.0823 20.0171C11.9177 20.0171 11.5885 19.7299 11.4239 19.5658C11.2181 19.4017 9.24284 17.8017 9.07823 17.7196C8.91362 17.5965 8.83131 17.4324 8.99592 17.3094C9.16053 17.1863 9.65436 16.9401 10.3951 16.5709C11.0124 16.1607 11.9177 15.8735 12.0412 15.8735ZM12.0412 4.63245C12.1235 4.63245 12.4939 4.67347 13.0288 4.83757C13.6461 5.0427 14.2634 5.28886 14.5926 5.28886C14.9218 5.28886 17.1441 4.83757 17.1441 4.83757C17.1441 4.83757 19.7778 8.0786 19.7778 8.77604C19.7778 9.47347 19.4486 9.63757 19.1194 10.0068C18.7902 10.376 17.3087 11.935 17.1441 12.1401C16.9383 12.3453 16.5679 12.6324 16.8149 13.2068C17.0618 13.7401 17.391 14.4786 17.0206 15.176C16.6502 15.8735 15.9918 16.3658 15.5803 16.2837C15.1688 16.2017 14.1811 15.6683 13.8519 15.4632C13.4815 15.2171 12.3704 14.2735 12.3704 13.9042C12.3704 13.535 13.5227 12.8786 13.7696 12.7555C13.9753 12.5914 14.963 12.0171 15.0042 11.8119C15.0042 11.6068 15.0042 11.5248 14.7161 10.9504C14.428 10.376 13.893 9.63757 13.9753 9.14527C14.0577 8.65296 14.9218 8.40681 15.498 8.16065C16.1153 7.9145 17.2675 7.50424 17.391 7.42219C17.5556 7.34014 17.5144 7.29911 17.0618 7.25809C16.6091 7.21706 15.3745 7.05296 14.7984 7.21706C14.2223 7.38116 13.2758 7.62732 13.1935 7.7504C13.1112 7.87347 13.0288 7.9145 13.1112 8.36578C13.1935 8.81706 13.605 10.9504 13.6461 11.3196C13.6873 11.6889 13.7696 11.935 13.3581 12.0581C12.9465 12.1401 12.2881 12.3042 12.0412 12.3042C11.7943 12.3042 11.1358 12.1401 10.7243 12.0581C10.3128 11.976 10.3951 11.7299 10.4363 11.3196C10.4774 10.9504 10.8889 8.81706 10.9712 8.36578C11.0535 7.9145 10.9712 7.9145 10.8889 7.79142C10.8066 7.66834 9.86012 7.42219 9.28399 7.25809C8.70786 7.09399 7.47329 7.25809 7.02061 7.29911C6.56794 7.34014 6.52679 7.42219 6.6914 7.46322C6.85601 7.54527 8.00827 7.95552 8.5844 8.20168C9.20168 8.44783 10.0247 8.69398 10.107 9.18629C10.1893 9.6786 9.65436 10.4171 9.36629 10.9914C9.07823 11.5658 9.07823 11.6068 9.07823 11.853C9.07823 12.0581 10.0659 12.6324 10.3128 12.7965C10.5186 12.9607 11.712 13.6171 11.712 13.9453C11.712 14.3145 10.5597 15.2581 10.2305 15.5042C9.86012 15.7504 8.91362 16.2427 8.5021 16.3248C8.09057 16.4068 7.43214 15.9145 7.06177 15.2171C6.6914 14.5196 7.02062 13.7812 7.26753 13.2478C7.51444 12.7145 7.10292 12.3863 6.93831 12.1812C6.73255 11.976 5.29222 10.4171 4.963 10.0478C4.63378 9.6786 4.30457 9.5145 4.30457 8.81706C4.30457 8.11963 6.93831 4.8786 6.93831 4.8786C6.93831 4.8786 9.16053 5.32988 9.48975 5.32988C9.81897 5.32988 10.4363 5.08373 11.0535 4.8786C11.5885 4.63245 11.9589 4.63245 12.0412 4.63245Z" fill="white"/>
<path d="M17.7201 3.36044L15.6624 0.980957H12.041H8.41964L6.36203 3.36044C6.36203 3.36044 4.55133 2.86814 3.68713 3.72967C3.68713 3.72967 6.11512 3.52455 6.93816 4.87839C6.93816 4.87839 9.16039 5.32968 9.4896 5.32968C9.81882 5.32968 10.4361 5.08352 11.0534 4.87839C11.6707 4.67326 12.041 4.67326 12.041 4.67326C12.041 4.67326 12.4526 4.67326 13.0287 4.87839C13.646 5.08352 14.2633 5.32968 14.5925 5.32968C14.9217 5.32968 17.1439 4.87839 17.1439 4.87839C17.967 3.52455 20.395 3.72967 20.395 3.72967C19.5308 2.82711 17.7201 3.36044 17.7201 3.36044Z" fill="currentColor"/>
</svg>
