<svg width="24" height="25" viewBox="0 0 24 25" fill="none" xmlns="http://www.w3.org/2000/svg">
<path fill-rule="evenodd" clip-rule="evenodd" d="M21.9177 5.32981L21.3827 6.72468L22 8.77596C22 8.77596 19.9424 16.7349 19.6955 17.7195C19.2428 19.6067 18.8724 20.3452 17.5556 21.3298C16.2387 22.3144 13.7695 23.9965 13.358 24.2426C13.2512 24.3065 13.1389 24.3842 13.0231 24.4643C12.6929 24.6926 12.3352 24.9401 12 24.9401C11.6648 24.9401 11.3071 24.6926 10.9769 24.4643C10.8611 24.3842 10.7488 24.3065 10.642 24.2426C10.2716 23.9965 7.76132 22.2734 6.44444 21.3298C5.12757 20.3862 4.79835 19.6478 4.30453 17.7195C4.05761 16.7349 2 8.77596 2 8.77596L2.69959 6.72468L2.0823 5.32981C2.0823 5.32981 2.78189 4.55032 3.64609 3.68878C4.51029 2.82724 6.32099 3.31955 6.32099 3.31955L8.3786 0.940063H15.6214L17.679 3.31955C17.679 3.31955 19.4897 2.82724 20.3539 3.68878C21.2181 4.55032 21.9177 5.32981 21.9177 5.32981ZM13.7696 16.5709C13.07 16.2017 12.1646 15.8735 12.0412 15.8735C11.9177 15.8735 11.0124 16.1607 10.3951 16.5709C9.6544 16.9401 9.16053 17.1863 8.99592 17.3094C8.83131 17.4324 8.91362 17.5965 9.07823 17.7196C9.21783 17.7892 10.6598 18.9506 11.2202 19.4019C11.3206 19.4828 11.3927 19.5409 11.4239 19.5658C11.5885 19.7299 11.9177 20.0171 12.0823 20.0171C12.2099 20.0171 12.4117 19.8445 12.5918 19.6905C12.6441 19.6458 12.6945 19.6027 12.7408 19.5658C12.9465 19.4017 14.9218 17.8427 15.0865 17.7196C15.2511 17.5965 15.3334 17.4324 15.1688 17.3094C15.067 17.2333 14.8238 17.1102 14.4877 16.9401C14.28 16.835 14.0368 16.7119 13.7696 16.5709ZM13.0288 4.83757C12.4939 4.67347 12.1235 4.63245 12.0412 4.63245C11.9589 4.63245 11.5885 4.63245 11.0535 4.8786C10.9183 4.92354 10.7831 4.97045 10.6508 5.01631C10.1796 5.17977 9.74684 5.32988 9.48975 5.32988C9.16053 5.32988 6.93831 4.8786 6.93831 4.8786C6.93831 4.8786 4.30457 8.11963 4.30457 8.81706C4.30457 9.38058 4.51949 9.59592 4.77569 9.8526C4.83657 9.9136 4.89979 9.97693 4.963 10.0478C5.29222 10.4171 6.73255 11.976 6.93831 12.1812C6.9613 12.2098 6.9891 12.2409 7.01925 12.2745C7.20502 12.482 7.47996 12.789 7.26753 13.2478C7.02062 13.7812 6.6914 14.5196 7.06177 15.2171C7.43214 15.9145 8.09057 16.4068 8.5021 16.3248C8.91362 16.2427 9.86012 15.7504 10.2305 15.5042C10.5597 15.2581 11.712 14.3145 11.712 13.9453C11.712 13.6961 11.024 13.2577 10.6027 12.9892C10.4691 12.9041 10.3623 12.8361 10.3128 12.7965C10.2691 12.7675 10.2022 12.7256 10.1217 12.6752C9.74723 12.4407 9.07823 12.0218 9.07823 11.853C9.07823 11.6068 9.07823 11.5658 9.36629 10.9914C9.43648 10.8515 9.52132 10.7018 9.60832 10.5483C9.8784 10.0718 10.1693 9.55865 10.107 9.18629C10.0354 8.75768 9.40225 8.51564 8.83227 8.29775C8.74757 8.26537 8.66426 8.23352 8.5844 8.20168C8.2697 8.06722 7.7831 7.8838 7.37946 7.73165C7.04415 7.60526 6.76609 7.50045 6.6914 7.46322C6.52679 7.42219 6.56794 7.34014 7.02061 7.29911C7.08368 7.2934 7.16192 7.28529 7.25144 7.27602C7.8045 7.21873 8.78812 7.11685 9.28399 7.25809C9.37213 7.28319 9.46893 7.31022 9.56998 7.33843C10.1295 7.49462 10.8192 7.68717 10.8889 7.79142C10.9019 7.8108 10.9148 7.82712 10.9272 7.84264C10.9931 7.92568 11.0406 7.98555 10.9712 8.36578C10.9515 8.47409 10.9128 8.6793 10.8647 8.93376C10.7127 9.73949 10.4675 11.039 10.4363 11.3196C10.4316 11.3659 10.4264 11.4101 10.4215 11.4522C10.3828 11.7833 10.3592 11.9853 10.7243 12.0581C10.8375 12.0806 10.9692 12.1094 11.106 12.1392C11.4668 12.218 11.8622 12.3042 12.0412 12.3042C12.2202 12.3042 12.6156 12.218 12.9764 12.1392C13.1131 12.1094 13.2449 12.0806 13.3581 12.0581C13.7258 11.9481 13.6992 11.7398 13.66 11.4332C13.6553 11.3968 13.6505 11.3589 13.6461 11.3196C13.6149 11.039 13.3696 9.73941 13.2176 8.93369C13.1696 8.67926 13.1309 8.47408 13.1111 8.36578C13.0382 7.96594 13.0945 7.88816 13.1656 7.79002C13.1747 7.77739 13.1841 7.76443 13.1935 7.7504C13.2632 7.64615 13.9529 7.4536 14.5124 7.2974C14.6135 7.26919 14.7103 7.24217 14.7984 7.21706C15.2943 7.07582 16.2779 7.17771 16.8309 7.23499C16.9205 7.24427 16.9987 7.25237 17.0618 7.25809C17.5144 7.29911 17.5556 7.34014 17.391 7.42219C17.3154 7.47245 16.8538 7.64582 16.3656 7.82921C16.0567 7.94523 15.7372 8.06526 15.498 8.16065C15.4001 8.20248 15.2938 8.24432 15.1845 8.28736C14.6507 8.49758 14.0437 8.73662 13.9753 9.14527C13.9131 9.51763 14.204 10.0308 14.4741 10.5073C14.5611 10.6608 14.6459 10.8105 14.7161 10.9504C15.0042 11.5248 15.0042 11.6068 15.0042 11.8119C14.9749 11.9578 14.4668 12.2905 14.1018 12.5295C13.9536 12.6265 13.829 12.7081 13.7696 12.7555C13.5227 12.8786 12.3704 13.535 12.3704 13.9042C12.3704 14.2735 13.4815 15.2171 13.8519 15.4632C14.1811 15.6683 15.1688 16.2017 15.5803 16.2837C15.9918 16.3658 16.6502 15.8735 17.0206 15.176C17.391 14.4786 17.0618 13.7401 16.8149 13.2068C16.5877 12.6785 16.8829 12.3932 17.0918 12.1912C17.11 12.1736 17.1276 12.1566 17.1441 12.1401C17.2367 12.0247 17.7465 11.4804 18.2332 10.9607C18.6113 10.557 18.9755 10.1682 19.1194 10.0068C19.1826 9.93591 19.2458 9.87257 19.3067 9.81157C19.5629 9.55489 19.7778 9.33955 19.7778 8.77604C19.7778 8.0786 17.1441 4.83757 17.1441 4.83757C17.1441 4.83757 14.9219 5.28886 14.5926 5.28886C14.3355 5.28886 13.9028 5.13874 13.4315 4.97528C13.2993 4.92942 13.1641 4.88251 13.0288 4.83757Z" fill="currentcolor"/>
<path d="M17.7201 3.36044L15.6625 0.980957H8.41967L6.36205 3.36044C6.36205 3.36044 4.55135 2.86814 3.68716 3.72968C3.68716 3.72968 6.11527 3.52475 6.93831 4.8786C6.93831 4.8786 9.16053 5.32988 9.48975 5.32988C9.81897 5.32988 10.4363 5.08373 11.0535 4.8786C11.6708 4.67347 12.0411 4.67326 12.0411 4.67326C12.0411 4.67326 12.4526 4.67326 13.0287 4.87839C13.646 5.08352 14.2633 5.32968 14.5925 5.32968C14.9217 5.32968 17.1439 4.87839 17.1439 4.87839C17.967 3.52455 20.395 3.72968 20.395 3.72968C19.5308 2.82711 17.7201 3.36044 17.7201 3.36044Z" fill="currentcolor"/>
</svg>
