<svg width="24" height="24" viewBox="0 0 24 24" fill="none" xmlns="http://www.w3.org/2000/svg">
<g clip-path="url(#clip0_6071_29482)">
<path d="M7.51575 12.0008C7.51575 14.4738 9.52773 16.4857 12.0009 16.4857C14.4738 16.4857 16.4857 14.4738 16.4857 12.0008C16.4857 9.52773 14.4738 7.51575 12.0009 7.51575C9.52773 7.51575 7.51575 9.52773 7.51575 12.0008Z" fill="currentColor"/>
<path d="M22.3282 6.08064C22.3632 6.01918 22.3625 5.94371 22.3264 5.88288C21.2818 4.12343 19.7951 2.64964 18.0271 1.62087C16.2049 0.560462 14.121 0 12.0009 0C8.3318 0 4.91236 1.6466 2.61937 4.51761C2.56877 4.58088 2.56216 4.66863 2.60268 4.73874L5.98104 10.5901C6.01645 10.6515 6.08176 10.6884 6.15133 10.6884C6.16014 10.6884 6.16912 10.6878 6.17801 10.6866C6.25717 10.6758 6.32194 10.6182 6.34193 10.5409C7.00808 7.95979 9.33515 6.15713 12.0009 6.15713C12.1663 6.15713 12.3372 6.16469 12.5089 6.17932C12.5145 6.17988 12.5202 6.18011 12.5257 6.18011H22.1572C22.228 6.18011 22.2933 6.14218 22.3282 6.08064Z" fill="currentColor"/>
<path d="M13.7743 17.7003C13.7254 17.6371 13.6434 17.6099 13.5661 17.6313C13.0579 17.7728 12.5314 17.8445 12.0009 17.8445C9.74702 17.8445 7.66972 16.5226 6.70862 14.4769C6.70626 14.4718 6.70367 14.4669 6.70091 14.4621L1.88166 6.11509C1.84657 6.0541 1.78156 6.01672 1.71129 6.01672C1.71098 6.01672 1.71058 6.01672 1.71027 6.01672C1.6396 6.01712 1.57452 6.05528 1.53989 6.11682C0.532526 7.90437 0 9.93901 0 12.0008C0 14.8932 1.04349 17.6871 2.93822 19.8678C4.81413 22.0268 7.39673 23.4476 10.2104 23.8686C10.2202 23.8701 10.23 23.8708 10.2396 23.8708C10.3091 23.8708 10.3744 23.8338 10.4099 23.7724L13.7892 17.9193C13.8291 17.85 13.8232 17.7634 13.7743 17.7003Z" fill="currentColor"/>
<path d="M22.9925 7.4928H16.2269C16.1469 7.4928 16.0749 7.54119 16.0448 7.61517C16.0145 7.68914 16.0321 7.77413 16.0891 7.83C17.2212 8.93975 17.8446 10.4209 17.8446 12.0008C17.8446 13.1968 17.4837 14.3478 16.8009 15.3294C16.7977 15.334 16.7948 15.3386 16.792 15.3434L11.9645 23.7049C11.9291 23.7661 11.9294 23.8416 11.965 23.9026C12.0003 23.963 12.065 24 12.1348 24C12.1355 24 12.1363 24 12.137 24C15.3139 23.9646 18.2951 22.7007 20.5313 20.4413C22.7693 18.18 24.0018 15.1824 24.0018 12.0008C24.0018 10.4885 23.7238 9.01388 23.1757 7.61769C23.1461 7.5423 23.0734 7.4928 22.9925 7.4928Z" fill="currentColor"/>
</g>
<defs>
<clipPath id="clip0_6071_29482">
<rect width="24" height="24" fill="white"/>
</clipPath>
</defs>
</svg>
