<svg width="24" height="24" viewBox="0 0 24 24" fill="none" xmlns="http://www.w3.org/2000/svg">
<path fill-rule="evenodd" clip-rule="evenodd" d="M0 2.75024L14.8753 2.75045C15.9108 2.75046 16.7502 3.58992 16.7502 4.62545V6.75025H21.6741C22.6773 6.75025 23.5027 7.53985 23.5473 8.54204L23.9471 17.5418C23.9945 18.6089 23.1421 19.5 22.0739 19.5H19.5V18H22.0739C22.2876 18 22.458 17.8218 22.4485 17.6084L22.0487 8.60861C22.0398 8.40817 21.8747 8.25025 21.6741 8.25025H16.7502V13.5H15.2502V4.62545C15.2502 4.41834 15.0824 4.25045 14.8752 4.25045L1.5 4.25026V19.5H0V2.75024Z" fill="currentColor"/>
<path fill-rule="evenodd" clip-rule="evenodd" d="M12 19.5H8.25V18H12V19.5Z" fill="currentColor"/>
<path fill-rule="evenodd" clip-rule="evenodd" d="M6.375 16.5C5.33947 16.5 4.5 17.3395 4.5 18.375C4.5 19.4105 5.33947 20.25 6.375 20.25C7.41053 20.25 8.25 19.4105 8.25 18.375C8.25 17.3395 7.41053 16.5 6.375 16.5ZM3 18.375C3 16.511 4.51104 15 6.375 15C8.23896 15 9.75 16.511 9.75 18.375C9.75 20.239 8.23896 21.75 6.375 21.75C4.51104 21.75 3 20.239 3 18.375Z" fill="currentColor"/>
<path fill-rule="evenodd" clip-rule="evenodd" d="M16.875 16.5C15.8395 16.5 15 17.3395 15 18.375C15 19.4105 15.8395 20.25 16.875 20.25C17.9105 20.25 18.75 19.4105 18.75 18.375C18.75 17.3395 17.9105 16.5 16.875 16.5ZM13.5 18.375C13.5 16.511 15.011 15 16.875 15C18.739 15 20.25 16.511 20.25 18.375C20.25 20.239 18.739 21.75 16.875 21.75C15.011 21.75 13.5 20.239 13.5 18.375Z" fill="currentColor"/>
<path fill-rule="evenodd" clip-rule="evenodd" d="M19.5 7.5V11.625C19.5 11.8321 19.6679 12 19.875 12H22.5V13.5H19.875C18.8395 13.5 18 12.6605 18 11.625V7.5H19.5Z" fill="currentColor"/>
</svg>
