<svg width="88" height="88" viewBox="0 0 88 88" fill="none" xmlns="http://www.w3.org/2000/svg">
<path d="M44 79C55.8629 79 64.6764 76.3419 70.5091 70.5091C76.3419 64.6764 79 55.8629 79 44C79 32.1371 76.3419 23.3236 70.5091 17.4909C64.6764 11.6581 55.8629 9 44 9C32.1371 9 23.3236 11.6581 17.4909 17.4909C11.6581 23.3236 9 32.1371 9 44C9 55.8629 11.6581 64.6764 17.4909 70.5091C23.3236 76.3419 32.1371 79 44 79Z" stroke="currentColor" stroke-width="2"/>
<path d="M38.6321 27H46.5821V40.1009H41.653V31.2174H37.2373L38.6321 27Z" fill="currentColor"/>
<path fill-rule="evenodd" clip-rule="evenodd" d="M43.9992 59.9178C49.0066 59.9178 53.0658 55.8585 53.0658 50.8511C53.0658 45.8437 49.0066 41.7845 43.9992 41.7845C38.9918 41.7845 34.9325 45.8437 34.9325 50.8511C34.9325 55.8585 38.9918 59.9178 43.9992 59.9178ZM43.9991 55.8016C46.7333 55.8016 48.9497 53.5852 48.9497 50.8511C48.9497 48.117 46.7333 45.9005 43.9991 45.9005C41.2651 45.9005 39.0487 48.117 39.0487 50.8511C39.0487 53.5852 41.2651 55.8016 43.9991 55.8016Z" fill="currentColor"/>
</svg>
