<svg width="88" height="88" viewBox="0 0 88 88" fill="none" xmlns="http://www.w3.org/2000/svg">
<path d="M38.9699 51.97C38.8799 52.05 38.9799 52.18 39.0799 52.12C41.6599 50.72 45.1599 48.82 48.1099 47.22C48.1599 47.18 48.1699 47.1 48.1299 47.06L46.0399 45.01C45.9999 44.97 45.9299 44.97 45.8899 45.01L38.9299 51.95L38.9699 51.97Z" fill="currentColor"/>
<path d="M45.921 42.776C45.951 42.806 46.021 42.806 46.061 42.766L48.141 40.686C48.181 40.636 48.171 40.556 48.111 40.526L47.091 39.966C45.861 39.296 44.221 38.416 42.551 37.516C41.301 36.836 40.031 36.156 38.921 35.556C38.811 35.496 38.721 35.626 38.801 35.706L45.891 42.736L45.921 42.776Z" fill="currentColor"/>
<path d="M35 35.19C35 34.95 35.03 34.76 35.09 34.6C35.15 34.43 35.36 34.42 35.48 34.54L44.84 43.81C44.87 43.84 44.87 43.91 44.84 43.95L35.44 53.32C35.3 53.45 35.07 53.42 35.02 53.23C34.98 53.09 34.97 52.93 34.97 52.77V35.16L35 35.19Z" fill="currentColor"/>
<path d="M49.68 46.38C49.64 46.4 49.59 46.39 49.56 46.36L47.12 43.96C47.08 43.92 47.08 43.85 47.11 43.81L49.56 41.37C49.59 41.33 49.63 41.33 49.67 41.35C51.75 42.48 53.38 43.37 53.87 43.63C53.88 43.63 53.9 43.65 53.91 43.67C53.95 43.77 53.96 43.87 53.95 43.97C53.94 43.99 53.92 44.02 53.9 44.03C53.61 44.18 52.65 44.7 51.32 45.42H51.31C50.8 45.69 50.23 46 49.63 46.33L49.68 46.38Z" fill="currentColor"/>
<circle cx="44" cy="44" r="37" stroke="currentColor" stroke-width="2"/>
</svg>
