<svg width="88" height="88" viewBox="0 0 88 88" fill="none" xmlns="http://www.w3.org/2000/svg">
<rect x="24" y="5" width="40" height="78" rx="3.75" stroke="currentColor" stroke-width="2"/>
<path d="M39.2643 29H46.2791V40.5596H41.9299V32.7212H38.0337L39.2643 29Z" fill="currentColor"/>
<path fill-rule="evenodd" clip-rule="evenodd" d="M44 58.0451C48.4183 58.0451 52 54.4634 52 50.0451C52 45.6268 48.4183 42.0451 44 42.0451C39.5818 42.0451 36 45.6268 36 50.0451C36 54.4634 39.5818 58.0451 44 58.0451ZM44 54.4132C46.4124 54.4132 48.3681 52.4575 48.3681 50.0451C48.3681 47.6327 46.4124 45.677 44 45.677C41.5876 45.677 39.6319 47.6327 39.6319 50.0451C39.6319 52.4575 41.5876 54.4132 44 54.4132Z" fill="currentColor"/>
<path d="M34 80H54V78H34V80Z" fill="currentColor"/>
</svg>
