<svg width="88" height="88" viewBox="0 0 88 88" fill="none" xmlns="http://www.w3.org/2000/svg">
<rect x="4.99933" y="12" width="78.6667" height="64" rx="1.75" stroke="currentColor" stroke-width="2"/>
<circle cx="13.59" cy="21.101" r="3.92599" fill="currentColor"/>
<circle cx="25.3671" cy="21.101" r="3.92599" fill="currentColor"/>
<circle cx="37.1423" cy="21.101" r="3.92599" fill="currentColor"/>
<path d="M39.9916 40.5052H46.4218V51.1015H42.435V43.9163H38.8635L39.9916 40.5052Z" fill="currentColor"/>
<path fill-rule="evenodd" clip-rule="evenodd" d="M44.3327 67.1299C48.3828 67.1299 51.666 63.8466 51.666 59.7965C51.666 55.7464 48.3828 52.4632 44.3327 52.4632C40.2826 52.4632 36.9993 55.7464 36.9993 59.7965C36.9993 63.8466 40.2826 67.1299 44.3327 67.1299ZM44.3326 63.8006C46.5441 63.8006 48.3367 62.0079 48.3367 59.7965C48.3367 57.5851 46.5441 55.7924 44.3326 55.7924C42.1213 55.7924 40.3286 57.5851 40.3286 59.7965C40.3286 62.0079 42.1213 63.8006 44.3326 63.8006Z" fill="currentColor"/>
<line x1="9.49933" y1="29.25" x2="82.8327" y2="29.25" stroke="currentColor" stroke-width="2"/>
</svg>
