<svg width="24" height="24" viewBox="0 0 24 24" fill="none" xmlns="http://www.w3.org/2000/svg">
<g clip-path="url(#clip0_6071_29502)">
<path d="M14.7625 23.6916C17.8855 22.9692 20.5414 21.0276 22.2026 18.3953C22.4053 18.0742 22.0479 17.69 21.7132 17.8696C20.4361 18.5547 18.9205 18.9516 17.2946 18.9516C12.7884 18.9516 9.12662 15.9035 9.0511 12.1192C9.0256 10.8405 9.78877 9.70993 10.8962 9.23733L10.8955 9.23682C10.2408 9.46599 9.50457 9.56072 8.93518 9.95546C6.7756 11.4525 5.46465 14.2224 5.67348 16.7126C5.87616 19.129 7.35381 21.9606 9.90971 23.2257C11.2464 23.8872 12.9706 23.7795 14.7625 23.6916Z" fill="currentColor" stroke="white" stroke-width="1.25"/>
<path d="M14.6539 15.6288C15.4635 15.9242 16.3564 16.0879 17.2946 16.0879C20.9713 16.0879 23.9518 13.5749 23.9519 10.4749C23.9519 4.32917 18.2198 0.0554858 12.1591 0.000501498C5.55135 -0.0595453 0.108649 5.28036 0.0484619 11.8881C0.0484619 11.8881 1.70165 6.78251 7.60705 6.78251C11.603 6.78251 14.3968 9.15443 14.8557 10.9474C14.9785 11.275 15.046 11.6295 15.046 11.9999C15.046 12.7766 14.7506 13.4844 14.266 14.0169C13.7859 14.5445 13.9837 15.3843 14.6539 15.6288Z" fill="currentColor" stroke="white" stroke-width="1.25"/>
<path d="M14.8557 10.9475C14.3968 9.15447 12.8686 5.69922 7.90445 5.69922C0.271327 5.69922 0.0484824 11.8882 0.0484824 11.8882C-0.0123145 18.5669 5.38333 24 12.048 24C12.9816 24 13.8902 23.8933 14.7625 23.6916C5.08211 24.1669 4.08789 11.6198 10.8955 9.23683C11.2398 9.08992 11.6178 9.00639 12.0153 9.00213C13.3148 8.9883 14.4258 9.80139 14.8557 10.9475Z" fill="currentColor" stroke="white" stroke-width="1.25"/>
</g>
<defs>
<clipPath id="clip0_6071_29502">
<rect width="24" height="24" fill="white"/>
</clipPath>
</defs>
</svg>
