<svg width="24" height="24" viewBox="0 0 24 24" fill="none" xmlns="http://www.w3.org/2000/svg">
<g clip-path="url(#clip0_6829_31062)">
<path d="M21.86 17.8601C21.9533 17.8601 22.0367 17.9001 22.11 17.9801C22.1767 18.0667 22.21 18.1501 22.21 18.2301C22.21 18.3101 22.1733 18.4201 22.1 18.5601L21.78 19.0201L21.35 19.5501L20.91 20.0501C20.77 20.2167 20.6433 20.3567 20.53 20.4701L20.31 20.7001C19.9233 21.0534 19.4767 21.4001 18.97 21.7401C18.4633 22.0801 17.93 22.3834 17.37 22.6501C16.7967 22.9167 16.2167 23.1301 15.63 23.2901C15.0433 23.4501 14.4867 23.5301 13.96 23.5301C13.36 23.5301 12.7967 23.4367 12.27 23.2501C11.7367 23.0634 11.2433 22.8034 10.79 22.4701C10.3367 22.1367 9.93 21.7467 9.57 21.3001C9.21667 20.8601 8.91 20.3801 8.65 19.8601C8.39667 19.3467 8.20333 18.8134 8.07 18.2601C7.93667 17.7067 7.87 17.1501 7.87 16.5901C7.87 15.9234 7.97667 15.2701 8.19 14.6301C8.41 13.9834 8.7 13.3834 9.06 12.8301C9.15333 13.4634 9.33667 14.0534 9.61 14.6001C9.88333 15.1467 10.2233 15.6467 10.63 16.1001C11.03 16.5534 11.49 16.9567 12.01 17.3101C12.53 17.6701 13.0767 17.9701 13.65 18.2101C14.2233 18.4501 14.8133 18.6367 15.42 18.7701C16.0333 18.9034 16.6333 18.9701 17.22 18.9701C17.9667 18.9701 18.6933 18.8901 19.4 18.7301C20.1067 18.5767 20.7933 18.3367 21.46 18.0101L21.66 17.9101L21.86 17.8601V17.8601ZM6.36 16.5901C6.36 17.3234 6.45 18.0401 6.63 18.7401C6.81 19.4467 7.07 20.1234 7.41 20.7701C7.75 21.4101 8.16333 22.0001 8.65 22.5401C9.14333 23.0867 9.69667 23.5534 10.31 23.9401C9.33 23.8067 8.39667 23.5601 7.51 23.2001C6.62333 22.8334 5.79667 22.3767 5.03 21.8301C4.26333 21.2767 3.57 20.6434 2.95 19.9301C2.33667 19.2167 1.81 18.4401 1.37 17.6001C0.93 16.7601 0.593333 15.8734 0.36 14.9401C0.12 14.0067 0 13.0467 0 12.0601C0 11.5201 0.106667 11.0234 0.32 10.5701C0.526667 10.1167 0.803333 9.70673 1.15 9.34006C1.50333 8.97339 1.90333 8.65339 2.35 8.38006C2.79 8.11339 3.24 7.89339 3.7 7.72006C4.19333 7.54006 4.69333 7.41006 5.2 7.33006C5.72 7.25006 6.23667 7.21006 6.75 7.21006C7.21667 7.21006 7.69 7.24339 8.17 7.31006C8.65 7.39006 9.11667 7.50673 9.57 7.66006C10.0233 7.81339 10.4633 8.00339 10.89 8.23006C11.31 8.46339 11.6967 8.74006 12.05 9.06006C11.8167 9.06006 11.5833 9.08339 11.35 9.13006C11.13 9.17672 10.9133 9.25339 10.7 9.36006V9.34006C10.28 9.52672 9.88 9.77339 9.5 10.0801C9.12 10.3867 8.77 10.7334 8.45 11.1201C8.13 11.5067 7.84 11.9267 7.58 12.3801C7.32667 12.8267 7.11 13.2901 6.93 13.7701C6.75 14.2434 6.61 14.7234 6.51 15.2101C6.41 15.6901 6.36 16.1501 6.36 16.5901V16.5901ZM11.96 0.0600586C13.0933 0.0600586 14.2033 0.190059 15.29 0.450059C16.3767 0.703392 17.4 1.08673 18.36 1.60006C19.3133 2.11339 20.1867 2.75673 20.98 3.53006C21.7667 4.30339 22.4267 5.20339 22.96 6.23006C23.2867 6.85673 23.54 7.51006 23.72 8.19006C23.9067 8.85672 24 9.55006 24 10.2701C24 10.8634 23.9233 11.4301 23.77 11.9701C23.61 12.5034 23.38 12.9967 23.08 13.4501C22.78 13.9034 22.4133 14.3101 21.98 14.6701C21.5533 15.0234 21.07 15.3167 20.53 15.5501C20.17 15.7101 19.8 15.8301 19.42 15.9101C19.0333 15.9967 18.6467 16.0401 18.26 16.0401C17.98 16.0401 17.6567 16.0301 17.29 16.0101C16.93 15.9901 16.5633 15.9501 16.19 15.8901C15.8233 15.8234 15.4733 15.7301 15.14 15.6101C14.8067 15.4834 14.5267 15.3167 14.3 15.1101C14.22 15.0501 14.1433 14.9701 14.07 14.8701C14.0033 14.7634 13.97 14.6534 13.97 14.5401C13.97 14.4401 14.0233 14.3234 14.13 14.1901C14.2367 14.0567 14.3533 13.8901 14.48 13.6901C14.6133 13.5034 14.7333 13.2767 14.84 13.0101C14.9467 12.7434 15 12.4267 15 12.0601C15 11.3534 14.8667 10.7001 14.6 10.1001C14.3333 9.49339 13.98 8.94672 13.54 8.46006C13.1 7.96672 12.5933 7.54006 12.02 7.18006C11.4467 6.81339 10.85 6.51673 10.23 6.29006C9.67 6.09006 9.09667 5.94339 8.51 5.85006C7.93 5.75673 7.34333 5.71006 6.75 5.71006C5.71667 5.71006 4.69667 5.86006 3.69 6.16006C2.68333 6.46006 1.76667 6.92339 0.94 7.55006C1.41333 6.39006 2.01667 5.34673 2.75 4.42006C3.48333 3.50006 4.32333 2.71673 5.27 2.07006C6.21 1.42339 7.24333 0.926725 8.37 0.580059C9.50333 0.233392 10.6967 0.0600586 11.95 0.0600586H11.96Z" fill="currentColor"/>
</g>
<defs>
<clipPath id="clip0_6829_31062">
<rect width="24" height="24" fill="white"/>
</clipPath>
</defs>
</svg>
