<svg width="24" height="24" viewBox="0 0 24 24" fill="none" xmlns="http://www.w3.org/2000/svg">
<path fill-rule="evenodd" clip-rule="evenodd" d="M13.5972 11.4697L18.5365 6.53033L17.4758 5.46967L12.5365 10.409C11.6578 11.2877 11.6578 12.7123 12.5365 13.591L17.4758 18.5303L18.5365 17.4697L13.5972 12.5303C13.3043 12.2374 13.3043 11.7626 13.5972 11.4697Z" fill="currentColor"/>
<path fill-rule="evenodd" clip-rule="evenodd" d="M10.4005 11.4696L5.46118 6.53026L6.52184 5.4696L11.4612 10.4089C12.3399 11.2876 12.3399 12.7122 11.4612 13.5909L6.52184 18.5303L5.46118 17.4696L10.4005 12.5303C10.6934 12.2374 10.6934 11.7625 10.4005 11.4696Z" fill="currentColor"/>
<path fill-rule="evenodd" clip-rule="evenodd" d="M12.5474 13.5778L17.4758 18.5279L18.5388 17.4696L13.6104 12.5194C12.7336 11.6388 11.309 11.6357 10.4284 12.5124L5.4782 17.4409L6.53653 18.5039L11.4867 13.5754C11.7803 13.2832 12.2551 13.2842 12.5474 13.5778Z" fill="currentColor"/>
<path fill-rule="evenodd" clip-rule="evenodd" d="M12.5257 10.4245L17.4758 5.49602L18.5342 6.55901L13.584 11.4875C12.7034 12.3642 11.2788 12.3611 10.402 11.4805L5.47354 6.53029L6.53653 5.47197L11.465 10.4222C11.7572 10.7157 12.2321 10.7167 12.5257 10.4245Z" fill="currentColor"/>
</svg>
