<svg width="25" height="24" viewBox="0 0 25 24" fill="none" xmlns="http://www.w3.org/2000/svg">
<path fill-rule="evenodd" clip-rule="evenodd" d="M14.2638 11.4688L19.2031 6.52947L18.1425 5.46881L13.2031 10.4082C12.3244 11.2868 12.3244 12.7115 13.2031 13.5901L18.1425 18.5295L19.2031 17.4688L14.2638 12.5295C13.9709 12.2366 13.9709 11.7617 14.2638 11.4688Z" fill="currentColor"/>
<path fill-rule="evenodd" clip-rule="evenodd" d="M11.0671 11.4687L6.12781 6.52941L7.18847 5.46875L12.1278 10.4081C13.0065 11.2868 13.0065 12.7114 12.1278 13.5901L7.18847 18.5294L6.12781 17.4688L11.0671 12.5294C11.36 12.2365 11.36 11.7616 11.0671 11.4687Z" fill="currentColor"/>
<path fill-rule="evenodd" clip-rule="evenodd" d="M13.214 13.5769L18.1425 18.5271L19.2055 17.4688L14.277 12.5186C13.4002 11.638 11.9756 11.6348 11.095 12.5116L6.14483 17.44L7.20315 18.503L12.1533 13.5746C12.4469 13.2823 12.9218 13.2834 13.214 13.5769Z" fill="currentColor"/>
<path fill-rule="evenodd" clip-rule="evenodd" d="M13.1923 10.4236L18.1425 5.49517L19.2008 6.55816L14.2506 11.4866C13.37 12.3634 11.9454 12.3602 11.0686 11.4796L6.14017 6.52944L7.20315 5.47111L12.1316 10.4213C12.4239 10.7148 12.8987 10.7159 13.1923 10.4236Z" fill="currentColor"/>
</svg>
