<svg width="24" height="24" viewBox="0 0 24 24" fill="none" xmlns="http://www.w3.org/2000/svg">
<g clip-path="url(#clip0_6071_29495)">
<path d="M12.0911 23.2624C12.0387 23.2634 11.9767 23.2634 11.9147 23.2634C5.70883 23.2634 0.258275 18.092 0.0261127 11.8982L0.0251434 11.8769C-0.153109 8.88856 0.526777 5.81008 1.90544 3.15193C1.84712 3.27746 2.98901 1.18887 4.25194 0.00581536L4.25776 0L4.11044 3.76254C4.20865 3.63719 4.51202 3.56805 5.02054 3.55512C5.5 3.55512 5.84148 3.61134 5.95778 3.76254C6.45887 2.93482 7.19645 2.29319 8.07748 1.92585L8.10753 1.91519C9.02151 1.44803 10.0974 1.1592 11.2362 1.12527H11.2478C10.6295 1.69712 10.0983 2.35231 9.66895 3.07439L9.64666 3.11413C9.17755 3.71408 8.88582 4.47298 8.86352 5.29876V5.30361C9.09905 5.37824 9.38206 5.44124 9.67186 5.48098L9.69997 5.48389C10.0347 5.53299 10.3157 5.56659 10.5432 5.58469C10.7706 5.60278 11.074 5.62055 11.4533 5.63799C11.8326 5.65544 12.0581 5.66901 12.1298 5.6787C12.2636 5.72329 12.3059 5.9265 12.2568 6.28835C12.2015 6.67216 12.0562 7.01333 11.8439 7.30216L11.8478 7.29634C11.778 7.38745 11.7053 7.46886 11.6278 7.54349L11.6268 7.54446C11.4068 7.7228 11.1587 7.88078 10.8931 8.00969L10.8698 8.01939C10.4783 8.22874 10.0247 8.38672 9.54489 8.47105L9.51775 8.47492L9.72323 11.0104L7.86231 10.1129C7.76733 10.3145 7.71111 10.552 7.71111 10.802C7.71111 10.9455 7.72953 11.0841 7.76345 11.2169L7.76054 11.2052C7.85359 11.5512 8.0203 11.8507 8.24419 12.0979L8.24225 12.096C8.4768 12.348 8.77145 12.5389 9.10486 12.6474L9.1194 12.6513C9.33166 12.7269 9.57591 12.7705 9.83178 12.7705C9.9636 12.7705 10.0935 12.7589 10.2185 12.7366L10.2049 12.7386C10.6983 12.6484 11.1383 12.4866 11.5396 12.2617L11.5182 12.2733C11.9382 12.0459 12.3111 11.8449 12.6367 11.6705C12.8965 11.5231 13.2076 11.4359 13.5381 11.4359C13.5672 11.4359 13.5963 11.4369 13.6244 11.4378H13.6205H13.6408C14.0935 11.4378 14.5064 11.6055 14.8214 11.8818L14.8194 11.8798C14.9978 12.0407 15.1092 12.2724 15.1092 12.5302C15.1092 12.6087 15.0986 12.6843 15.0801 12.756L15.0811 12.7502C15.0721 12.7683 15.0611 12.7928 15.0482 12.8238C15.0133 12.8878 14.9755 12.9421 14.9328 12.9925L14.9338 12.9915C14.8669 13.0749 14.7874 13.1447 14.6963 13.197L14.6925 13.1989C14.5703 13.2648 14.4288 13.3133 14.2786 13.3385L14.2708 13.3395C14.1642 13.3589 14.0421 13.3705 13.918 13.3705C13.824 13.3705 13.731 13.3637 13.6399 13.3521L13.6505 13.353C13.1853 14.1313 12.5262 14.7507 11.7383 15.1548L11.7121 15.1674C11.0869 15.4446 10.3571 15.6055 9.59045 15.6055C9.34911 15.6055 9.11262 15.59 8.88 15.559L8.90714 15.5619C9.51291 16.0727 10.2437 16.4555 11.0462 16.6591L11.0831 16.6668C11.4746 16.7715 11.9234 16.8316 12.3876 16.8316C12.724 16.8316 13.0535 16.7996 13.3724 16.7395L13.3394 16.7444C14.1187 16.5893 14.8117 16.348 15.4552 16.0252L15.4077 16.0465C16.0659 15.7276 16.6309 15.3361 17.1262 14.8718L17.1223 14.8747C17.5497 14.4803 17.9093 14.0189 18.1865 13.5071L18.2001 13.479C18.5335 12.7948 18.7283 11.9903 18.7283 11.1403C18.7283 11.056 18.7264 10.9726 18.7225 10.8893V10.9009C18.6925 9.98595 18.5112 9.12237 18.202 8.32275L18.2204 8.37606C17.9995 7.71892 17.637 7.15871 17.1679 6.70996L17.1659 6.70899C17.8667 6.99976 18.4715 7.3574 19.0171 7.7858L19.0007 7.7732C19.4611 8.17058 19.8148 8.67749 20.0242 9.25515L20.0319 9.27938C20.0465 9.07778 20.0542 8.84323 20.0542 8.60577C20.0542 5.51296 18.6624 2.74485 16.47 0.894597L16.4545 0.881997C18.7264 1.49261 20.628 2.81851 21.9539 4.59801L21.9733 4.62418C27.3325 12.4399 21.3933 23.2429 12.0891 23.2595L12.0911 23.2624Z" fill="black"/>
</g>
<defs>
<clipPath id="clip0_6071_29495">
<rect width="24" height="24" fill="white"/>
</clipPath>
</defs>
</svg>
