<svg width="24" height="24" viewBox="0 0 24 24" fill="none" xmlns="http://www.w3.org/2000/svg">
<path d="M5.64632 21.3398C5.54177 21.4328 5.65793 21.5838 5.77409 21.5141C8.77099 19.8879 12.8366 17.6808 16.2632 15.8223C16.3213 15.7758 16.3329 15.6829 16.2865 15.6364L13.8588 13.2552C13.8123 13.2087 13.731 13.2087 13.6845 13.2552L5.59985 21.3166L5.64632 21.3398Z" fill="currentColor"/>
<path d="M13.7206 10.6601C13.7554 10.695 13.8367 10.695 13.8832 10.6485L16.2993 8.23238C16.3458 8.1743 16.3342 8.08138 16.2645 8.04653L15.0796 7.39604C13.6509 6.61777 11.7459 5.59557 9.80603 4.55014C8.35404 3.76026 6.87883 2.97038 5.58946 2.27343C5.46169 2.20373 5.35714 2.35474 5.45007 2.44767L13.6857 10.6136L13.7206 10.6601Z" fill="currentColor"/>
<path d="M1.03485 1.84836C1.03485 1.56957 1.0697 1.34887 1.13939 1.16302C1.20909 0.965548 1.45302 0.953932 1.59241 1.09332L12.4649 11.8613C12.4997 11.8961 12.4997 11.9774 12.4649 12.0239L1.54595 22.908C1.38332 23.059 1.11616 23.0241 1.05808 22.8034C1.01162 22.6408 1 22.455 1 22.2691V1.81351L1.03485 1.84836Z" fill="currentColor"/>
<path d="M18.087 14.8466C18.0406 14.8698 17.9825 14.8582 17.9476 14.8233L15.1134 12.0355C15.0669 11.9891 15.0669 11.9078 15.1017 11.8613L17.9476 9.02702C17.9825 8.98055 18.029 8.98055 18.0754 9.00379C20.4915 10.3164 22.3849 11.3502 22.9541 11.6522C22.9657 11.6522 22.9889 11.6754 23.0006 11.6987C23.047 11.8148 23.0586 11.931 23.047 12.0472C23.0354 12.0704 23.0122 12.1052 22.9889 12.1168C22.6521 12.2911 21.537 12.8951 19.992 13.7315H19.9804C19.388 14.0451 18.7259 14.4052 18.0289 14.7885L18.087 14.8466Z" fill="currentColor"/>
</svg>
