<svg width="24" height="24" viewBox="0 0 24 24" fill="none" xmlns="http://www.w3.org/2000/svg">
<path fill-rule="evenodd" clip-rule="evenodd" d="M12 20.0833C16.4643 20.0833 20.0833 16.4643 20.0833 12C20.0833 7.53566 16.4643 3.91663 12 3.91663C7.53566 3.91663 3.91663 7.53566 3.91663 12C3.91663 16.4643 7.53566 20.0833 12 20.0833ZM21.5833 12C21.5833 17.2927 17.2927 21.5833 12 21.5833C6.70723 21.5833 2.41663 17.2927 2.41663 12C2.41663 6.70723 6.70723 2.41663 12 2.41663C17.2927 2.41663 21.5833 6.70723 21.5833 12Z" fill="currentColor"/>
<path fill-rule="evenodd" clip-rule="evenodd" d="M10.3707 6.6863C11.9481 5.76163 13.9028 6.31684 14.8137 7.8707C15.7384 9.44807 15.1832 11.4028 13.6293 12.3137L13.6258 12.3157L13.6258 12.3157C13.071 12.6369 12.75 13.2197 12.75 13.8333V14.5H11.25V13.8333C11.25 12.6976 11.8448 11.6145 12.8722 11.0188C13.7338 10.5127 14.0114 9.46809 13.5196 8.62928C13.015 7.76849 11.9735 7.48965 11.1352 7.97691C10.5886 8.31347 10.25 8.87275 10.25 9.49999H8.75C8.75 8.29616 9.40899 7.27387 10.3589 6.69336L10.3706 6.68619L10.3707 6.6863Z" fill="currentColor"/>
<path d="M12 17.5C12.5523 17.5 13 17.0523 13 16.5C13 15.9477 12.5523 15.5 12 15.5C11.4477 15.5 11 15.9477 11 16.5C11 17.0523 11.4477 17.5 12 17.5Z" fill="currentColor"/>
</svg>
