<svg width="24" height="24" viewBox="0 0 24 24" fill="none" xmlns="http://www.w3.org/2000/svg">
<path fill-rule="evenodd" clip-rule="evenodd" d="M12 20.5C16.6944 20.5 20.5 16.6944 20.5 12C20.5 7.30558 16.6944 3.5 12 3.5C7.30558 3.5 3.5 7.30558 3.5 12C3.5 16.6944 7.30558 20.5 12 20.5ZM22 12C22 17.5228 17.5228 22 12 22C6.47715 22 2 17.5228 2 12C2 6.47715 6.47715 2 12 2C17.5228 2 22 6.47715 22 12Z" fill="currentColor"/>
<path d="M12 9C12.5523 9 13 8.55228 13 8C13 7.44772 12.5523 7 12 7C11.4477 7 11 7.44772 11 8C11 8.55228 11.4477 9 12 9Z" fill="currentColor"/>
<path fill-rule="evenodd" clip-rule="evenodd" d="M10.5 10.25H12.9022V15.2444C13.1136 15.2443 13.3366 15.2456 13.5189 15.2502L13.4811 16.7498C13.2435 16.7438 12.9165 16.7437 12.6429 16.7453C12.5074 16.746 12.3872 16.7472 12.3009 16.7482L12.1995 16.7494L12.1638 16.7499L12.1522 16.7501L10.5 16.75V15.25H11.4022V11.75H10.5V10.25Z" fill="currentColor"/>
</svg>
