<svg width="24" height="24" viewBox="0 0 24 24" fill="none" xmlns="http://www.w3.org/2000/svg">
<g clip-path="url(#clip0_6071_29470)">
<path d="M21.6124 19.2689C20.9081 18.9801 20.6076 18.5977 20.6367 18.0272C20.6666 17.3607 20.2881 16.8728 20.1087 16.6801C20.2165 16.2654 20.5336 14.8324 20.1087 13.5883C19.6515 12.2561 18.2576 10.2212 16.8187 8.22096C16.2293 7.39945 16.2018 6.50634 16.1695 5.473C16.138 4.48625 16.1034 3.36927 15.5534 2.12638C14.9554 0.772939 13.7554 -0.00292969 12.2611 -0.00292969C11.3719 -0.00292969 10.4599 0.274841 9.7572 0.75909C8.31956 1.75127 8.5092 3.9145 8.6351 5.34584C8.65163 5.54178 8.66815 5.72669 8.67759 5.88486C8.761 7.2863 8.68468 8.02518 8.58553 8.25023C8.521 8.39659 8.2031 8.81443 7.86789 9.25666C7.52009 9.71384 7.12664 10.2324 6.80402 10.7148C6.41845 11.2955 6.10763 12.1839 5.80704 13.0431C5.58671 13.6719 5.37897 14.2652 5.17674 14.6201C4.79274 15.3023 4.88874 15.9389 4.96822 16.2332C4.82265 16.3339 4.61333 16.5322 4.43629 16.906C4.22225 17.3624 3.78789 17.6071 2.88604 17.781C2.47136 17.8652 2.1854 18.0399 2.03542 18.2988C1.81745 18.6757 1.93627 19.1494 2.04408 19.4728C2.20381 19.9481 2.10388 20.2494 1.9229 20.7963C1.88119 20.9222 1.83319 21.0654 1.78598 21.2228C1.71044 21.4715 1.73719 21.6973 1.86624 21.8948C2.20696 22.4157 3.20151 22.5991 4.22524 22.7203C4.83587 22.7927 5.5055 23.0366 6.15232 23.2734C6.78577 23.5048 7.44124 23.744 8.03778 23.8172C8.12827 23.8282 8.21797 23.8337 8.30453 23.8337C9.20394 23.8337 9.61076 23.2365 9.73965 22.9909C10.0623 22.9248 11.1773 22.7132 12.3261 22.6848C13.4726 22.6518 14.5821 22.8784 14.8969 22.9485C14.9953 23.1373 15.2557 23.5693 15.6712 23.792C15.8994 23.9163 16.2165 23.9879 16.5423 23.9879C16.8893 23.9879 17.5503 23.9053 18.0735 23.3553C18.5953 22.8021 19.8991 22.0963 20.8513 21.5801C21.0637 21.4644 21.262 21.3574 21.4367 21.2598C21.971 20.9631 22.2629 20.539 22.237 20.0968C22.2149 19.7293 21.9718 19.4067 21.6019 19.2556L21.6124 19.2689ZM9.77215 19.1619C9.70527 18.6929 9.10172 18.2271 8.40297 17.6888C7.83169 17.2482 7.18409 16.7493 7.00578 16.326C6.63673 15.4533 6.92709 13.9204 7.43384 13.1304C7.68407 12.7346 7.88866 12.1356 8.08617 11.5551C8.29942 10.9287 8.52053 10.2811 8.76761 9.99838C9.15869 9.55599 9.51987 8.69451 9.58361 8.01621C9.94951 8.36559 10.5176 8.80939 11.0425 8.80939C11.1228 8.80939 11.2014 8.79838 11.2762 8.77713C11.635 8.67326 12.163 8.36795 12.6737 8.07287C13.1136 7.81792 13.6565 7.50395 13.8611 7.47562C14.2113 7.97844 16.247 12.4845 16.4555 13.9312C16.6199 15.0761 16.446 16.022 16.3587 16.3926C16.2879 16.3824 16.2045 16.3745 16.1163 16.3745C15.549 16.3745 15.3987 16.6838 15.3593 16.8687C15.2586 17.3487 15.2476 18.8839 15.2468 19.2293C15.0414 19.4898 14.0043 20.7165 12.5155 20.9369C11.9089 21.025 11.3423 21.0691 10.8324 21.0691C10.3957 21.0691 10.1171 21.0352 10.0014 21.0171L9.25312 20.161C9.54742 20.0146 9.8425 19.7077 9.7646 19.153L9.77215 19.1619ZM10.7211 5.04596C10.6975 5.0554 10.6747 5.06642 10.6519 5.07822C10.6495 5.02707 10.644 4.97593 10.6361 4.92399C10.5543 4.45344 10.2427 4.11193 9.8949 4.11193C9.86894 4.11193 9.84297 4.1135 9.81464 4.11822C9.60769 4.15206 9.44481 4.30786 9.35589 4.52819C9.43379 4.04426 9.70763 3.68622 10.0326 3.68622C10.4142 3.68622 10.7361 4.20006 10.7361 4.80911C10.7361 4.88544 10.7298 4.96176 10.7188 5.0436L10.7211 5.04596ZM13.6861 5.40793C13.7207 5.29619 13.7396 5.1758 13.7396 5.05068C13.7396 4.49829 13.3895 4.06637 12.9424 4.06637C12.5049 4.06637 12.15 4.50781 12.15 5.05068C12.15 5.08766 12.1516 5.12465 12.1548 5.16163C12.1312 5.15219 12.1083 5.14353 12.0863 5.13566C12.0359 4.98301 12.01 4.82406 12.01 4.66196C12.01 4.002 12.4317 3.46432 12.9503 3.46432C13.4681 3.46432 13.8906 4.00098 13.8906 4.66117C13.8906 4.93501 13.8143 5.19704 13.6837 5.40557L13.6861 5.40793ZM13.3037 6.69212C13.2958 6.72517 13.2801 6.74012 13.1038 6.8314C13.0149 6.87704 12.904 6.93448 12.7662 7.01868L12.6734 7.07455C12.302 7.2996 11.4325 7.82602 11.1964 7.8575C11.0359 7.87875 10.9367 7.81658 10.7141 7.66471C10.6637 7.63009 10.6102 7.59389 10.5527 7.55691C10.1506 7.29252 9.89176 7.00216 9.86264 6.88924C9.99326 6.78773 10.3182 6.53435 10.4843 6.38406C10.8211 6.07009 11.161 5.8592 11.3294 5.8592C11.3381 5.8592 11.3459 5.85921 11.3546 5.86078C11.5521 5.8954 12.0392 6.08976 12.3948 6.2314C12.5593 6.29671 12.7009 6.35337 12.8009 6.38957C13.1156 6.49737 13.2793 6.63586 13.2998 6.6878L13.3037 6.69212ZM16.1318 21.3576C16.3088 20.5558 16.5134 19.4659 16.4803 18.8242C16.4725 18.6778 16.4591 18.5188 16.4473 18.3654C16.4237 18.0782 16.3891 17.6509 16.4245 17.5242C16.4316 17.5203 16.4394 17.5179 16.4481 17.5156C16.4489 17.8823 16.5291 18.6148 17.1146 18.8711C17.2885 18.9466 17.4883 18.9852 17.7071 18.9852C18.2933 18.9852 18.9449 18.6972 19.212 18.4304C19.3686 18.273 19.5008 18.081 19.5937 17.9284C19.6133 17.9874 19.6259 18.0645 19.6196 18.1644C19.5842 18.7058 19.8478 19.4242 20.3491 19.6894L20.4215 19.7272C20.5993 19.8208 21.0738 20.0695 21.0809 20.1875C21.0801 20.1875 21.0761 20.2009 21.0502 20.2253C20.9314 20.3331 20.5135 20.5471 20.1091 20.7533C19.3914 21.1192 18.5794 21.5339 18.2142 21.9179C17.7004 22.4585 17.1189 22.8218 16.768 22.8218C16.7255 22.8218 16.6869 22.8163 16.6523 22.8053C16.2706 22.6865 15.9567 22.1365 16.1259 21.3519L16.1318 21.3576ZM3.13871 19.3133C3.09937 19.1307 3.06868 18.9875 3.10173 18.8482C3.12534 18.7452 3.63445 18.6342 3.85163 18.587C4.15694 18.5201 4.47248 18.4516 4.67943 18.3265C4.95878 18.1566 5.10986 17.845 5.24363 17.5695C5.33963 17.3697 5.43956 17.1643 5.55838 17.0966C5.56468 17.0927 5.57491 17.088 5.59458 17.088C5.81648 17.088 6.28381 17.5554 6.55222 17.9742C6.61989 18.0796 6.74658 18.2905 6.89294 18.5352C7.32966 19.2662 7.92848 20.2687 8.24166 20.6047C8.52336 20.9061 8.9796 21.4868 8.86723 21.9849C8.78461 22.3705 8.3471 22.6852 8.24402 22.7545C8.20625 22.7624 8.15982 22.7671 8.10553 22.7671C7.50671 22.7671 6.32166 22.269 5.68507 22.0014L5.59065 21.9613C5.23497 21.8118 4.65425 21.7182 4.09383 21.6269C3.64688 21.5545 3.03547 21.4553 2.93459 21.3656C2.85197 21.2728 2.94718 20.9738 3.03138 20.7094C3.09118 20.5189 3.15414 20.323 3.18797 20.1169C3.23597 19.7887 3.17932 19.5212 3.13289 19.3071L3.13871 19.3133Z" fill="currentColor"/>
</g>
<defs>
<clipPath id="clip0_6071_29470">
<rect width="24" height="24" fill="white"/>
</clipPath>
</defs>
</svg>
