<svg width="24" height="24" viewBox="0 0 24 24" fill="none" xmlns="http://www.w3.org/2000/svg">
<g clip-path="url(#clip0_6071_29489)">
<path fill-rule="evenodd" clip-rule="evenodd" d="M12 24C20.2843 24 24 20.2843 24 12C24 3.71573 20.2843 0 12 0C3.71573 0 0 3.71573 0 12C0 20.2843 3.71573 24 12 24ZM13.084 5.08844H9.74564L9.15998 6.85938H11.0142V10.5897H13.084V5.08844ZM15.8079 15.1043C15.8079 17.207 14.1034 18.9116 12.0007 18.9116C9.89808 18.9116 8.19351 17.207 8.19351 15.1043C8.19351 13.0017 9.89808 11.2971 12.0007 11.2971C14.1034 11.2971 15.8079 13.0017 15.8079 15.1043ZM14.0795 15.1043C14.0795 16.2524 13.1488 17.1831 12.0007 17.1831C10.8526 17.1831 9.92194 16.2524 9.92194 15.1043C9.92194 13.9563 10.8526 13.0255 12.0007 13.0255C13.1488 13.0255 14.0795 13.9563 14.0795 15.1043Z" fill="currentColor"/>
</g>
<defs>
<clipPath id="clip0_6071_29489">
<rect width="24" height="24" fill="white"/>
</clipPath>
</defs>
</svg>
