<svg width="24" height="24" viewBox="0 0 24 24" fill="none" xmlns="http://www.w3.org/2000/svg">
<path d="M20 11H20.75V10.6893L20.5303 10.4697L20 11ZM17 8L17.5303 7.46967L17.3107 7.25H17V8ZM7 8V7.25H6.68934L6.46967 7.46967L7 8ZM4 11L3.46967 10.4697L3.25 10.6893V11H4ZM20.5303 10.4697L17.5303 7.46967L16.4697 8.53033L19.4697 11.5303L20.5303 10.4697ZM17 7.25H7V8.75H17V7.25ZM6.46967 7.46967L3.46967 10.4697L4.53033 11.5303L7.53033 8.53033L6.46967 7.46967ZM5.5 18.75H18.5V17.25H5.5V18.75ZM3.25 11V16.5H4.75V11H3.25ZM20.75 16.5V11H19.25V16.5H20.75ZM4 11.75H12V10.25H4V11.75ZM12 11.75H20V10.25H12V11.75ZM18.5 18.75C19.7426 18.75 20.75 17.7426 20.75 16.5H19.25C19.25 16.9142 18.9142 17.25 18.5 17.25V18.75ZM5.5 17.25C5.08579 17.25 4.75 16.9142 4.75 16.5H3.25C3.25 17.7426 4.25736 18.75 5.5 18.75V17.25Z" fill="currentColor"/>
</svg>
