<svg width="20" height="21" viewBox="0 0 20 21" fill="none" xmlns="http://www.w3.org/2000/svg">
<path fill-rule="evenodd" clip-rule="evenodd" d="M8.17008 2.79199C4.92882 2.79199 2.29102 5.44663 2.29102 8.734C2.29102 12.0214 4.92882 14.676 8.17008 14.676C9.37732 14.676 10.5114 14.3093 11.4521 13.6285C12.2161 13.0755 13.401 12.9661 14.1783 13.7509L18.7767 18.3938L17.8886 19.2735L13.2902 14.6305C13.0553 14.3934 12.5862 14.3507 12.185 14.6411C11.0264 15.4796 9.63463 15.926 8.17008 15.926C4.22715 15.926 1.04102 12.7004 1.04102 8.734C1.04102 4.76765 4.22715 1.54199 8.17008 1.54199C12.113 1.54199 15.2991 4.76765 15.2991 8.734C15.2991 10.1398 14.8115 11.2926 14.3224 12.4164L13.1763 11.9176C13.6704 10.7821 14.0491 9.84892 14.0491 8.734C14.0491 5.44663 11.4113 2.79199 8.17008 2.79199Z" fill="currentColor"/>
</svg>
