<svg width="24" height="24" viewBox="0 0 24 24" fill="none" xmlns="http://www.w3.org/2000/svg">
<path fill-rule="evenodd" clip-rule="evenodd" d="M2.25 3.75H19.5C20.7426 3.75 21.75 4.75736 21.75 6V18.75H12.2747L7.60946 22.6975L6.64054 21.5525L11.7253 17.25H20.25V6C20.25 5.58579 19.9142 5.25 19.5 5.25H3.75V16.5C3.75 16.9142 4.08579 17.25 4.5 17.25H7.125V18.75H4.5C3.25736 18.75 2.25 17.7426 2.25 16.5V3.75Z" fill="currentColor"/>
<path fill-rule="evenodd" clip-rule="evenodd" d="M9.375 9.32609C9.375 7.90335 10.5284 6.75 11.9511 6.75H12.1897C13.5386 6.75 14.625 7.85113 14.625 9.19215C14.625 10.1148 14.0993 10.9641 13.2659 11.37C12.9503 11.5236 12.75 11.8439 12.75 12.1949V12.75H11.25V12.1949C11.25 11.2701 11.7776 10.4263 12.6091 10.0214C12.9228 9.86861 13.125 9.54533 13.125 9.19215C13.125 8.67163 12.7023 8.25 12.1897 8.25H11.9511C11.3568 8.25 10.875 8.73178 10.875 9.32609H9.375Z" fill="currentColor"/>
<path d="M13.125 14.625C13.125 15.2463 12.6213 15.75 12 15.75C11.3787 15.75 10.875 15.2463 10.875 14.625C10.875 14.0037 11.3787 13.5 12 13.5C12.6213 13.5 13.125 14.0037 13.125 14.625Z" fill="currentColor"/>
</svg>
