<svg width="24" height="24" viewBox="0 0 24 24" fill="none" xmlns="http://www.w3.org/2000/svg">
<path fill-rule="evenodd" clip-rule="evenodd" d="M4.75001 12.25L4.75 19.75C4.74999 20.1642 5.08579 20.5 5.50001 20.5H9.49997V22H5.50001C4.25735 22 3.24998 20.9926 3.25 19.75L3.25001 12.25H4.75001ZM19.25 12.25H20.75V19.75C20.75 20.9926 19.7426 22 18.5 22H13.5C12.2573 22 11.25 20.9926 11.25 19.75V16.25H12.75V19.75C12.75 20.1642 13.0858 20.5 13.5 20.5H18.5C18.9142 20.5 19.25 20.1642 19.25 19.75V12.25Z" fill="currentColor"/>
<path fill-rule="evenodd" clip-rule="evenodd" d="M3.07186 1.5H20.9281L21.0636 2.07917L21.0639 2.0805L21.1354 2.38666C21.181 2.58245 21.2462 2.8625 21.3244 3.19972C21.4807 3.87408 21.6893 4.77741 21.8979 5.69271C22.1064 6.60749 22.3154 7.53636 22.4726 8.26101C22.551 8.62284 22.6173 8.93722 22.6642 9.17473C22.6875 9.29298 22.707 9.39679 22.721 9.47992L22.7213 9.48175C22.731 9.53952 22.75 9.65307 22.75 9.75C22.75 11.5392 21.2892 13 19.5 13C18.4969 13 17.5971 12.5409 17 11.8222C16.4029 12.5409 15.5031 13 14.5 13C13.4969 13 12.5971 12.5409 12 11.8222C11.4029 12.5409 10.5031 13 9.5 13C8.49694 13 7.5971 12.5409 7 11.8222C6.4029 12.5409 5.50306 13 4.5 13C2.71079 13 1.25 11.5392 1.25 9.75C1.25 9.65308 1.26905 9.53955 1.27874 9.48177L1.27905 9.47992C1.29299 9.39679 1.31247 9.29298 1.33583 9.17473C1.38275 8.93722 1.449 8.62284 1.52744 8.26101C1.68455 7.53636 1.89359 6.60749 2.10209 5.69271C2.3107 4.77741 2.51926 3.87408 2.67564 3.19972C2.75383 2.8625 2.819 2.58245 2.86462 2.38666L2.9363 2.07951L3.07186 1.5ZM4.26194 3C4.22588 3.15504 4.18371 3.33652 4.13686 3.53856C3.98074 4.21186 3.77263 5.11321 3.56458 6.02604C3.35641 6.93938 3.14878 7.86208 2.99339 8.57883C2.91558 8.9377 2.85163 9.24149 2.8074 9.46541C2.78518 9.57787 2.76886 9.66559 2.75839 9.72803C2.75416 9.7532 2.75167 9.76996 2.75025 9.77988C2.76641 10.7271 3.54919 11.5 4.5 11.5C5.46079 11.5 6.25 10.7108 6.25 9.75H7.75C7.75 10.7108 8.53921 11.5 9.5 11.5C10.4608 11.5 11.25 10.7108 11.25 9.75H12.75C12.75 10.7108 13.5392 11.5 14.5 11.5C15.4608 11.5 16.25 10.7108 16.25 9.75H17.75C17.75 10.7108 18.5392 11.5 19.5 11.5C20.4508 11.5 21.2336 10.7271 21.2497 9.77988C21.2483 9.76996 21.2458 9.7532 21.2416 9.72803C21.2311 9.66559 21.2148 9.57787 21.1926 9.46541C21.1484 9.24149 21.0844 8.9377 21.0066 8.57883C20.8512 7.86208 20.6436 6.93938 20.4354 6.02604C20.2274 5.11321 20.0193 4.21186 19.8631 3.53856C19.8163 3.33652 19.7741 3.15504 19.7381 3H4.26194Z" fill="currentColor"/>
</svg>
