<svg width="24" height="24" viewBox="0 0 24 24" fill="none" xmlns="http://www.w3.org/2000/svg">
<path d="M11.9996 0L14.2447 6.90983C14.5125 7.73387 15.2804 8.2918 16.1468 8.2918H23.4123L17.5344 12.5623C16.8334 13.0716 16.5401 13.9743 16.8079 14.7984L19.053 21.7082L13.1752 17.4377C12.4742 16.9284 11.525 16.9284 10.824 17.4377L4.94617 21.7082L7.19131 14.7984C7.45906 13.9743 7.16574 13.0716 6.46477 12.5623L0.586914 8.2918H7.85234C8.71879 8.2918 9.4867 7.73387 9.75445 6.90983L11.9996 0Z" fill="#E1E1E1"/>
<path d="M11.9996 0L14.2447 6.90983C14.5125 7.73387 15.2804 8.2918 16.1468 8.2918H23.4123L17.5344 12.5623C16.8334 13.0716 16.5401 13.9743 16.8079 14.7984L19.053 21.7082L13.1752 17.4377C12.4742 16.9284 11.525 16.9284 10.824 17.4377L4.94617 21.7082L7.19131 14.7984C7.45906 13.9743 7.16574 13.0716 6.46477 12.5623L0.586914 8.2918H7.85234C8.71879 8.2918 9.4867 7.73387 9.75445 6.90983L11.9996 0Z" fill="#DADEE1"/>
<mask id="mask0_4388_12342" style="mask-type:alpha" maskUnits="userSpaceOnUse" x="0" y="0" width="12" height="22">
<rect width="12" height="22" fill="#C4C4C4"/>
</mask>
<g mask="url(#mask0_4388_12342)">
<mask id="path-3-inside-1_4388_12342" fill="white">
<path d="M11.9996 0L14.2447 6.90983C14.5125 7.73387 15.2804 8.2918 16.1468 8.2918H23.4123L17.5344 12.5623C16.8334 13.0716 16.5401 13.9743 16.8079 14.7984L19.053 21.7082L13.1752 17.4377C12.4742 16.9284 11.525 16.9284 10.824 17.4377L4.94617 21.7082L7.19131 14.7984C7.45906 13.9743 7.16574 13.0716 6.46477 12.5623L0.586914 8.2918H7.85234C8.71879 8.2918 9.4867 7.73387 9.75445 6.90983L11.9996 0Z"/>
</mask>
<path d="M11.9996 0L14.2447 6.90983C14.5125 7.73387 15.2804 8.2918 16.1468 8.2918H23.4123L17.5344 12.5623C16.8334 13.0716 16.5401 13.9743 16.8079 14.7984L19.053 21.7082L13.1752 17.4377C12.4742 16.9284 11.525 16.9284 10.824 17.4377L4.94617 21.7082L7.19131 14.7984C7.45906 13.9743 7.16574 13.0716 6.46477 12.5623L0.586914 8.2918H7.85234C8.71879 8.2918 9.4867 7.73387 9.75445 6.90983L11.9996 0Z" fill="currentColor"/>
<path d="M11.9996 0L12.9506 -0.309017L11.9996 -3.23607L11.0485 -0.309017L11.9996 0ZM23.4123 8.2918L24.0001 9.10081L26.49 7.2918H23.4123V8.2918ZM19.053 21.7082L18.4652 22.5172L20.9551 24.3262L20.0041 21.3992L19.053 21.7082ZM4.94617 21.7082L3.99511 21.3992L3.04406 24.3262L5.53395 22.5172L4.94617 21.7082ZM0.586914 8.2918V7.2918H-2.49077L-0.000871241 9.10081L0.586914 8.2918ZM9.75445 6.90983L10.7055 7.21885L9.75445 6.90983ZM13.1752 17.4377L12.5874 18.2467L13.1752 17.4377ZM10.824 17.4377L11.4118 18.2467L10.824 17.4377ZM16.8079 14.7984L17.7589 14.4894L16.8079 14.7984ZM14.2447 6.90983L13.2937 7.21885L14.2447 6.90983ZM11.0485 0.309017L13.2937 7.21885L15.1958 6.60081L12.9506 -0.309017L11.0485 0.309017ZM16.1468 9.2918H23.4123V7.2918H16.1468V9.2918ZM22.8245 7.48278L16.9466 11.7533L18.1222 13.3713L24.0001 9.10081L22.8245 7.48278ZM15.8568 15.1074L18.102 22.0172L20.0041 21.3992L17.7589 14.4894L15.8568 15.1074ZM19.6408 20.8992L13.7629 16.6287L12.5874 18.2467L18.4652 22.5172L19.6408 20.8992ZM10.2362 16.6287L4.35838 20.8992L5.53395 22.5172L11.4118 18.2467L10.2362 16.6287ZM5.89723 22.0172L8.14236 15.1074L6.24025 14.4894L3.99511 21.3992L5.89723 22.0172ZM7.05255 11.7533L1.1747 7.48278L-0.000871241 9.10081L5.87698 13.3713L7.05255 11.7533ZM0.586914 9.2918H7.85234V7.2918H0.586914V9.2918ZM10.7055 7.21885L12.9506 0.309017L11.0485 -0.309017L8.8034 6.60081L10.7055 7.21885ZM7.85234 9.2918C9.15202 9.2918 10.3039 8.45492 10.7055 7.21885L8.8034 6.60081C8.66952 7.01284 8.28556 7.2918 7.85234 7.2918V9.2918ZM8.14236 15.1074C8.54399 13.8713 8.10401 12.5172 7.05255 11.7533L5.87698 13.3713C6.22747 13.626 6.37413 14.0773 6.24025 14.4894L8.14236 15.1074ZM13.7629 16.6287C12.7115 15.8647 11.2877 15.8647 10.2362 16.6287L11.4118 18.2467C11.7623 17.9921 12.2369 17.9921 12.5874 18.2467L13.7629 16.6287ZM16.9466 11.7533C15.8952 12.5172 15.4552 13.8713 15.8568 15.1074L17.7589 14.4894C17.6251 14.0773 17.7717 13.626 18.1222 13.3713L16.9466 11.7533ZM13.2937 7.21885C13.6953 8.45491 14.8472 9.2918 16.1468 9.2918V7.2918C15.7136 7.2918 15.3297 7.01284 15.1958 6.60081L13.2937 7.21885Z" fill="currentColor" mask="url(#path-3-inside-1_4388_12342)"/>
</g>
</svg>
