<svg width="24" height="24" viewBox="0 0 24 24" fill="none" xmlns="http://www.w3.org/2000/svg">
<path fill-rule="evenodd" clip-rule="evenodd" d="M22.5 4.5H1.5V19.5H22.5V4.5ZM1.5 3C0.671573 3 0 3.67157 0 4.5V19.5C0 20.3284 0.671573 21 1.5 21H22.5C23.3284 21 24 20.3284 24 19.5V4.5C24 3.67157 23.3284 3 22.5 3H1.5Z" fill="currentColor"/>
<path d="M5 7C5 7.55228 4.55228 8 4 8C3.44772 8 3 7.55228 3 7C3 6.44772 3.44772 6 4 6C4.55228 6 5 6.44772 5 7Z" fill="currentColor"/>
<path d="M8 7C8 7.55228 7.55228 8 7 8C6.44772 8 6 7.55228 6 7C6 6.44772 6.44772 6 7 6C7.55228 6 8 6.44772 8 7Z" fill="currentColor"/>
<path d="M11 7C11 7.55228 10.5523 8 10 8C9.44772 8 9 7.55228 9 7C9 6.44772 9.44772 6 10 6C10.5523 6 11 6.44772 11 7Z" fill="currentColor"/>
</svg>
