<svg width="24" height="24" viewBox="0 0 24 24" fill="none" xmlns="http://www.w3.org/2000/svg">
<path d="M11.1003 2.8599V11.2786C11.1003 11.3781 11.1804 11.4589 11.2806 11.4589H22.8181C22.9177 11.4589 22.9985 11.3781 22.9985 11.2786V1.18041C22.9985 1.12805 22.9754 1.07828 22.9357 1.04402C22.896 1.0094 22.8434 0.994253 22.7914 1.00197L11.2532 2.68037C11.1645 2.69264 11.0989 2.76909 11.0989 2.85853L11.1003 2.8599Z" fill="currentColor"/>
<path d="M9.83725 21.1924C9.88053 21.1924 9.92236 21.1766 9.95554 21.1477C9.99449 21.1131 10.0168 21.0633 10.0168 21.0114V12.7204C10.0168 12.6201 9.93606 12.54 9.83653 12.54H1.18766C1.13934 12.54 1.0939 12.5588 1.06 12.5927C1.0261 12.6259 1.0072 12.672 1.0072 12.7196V19.8249C1.0072 19.9151 1.07378 19.9908 1.163 20.0031L9.81128 21.1881C9.81922 21.1888 9.82715 21.1896 9.83581 21.1896L9.83725 21.1924Z" fill="currentColor"/>
<path d="M1.19034 11.4589H9.83777C9.9373 11.4589 10.0181 11.3781 10.0181 11.2786V3.06912C10.0181 3.01647 9.995 2.96742 9.95605 2.9328C9.91638 2.89818 9.86445 2.88231 9.81252 2.88952L1.15652 4.06448C1.06636 4.07602 1 4.15248 1 4.24336L1.00721 11.2772C1.00721 11.3768 1.08807 11.4568 1.18753 11.4568L1.19034 11.4589Z" fill="currentColor"/>
<path d="M22.8175 23C22.86 23 22.9026 22.9841 22.9358 22.9552C22.9747 22.9206 22.9978 22.8708 22.9978 22.8189L23.0007 12.7211C23.0007 12.6728 22.9812 12.6273 22.9473 12.5934C22.9134 12.5595 22.8673 12.54 22.8196 12.54H11.2792C11.1789 12.54 11.0989 12.6201 11.0989 12.7204V21.1946C11.0989 21.284 11.1645 21.3605 11.254 21.3728L22.7914 22.9956C22.7994 22.9963 22.808 22.9971 22.816 22.9971L22.8175 23Z" fill="currentColor"/>
</svg>
