<svg width="179" height="59" viewBox="0 0 179 59" fill="none" xmlns="http://www.w3.org/2000/svg">
<path d="M0 0.453125C0.19893 0.453125 0.358074 0.493435 0.557004 0.493435C17.1478 0.493435 33.7385 0.493435 50.3293 0.493435C50.5282 0.493435 50.6475 0.493435 50.926 0.493435C49.3346 4.84726 47.7432 9.16078 46.1915 13.4743C39.7064 10.2089 33.2611 6.90324 26.776 3.63787C26.776 15.49 26.776 27.2614 26.776 39.1135C25.9405 39.1135 25.1049 39.1135 24.2694 39.1135C24.2694 27.342 24.2694 15.5303 24.2694 3.63787C17.7445 6.94355 11.339 10.2492 4.81411 13.5146C4.65496 13.1115 4.5356 12.7083 4.37646 12.2649C2.94416 8.47546 1.59144 4.68601 0.19893 0.896567C0.159144 0.81594 0.0795744 0.695002 0.0397884 0.614375C2.42775e-06 0.533749 0 0.533751 0 0.453125ZM3.66031 3.07348C4.49582 5.33103 5.33132 7.58857 6.16683 9.84611C10.6229 7.58857 15.0391 5.33102 19.4156 3.11379C19.4156 3.07348 19.3758 3.07348 19.3758 3.03317C14.1638 3.07348 8.95185 3.07348 3.66031 3.07348ZM47.226 3.07348C41.9742 3.07348 36.7225 3.07348 31.4707 3.07348V3.11379C35.887 5.33102 40.3032 7.58857 44.7194 9.84611C45.5947 7.58857 46.3904 5.37134 47.226 3.07348Z" fill="white"/>
<path d="M160.977 0.0507812C160.977 7.02497 160.977 14.0395 160.977 21.054C161.773 21.1749 162.608 21.2555 163.404 21.3362C163.364 21.6184 163.324 21.9409 163.285 22.2231C161.096 22.2231 158.948 22.2231 156.72 22.2231C156.68 21.9812 156.6 21.6587 156.561 21.3362C157.197 21.2152 157.794 21.1346 158.431 21.054C158.431 17.1839 158.431 13.2735 158.431 9.36313C156.242 9.36313 154.094 9.36313 151.866 9.36313C151.866 13.2735 151.866 17.1436 151.866 21.0137C152.741 21.0943 153.577 21.1346 154.532 21.2152C154.492 21.578 154.412 21.9006 154.372 22.2231C151.985 22.2231 149.678 22.2231 147.291 22.2231C147.251 21.9812 147.171 21.6587 147.131 21.3362C147.887 21.2152 148.603 21.1346 149.359 21.054C149.359 17.1839 149.359 13.2735 149.359 9.36313C148.484 9.36313 147.609 9.36313 146.654 9.36313C146.535 9.04063 146.654 8.79875 146.813 8.59719C147.211 7.95217 147.728 7.7103 148.444 7.83124C148.723 7.87155 149.041 7.83124 149.32 7.83124C149.359 7.30716 149.399 6.78309 149.479 6.25902C149.678 5.08993 150.195 4.08211 150.951 3.19521C151.667 2.30832 152.423 1.42143 153.139 0.453914C153.298 0.252347 153.457 0.212032 153.736 0.212032C155.447 0.212032 157.118 0.17172 158.789 0.131406C158.988 0.131406 159.147 0.0910945 159.346 0.0507812C159.942 0.0507812 160.46 0.0507812 160.977 0.0507812ZM158.47 1.9455C158.391 1.9455 158.311 1.9455 158.271 1.98582C157.197 2.50989 156.083 2.59051 154.89 2.50988C154.452 2.46957 153.975 2.50988 153.537 2.50988C153.378 2.50988 153.258 2.59051 153.139 2.71145C152.383 3.43709 151.985 4.28367 151.985 5.33181C151.946 6.17839 151.985 7.06528 151.985 7.95217C154.174 7.95217 156.322 7.95217 158.51 7.95217C158.47 5.93651 158.47 3.96116 158.47 1.9455Z" fill="white"/>
<path d="M31.7882 26.3339C31.7882 25.4471 31.7882 24.6005 31.7882 23.7539C34.3345 23.7539 36.841 23.7539 39.3475 23.7539C39.3475 33.1469 39.3475 42.5399 39.3475 51.9328C30.0774 51.9328 20.847 51.9328 11.5371 51.9328C11.5371 42.5399 11.5371 33.1469 11.5371 23.7539C14.0436 23.7539 16.5501 23.7539 19.0964 23.7539C19.0964 24.6005 19.0964 25.4471 19.0964 26.2936C17.3856 26.2936 15.7544 26.2936 14.0436 26.2936C14.0436 33.9935 14.0436 41.6933 14.0436 49.3528C21.603 49.3528 29.2021 49.3528 36.8012 49.3528C36.8012 41.6933 36.8012 33.9935 36.8012 26.2936C35.17 26.3339 33.499 26.3339 31.7882 26.3339Z" fill="white"/>
<path d="M56.9326 22.3036C56.8928 22.0214 56.8132 21.6989 56.7734 21.3361C57.2509 21.2554 57.7283 21.1748 58.2057 21.0942C58.6832 21.0136 59.1606 20.9329 59.6778 20.8926C59.6778 20.7314 59.6778 20.6104 59.6778 20.4895C59.6778 14.4022 59.6778 8.35522 59.6778 2.30823C59.6778 1.94542 59.5585 1.82448 59.2402 1.78417C58.524 1.70354 57.8079 1.5826 57.0917 1.50197C56.9724 1.50197 56.8928 1.46166 56.8132 1.42135C56.853 1.09884 56.9326 0.776336 56.9724 0.534456C57.6487 0.534456 58.2853 0.534456 58.9617 0.534456C61.7865 0.534456 64.6113 0.494141 67.5156 0.494141C69.3856 0.494141 71.176 0.856961 72.7674 1.82448C74.8363 3.07419 76.0696 4.88828 76.6664 7.14582C77.3428 9.80649 77.303 12.4269 76.5073 15.0472C75.5524 18.3126 73.3244 20.3686 70.1813 21.457C68.3114 22.1423 66.4016 22.2633 64.4521 22.1826C62.3037 22.102 60.195 22.1826 58.0466 22.1826C57.6089 22.3036 57.2907 22.3036 56.9326 22.3036ZM62.423 1.9051C62.423 8.15365 62.423 14.4022 62.423 20.6507C63.4973 20.7314 64.5715 20.7717 65.6059 20.8926C68.3512 21.2151 71.2157 19.8848 72.648 16.9822C74.1997 13.8378 74.3588 10.5724 73.3244 7.26676C72.4491 4.52546 70.5792 2.71137 67.7146 2.02604C65.964 1.54229 64.2134 1.86479 62.423 1.9051Z" fill="white"/>
<path d="M104.638 22.304C104.279 22.0622 103.921 21.9412 103.524 21.659C102.768 21.135 102.33 20.0062 102.569 19.1193C102.608 18.9984 102.728 18.9177 102.807 18.8774C103.683 18.2324 104.558 17.5874 105.513 16.9021C105.314 16.8214 105.195 16.7408 104.996 16.6602C101.455 15.088 101.853 11.2179 103.762 9.44413C104.996 8.27505 106.468 7.54941 108.059 7.30753C109.611 7.06565 111.083 7.58972 112.276 8.63786C112.356 8.71849 112.436 8.79911 112.515 8.87974C113.032 8.39598 113.51 7.91223 114.027 7.42847C114.146 7.30753 114.345 7.2269 114.504 7.2269C114.982 7.18659 115.459 7.2269 115.937 7.2269C115.937 7.99285 115.937 8.71849 115.937 9.48444C114.982 9.44412 114.027 9.40381 113.311 10.0085C113.39 10.6938 113.51 11.2985 113.51 11.9435C113.47 13.4351 112.754 14.6042 111.56 15.4911C110.406 16.3377 109.133 16.7811 107.781 17.1843C107.661 17.2246 107.542 17.2246 107.423 17.1843C106.905 17.023 106.587 17.3052 106.269 17.7083C105.95 18.1518 105.553 18.5549 105.155 18.9984C104.836 19.4015 104.876 19.8852 105.314 20.1674C105.553 20.2884 105.791 20.369 106.03 20.369C107.86 20.369 109.73 20.369 111.6 20.369C112.197 20.369 112.754 20.4496 113.311 20.6109C115.061 21.0543 115.937 22.6266 115.38 24.36C114.982 25.65 114.107 26.5772 113.072 27.3432C111.56 28.5123 109.889 29.2782 108.059 29.762C107.462 29.9232 106.826 29.8023 106.229 29.762C105.234 29.6814 104.24 29.4798 103.325 28.996C101.574 28.0688 101.256 26.4966 101.335 25.0857C101.335 24.9647 101.494 24.8438 101.574 24.7632C102.449 24.0375 103.325 23.2716 104.24 22.5459C104.439 22.425 104.518 22.3444 104.638 22.304ZM108.019 28.1898C109.292 28.1898 110.446 27.827 111.441 27.0207C112.157 26.416 112.714 25.7307 112.913 24.7632C113.152 23.5941 112.754 22.9894 111.64 22.7072C111.322 22.6265 110.963 22.5862 110.685 22.5862C109.094 22.5459 107.542 22.5459 105.99 22.5459C105.871 22.5459 105.712 22.5862 105.632 22.6669C105.115 23.3925 104.558 24.0375 104.081 24.7632C103.722 25.3678 103.802 26.0129 104.2 26.5369C104.439 26.8594 104.757 27.1416 105.075 27.3432C105.95 27.9882 106.985 28.1495 108.019 28.1898ZM104.916 11.8629C104.956 12.2257 104.996 12.5886 105.075 12.9514C105.433 14.8864 106.746 15.9346 108.616 15.8136C109.73 15.733 110.685 15.088 110.924 14.0801C111.322 12.4273 111.043 10.8954 109.969 9.60538C109.213 8.71849 108.178 8.47661 107.025 8.7588C105.99 9.00068 105.354 9.72632 105.115 10.7745C104.996 11.097 104.956 11.5001 104.916 11.8629Z" fill="white"/>
<path d="M93.6595 51.5307C93.6595 53.5464 93.6595 55.5621 93.6595 57.618C94.7735 57.739 95.8478 57.8599 96.9618 57.9405C96.922 58.2227 96.8822 58.5049 96.8026 58.7468C96.7628 58.8274 96.6037 58.9484 96.5241 58.9484C95.3305 58.9484 94.1767 58.8677 93.0229 58.8677C91.7896 58.8677 90.596 58.908 89.3626 58.9484C89.2433 58.9484 89.1637 58.9484 89.0443 58.9484C89.0046 58.6259 88.925 58.3034 88.8454 57.9808C89.5616 57.8599 90.3175 57.739 91.0734 57.6583C91.0734 51.4501 91.0734 45.2419 91.0734 39.0336C90.3573 39.1143 89.6013 39.1949 88.8454 39.2755C88.8056 38.9933 88.7261 38.6708 88.6465 38.308C90.1981 37.9855 91.6702 37.2599 93.3015 37.2195C93.3412 38.0258 93.4208 38.8724 93.4606 39.719C93.58 39.6383 93.6595 39.598 93.6993 39.5577C94.8133 38.7111 95.9273 37.8242 97.0413 36.9777C97.1607 36.897 97.28 36.8164 97.3994 36.8164C99.15 36.8164 100.741 37.3002 101.975 38.6305C102.89 39.6383 103.288 40.8477 103.526 42.1781C103.765 43.6697 103.765 45.1612 103.367 46.6528C102.771 48.9104 101.378 50.5229 99.2296 51.3695C98.2747 51.7323 97.2005 52.0145 96.166 52.1757C95.3305 52.337 94.495 52.0145 93.7789 51.6517C93.8187 51.6114 93.7391 51.571 93.6595 51.5307C93.6993 51.5307 93.6993 51.5307 93.6595 51.5307ZM93.6595 45C93.6595 46.2094 93.6595 47.3785 93.6595 48.5879C93.6595 48.7491 93.7391 48.9507 93.8187 49.0716C94.694 50.3213 96.6037 51.0067 98.0758 50.6438C99.4683 50.281 100.264 49.2732 100.741 47.9429C101.298 46.411 101.298 44.8387 101.1 43.2665C100.94 42.1378 100.702 41.0896 100.065 40.1624C99.1898 38.8321 97.9166 38.4289 96.4843 39.2352C95.5295 39.7593 94.6542 40.4446 93.7789 41.0493C93.6595 41.1299 93.6197 41.2912 93.6197 41.4524C93.6197 42.6215 93.6595 43.7906 93.6595 45Z" fill="white"/>
<path d="M75.8722 35.7674C75.3948 35.7674 74.9969 35.7674 74.5592 35.7674C74.3205 35.7674 74.2808 35.6867 74.2012 35.5255C73.9625 34.7999 73.7237 34.0339 73.4452 33.3083C73.3259 33.0664 73.2065 32.8245 73.0076 32.6229C69.5462 29.6398 62.3847 30.0832 60.6341 36.6543C59.7191 40.1615 59.9976 43.5881 61.9869 46.7326C63.6977 49.4336 66.1644 50.8445 69.4269 50.6833C70.7398 50.6026 71.8936 49.9576 72.8882 49.111C73.2065 48.8289 73.3657 48.3048 73.5646 47.8613C73.8829 47.2163 74.241 46.5713 74.5592 45.9263C74.6388 45.8054 74.798 45.6844 74.9571 45.6844C75.355 45.6441 75.7926 45.6844 76.27 45.6844C75.9915 47.0148 75.713 48.3854 75.4345 49.6754C75.3947 49.7561 75.2754 49.877 75.1958 49.9173C73.0076 50.9655 70.7796 51.812 68.3924 52.2152C67.1988 52.457 66.0848 52.1748 64.931 51.8523C60.5148 50.6026 57.6104 47.0148 57.2125 42.4191C57.0136 40.0809 57.2523 37.783 58.2868 35.6867C59.4803 33.3083 61.3901 31.6957 63.7772 30.6879C65.3687 30.0026 66.9999 29.4785 68.7505 29.4785C71.3366 29.4785 73.6044 30.3654 75.713 31.8167C75.8324 31.8973 75.912 32.0182 75.912 32.0989C75.912 33.268 75.8722 34.5177 75.8722 35.7674Z" fill="white"/>
<path d="M136.59 21.296C136.55 21.6185 136.47 21.941 136.43 22.2232C134.362 22.2232 132.293 22.2232 130.184 22.2232C130.144 21.9814 130.065 21.6185 130.025 21.296C130.781 21.1751 131.537 21.0945 132.293 21.0138C132.293 17.1841 132.293 13.3543 132.293 9.52457C131.577 9.6052 130.821 9.68582 130.104 9.76645C130.065 9.44394 129.985 9.12144 129.945 8.83925C130.741 8.43612 133.765 7.67016 134.56 7.75079C134.64 8.55705 134.68 9.44395 134.759 10.3308C134.958 10.2099 135.038 10.1293 135.157 10.089C136.391 9.24238 137.704 8.35549 138.937 7.54922C139.136 7.42828 139.335 7.34766 139.534 7.34766C140.051 7.34766 140.568 7.38797 141.085 7.4686C142.717 7.71048 143.473 8.63768 143.671 10.3308C143.751 10.8952 143.751 11.4999 143.791 12.0643C143.791 14.9265 143.791 17.7888 143.791 20.7316C143.791 21.0542 143.91 21.1751 144.189 21.1751C144.865 21.2154 145.541 21.3363 146.297 21.417C146.258 21.7395 146.178 22.062 146.138 22.3442C144.03 22.3442 142 22.3442 139.892 22.3442C139.852 22.062 139.772 21.7395 139.733 21.417C140.29 21.296 140.807 21.2154 141.364 21.1348C141.364 20.9735 141.364 20.8929 141.364 20.7316C141.364 17.9097 141.364 15.0475 141.364 12.2256C141.364 12.1449 141.364 12.024 141.364 11.9837C141.284 9.84708 139.812 9.40363 138.38 9.80676C137.903 9.96802 137.465 10.1696 137.027 10.4518C136.351 10.8146 135.754 11.258 135.078 11.7015C134.958 11.7821 134.879 11.9434 134.879 12.0643C134.879 15.0072 134.879 17.95 134.879 20.9332C134.879 21.1751 134.958 21.2154 135.117 21.2154C135.555 21.1348 136.033 21.2557 136.59 21.296Z" fill="white"/>
<path d="M174.224 8.99971C173.747 8.87877 173.309 8.75783 172.832 8.67721C172.872 8.3547 172.911 8.03219 172.991 7.75C174.702 7.75 176.452 7.75 178.203 7.75C178.243 7.99188 178.322 8.3547 178.362 8.67721C177.805 8.75783 177.288 8.87877 176.731 8.91909C176.452 8.9594 176.293 9.08034 176.174 9.36253C174.622 13.4342 173.11 17.5461 171.519 21.5371C170.445 24.1575 169.291 26.7375 168.137 29.3176C168.097 29.3982 167.938 29.5595 167.898 29.5595C166.864 29.5595 165.79 29.5595 164.716 29.5595C164.716 28.6323 164.716 27.7454 164.716 26.7778C165.193 26.7778 165.67 26.7375 166.148 26.7778C166.824 26.8585 167.182 26.5763 167.501 26.0522C168.256 24.8025 169.012 23.5528 169.768 22.3434C169.808 22.2628 169.888 22.1418 169.967 22.0612C169.729 22.1418 169.569 22.1821 169.291 22.2225C168.973 21.4162 168.654 20.5696 168.336 19.723C167.023 16.2964 165.71 12.8698 164.397 9.40284C164.278 9.12065 164.159 8.99971 163.84 8.99971C163.283 8.91909 162.766 8.83846 162.209 8.75783C162.249 8.43532 162.328 8.11282 162.368 7.83063C164.556 7.83063 166.665 7.83063 168.893 7.83063C168.933 8.07251 169.012 8.43532 169.052 8.75783C168.336 8.87877 167.66 8.99971 166.904 9.08034C167.381 10.4107 167.819 11.741 168.296 12.9907C168.853 14.5226 169.37 16.0545 169.927 17.5461C170.166 18.2718 170.325 18.9974 170.365 19.7633C170.365 19.9246 170.405 20.0455 170.524 20.2068C171.758 16.4577 172.991 12.7892 174.224 8.99971Z" fill="white"/>
<path d="M115.695 15.2891C115.735 13.354 116.173 11.5399 117.486 10.0483C118.639 8.75832 120.112 8.11331 121.703 7.58923C124.727 6.66203 128.109 8.3955 129.262 11.5399C130.098 13.7572 130.098 16.055 129.183 18.2319C128.268 20.4895 126.438 21.6585 124.17 22.4245C120.39 23.6742 116.411 21.1345 115.735 16.821C115.775 16.2969 115.735 15.7728 115.695 15.2891ZM127.353 14.9666C127.313 14.7247 127.313 14.2006 127.233 13.7168C126.995 12.2253 126.477 10.8949 125.284 9.84678C123.573 8.31488 120.35 7.99237 118.998 11.2174C118.242 13.0315 118.082 14.9262 118.52 16.821C118.838 18.2722 119.515 19.5219 120.708 20.4491C122.419 21.7392 125.125 21.8198 126.438 19.1994C127.114 17.9094 127.313 16.5791 127.353 14.9666Z" fill="white"/>
<path d="M89.64 50.1202C89.6798 50.4427 89.7196 50.7652 89.7594 51.128C88.5658 51.3699 87.412 51.5714 86.2184 51.8536C85.9399 51.0877 85.6216 50.3217 85.3034 49.5155C85.184 49.5961 85.0646 49.6767 84.9851 49.7573C83.9506 50.5233 82.8764 51.3295 81.842 52.0552C81.6828 52.1761 81.4839 52.2567 81.285 52.2567C80.2903 52.2164 79.3355 51.9746 78.5795 51.3295C77.2268 50.2411 76.8687 48.1448 77.6644 46.492C77.9429 45.8873 78.3806 45.4841 79.0172 45.2826C80.9269 44.6779 82.8366 43.9925 84.7464 43.3475C84.9851 43.2669 85.1044 43.146 85.0646 42.8638C85.0249 42.0172 85.1044 41.1303 84.9851 40.2434C84.8259 38.9534 84.1893 38.4696 82.8764 38.5906C82.1603 38.6712 81.4441 38.8728 80.6882 39.0743C80.529 39.1146 80.4097 39.3162 80.3699 39.4371C80.171 40.0822 80.0516 40.6869 79.8925 41.3722C79.1763 41.3722 78.4204 41.3722 77.6644 41.3722C77.6644 40.6465 77.6644 40.0015 77.6644 39.3162C77.6644 39.2356 77.7838 39.1146 77.8634 39.0743C79.5344 38.3487 81.1258 37.5424 82.7968 36.8168C82.8764 36.7765 82.9958 36.7362 83.0356 36.7765C83.6721 36.8168 84.2689 36.8168 84.8657 36.9377C86.4572 37.2199 87.1733 38.0262 87.3722 39.6387C87.4518 40.3643 87.5314 41.09 87.5314 41.8559C87.5314 43.9522 87.5314 46.0485 87.5314 48.1448C87.5314 48.7898 87.6109 49.3945 87.9292 49.9186C88.0088 50.0395 88.168 50.1605 88.3271 50.1605C88.725 50.1202 89.1626 50.1202 89.64 50.1202ZM85.0646 44.3554C84.8657 44.436 84.7861 44.4763 84.6668 44.5166C83.3538 45.081 82.0011 45.6857 80.6484 46.2098C80.171 46.4113 79.9323 46.7338 79.7731 47.2176C79.5742 47.782 79.614 48.3464 79.7731 48.8704C80.0118 49.6767 80.5688 50.1605 81.4441 50.1202C81.9215 50.0798 82.4388 49.9992 82.8366 49.7976C83.5528 49.3945 84.2689 48.8704 84.9851 48.3867C85.0646 48.3464 85.1442 48.2254 85.1442 48.1448C85.0646 46.8548 85.0646 45.6051 85.0646 44.3554Z" fill="white"/>
<path d="M133.642 50.1211C133.204 50.1211 132.807 50.0808 132.409 50.1211C132.17 50.1211 132.051 50.0002 131.931 49.8389C131.653 49.2342 131.573 48.5892 131.573 47.9039C131.573 45.727 131.573 43.5501 131.573 41.3732C131.573 40.6072 131.454 39.7606 131.334 38.9947C131.175 38.269 130.817 37.624 130.101 37.2612C129.106 36.7774 128.072 36.7371 126.998 36.7774C126.918 36.7774 126.878 36.8178 126.799 36.8581C125.168 37.5837 123.536 38.3497 121.905 39.0753C121.826 39.1156 121.706 39.2366 121.667 39.3172C121.667 40.0025 121.667 40.6475 121.667 41.3732C122.383 41.3732 123.059 41.3732 123.775 41.3732C123.855 41.3732 123.974 41.2119 124.014 41.1313C124.173 40.5669 124.292 39.9622 124.452 39.3978C124.491 39.2769 124.611 39.1156 124.69 39.1156C125.526 38.914 126.401 38.6722 127.276 38.5915C128.39 38.5109 128.987 39.0753 129.067 40.2041C129.146 41.091 129.106 41.9779 129.146 42.9051C129.146 43.1469 129.027 43.2276 128.828 43.3082C126.878 43.9935 124.969 44.6385 123.019 45.2835C122.343 45.5254 121.945 45.8882 121.706 46.4929C120.99 48.0248 121.149 49.7986 122.224 50.9677C123.099 51.9352 124.292 52.2174 125.526 52.2577C125.645 52.2577 125.764 52.1771 125.884 52.0965C126.64 51.5321 127.435 50.9677 128.191 50.363C128.549 50.1211 128.908 49.7986 129.345 49.5164C129.663 50.3227 129.982 51.0886 130.26 51.8546C131.454 51.6127 132.608 51.4112 133.801 51.1693C133.722 50.7661 133.682 50.4436 133.642 50.1211ZM129.106 48.0652C129.106 48.1458 129.027 48.2667 128.947 48.307C128.271 48.7908 127.634 49.2746 126.918 49.6777C126.282 50.0405 125.645 50.2421 124.889 50.0002C124.372 49.8389 124.054 49.5164 123.815 49.0327C123.576 48.3474 123.576 47.662 123.775 46.9767C123.934 46.5736 124.133 46.2914 124.571 46.1301C125.924 45.5657 127.276 44.961 128.709 44.3967C128.828 44.3563 128.947 44.316 129.067 44.2354C129.146 45.606 129.146 46.8558 129.106 48.0652Z" fill="white"/>
<path d="M89.6032 11.9023C89.6032 11.1767 89.6032 10.5317 89.6032 9.88666C89.6032 9.80603 89.7226 9.64478 89.8419 9.64478C91.4732 8.91914 93.0646 8.07256 94.7356 7.42755C95.1733 7.22599 95.7701 7.38724 96.2873 7.38724C96.526 7.38724 96.7249 7.42755 96.9636 7.50818C98.5551 7.83068 99.311 8.75788 99.3906 10.572C99.4701 12.9908 99.4701 15.4096 99.5099 17.8687C99.5099 18.3927 99.5497 18.9571 99.5895 19.4812C99.5895 19.6425 99.6293 19.7231 99.6691 19.8843C99.9078 20.6906 99.9476 20.7712 100.823 20.7712C101.062 20.7712 101.34 20.7712 101.619 20.7712C101.658 21.0937 101.698 21.4162 101.738 21.7387C100.544 21.9806 99.3906 22.1822 98.197 22.4241C97.9185 21.6581 97.6002 20.8922 97.2819 20.0859C97.1228 20.2068 97.0432 20.2875 96.9238 20.3278C95.8894 21.0534 94.855 21.8597 93.8205 22.5853C93.7012 22.6659 93.5818 22.7869 93.4625 22.7869C92.0302 22.7869 90.7172 22.3838 89.8419 21.0937C88.9666 19.8037 88.9666 18.3524 89.643 16.9012C89.8817 16.2965 90.3194 15.974 90.9162 15.7321C92.8657 15.1274 94.7754 14.442 96.6851 13.797C96.9636 13.6761 97.083 13.5552 97.0432 13.273C97.0034 12.4667 97.0034 11.6201 96.9636 10.8542C96.8841 9.60447 96.2475 8.99977 95.0141 9.12071C94.2184 9.20133 93.4227 9.4029 92.627 9.60446C92.5076 9.64478 92.3882 9.84634 92.3484 9.92697C92.1893 10.4914 92.07 11.0961 91.9108 11.6604C91.871 11.7814 91.7119 11.9023 91.6721 11.9023C90.9957 11.9023 90.3194 11.9023 89.6032 11.9023ZM97.0432 14.8855C96.8443 14.9661 96.7249 15.0064 96.6056 15.0871C95.2528 15.6515 93.9001 16.2561 92.5076 16.8205C92.1893 16.9818 91.9108 17.143 91.7914 17.5059C91.4732 18.2718 91.4732 19.1184 91.8312 19.844C92.07 20.2875 92.428 20.5293 92.8657 20.6503C93.6216 20.8519 94.298 20.61 94.9743 20.2068C95.6109 19.8037 96.2077 19.3603 96.8443 18.9571C96.9238 18.8765 97.0432 18.7556 97.0432 18.6749C97.0432 17.3849 97.0432 16.1755 97.0432 14.8855Z" fill="white"/>
<path d="M139.129 50.482C139.965 50.6029 140.761 50.6836 141.596 50.7642C141.556 51.0464 141.556 51.3286 141.477 51.5301C141.437 51.6511 141.238 51.7317 141.119 51.7317C140.243 51.7317 139.408 51.6511 138.493 51.6511C137.339 51.6511 136.185 51.6914 135.031 51.7317C134.872 51.7317 134.753 51.7317 134.554 51.7317C134.514 51.4092 134.435 51.127 134.395 50.7642C135.111 50.6432 135.867 50.5626 136.623 50.482C136.623 44.1931 136.623 37.8639 136.623 31.5751C135.907 31.5751 135.19 31.5751 134.435 31.5751C134.395 31.2929 134.315 30.9704 134.275 30.6076C135.907 30.2448 137.418 29.4788 139.129 29.5191C139.129 36.5336 139.129 43.5078 139.129 50.482Z" fill="white"/>
<path d="M116.136 33.3889C116.136 34.7192 116.136 36.1302 116.136 37.5008C117.728 37.5008 119.319 37.5008 120.871 37.5008C120.871 37.9443 120.871 38.3474 120.871 38.7908C119.279 38.7908 117.728 38.7908 116.176 38.7908C116.176 38.9924 116.136 39.073 116.136 39.2343C116.136 42.0965 116.136 44.9588 116.136 47.8613C116.136 48.1032 116.176 48.3854 116.216 48.6273C116.335 49.4335 116.852 49.9173 117.648 49.9576C118.364 49.9979 118.961 49.7964 119.637 49.5142C119.836 49.4335 120.035 49.3126 120.274 49.2723C120.433 49.5545 120.552 49.877 120.751 50.1995C119.995 50.6429 119.239 51.0864 118.484 51.4895C118.324 51.6105 118.165 51.6911 118.006 51.7717C116.773 52.4973 115.659 52.1345 114.545 51.5298C113.908 51.2073 113.829 50.4817 113.789 49.7964C113.749 49.3126 113.749 48.8288 113.749 48.3451C113.749 45.3216 113.749 42.2981 113.749 39.2746C113.749 39.1134 113.749 38.9521 113.749 38.7505C112.754 38.7505 111.76 38.7505 110.805 38.7505C110.685 38.428 110.765 38.1861 111.004 37.9443C111.481 37.3396 112.078 37.0574 112.834 37.2186C113.152 37.2589 113.51 37.2186 113.908 37.2186C113.908 36.6542 113.868 36.0899 113.908 35.5658C113.908 35.3239 114.028 35.1223 114.147 34.9611C114.505 34.4773 114.943 34.0339 115.38 33.5904C115.579 33.2679 115.579 33.2679 116.136 33.3889Z" fill="white"/>
<path d="M82.8373 7.66995C82.8373 8.95997 82.8373 10.2097 82.8373 11.4997C83.3545 10.895 83.8718 10.3306 84.3492 9.76623C84.946 9.0406 85.5826 8.35527 86.1396 7.66995C86.2589 7.54901 86.4578 7.42807 86.6568 7.42807C87.3331 7.38776 87.9697 7.42807 88.6859 7.42807C88.6859 8.35528 88.6859 9.24216 88.6859 10.1694C88.1289 10.1694 87.5719 10.1291 87.0546 10.1694C86.6966 10.2097 86.3385 10.2903 86.0202 10.4112C84.7868 11.0563 83.832 11.9835 83.076 13.1122C82.9965 13.1929 82.9567 13.3541 82.9567 13.3944C82.9567 15.8132 82.9567 18.232 82.9567 20.6508C82.9567 20.7314 82.9567 20.7717 82.9965 20.8927C84.0309 21.0136 85.1051 21.0942 86.1396 21.1749C86.0998 21.5377 86.0202 21.9005 85.9804 22.223C83.4739 22.223 80.9674 22.223 78.4609 22.223C78.4211 21.9408 78.3415 21.6183 78.3017 21.2958C78.9781 21.2152 79.5749 21.0942 80.2512 21.0539C80.4899 21.0136 80.5695 20.933 80.5695 20.7314C80.5695 17.0629 80.5695 13.4347 80.5695 9.76623C80.5695 9.68561 80.5695 9.6453 80.5297 9.52436C79.8136 9.60498 79.0577 9.68561 78.3017 9.72592C78.2619 9.40342 78.1824 9.08091 78.1426 8.71809C79.734 8.4359 81.1663 7.75058 82.8373 7.66995Z" fill="white"/>
<path d="M111.635 50.7628C111.595 51.0854 111.515 51.4079 111.475 51.69C110.759 51.69 110.003 51.69 109.287 51.69C107.934 51.69 106.582 51.7304 105.149 51.7304C104.553 51.7304 104.553 51.7304 104.433 51.166C104.394 51.045 104.394 50.9241 104.394 50.8032C105.11 50.6822 105.866 50.6016 106.622 50.521C106.622 46.7315 106.622 42.9018 106.622 39.072C105.905 39.1123 105.149 39.193 104.394 39.2333C104.354 38.9108 104.274 38.5883 104.234 38.2658C105.866 37.903 107.417 37.137 109.128 37.1773C109.128 41.6521 109.128 46.0865 109.128 50.521C110.003 50.5613 110.759 50.6419 111.635 50.7628Z" fill="white"/>
<path d="M107.545 35.1635C107.466 35.1635 107.426 35.2038 107.346 35.2038C106.67 35.2441 106.511 35.0426 106.391 34.3976C106.272 33.6719 106.312 32.9866 106.511 32.261C106.55 32.14 106.63 32.0191 106.71 32.0191C107.505 31.9788 108.381 31.7772 109.176 31.9788C109.296 32.0191 109.415 32.1804 109.415 32.2207C109.574 33.0672 109.574 33.9541 109.296 34.8007C109.256 34.9216 109.097 35.0426 109.057 35.0426C108.5 35.0829 108.023 35.1232 107.545 35.1635Z" fill="white"/>
</svg>
