<svg width="138" height="37" viewBox="0 0 138 37" fill="none" xmlns="http://www.w3.org/2000/svg">
<path d="M15.3908 3.52881V7.35197H5.54526V13.4081H13.0901V17.1636H5.54526V27.1445H0.808594V3.52881H15.3908Z" fill="white"/>
<path d="M36.512 17.3666C36.512 18.0433 36.4669 18.6523 36.3767 19.1936H22.6742C22.787 20.547 23.2606 21.6071 24.0952 22.374C24.9297 23.1409 25.956 23.5243 27.174 23.5243C28.9333 23.5243 30.1852 22.7687 30.9295 21.2575H36.0383C35.497 23.0619 34.4594 24.5506 32.9257 25.7235C31.3919 26.8738 29.5085 27.449 27.2755 27.449C25.4711 27.449 23.8471 27.0542 22.4035 26.2648C20.9825 25.4528 19.866 24.3137 19.054 22.8476C18.2646 21.3815 17.8698 19.6899 17.8698 17.7726C17.8698 15.8329 18.2646 14.1299 19.054 12.6638C19.8435 11.1977 20.9487 10.0699 22.3697 9.28047C23.7907 8.49103 25.426 8.09631 27.2755 8.09631C29.0574 8.09631 30.6476 8.47975 32.046 9.24664C33.467 10.0135 34.561 11.1075 35.3278 12.5285C36.1173 13.9269 36.512 15.5396 36.512 17.3666ZM31.6062 16.0133C31.5836 14.7953 31.1438 13.8254 30.2867 13.1036C29.4296 12.3593 28.3807 11.9871 27.1402 11.9871C25.9673 11.9871 24.9748 12.348 24.1628 13.0698C23.3734 13.769 22.8885 14.7502 22.708 16.0133H31.6062Z" fill="white"/>
<path d="M50.6945 8.13014C52.9275 8.13014 54.732 8.84064 56.1078 10.2616C57.4837 11.6601 58.1717 13.6224 58.1717 16.1486V27.1445H53.435V16.7915C53.435 15.3028 53.0629 14.1638 52.3185 13.3743C51.5742 12.5623 50.5592 12.1563 49.2735 12.1563C47.9653 12.1563 46.9277 12.5623 46.1609 13.3743C45.4165 14.1638 45.0444 15.3028 45.0444 16.7915V27.1445H40.3077V8.40081H45.0444V10.7353C45.6759 9.92331 46.4766 9.29175 47.4465 8.84064C48.439 8.36697 49.5216 8.13014 50.6945 8.13014Z" fill="white"/>
<path d="M70.3562 8.09631C71.7546 8.09631 72.9839 8.37825 74.044 8.94214C75.1041 9.48347 75.9387 10.194 76.5477 11.0736V8.40081H81.3182V27.2798C81.3182 29.0166 80.9686 30.5616 80.2693 31.915C79.5701 33.2909 78.5213 34.3735 77.1228 35.163C75.7244 35.975 74.0327 36.381 72.0478 36.381C69.3863 36.381 67.1984 35.7607 65.4842 34.5201C63.7925 33.2796 62.8339 31.5879 62.6083 29.4451H67.3112C67.5593 30.3022 68.0893 30.9789 68.9013 31.4751C69.7359 31.9939 70.7396 32.2533 71.9125 32.2533C73.2884 32.2533 74.4049 31.836 75.262 31.0015C76.1191 30.1895 76.5477 28.9489 76.5477 27.2798V24.3701C75.9387 25.2498 75.0928 25.9829 74.0102 26.5693C72.9501 27.1558 71.7321 27.449 70.3562 27.449C68.7773 27.449 67.3337 27.043 66.0255 26.231C64.7173 25.419 63.6797 24.2799 62.9128 22.8138C62.1685 21.3251 61.7963 19.6222 61.7963 17.705C61.7963 15.8103 62.1685 14.1299 62.9128 12.6638C63.6797 11.1977 64.706 10.0699 65.9917 9.28047C67.2999 8.49103 68.7547 8.09631 70.3562 8.09631ZM76.5477 17.7726C76.5477 16.6223 76.3221 15.6411 75.871 14.8291C75.4199 13.9946 74.8109 13.363 74.044 12.9345C73.2771 12.4834 72.4538 12.2578 71.5742 12.2578C70.6945 12.2578 69.8825 12.4721 69.1382 12.9006C68.3938 13.3292 67.7848 13.9608 67.3112 14.7953C66.8601 15.6073 66.6345 16.5772 66.6345 17.705C66.6345 18.8327 66.8601 19.8252 67.3112 20.6823C67.7848 21.5169 68.3938 22.1597 69.1382 22.6108C69.9051 23.0619 70.7171 23.2875 71.5742 23.2875C72.4538 23.2875 73.2771 23.0732 74.044 22.6446C74.8109 22.1935 75.4199 21.562 75.871 20.75C76.3221 19.9154 76.5477 18.923 76.5477 17.7726Z" fill="white"/>
<path d="M99.4195 23.389H107.201V27.1445H94.6829V3.52881H99.4195V23.389Z" fill="white"/>
<path d="M112.952 6.16781C112.118 6.16781 111.419 5.90842 110.855 5.38964C110.313 4.84831 110.043 4.18292 110.043 3.39347C110.043 2.60403 110.313 1.94992 110.855 1.43114C111.419 0.889807 112.118 0.619141 112.952 0.619141C113.787 0.619141 114.475 0.889807 115.016 1.43114C115.58 1.94992 115.862 2.60403 115.862 3.39347C115.862 4.18292 115.58 4.84831 115.016 5.38964C114.475 5.90842 113.787 6.16781 112.952 6.16781ZM115.287 8.40081V27.1445H110.55V8.40081H115.287Z" fill="white"/>
<path d="M138 8.40081V27.1445H133.229V24.7761C132.62 25.5881 131.82 26.231 130.827 26.7046C129.857 27.1557 128.797 27.3813 127.647 27.3813C126.181 27.3813 124.884 27.0768 123.756 26.4678C122.628 25.8362 121.737 24.9227 121.083 23.7273C120.452 22.5093 120.136 21.0657 120.136 19.3966V8.40081H124.873V18.72C124.873 20.2086 125.245 21.359 125.989 22.171C126.733 22.9604 127.748 23.3551 129.034 23.3551C130.342 23.3551 131.368 22.9604 132.113 22.171C132.857 21.359 133.229 20.2086 133.229 18.72V8.40081H138Z" fill="white"/>
</svg>
