<svg width="160" height="57" viewBox="0 0 160 57" fill="none" xmlns="http://www.w3.org/2000/svg">
<path d="M101.682 3.30859H100.162V56.4972H101.682V3.30859Z" fill="white"/>
<path d="M21.8154 24.3348C21.8691 26.4031 21.191 28.424 19.9006 30.0412C18.0086 32.3207 15.0073 33.5213 10.8813 33.5213C9.57177 33.4393 8.27888 33.1838 7.03657 32.7614C5.8822 32.3613 4.68261 32.1061 3.46533 32.0016C3.36895 32.0071 3.27526 32.0354 3.19201 32.0843C3.10877 32.1332 3.03837 32.2012 2.98663 32.2827C2.78949 32.6594 2.67548 33.074 2.65231 33.4985H1.61133V22.9063H2.60672L3.52612 25.9457C4.03408 27.3464 4.85233 28.614 5.91961 29.6537C7.51526 31.3051 9.19957 32.1308 10.9725 32.1308C13.3812 32.1308 15.0756 31.4697 16.0634 30.1324C16.6512 29.326 16.9582 28.349 16.9372 27.3514C16.9432 26.716 16.8023 26.0877 16.5255 25.5157C16.2487 24.9437 15.8435 24.4434 15.3416 24.0537C14.2778 23.1571 11.9704 21.878 8.41947 20.2165C6.38164 19.3332 4.64082 17.8826 3.40454 16.0374C2.50933 14.6836 2.02145 13.1013 1.99885 11.4784C1.95534 10.2405 2.18308 9.00803 2.6661 7.86741C3.14913 6.72679 3.87575 5.7056 4.79505 4.87541C6.30124 3.45254 8.29267 2.65651 10.3647 2.64908C12.0579 2.63326 13.7414 2.90826 15.3416 3.46211C16.2833 3.86175 17.2711 4.14252 18.2822 4.29793C18.5785 4.29793 18.8216 4.10797 19.042 3.71286C19.2623 3.31774 19.4295 2.95302 19.6043 2.67948H20.6073V12.2306H19.7258C18.2442 8.95573 17.074 6.91177 16.1926 6.08355C15.524 5.43282 14.7335 4.92062 13.8663 4.57637C12.9992 4.23212 12.0725 4.06261 11.1397 4.07758C10.5673 4.04472 9.99412 4.12503 9.45284 4.3139C8.91155 4.50277 8.41281 4.79651 7.98514 5.1783C7.55748 5.5601 7.20928 6.02246 6.96046 6.53894C6.71164 7.05543 6.56709 7.6159 6.53507 8.1883C6.53507 8.24149 6.53507 8.28708 6.53507 8.34026C6.50702 9.43901 6.86156 10.5134 7.53806 11.3796C8.81549 12.7041 10.4194 13.6686 12.1883 14.1758C15.4404 15.3054 17.8794 16.7567 19.5055 18.5297C20.9731 20.0848 21.7889 22.1433 21.785 24.2817" fill="white"/>
<path d="M47.4524 32.7455H36.4423V31.7274C36.9507 31.7341 37.449 31.5856 37.8708 31.3018C38.0504 31.2076 38.2036 31.07 38.3164 30.9014C38.4292 30.7329 38.4981 30.5388 38.5167 30.3369C38.506 30.1802 38.4564 30.0287 38.3723 29.8961L32.9167 21.9634L31.8073 23.0728V29.3263C31.7636 29.6922 31.8016 30.0633 31.9185 30.4128C32.0354 30.7623 32.2284 31.0815 32.4836 31.3474C32.895 31.6308 33.3911 31.7649 33.8893 31.7274V32.7455H23.1984V31.7274C23.6779 31.773 24.159 31.6581 24.5661 31.4006C24.8407 31.1357 25.0492 30.81 25.1746 30.4496C25.3 30.0892 25.3388 29.7044 25.2879 29.3263V4.00849C25.3386 3.65298 25.3112 3.29068 25.2075 2.94685C25.1038 2.60302 24.9264 2.28595 24.6876 2.01772C24.2478 1.69786 23.711 1.53952 23.168 1.56942V0.498047H31.8073V20.7553L37.962 14.7906C38.1836 14.6007 38.3649 14.3685 38.4954 14.1075C38.6259 13.8465 38.7029 13.5621 38.7218 13.2709C38.7154 13.0199 38.6414 12.7752 38.5077 12.5626C38.374 12.35 38.1855 12.1773 37.962 12.0628C37.4107 11.7362 36.779 11.5704 36.1384 11.5841V10.6115H46.0923V11.6145C45.3312 11.6201 44.5772 11.7616 43.8659 12.0324C43.0127 12.3826 42.2378 12.8992 41.5864 13.5521L37.2022 17.7388L45.3856 29.4706C45.6743 29.9569 45.9935 30.4508 46.3506 30.9903C46.4572 31.1981 46.6136 31.3763 46.8058 31.5089C46.9981 31.6415 47.2202 31.7244 47.4524 31.7502V32.7683" fill="white"/>
<path d="M65.7269 12.3745C65.3806 12.3576 65.0349 12.42 64.7163 12.5568C64.1777 12.8774 63.7851 13.3953 63.6222 14.0005L55.6743 35.6331C55.1606 37.2538 54.1864 38.69 52.8705 39.7666C51.8961 40.5344 50.6917 40.952 49.4512 40.952C48.5644 40.9614 47.6964 40.696 46.9665 40.1921C46.6918 40.0409 46.4496 39.8369 46.254 39.5917C46.0584 39.3466 45.9132 39.0651 45.8268 38.7636C45.7568 38.357 45.7212 37.9453 45.7204 37.5327C45.6952 37.1346 45.7561 36.7357 45.899 36.3633C46.0419 35.9909 46.2635 35.6537 46.5486 35.3748C47.0856 34.8779 47.7927 34.6059 48.5242 34.6149C49.1108 34.5946 49.686 34.7801 50.1503 35.1392C50.4432 35.341 50.66 35.6353 50.7657 35.975C50.8811 36.344 50.94 36.7282 50.9405 37.1148C50.9631 37.478 50.9033 37.8416 50.7657 38.1785C51.073 38.3446 51.4198 38.4234 51.7687 38.4065C52.0927 38.4161 52.4131 38.3373 52.6957 38.1785C53.4561 37.5579 54.0317 36.7406 54.3598 35.8155C54.8387 34.8684 55.1229 33.8349 55.1956 32.7761C55.2113 32.5667 55.1801 32.3565 55.1044 32.1606L48.3494 14.0005C48.2075 13.5311 47.9456 13.1068 47.5896 12.7696C47.2051 12.4828 46.7309 12.3427 46.2523 12.3745V11.4551H57.004V12.3745C56.3868 12.3527 55.7703 12.4349 55.1804 12.6176C54.7625 12.7772 54.5421 13.2027 54.5421 13.8714C54.5805 14.4108 54.7009 14.9411 54.8992 15.4442L58.1437 24.5623L61.3882 15.4442C61.5867 14.9254 61.707 14.38 61.7454 13.8258C61.7454 13.1875 61.5326 12.7772 61.1299 12.6176C60.5356 12.4312 59.9135 12.3489 59.2911 12.3745V11.4551H65.7345V12.3745" fill="white"/>
<path d="M77.9223 2.77736C76.8387 2.77568 75.7617 2.94492 74.7309 3.27885C73.6965 3.61856 72.7277 4.13252 71.8664 4.79852C70.9764 5.47757 70.2192 6.31469 69.6324 7.26799C68.9347 8.40577 68.4626 9.66728 68.2419 10.9836C68.0492 12.1451 68.1378 13.3359 68.5003 14.4561C68.8729 15.5764 69.5178 16.5868 70.3771 17.3966C71.1837 18.1691 72.1232 18.7895 73.1505 19.2278C74.1183 19.6206 75.1463 19.8442 76.1898 19.8889C77.1724 19.9102 78.1507 19.7531 79.0772 19.4254C80.1185 19.0609 81.0898 18.5213 81.9494 17.8297C81.9494 18.1793 81.9494 18.6504 81.995 19.2354V21.2034C81.995 21.9253 81.9418 22.6851 81.8658 23.4829C81.7911 24.251 81.6616 25.0128 81.4783 25.7624C81.3135 26.4541 81.058 27.1209 80.7185 27.7456C80.4363 28.3068 80.067 28.8197 79.6243 29.2653C79.1911 29.7069 78.6746 30.0582 78.1046 30.2987C77.4725 30.556 76.7963 30.6876 76.1138 30.6862H75.4604C75.2048 30.6583 74.951 30.6151 74.7005 30.557C74.4843 30.5192 74.2761 30.4447 74.0851 30.3367C74.0175 30.3065 73.9612 30.2557 73.9243 30.1915C73.8874 30.1273 73.8719 30.0531 73.8799 29.9795C74.0024 29.8044 74.1784 29.6738 74.3814 29.6072C74.699 29.4763 75.0086 29.3266 75.3084 29.1589C75.6211 28.973 75.8823 28.7118 76.0683 28.3991C76.3042 27.9749 76.4173 27.4934 76.395 27.0086C76.4167 26.6633 76.3596 26.3176 76.228 25.9977C76.0963 25.6778 75.8936 25.3921 75.6351 25.1622C75.0503 24.6833 74.3081 24.4394 73.5532 24.4783C72.9239 24.4688 72.3006 24.6012 71.7296 24.8658C71.2023 25.0944 70.7533 25.472 70.4379 25.9524C70.1389 26.4031 69.9778 26.9312 69.9744 27.4721C69.9991 28.0174 70.1783 28.5444 70.491 28.9917C70.8798 29.5666 71.375 30.0618 71.9499 30.4506C72.6493 30.9244 73.4184 31.2859 74.2294 31.522C75.1843 31.8035 76.1745 31.9468 77.17 31.9475C78.2883 31.9469 79.3957 31.7275 80.4297 31.3016C81.4537 30.8586 82.4082 30.27 83.2639 29.554C85.1007 28.003 86.5411 26.0363 87.4658 23.8173C87.9382 22.6616 88.2773 21.4558 88.4764 20.2232C88.6854 18.9525 88.7845 17.6662 88.7727 16.3784C88.7869 14.5066 88.4917 12.6452 87.8989 10.8696C87.3111 9.21464 86.4195 7.68394 85.2699 6.35619C84.636 5.61697 83.8929 4.97894 83.0664 4.46419C82.273 3.93204 81.4151 3.50308 80.5133 3.18767C79.6754 2.92038 78.8017 2.78203 77.9223 2.77736ZM77.8615 3.9779C78.3988 3.99035 78.9231 4.14504 79.3811 4.4262C79.9198 4.77717 80.3781 5.23809 80.7261 5.77871C81.1779 6.47751 81.5068 7.24847 81.6986 8.05823C81.9502 9.10812 82.0702 10.1852 82.0558 11.2647C82.0699 11.9645 82.047 12.6645 81.9874 13.3619C81.9435 13.923 81.8417 14.4782 81.6834 15.0183C81.5238 15.5504 81.2992 16.0608 81.0148 16.538C80.8224 16.8259 80.5866 17.0822 80.3157 17.2978C80.006 17.5564 79.6605 17.7688 79.29 17.9285C78.9087 18.0847 78.5014 18.1672 78.0894 18.1717C77.479 18.1777 76.8836 17.9828 76.395 17.617C75.883 17.2078 75.47 16.6883 75.1868 16.0973C74.833 15.3748 74.5775 14.6081 74.427 13.8178C74.2591 12.8723 74.1777 11.9135 74.1839 10.9532C74.1774 10.1174 74.2282 9.28219 74.3358 8.45334C74.4207 7.67336 74.6045 6.90736 74.8829 6.17383C75.1162 5.54687 75.5091 4.99163 76.0227 4.56297C76.5409 4.14203 77.1942 3.92335 77.8615 3.94751V3.9779Z" fill="white"/>
<path d="M83.2181 56.3239V46.446H84.5402V55.2069H89.4032V56.3619H83.2561L83.2181 56.3239ZM70.2781 52.2739H73.6214L72.588 49.5385C72.284 48.7103 72.0409 48.0189 71.8889 47.487C71.7642 48.1312 71.5863 48.7641 71.357 49.379L70.2781 52.2739ZM67.4211 56.3239L71.2203 46.446H72.626L76.6759 56.3239H75.1942L74.0469 53.3377H69.9437L68.8724 56.3239H67.4211ZM58.0599 56.3239V47.6085H54.8078V46.446H62.6341V47.6085H59.3668V56.3239H58.0599ZM46.3812 56.3239V46.446H47.6881V56.3239H46.3812ZM32.7041 51.1418H35.2572C35.8946 51.1956 36.5304 51.0205 37.0504 50.6479C37.2338 50.4805 37.3775 50.2743 37.4708 50.0442C37.5642 49.8141 37.6049 49.566 37.5899 49.3182C37.6031 48.9393 37.4939 48.5663 37.2783 48.2544C37.0755 47.9689 36.7802 47.7622 36.4425 47.6693C36.043 47.6073 35.6381 47.587 35.2344 47.6085H32.7041V51.1418ZM31.3972 56.3239V46.446H35.1204C35.6289 46.4309 36.1378 46.4639 36.6401 46.5448C37.0767 46.6086 37.4941 46.7668 37.8634 47.0083C38.196 47.2524 38.4581 47.58 38.6233 47.9581C38.826 48.377 38.9275 48.8377 38.9196 49.303C38.953 50.0886 38.6807 50.8567 38.1598 51.4457C37.6203 52.0232 36.6401 52.3119 35.2648 52.3119H32.7497V56.3239H31.3972ZM18.4192 52.2739H21.7625L20.7215 49.5385C20.41 48.7103 20.1744 48.0189 20.0224 47.487C19.8977 48.1312 19.7198 48.7641 19.4906 49.379L18.4192 52.2739ZM15.5622 56.3239L19.3614 46.446H20.7443L24.817 56.3239H23.2973L22.1424 53.3377H18.0165L16.9299 56.3239H15.5622ZM8.17658 52.8666L9.4835 53.1933C9.27795 54.1562 8.75642 55.0228 8.00181 55.6552C7.24137 56.2389 6.30025 56.5374 5.34238 56.4986C4.44363 56.5286 3.5543 56.3076 2.77413 55.8604C2.08959 55.3994 1.55998 54.7427 1.25446 53.976C0.902809 53.1337 0.724497 52.2292 0.730173 51.3165C0.707859 50.3828 0.91117 49.4575 1.32285 48.6191C1.68635 47.8672 2.27624 47.2481 3.00968 46.8487C3.74276 46.4465 4.56704 46.2398 5.40317 46.2484C6.29525 46.218 7.17209 46.4853 7.89544 47.0083C8.59246 47.535 9.0906 48.2822 9.30873 49.1282L8.02461 49.4322C7.8474 48.8378 7.49845 48.3091 7.02162 47.9125C6.52921 47.5452 5.92589 47.3575 5.31199 47.3806C4.63542 47.3648 3.97012 47.5556 3.4048 47.9277C2.90036 48.2913 2.52717 48.8084 2.34103 49.4018C2.12891 50.01 2.02101 50.6496 2.0219 51.2938C2.0122 52.0591 2.14623 52.8194 2.41701 53.5353C2.62945 54.1201 3.03392 54.6157 3.56437 54.941C4.06918 55.2443 4.64705 55.4046 5.23601 55.4045C5.9117 55.4217 6.57152 55.1982 7.09761 54.7738C7.65174 54.27 8.01647 53.5915 8.13099 52.8514L8.17658 52.8666Z" fill="white"/>
<path d="M122.054 13.0886C120.502 16.0467 118.664 18.846 116.568 21.4468L128.839 20.4818C127.852 18.9622 126.742 17.3437 125.732 16.0064L127.145 15.2466C129.182 17.8729 131.025 20.6435 132.661 23.5364L131.218 24.4102C130.845 23.7036 130.351 22.8297 129.759 21.8647C116.636 23.0425 115.322 23.1109 114.471 23.4908C114.309 22.8939 114.103 22.3097 113.855 21.7432C114.372 21.6292 114.919 20.9833 115.649 20.0031C117.28 17.8132 118.707 15.4784 119.911 13.0278H112.465V11.4854H133.224V13.0886H122.054ZM130.8 6.44765H115.01V4.86719H130.8V6.44765Z" fill="white"/>
<path d="M156.893 22.5327C157.599 22.5327 157.721 21.9477 157.789 19.1667C158.231 19.4794 158.725 19.711 159.248 19.8505C159.111 23.057 158.686 24.0448 157.014 24.0448H154.165C152.417 24.0448 151.885 23.5509 151.885 21.5677V10.5197H146.278C145.784 16.4312 144.158 21.4994 138.436 24.3715C138.12 23.8975 137.73 23.4768 137.281 23.1254C142.699 20.58 144.226 15.9601 144.674 10.5197H138.337V9.00004H144.773C144.864 7.11564 144.864 5.15526 144.864 3.17969H146.49C146.49 5.15526 146.49 7.11564 146.376 9.00004H153.458V21.545C153.458 22.3504 153.572 22.5099 154.332 22.5099L156.893 22.5327Z" fill="white"/>
<path d="M119.326 39.205L112.753 41.3782L112.305 39.9193C113.999 39.4406 116.545 38.6428 119.09 37.8449L119.326 39.205ZM123.885 44.9114C123.087 49.668 120.914 52.2135 113.049 53.3228C112.895 52.8549 112.664 52.4158 112.365 52.0235C119.835 51.1041 121.643 48.9842 122.35 44.9114H123.885ZM118.11 36.3329C116.583 35.2785 114.929 34.4231 113.186 33.7874L113.946 32.7084C115.698 33.2846 117.368 34.084 118.915 35.0867L118.11 36.3329ZM128.862 49.1285V44.2048H116.985V49.2881H115.466V42.7459H130.45V49.1285H128.862ZM126.863 35.2539C126.748 35.703 126.598 36.1425 126.415 36.5684C127.76 38.62 130.374 40.2232 133.291 40.8615C132.914 41.2248 132.596 41.6453 132.349 42.1076C129.77 41.4174 127.488 39.9015 125.853 37.7918C124.698 39.7065 122.813 41.2794 119.561 42.2216C119.33 41.8076 119.043 41.4268 118.71 41.0894C122.95 40.0105 124.584 37.769 125.343 35.2539H122.304C121.619 36.2523 120.795 37.1478 119.857 37.9133C119.562 37.5324 119.196 37.2124 118.778 36.9711C120.498 35.655 121.814 33.8835 122.578 31.8574L124.097 32.093C123.836 32.7496 123.529 33.3869 123.178 34.0002H131.399L131.681 33.9318L132.79 34.2585C132.21 35.4798 131.566 36.6694 130.86 37.8221L129.515 37.3966C129.842 36.8496 130.275 36.0517 130.693 35.2539H126.863ZM124.082 48.4219C127.117 49.3655 130.084 50.5129 132.965 51.8563L132.068 53.1785C129.204 51.7697 126.243 50.5661 123.208 49.5768L124.082 48.4219Z" fill="white"/>
<path d="M150.867 38.4066C152.607 42.4565 155.669 46.2785 159.013 48.1173C158.57 48.5144 158.167 48.9548 157.812 49.4318C154.279 47.2435 151.179 43.0492 149.332 38.4066H148.96V47.2207H154.56V48.7935H148.96V53.2766H147.334V48.7935H141.749V47.2207H147.334V38.4066H146.908C145.047 43.0264 141.939 47.2207 138.55 49.5002C138.211 49.0513 137.832 48.6342 137.418 48.2541C140.579 46.3241 143.565 42.4565 145.335 38.3762H138.011V36.8261H147.341V31.834H148.967V36.8261H158.389V38.4066H150.867Z" fill="white"/>
</svg>
