<svg width="432" height="37" viewBox="0 0 432 37" fill="none" xmlns="http://www.w3.org/2000/svg">
<path d="M9.09877 27.3813C7.45221 27.3813 5.96355 27.0994 4.63277 26.5355C3.32455 25.9716 2.28699 25.1596 1.5201 24.0995C0.753215 23.0394 0.358493 21.7875 0.335938 20.344H5.41094C5.4786 21.3139 5.81694 22.0807 6.42594 22.6446C7.05749 23.2085 7.9146 23.4905 8.99727 23.4905C10.1025 23.4905 10.9709 23.2311 11.6024 22.7123C12.234 22.171 12.5498 21.4718 12.5498 20.6146C12.5498 19.9154 12.3355 19.3402 11.9069 18.8891C11.4784 18.438 10.937 18.0884 10.2829 17.8403C9.65138 17.5696 8.77171 17.2764 7.64394 16.9606C6.11016 16.5095 4.85833 16.0697 3.88844 15.6411C2.9411 15.19 2.11783 14.5246 1.4186 13.645C0.741938 12.7428 0.403604 11.5473 0.403604 10.0586C0.403604 8.6602 0.753215 7.44219 1.45244 6.40464C2.15166 5.36708 3.13283 4.57764 4.39594 4.03631C5.65905 3.47242 7.1026 3.19047 8.7266 3.19047C11.1626 3.19047 13.1362 3.7882 14.6474 4.98364C16.1812 6.15653 17.027 7.80308 17.1849 9.92331H11.9746C11.9295 9.11131 11.5799 8.44592 10.9258 7.92714C10.2942 7.38581 9.44838 7.11514 8.38827 7.11514C7.46349 7.11514 6.71916 7.35197 6.15527 7.82564C5.61394 8.29931 5.34327 8.98725 5.34327 9.88947C5.34327 10.521 5.54627 11.0511 5.95227 11.4796C6.38083 11.8856 6.8996 12.224 7.5086 12.4946C8.14016 12.7428 9.01982 13.036 10.1476 13.3743C11.6814 13.8254 12.9332 14.2765 13.9031 14.7276C14.873 15.1788 15.7075 15.8554 16.4068 16.7576C17.106 17.6599 17.4556 18.844 17.4556 20.3101C17.4556 21.5732 17.1285 22.7461 16.4744 23.8288C15.8203 24.9115 14.8617 25.7799 13.5986 26.434C12.3355 27.0655 10.8355 27.3813 9.09877 27.3813Z" fill="white"/>
<path d="M34.0805 27.1445L28.8701 17.9418H26.6371V27.1445H21.9005V3.52881H30.7648C32.5918 3.52881 34.1481 3.85586 35.4338 4.50997C36.7195 5.14153 37.6781 6.00992 38.3096 7.11514C38.9637 8.19781 39.2908 9.41581 39.2908 10.7691C39.2908 12.3255 38.8397 13.7352 37.9375 14.9983C37.0352 16.2389 35.6932 17.096 33.9113 17.5696L39.5615 27.1445H34.0805ZM26.6371 14.3893H30.5956C31.8813 14.3893 32.8399 14.0848 33.4715 13.4758C34.103 12.8443 34.4188 11.9759 34.4188 10.8706C34.4188 9.78797 34.103 8.95342 33.4715 8.36697C32.8399 7.75797 31.8813 7.45347 30.5956 7.45347H26.6371V14.3893Z" fill="white"/>
<path d="M52.0671 27.3813C50.4205 27.3813 48.9319 27.0994 47.6011 26.5355C46.2929 25.9716 45.2553 25.1596 44.4884 24.0995C43.7215 23.0394 43.3268 21.7875 43.3043 20.344H48.3793C48.4469 21.3139 48.7853 22.0807 49.3943 22.6446C50.0258 23.2085 50.8829 23.4905 51.9656 23.4905C53.0708 23.4905 53.9392 23.2311 54.5708 22.7123C55.2023 22.171 55.5181 21.4718 55.5181 20.6146C55.5181 19.9154 55.3038 19.3402 54.8753 18.8891C54.4467 18.438 53.9054 18.0884 53.2513 17.8403C52.6197 17.5696 51.74 17.2764 50.6123 16.9606C49.0785 16.5095 47.8267 16.0697 46.8568 15.6411C45.9094 15.19 45.0862 14.5246 44.3869 13.645C43.7103 12.7428 43.3719 11.5473 43.3719 10.0586C43.3719 8.6602 43.7215 7.44219 44.4208 6.40464C45.12 5.36708 46.1012 4.57764 47.3643 4.03631C48.6274 3.47242 50.0709 3.19047 51.6949 3.19047C54.1309 3.19047 56.1045 3.7882 57.6158 4.98364C59.1495 6.15653 59.9954 7.80308 60.1533 9.92331H54.9429C54.8978 9.11131 54.5482 8.44592 53.8941 7.92714C53.2625 7.38581 52.4167 7.11514 51.3566 7.11514C50.4318 7.11514 49.6875 7.35197 49.1236 7.82564C48.5823 8.29931 48.3116 8.98725 48.3116 9.88947C48.3116 10.521 48.5146 11.0511 48.9206 11.4796C49.3492 11.8856 49.8679 12.224 50.4769 12.4946C51.1085 12.7428 51.9882 13.036 53.1159 13.3743C54.6497 13.8254 55.9015 14.2765 56.8714 14.7276C57.8413 15.1788 58.6759 15.8554 59.3751 16.7576C60.0743 17.6599 60.4239 18.844 60.4239 20.3101C60.4239 21.5732 60.0969 22.7461 59.4428 23.8288C58.7887 24.9115 57.83 25.7799 56.5669 26.434C55.3038 27.0655 53.8039 27.3813 52.0671 27.3813Z" fill="white"/>
<path d="M78.0056 3.52881V27.1445H73.269V3.52881H78.0056Z" fill="white"/>
<path d="M93.4106 8.13014C95.6436 8.13014 97.4481 8.84064 98.824 10.2616C100.2 11.6601 100.888 13.6224 100.888 16.1486V27.1445H96.1511V16.7915C96.1511 15.3028 95.779 14.1638 95.0346 13.3743C94.2903 12.5623 93.2753 12.1563 91.9896 12.1563C90.6814 12.1563 89.6439 12.5623 88.877 13.3743C88.1326 14.1638 87.7605 15.3028 87.7605 16.7915V27.1445H83.0238V8.40081H87.7605V10.7353C88.392 9.92331 89.1927 9.29175 90.1626 8.84064C91.1551 8.36697 92.2377 8.13014 93.4106 8.13014Z" fill="white"/>
<path d="M113.546 22.78L118.283 8.40081H123.324L116.388 27.1445H110.636L103.734 8.40081H108.809L113.546 22.78Z" fill="white"/>
<path d="M143.747 17.3666C143.747 18.0433 143.702 18.6523 143.611 19.1936H129.909C130.022 20.547 130.495 21.6071 131.33 22.374C132.164 23.1409 133.191 23.5243 134.409 23.5243C136.168 23.5243 137.42 22.7687 138.164 21.2575H143.273C142.732 23.0619 141.694 24.5506 140.16 25.7235C138.627 26.8738 136.743 27.449 134.51 27.449C132.706 27.449 131.082 27.0542 129.638 26.2648C128.217 25.4528 127.101 24.3137 126.289 22.8476C125.499 21.3815 125.105 19.6899 125.105 17.7726C125.105 15.8329 125.499 14.1299 126.289 12.6638C127.078 11.1977 128.183 10.0699 129.604 9.28047C131.025 8.49103 132.661 8.09631 134.51 8.09631C136.292 8.09631 137.882 8.47975 139.281 9.24664C140.702 10.0135 141.796 11.1075 142.563 12.5285C143.352 13.9269 143.747 15.5396 143.747 17.3666ZM138.841 16.0133C138.818 14.7953 138.378 13.8254 137.521 13.1036C136.664 12.3593 135.615 11.9871 134.375 11.9871C133.202 11.9871 132.21 12.348 131.398 13.0698C130.608 13.769 130.123 14.7502 129.943 16.0133H138.841Z" fill="white"/>
<path d="M154.715 27.449C153.181 27.449 151.805 27.1783 150.587 26.637C149.369 26.0731 148.399 25.3175 147.678 24.3701C146.978 23.4228 146.595 22.374 146.527 21.2236H151.298C151.388 21.9454 151.738 22.5431 152.347 23.0168C152.978 23.4905 153.756 23.7273 154.681 23.7273C155.583 23.7273 156.283 23.5469 156.779 23.186C157.298 22.8251 157.557 22.3627 157.557 21.7988C157.557 21.1898 157.241 20.7387 156.61 20.4455C156.001 20.1297 155.02 19.7914 153.666 19.4305C152.268 19.0921 151.117 18.7425 150.215 18.3816C149.336 18.0207 148.569 17.4681 147.915 16.7238C147.283 15.9795 146.967 14.9758 146.967 13.7126C146.967 12.6751 147.26 11.7277 147.847 10.8706C148.456 10.0135 149.313 9.33686 150.418 8.84064C151.546 8.34442 152.865 8.09631 154.377 8.09631C156.61 8.09631 158.392 8.66019 159.722 9.78797C161.053 10.8932 161.786 12.3931 161.922 14.2878H157.388C157.32 13.5435 157.004 12.957 156.441 12.5285C155.899 12.0774 155.166 11.8518 154.241 11.8518C153.384 11.8518 152.719 12.0097 152.245 12.3255C151.794 12.6413 151.569 13.0811 151.569 13.645C151.569 14.2765 151.884 14.7615 152.516 15.0998C153.147 15.4156 154.129 15.7426 155.459 16.081C156.813 16.4193 157.929 16.7689 158.809 17.1298C159.689 17.4907 160.444 18.0546 161.076 18.8215C161.73 19.5658 162.068 20.5583 162.091 21.7988C162.091 22.8815 161.786 23.8514 161.177 24.7085C160.591 25.5656 159.734 26.2423 158.606 26.7385C157.501 27.2121 156.204 27.449 154.715 27.449Z" fill="white"/>
<path d="M171.832 12.2916V21.359C171.832 21.9905 171.979 22.4529 172.272 22.7461C172.588 23.0168 173.106 23.1521 173.828 23.1521H176.027V27.1445H173.05C169.058 27.1445 167.062 25.2047 167.062 21.3251V12.2916H164.829V8.40081H167.062V3.76564H171.832V8.40081H176.027V12.2916H171.832Z" fill="white"/>
<path d="M203.05 8.13014C205.351 8.13014 207.2 8.84064 208.599 10.2616C210.02 11.6601 210.73 13.6224 210.73 16.1486V27.1445H205.993V16.7915C205.993 15.3254 205.621 14.2089 204.877 13.442C204.133 12.6525 203.118 12.2578 201.832 12.2578C200.546 12.2578 199.52 12.6525 198.753 13.442C198.009 14.2089 197.637 15.3254 197.637 16.7915V27.1445H192.9V16.7915C192.9 15.3254 192.528 14.2089 191.783 13.442C191.039 12.6525 190.024 12.2578 188.738 12.2578C187.43 12.2578 186.393 12.6525 185.626 13.442C184.881 14.2089 184.509 15.3254 184.509 16.7915V27.1445H179.773V8.40081H184.509V10.6676C185.118 9.8782 185.896 9.25792 186.844 8.80681C187.814 8.35569 188.874 8.13014 190.024 8.13014C191.49 8.13014 192.798 8.44592 193.949 9.07747C195.099 9.68647 195.99 10.5661 196.622 11.7165C197.231 10.6338 198.11 9.76542 199.261 9.11131C200.433 8.4572 201.697 8.13014 203.05 8.13014Z" fill="white"/>
<path d="M232.987 17.3666C232.987 18.0433 232.942 18.6523 232.852 19.1936H219.15C219.262 20.547 219.736 21.6071 220.571 22.374C221.405 23.1409 222.431 23.5243 223.649 23.5243C225.409 23.5243 226.661 22.7687 227.405 21.2575H232.514C231.972 23.0619 230.935 24.5506 229.401 25.7235C227.867 26.8738 225.984 27.449 223.751 27.449C221.946 27.449 220.322 27.0542 218.879 26.2648C217.458 25.4528 216.341 24.3137 215.529 22.8476C214.74 21.3815 214.345 19.6899 214.345 17.7726C214.345 15.8329 214.74 14.1299 215.529 12.6638C216.319 11.1977 217.424 10.0699 218.845 9.28047C220.266 8.49103 221.901 8.09631 223.751 8.09631C225.533 8.09631 227.123 8.47975 228.521 9.24664C229.942 10.0135 231.036 11.1075 231.803 12.5285C232.593 13.9269 232.987 15.5396 232.987 17.3666ZM228.082 16.0133C228.059 14.7953 227.619 13.8254 226.762 13.1036C225.905 12.3593 224.856 11.9871 223.616 11.9871C222.443 11.9871 221.45 12.348 220.638 13.0698C219.849 13.769 219.364 14.7502 219.183 16.0133H228.082Z" fill="white"/>
<path d="M247.17 8.13014C249.403 8.13014 251.207 8.84064 252.583 10.2616C253.959 11.6601 254.647 13.6224 254.647 16.1486V27.1445H249.91V16.7915C249.91 15.3028 249.538 14.1638 248.794 13.3743C248.05 12.5623 247.035 12.1563 245.749 12.1563C244.441 12.1563 243.403 12.5623 242.636 13.3743C241.892 14.1638 241.52 15.3028 241.52 16.7915V27.1445H236.783V8.40081H241.52V10.7353C242.151 9.92331 242.952 9.29175 243.922 8.84064C244.914 8.36697 245.997 8.13014 247.17 8.13014Z" fill="white"/>
<path d="M265.005 12.2916V21.359C265.005 21.9905 265.151 22.4529 265.444 22.7461C265.76 23.0168 266.279 23.1521 267.001 23.1521H269.2V27.1445H266.223C262.23 27.1445 260.234 25.2047 260.234 21.3251V12.2916H258.001V8.40081H260.234V3.76564H265.005V8.40081H269.2V12.2916H265.005Z" fill="white"/>
<path d="M300.935 3.52881V27.1445H296.198V17.096H286.082V27.1445H281.345V3.52881H286.082V13.239H296.198V3.52881H300.935Z" fill="white"/>
<path d="M314.258 27.449C312.454 27.449 310.83 27.0542 309.386 26.2648C307.943 25.4528 306.804 24.3137 305.969 22.8476C305.157 21.3815 304.751 19.6899 304.751 17.7726C304.751 15.8554 305.168 14.1638 306.003 12.6976C306.86 11.2315 308.022 10.1038 309.488 9.31431C310.954 8.50231 312.589 8.09631 314.394 8.09631C316.198 8.09631 317.833 8.50231 319.299 9.31431C320.766 10.1038 321.916 11.2315 322.75 12.6976C323.607 14.1638 324.036 15.8554 324.036 17.7726C324.036 19.6899 323.596 21.3815 322.717 22.8476C321.859 24.3137 320.687 25.4528 319.198 26.2648C317.732 27.0542 316.085 27.449 314.258 27.449ZM314.258 23.3213C315.115 23.3213 315.916 23.1183 316.66 22.7123C317.427 22.2837 318.036 21.6522 318.487 20.8176C318.938 19.9831 319.164 18.9681 319.164 17.7726C319.164 15.9908 318.69 14.6261 317.743 13.6788C316.818 12.7089 315.679 12.224 314.326 12.224C312.973 12.224 311.833 12.7089 310.909 13.6788C310.007 14.6261 309.555 15.9908 309.555 17.7726C309.555 19.5545 309.995 20.9304 310.875 21.9003C311.777 22.8476 312.905 23.3213 314.258 23.3213Z" fill="white"/>
<path d="M332.586 2.10781V27.1445H327.849V2.10781H332.586Z" fill="white"/>
<path d="M336.386 17.705C336.386 15.8103 336.758 14.1299 337.502 12.6638C338.269 11.1977 339.307 10.0699 340.615 9.28047C341.923 8.49103 343.378 8.09631 344.979 8.09631C346.197 8.09631 347.359 8.36697 348.464 8.90831C349.569 9.42708 350.449 10.1263 351.103 11.006V2.10781H355.908V27.1445H351.103V24.3701C350.517 25.2949 349.694 26.0392 348.633 26.6031C347.573 27.167 346.344 27.449 344.946 27.449C343.367 27.449 341.923 27.043 340.615 26.231C339.307 25.419 338.269 24.2799 337.502 22.8138C336.758 21.3251 336.386 19.6222 336.386 17.705ZM351.137 17.7726C351.137 16.6223 350.912 15.6411 350.46 14.8291C350.009 13.9946 349.4 13.363 348.633 12.9345C347.867 12.4834 347.043 12.2578 346.164 12.2578C345.284 12.2578 344.472 12.4721 343.728 12.9006C342.983 13.3292 342.374 13.9608 341.901 14.7953C341.449 15.6073 341.224 16.5772 341.224 17.705C341.224 18.8327 341.449 19.8252 341.901 20.6823C342.374 21.5169 342.983 22.1597 343.728 22.6108C344.494 23.0619 345.306 23.2875 346.164 23.2875C347.043 23.2875 347.867 23.0732 348.633 22.6446C349.4 22.1935 350.009 21.562 350.46 20.75C350.912 19.9154 351.137 18.923 351.137 17.7726Z" fill="white"/>
<path d="M363.274 6.16781C362.44 6.16781 361.741 5.90842 361.177 5.38964C360.635 4.84831 360.365 4.18292 360.365 3.39347C360.365 2.60403 360.635 1.94992 361.177 1.43114C361.741 0.889807 362.44 0.619141 363.274 0.619141C364.109 0.619141 364.797 0.889807 365.338 1.43114C365.902 1.94992 366.184 2.60403 366.184 3.39347C366.184 4.18292 365.902 4.84831 365.338 5.38964C364.797 5.90842 364.109 6.16781 363.274 6.16781ZM365.609 8.40081V27.1445H360.872V8.40081H365.609Z" fill="white"/>
<path d="M381.014 8.13014C383.247 8.13014 385.051 8.84064 386.427 10.2616C387.803 11.6601 388.491 13.6224 388.491 16.1486V27.1445H383.754V16.7915C383.754 15.3028 383.382 14.1638 382.638 13.3743C381.893 12.5623 380.878 12.1563 379.593 12.1563C378.285 12.1563 377.247 12.5623 376.48 13.3743C375.736 14.1638 375.364 15.3028 375.364 16.7915V27.1445H370.627V8.40081H375.364V10.7353C375.995 9.92331 376.796 9.29175 377.766 8.84064C378.758 8.36697 379.841 8.13014 381.014 8.13014Z" fill="white"/>
<path d="M400.675 8.09631C402.074 8.09631 403.303 8.37825 404.363 8.94214C405.423 9.48347 406.258 10.194 406.867 11.0736V8.40081H411.637V27.2798C411.637 29.0166 411.288 30.5616 410.589 31.915C409.889 33.2909 408.841 34.3735 407.442 35.163C406.044 35.975 404.352 36.381 402.367 36.381C399.706 36.381 397.518 35.7607 395.803 34.5201C394.112 33.2796 393.153 31.5879 392.928 29.4451H397.63C397.879 30.3022 398.409 30.9789 399.221 31.4751C400.055 31.9939 401.059 32.2533 402.232 32.2533C403.608 32.2533 404.724 31.836 405.581 31.0015C406.438 30.1895 406.867 28.9489 406.867 27.2798V24.3701C406.258 25.2498 405.412 25.9829 404.329 26.5693C403.269 27.1558 402.051 27.449 400.675 27.449C399.097 27.449 397.653 27.043 396.345 26.231C395.037 25.419 393.999 24.2799 393.232 22.8138C392.488 21.3251 392.116 19.6222 392.116 17.705C392.116 15.8103 392.488 14.1299 393.232 12.6638C393.999 11.1977 395.025 10.0699 396.311 9.28047C397.619 8.49103 399.074 8.09631 400.675 8.09631ZM406.867 17.7726C406.867 16.6223 406.641 15.6411 406.19 14.8291C405.739 13.9946 405.13 13.363 404.363 12.9345C403.596 12.4834 402.773 12.2578 401.893 12.2578C401.014 12.2578 400.202 12.4721 399.457 12.9006C398.713 13.3292 398.104 13.9608 397.63 14.7953C397.179 15.6073 396.954 16.5772 396.954 17.705C396.954 18.8327 397.179 19.8252 397.63 20.6823C398.104 21.5169 398.713 22.1597 399.457 22.6108C400.224 23.0619 401.036 23.2875 401.893 23.2875C402.773 23.2875 403.596 23.0732 404.363 22.6446C405.13 22.1935 405.739 21.562 406.19 20.75C406.641 19.9154 406.867 18.923 406.867 17.7726Z" fill="white"/>
<path d="M423.775 27.449C422.241 27.449 420.865 27.1783 419.647 26.637C418.429 26.0731 417.459 25.3175 416.737 24.3701C416.038 23.4228 415.655 22.374 415.587 21.2236H420.357C420.448 21.9454 420.797 22.5431 421.406 23.0168C422.038 23.4905 422.816 23.7273 423.741 23.7273C424.643 23.7273 425.342 23.5469 425.838 23.186C426.357 22.8251 426.617 22.3627 426.617 21.7988C426.617 21.1898 426.301 20.7387 425.669 20.4455C425.06 20.1297 424.079 19.7914 422.726 19.4305C421.327 19.0921 420.177 18.7425 419.275 18.3816C418.395 18.0207 417.628 17.4681 416.974 16.7238C416.343 15.9795 416.027 14.9758 416.027 13.7126C416.027 12.6751 416.32 11.7277 416.906 10.8706C417.515 10.0135 418.373 9.33686 419.478 8.84064C420.606 8.34442 421.925 8.09631 423.436 8.09631C425.669 8.09631 427.451 8.66019 428.782 9.78797C430.113 10.8932 430.846 12.3931 430.981 14.2878H426.447C426.38 13.5435 426.064 12.957 425.5 12.5285C424.959 12.0774 424.226 11.8518 423.301 11.8518C422.444 11.8518 421.778 12.0097 421.305 12.3255C420.854 12.6413 420.628 13.0811 420.628 13.645C420.628 14.2765 420.944 14.7615 421.575 15.0998C422.207 15.4156 423.188 15.7426 424.519 16.081C425.872 16.4193 426.989 16.7689 427.868 17.1298C428.748 17.4907 429.504 18.0546 430.135 18.8215C430.789 19.5658 431.128 20.5583 431.15 21.7988C431.15 22.8815 430.846 23.8514 430.237 24.7085C429.65 25.5656 428.793 26.2423 427.665 26.7385C426.56 27.2121 425.263 27.449 423.775 27.449Z" fill="white"/>
</svg>
