<svg width="191" height="31" viewBox="0 0 191 31" fill="none" xmlns="http://www.w3.org/2000/svg">
<g clip-path="url(#clip0_5373_18177)">
<path fill-rule="evenodd" clip-rule="evenodd" d="M0.410156 7.0316V13.7428H5.76973V7.0316H0.410156ZM5.8049 7.02897H17.8092V1.9787H5.8049V7.02897ZM189.822 10.3444H183.064L176.462 17.3993V1.40039H171.297V29.3119H176.462V24.3001L178.598 22.0641L183.647 29.3119H189.978L182.171 18.3246L189.822 10.3444ZM5.80854 29.3119V18.6716H16.4888V13.7755H5.80496V18.6966H0.410156V29.3119H5.80854ZM31.3768 10.2673C30.9884 10.2287 30.6 10.1902 30.1728 10.1902C28.5417 10.1902 25.9007 10.6528 24.7356 13.1587V10.3444H19.7256V29.3119H24.8909V20.6377C24.8909 16.5512 27.1824 15.279 29.8233 15.279C30.2893 15.279 30.7942 15.3176 31.3768 15.4332V10.2673ZM39.7456 29.8516C35.6677 29.8516 33.1822 27.1144 33.1822 24.1459C33.1822 20.7533 35.7065 18.8643 38.8912 18.4017L43.5905 17.7078C44.678 17.5536 45.0275 17.0139 45.0275 16.3585C45.0275 15.0092 43.9789 13.8912 41.804 13.8912C39.5515 13.8912 38.3086 15.3176 38.1533 16.9753L33.5705 16.0115C33.8812 13.043 36.6386 9.76614 41.7652 9.76614C47.8238 9.76614 50.0763 13.1587 50.0763 16.9753V26.3048C50.0763 27.3072 50.1928 28.6564 50.3093 29.3119H45.5712C45.4547 28.8107 45.377 27.7698 45.377 27.0373C44.4061 28.5408 42.5807 29.8516 39.7456 29.8516ZM38.3475 23.8375C38.3475 24.9555 39.1631 26.035 40.8331 26.035C43.0079 26.035 45.0275 24.9941 45.0275 21.6401V20.7919L40.7166 21.4473C39.3961 21.6401 38.3475 22.3726 38.3475 23.8375ZM58.3469 29.3119V18.2089C58.3469 16.1271 59.6674 14.4695 61.9201 14.4695C64.2502 14.4695 65.2986 16.0115 65.2986 18.0548V29.3119H70.4251V18.2089C70.4251 16.1657 71.7458 14.4695 73.9594 14.4695C76.3286 14.4695 77.338 16.0115 77.338 18.0548V29.3119H82.3485V17.0139C82.3485 11.925 78.9693 9.80467 75.4351 9.80467C72.9109 9.80467 70.8914 10.6528 69.3767 12.9659C68.4057 10.9227 66.3087 9.80467 63.7064 9.80467C61.6094 9.80467 59.1621 10.807 58.1139 12.6575V10.3444H53.1815V29.3119H58.3469ZM113.209 22.5267L117.364 10.3444H122.801L126.919 22.5653L130.452 10.3444H135.579L129.598 29.3119H124.433L119.967 16.3585L115.578 29.3119H110.335L104.237 10.3444H109.675L113.209 22.5267ZM145.455 25.2254C142.931 25.2254 140.601 23.3749 140.601 19.8282C140.601 16.2428 142.931 14.4309 145.455 14.4309C147.98 14.4309 150.31 16.2428 150.31 19.8282C150.31 23.4135 147.98 25.2254 145.455 25.2254ZM145.455 9.76614C139.747 9.76614 135.436 13.9683 135.436 19.8282C135.436 25.6494 139.747 29.8901 145.455 29.8901C151.165 29.8901 155.475 25.6494 155.475 19.8282C155.475 13.9683 151.165 9.76614 145.455 9.76614ZM167.899 10.1902C168.326 10.1902 168.714 10.2287 169.103 10.2673V15.4332C168.52 15.3176 168.015 15.279 167.549 15.279C164.908 15.279 162.617 16.5512 162.617 20.6377V29.3119H157.452V10.3444H162.462V13.1587C163.627 10.6528 166.267 10.1902 167.899 10.1902Z" fill="white"/>
<path d="M89.9091 17.6687C90.0256 15.9339 91.5013 13.9292 94.1811 13.9292C97.1332 13.9292 98.3757 15.7797 98.4532 17.6687H89.9091ZM98.9586 22.6033C98.3373 24.2996 97.0166 25.4947 94.6083 25.4947C92.0451 25.4947 89.9091 23.6828 89.7925 21.1769H103.464C103.464 21.0998 103.541 20.3288 103.541 19.5963C103.541 13.5051 100.007 9.76562 94.1037 9.76562C89.2103 9.76562 84.7051 13.6979 84.7051 19.7505C84.7051 26.15 89.3269 29.8896 94.5699 29.8896C99.2692 29.8896 102.298 27.1524 103.269 23.8755L98.9586 22.6033Z" fill="white"/>
</g>
<defs>
<clipPath id="clip0_5373_18177">
<rect width="190" height="30" fill="white" transform="translate(0.126953 0.5)"/>
</clipPath>
</defs>
</svg>
