<svg width="292" height="45" viewBox="0 0 292 45" fill="none" xmlns="http://www.w3.org/2000/svg">
<path d="M0.130688 44.9717V14.6124H4.51681C3.3517 12.2822 2.35704 10.0598 1.15199 7.95467C0.174629 6.25162 -0.0637178 4.48066 0.0308222 2.59652C0.0614478 1.97868 0.0987319 1.35817 0.0960688 0.740332C0.0960688 0.207713 0.374363 0.0426161 0.845731 0.039953C2.35438 0.0306321 3.86169 -0.00798474 5.373 0.0213093C5.72719 0.0213093 6.09203 0.219707 6.42359 0.384819C9.11731 1.71637 11.803 3.07189 14.6206 4.48333C14.6206 4.0306 14.6206 3.6258 14.6206 3.22101C14.6299 2.42208 14.6632 1.62315 14.6472 0.824221C14.6352 0.250323 14.8882 0.0252916 15.4462 0.0252916C16.9548 0.0252916 18.4634 0 19.9734 0C27.9805 0 35.9871 0.00443524 43.9932 0.0133122C45.1916 0.0133122 45.1517 -0.193076 45.1517 1.23035C45.1517 9.84103 45.1468 18.4548 45.137 27.0717C45.137 32.5856 45.137 38.0996 45.1171 43.6135C45.1091 45.0303 45.3155 44.9584 43.7948 44.9597C29.5117 44.9766 15.2282 44.989 0.944264 44.997C0.693933 45.0077 0.451591 44.9877 0.130688 44.9717ZM29.229 43.7893C29.2584 43.691 29.2789 43.5903 29.2903 43.4884C29.2832 39.3242 29.2765 35.1609 29.2703 30.9985C29.2703 30.4925 28.964 30.5018 28.6045 30.5018C24.6338 30.5018 20.6632 30.5018 16.6925 30.4711C16.0613 30.4711 15.9149 30.6789 15.9149 31.2701C15.9202 35.2337 15.9042 39.1981 15.8669 43.1635C15.8669 43.7174 16.0533 43.8785 16.594 43.8759C20.5886 43.8585 24.5832 43.8665 28.5779 43.8625C28.796 43.8508 29.0134 43.8272 29.229 43.792V43.7893ZM22.6698 29.1569C24.6432 29.1569 26.6152 29.1383 28.5885 29.1689C29.1491 29.1769 29.2929 28.9931 29.2889 28.4499C29.2579 24.5111 29.249 20.5724 29.2623 16.6337C29.2623 16.0132 29.0506 15.8468 28.4461 15.8494C24.502 15.8645 20.5571 15.8552 16.6113 15.8215C16.1013 15.8215 15.9109 15.944 15.9135 16.4752C15.9308 20.4366 15.9375 24.398 15.9135 28.358C15.9135 29.0064 16.1346 29.1942 16.7537 29.1849C18.7244 29.1596 20.6978 29.1769 22.6698 29.1769V29.1569ZM37.2449 15.8334V15.8641C35.205 15.8641 33.1651 15.876 31.1198 15.8561C30.6791 15.8561 30.5366 15.9986 30.5433 16.426C30.5592 17.4912 30.5433 18.5565 30.5433 19.6137C30.5433 22.5578 30.5433 25.5018 30.5313 28.4472C30.5313 28.9079 30.6178 29.1782 31.1864 29.1742C35.245 29.1489 39.3088 29.1476 43.3607 29.1489C43.7482 29.1489 43.9053 29.0384 43.9027 28.6163C43.884 24.564 43.8792 20.5125 43.888 16.4619C43.888 15.9599 43.7136 15.8175 43.2223 15.8228C41.2369 15.8468 39.2409 15.8334 37.2449 15.8334ZM43.9027 43.7813C43.9027 42.5456 43.916 41.3539 43.8907 40.1608C43.8657 39.9439 43.7692 39.7416 43.6164 39.5856C40.9533 36.7112 38.2782 33.8448 35.5912 30.9865C35.3881 30.7632 35.1136 30.6177 34.8149 30.575C33.5752 30.5178 32.3329 30.5297 31.0865 30.5098C30.7323 30.5031 30.5646 30.6283 30.5686 31.0118C30.5805 32.0517 30.5446 33.093 30.5752 34.1316C30.605 34.3894 30.7226 34.6292 30.9081 34.8107C33.7621 37.6895 36.6249 40.5598 39.4966 43.4218C39.6297 43.5549 39.8015 43.7613 39.9586 43.7653C41.2609 43.7933 42.5591 43.7813 43.904 43.7813H43.9027ZM29.1797 13.8028C29.2117 13.7296 29.245 13.691 29.245 13.6524C29.245 9.73362 29.245 5.81487 29.2556 1.89612C29.2556 1.3888 29.008 1.33555 28.5899 1.33555C24.7537 1.34354 20.9162 1.33555 17.08 1.33555C16.9453 1.34841 16.8118 1.37111 16.6805 1.40346L29.1797 13.8028ZM13.4675 43.8173L1.35039 31.6243V43.8173H13.4675ZM31.5885 1.34086L43.8041 13.4713C43.8323 13.3731 43.8502 13.2722 43.8574 13.1704C43.884 9.38476 43.9013 5.59783 43.9333 1.81224C43.9333 1.31024 43.651 1.31691 43.2848 1.31957C40.2462 1.33288 37.2081 1.33997 34.1704 1.34086H31.5885ZM14.6046 28.0238C14.6046 24.1543 14.6046 20.2409 14.6046 16.3274C14.6046 15.8215 14.2984 15.8388 13.9388 15.8388C10.2167 15.8388 6.49416 15.8321 2.77115 15.8188C2.59793 15.84 2.42656 15.8743 2.2585 15.9213L14.6046 28.0238ZM42.7203 14.5658C38.655 10.4913 34.6537 6.47797 30.6032 2.42075C30.58 2.50807 30.564 2.59713 30.5552 2.68706C30.5552 6.45134 30.5552 10.2156 30.5379 13.9813C30.5379 14.4979 30.7057 14.6603 31.229 14.6577C34.8002 14.6337 38.3714 14.6404 41.9426 14.6337C42.1863 14.6364 42.4247 14.5951 42.7203 14.5658ZM2.45158 30.5111L2.3384 30.7228L14.574 42.7187C14.59 42.5004 14.6219 42.2687 14.6219 42.037C14.6219 38.4724 14.6073 34.9079 14.6299 31.3433C14.6299 30.7108 14.4488 30.5004 13.8017 30.5044C10.2758 30.5297 6.74449 30.5138 3.22388 30.5111H2.45158ZM13.5261 29.1662L1.45158 17.0358C1.41642 17.2533 1.39242 17.4724 1.37968 17.6923C1.35438 21.3008 1.34506 24.9079 1.29846 28.5164C1.2918 29.0824 1.52881 29.1822 2.00684 29.1822C4.17993 29.1662 6.35168 29.1689 8.52477 29.1662H13.5261ZM15.9229 2.65777C15.9229 6.49129 15.9308 10.2756 15.9149 14.0611C15.9149 14.6763 16.285 14.6537 16.7018 14.6524C20.1843 14.647 23.6663 14.6426 27.1478 14.639C27.3742 14.639 27.5992 14.6004 27.9015 14.5725L15.9229 2.65777ZM1.2625 2.40877C1.37302 3.60716 1.0428 4.82153 1.61137 5.97066C2.92428 8.6231 4.25716 11.2676 5.53944 13.936C5.78578 14.4473 6.04942 14.6723 6.62598 14.663C8.68589 14.6311 10.7471 14.6444 12.807 14.6351C13.0234 14.6223 13.239 14.5983 13.4528 14.5631C9.38628 10.5046 5.35835 6.48996 1.2665 2.40877H1.2625ZM2.26516 1.3715L14.4755 13.6217C14.5314 13.5126 14.5833 13.4593 14.5833 13.4047C14.5953 11.0079 14.6126 8.62576 14.5833 6.23564C14.5833 6.03723 14.3596 5.75628 14.1652 5.65775C11.8377 4.478 9.45153 3.40344 7.17325 2.13714C5.64729 1.27696 4.06808 1.33022 2.26915 1.3715H2.26516ZM30.5978 36.4285V43.7733H38.0758L30.5978 36.4285ZM37.1557 30.5271L37.0652 30.6842L43.7429 37.816C43.8268 37.6988 43.876 37.6655 43.876 37.6309C43.892 35.3952 43.9133 33.1609 43.9 30.9265C43.9 30.7934 43.6244 30.5524 43.4593 30.5364C42.9546 30.4871 42.442 30.5257 41.932 30.5257L37.1557 30.5271Z" fill="white"/>
<path d="M117.191 9.60938L112.493 10.7825L112.476 11.0022C112.616 11.151 112.772 11.2849 112.94 11.4016C113.288 11.5961 113.648 11.7691 114.018 11.9196C114.692 12.1966 114.957 12.6599 114.95 13.4149C114.911 17.5513 114.892 21.6876 114.872 25.8239C114.865 27.356 114.857 28.8881 114.849 30.4201C114.846 30.7783 114.824 31.1325 114.796 31.4854C114.766 31.8928 114.553 32.1312 114.13 32.1725C113.599 32.2034 113.07 32.2674 112.547 32.3642C112.411 32.3942 112.298 32.5257 112.184 32.6574C112.132 32.7183 112.08 32.7793 112.025 32.8302C112.084 32.8623 112.143 32.9034 112.203 32.9445C112.328 33.0313 112.453 33.1179 112.577 33.1179C116.614 33.1329 120.65 33.1405 124.685 33.1405L125.01 33.1407C125.747 33.1415 126.481 33.1422 127.215 33.1085C127.356 33.1013 127.494 33.0193 127.631 32.9375C127.694 32.8997 127.757 32.8619 127.821 32.8316C127.776 32.7769 127.735 32.7174 127.694 32.6581C127.599 32.5221 127.504 32.3865 127.374 32.3096C127.216 32.219 127.035 32.1791 126.853 32.1392C126.773 32.1215 126.693 32.1039 126.615 32.0819C125.207 31.6878 125.114 31.5653 125.123 30.1006C125.15 26.5134 125.175 22.9262 125.199 19.339V17.4975L120.734 20.4761L121.921 21.0221C122.499 21.2857 123.045 21.5587 123.045 22.3336C123.045 23.2629 123.047 24.1923 123.049 25.1217V25.1227C123.054 26.9829 123.059 28.844 123.045 30.7038C123.037 31.6558 122.571 32.0926 121.62 32.2257C121.324 32.2694 121.031 32.3342 120.739 32.3988C120.497 32.4523 120.255 32.5056 120.014 32.5466C119.915 32.5639 119.801 32.5204 119.693 32.4793C119.66 32.4667 119.627 32.4544 119.596 32.4441C119.521 32.4198 119.447 32.3866 119.373 32.3534C119.232 32.2901 119.091 32.2271 118.949 32.2271C118.745 32.2216 118.559 32.2234 118.391 32.225C117.294 32.2356 116.943 32.239 116.978 30.1605V29.8276C117.05 23.4513 117.121 17.0745 117.191 10.6972V9.60938Z" fill="white"/>
<path d="M76.8724 11.0414H74.5635L74.4023 11.2571C74.4874 11.3227 74.5714 11.3969 74.6556 11.4714C74.8247 11.6208 74.9947 11.771 75.176 11.8537C75.3578 11.9366 75.5677 11.958 75.778 11.9795C75.8819 11.9901 75.9859 12.0007 76.0868 12.0188C77.393 12.2571 77.8031 12.7485 77.8031 14.0534C77.8015 14.7704 77.8006 15.4868 77.7998 16.2033C77.7977 17.8753 77.7957 19.5473 77.7845 21.2251C77.7645 24.4568 77.7432 27.6898 77.6966 30.9214C77.6833 31.8216 77.5155 31.9747 76.6314 32.1505C76.4485 32.1862 76.2624 32.2076 76.0765 32.229C75.7982 32.261 75.5204 32.293 75.2545 32.3728C75.0691 32.427 74.9058 32.559 74.7428 32.6908C74.6694 32.7501 74.5961 32.8094 74.5209 32.8615C74.5997 32.8918 74.6784 32.9295 74.7572 32.9672C74.9312 33.0504 75.1056 33.1339 75.2825 33.1385C75.8361 33.1531 76.3897 33.143 76.9436 33.1328C77.2983 33.1263 77.6531 33.1198 78.0082 33.1198C78.6216 33.1177 79.2351 33.1175 79.8487 33.1173C81.1198 33.1169 82.3912 33.1165 83.6619 33.0985C83.811 33.0958 83.9581 32.9988 84.1051 32.9019C84.1734 32.8569 84.242 32.8118 84.3104 32.7763C84.2601 32.7148 84.213 32.6428 84.1658 32.5706C84.0607 32.4099 83.9553 32.2488 83.8137 32.2037C83.121 31.9796 82.4118 31.81 81.6926 31.6964C80.6952 31.5459 80.5967 31.5007 80.59 30.51C80.5843 29.4714 80.5843 28.4326 80.5843 27.3937C80.5844 25.7982 80.5844 24.2024 80.5634 22.6073C80.5554 21.9468 80.7658 21.7111 81.4316 21.7111C83.5368 21.7231 85.6459 21.7258 87.7498 21.6432C88.562 21.6126 89.0241 21.9215 89.2651 22.6206C89.3746 22.9369 89.4604 23.2618 89.5462 23.5867C89.6295 23.9019 89.7128 24.2172 89.8177 24.5247C89.8562 24.6357 89.9814 24.7176 90.106 24.7992C90.1622 24.8361 90.2184 24.8728 90.2664 24.9122C90.2946 24.8674 90.3301 24.8223 90.3656 24.7772C90.4444 24.6771 90.5234 24.5767 90.5234 24.4794C90.4355 22.246 90.3343 20.013 90.2198 17.7804C90.2125 17.6443 90.1589 17.5106 90.1052 17.3769C90.0802 17.3144 90.0551 17.2519 90.0347 17.1892L89.843 17.2078C89.828 17.2551 89.8125 17.3021 89.7969 17.3491C89.7612 17.4569 89.7257 17.5644 89.6978 17.6739C89.6435 17.8922 89.5911 18.1111 89.5388 18.3301C89.4219 18.8191 89.305 19.3082 89.1652 19.791C88.9535 20.526 88.4755 20.9521 87.6672 20.9521C87.3324 20.9549 86.9974 20.9574 86.6625 20.9599C84.9133 20.9728 83.1636 20.9857 81.4169 21.0427C80.7405 21.064 80.5341 20.8549 80.5341 20.1892C80.5529 18.0416 80.5406 15.893 80.5283 13.7442L80.5235 12.8843C80.5181 11.9362 80.63 11.7778 81.6233 11.7258C82.8683 11.6619 84.1107 11.6153 85.3517 11.6153C86.8563 11.622 88.3623 11.6792 89.8669 11.7405C90.2048 11.7392 90.5338 11.8485 90.8038 12.0516C91.0738 12.2548 91.2699 12.5407 91.3623 12.8656C91.4954 13.2762 91.5936 13.6981 91.6919 14.1203C91.7686 14.4497 91.8455 14.7796 91.9388 15.104C91.9741 15.2269 92.0799 15.3296 92.1859 15.4325C92.236 15.4811 92.2862 15.5298 92.329 15.5807C92.3732 15.5236 92.4321 15.4664 92.4911 15.4092C92.6097 15.294 92.7284 15.1787 92.7284 15.064C92.7304 14.3047 92.6997 13.5454 92.669 12.786C92.6576 12.5054 92.6463 12.2248 92.6366 11.9442L92.6364 11.9381C92.6059 11.02 92.6053 11.0001 91.7045 11.0001C86.76 11.0126 81.816 11.0263 76.8724 11.0414Z" fill="white"/>
<path d="M177.933 11.0479C177.925 11.5406 177.625 11.6471 177.201 11.6764C176.383 11.7104 175.567 11.7909 174.759 11.9174C173.914 12.0745 173.727 12.4034 174.049 13.1717C174.728 14.7936 175.423 16.4089 176.118 18.0241C176.621 19.1935 177.124 20.3631 177.621 21.5352C178.302 23.1398 178.972 24.7484 179.643 26.3569L179.644 26.3606C180.004 27.2228 180.363 28.085 180.724 28.9466C180.782 29.0846 180.849 29.2197 180.915 29.3546L180.916 29.3555C180.95 29.4246 180.984 29.4937 181.017 29.5631L181.217 29.5764C181.333 29.3101 181.452 29.0452 181.572 28.7801C181.819 28.2326 182.066 27.6849 182.282 27.125L182.633 26.1998C183.897 22.8682 185.161 19.5364 186.375 16.1863C186.646 15.4372 186.812 14.6493 186.978 13.8628C187.036 13.5869 187.094 13.3111 187.157 13.0372C187.29 12.458 187.039 12.0892 186.443 11.9893C186.109 11.9311 185.775 11.8783 185.44 11.8255C185.009 11.7574 184.578 11.6893 184.149 11.6098C183.881 11.5439 183.617 11.4598 183.36 11.3581L183.42 11.0918H192.264C192.274 11.1143 192.284 11.1367 192.294 11.1591C192.307 11.191 192.321 11.223 192.335 11.2543C192.116 11.3977 191.887 11.5259 191.651 11.6378C191.48 11.6894 191.302 11.7101 191.125 11.699C189.878 11.7163 189.159 12.3847 188.704 13.5059C187.419 16.6668 186.123 19.8277 184.828 22.9886C183.831 25.4202 182.834 27.8518 181.842 30.2834C181.629 30.7979 181.443 31.3214 181.257 31.8458L181.256 31.8468C181.094 32.3032 180.931 32.7607 180.751 33.2128C180.684 33.377 180.541 33.5111 180.397 33.6459C180.335 33.7035 180.274 33.7612 180.218 33.8214C180.166 33.7612 180.108 33.7035 180.049 33.6459C179.925 33.5224 179.8 33.399 179.735 33.2501C176.945 26.9324 174.163 20.6111 171.387 14.2862C171.336 14.1685 171.277 14.0542 171.218 13.94C171.155 13.818 171.092 13.6956 171.038 13.5698C170.606 12.5565 169.91 11.928 168.759 11.7989L168.686 11.7909C168.223 11.741 167.685 11.683 167.243 11.0559L177.933 11.0479Z" fill="white"/>
<path d="M212.869 20.7519C212.613 20.9073 212.348 21.0677 212.07 21.2331C212.07 21.0636 212.071 20.9012 212.072 20.7443C212.075 20.2686 212.078 19.843 212.052 19.4235C212.045 19.2907 211.992 19.1605 211.938 19.0302C211.914 18.971 211.889 18.9117 211.869 18.8523C211.806 18.887 211.734 18.9165 211.663 18.946C211.509 19.0091 211.356 19.0721 211.287 19.1865C210.552 20.4022 209.592 21.3303 208.225 21.8083C208.099 21.8522 207.995 21.9641 207.893 22.0756C207.846 22.1263 207.799 22.177 207.751 22.2211C207.891 22.3713 208.044 22.5086 208.209 22.6312C208.334 22.7097 208.471 22.7756 208.608 22.8415C208.815 22.9409 209.021 23.0404 209.189 23.1838C209.437 23.3968 209.745 23.727 209.745 24.0107C209.793 26.5113 209.793 29.0133 209.761 31.5153C209.759 31.7257 209.462 32.0519 209.237 32.1251C208.879 32.2427 208.49 32.2732 208.105 32.3035C208.023 32.3099 207.941 32.3163 207.86 32.3235C207.353 32.3675 207.158 32.6032 207.282 33.0865C207.331 33.1145 207.384 33.1352 207.439 33.1478C208.21 33.1478 208.979 33.1492 209.749 33.1507L209.75 33.1507H209.754C211.291 33.1537 212.828 33.1566 214.363 33.1478C214.468 33.1478 214.572 33.0783 214.677 33.0087C214.726 32.9759 214.776 32.943 214.825 32.9174C214.79 32.8735 214.757 32.8221 214.723 32.7708C214.648 32.6539 214.572 32.5369 214.471 32.5073C213.938 32.3598 213.398 32.2416 212.852 32.1531C212.37 32.0692 212.096 31.8562 212.096 31.3235C212.081 30.2501 212.063 29.1777 212.045 28.1051L212.045 28.0832L212.045 28.0718C212.016 26.3681 211.987 24.6639 211.973 22.9548C211.976 22.6506 212.092 22.3583 212.298 22.1345C213.096 21.3849 214.012 20.759 215.114 20.5859C218.098 20.1199 219.795 20.996 219.723 24.2304V24.297C219.747 26.5109 219.772 28.7244 219.799 30.9374C219.809 31.8175 219.599 32.0732 218.713 32.1984C218.546 32.2218 218.376 32.2357 218.207 32.2495C217.933 32.2719 217.659 32.2943 217.395 32.3568C217.246 32.3928 217.122 32.6458 217.05 32.8242C217.033 32.8615 217.262 33.0905 217.379 33.0905C219.556 33.1131 221.731 33.1251 223.904 33.1038C224.054 33.1025 224.321 32.8349 224.321 32.6937C224.319 32.5286 224.113 32.3049 223.938 32.2157C223.792 32.1418 223.615 32.1245 223.439 32.1073C223.367 32.1003 223.295 32.0933 223.226 32.0825C222.161 31.9174 221.93 31.6857 221.895 30.6298C221.884 30.3136 221.892 29.9982 221.9 29.6833C221.907 29.4215 221.913 29.16 221.909 28.8988C221.899 28.297 221.892 27.695 221.885 27.093C221.867 25.4811 221.848 23.869 221.776 22.2597C221.693 20.3862 220.321 19.0839 218.447 18.9215C217.112 18.806 215.773 19.0911 214.6 19.7404C214.032 20.0471 213.474 20.3853 212.869 20.7519Z" fill="white"/>
<path d="M235.693 19.4836H240.324V20.939C240.324 21.7073 240.327 22.4757 240.331 23.2442C240.34 25.2861 240.349 27.3283 240.293 29.3677C240.232 31.5568 242.233 32.5062 243.911 32.1347C245.16 31.859 246.326 31.3744 247.285 30.5062C247.506 30.2959 247.64 30.0111 247.662 29.7073C247.69 27.592 247.695 25.4751 247.701 23.3585C247.702 22.753 247.704 22.1476 247.706 21.5422C247.706 20.8764 247.316 20.5356 246.706 20.4157C246.453 20.3651 246.198 20.324 245.943 20.2828C245.607 20.2287 245.271 20.1745 244.94 20.0988C244.758 20.0569 244.586 19.9649 244.413 19.8731C244.334 19.8308 244.255 19.7886 244.175 19.7513L244.236 19.5169H249.951V20.8285L249.906 29.4596C249.906 29.7472 249.906 30.0362 249.914 30.3224C249.947 31.2812 249.979 31.3158 250.93 31.405C251.092 31.4199 251.254 31.4301 251.417 31.4402C251.675 31.4563 251.932 31.4724 252.188 31.5075C252.259 31.5192 252.326 31.5473 252.384 31.5896C252.442 31.6319 252.489 31.6873 252.522 31.7512C252.517 31.8214 252.494 31.8892 252.455 31.9481C252.416 32.007 252.363 32.0552 252.301 32.0881C251.181 32.4818 250.058 32.8633 248.87 33.2668C248.491 33.3955 248.105 33.5264 247.711 33.6606V31.2572C247.436 31.4146 247.169 31.5676 246.909 31.7169L246.902 31.7207C246.159 32.1469 245.469 32.5428 244.775 32.9256C244.617 33.0126 244.445 33.0774 244.274 33.1422C244.112 33.2032 243.95 33.2642 243.801 33.3437C241.525 34.5301 238.591 33.0388 238.255 29.9882C238.132 28.8634 238.122 27.7229 238.112 26.5863L238.109 26.2785C238.099 25.4197 238.105 24.5609 238.112 23.7021C238.117 22.9897 238.122 22.2772 238.117 21.5648C238.117 20.6328 238.039 20.5582 237.113 20.4384L237.106 20.4373C236.516 20.3578 235.951 20.2817 235.693 19.4836Z" fill="white"/>
<path d="M133.059 21.7534C133.06 21.0078 133.062 20.2565 133.062 19.4962H128.408C128.489 19.5934 128.553 19.6829 128.609 19.7613C128.713 19.9071 128.79 20.0144 128.894 20.0621C129.227 20.2326 129.588 20.3426 129.959 20.387C130.668 20.4349 130.901 20.7838 130.891 21.4615L130.89 21.5709C130.862 23.6157 130.835 25.6617 130.878 27.7065C130.895 28.7004 131.008 29.6904 131.215 30.6625C131.668 32.7198 134.083 34.5333 136.48 33.3855C136.633 33.3123 136.791 33.2487 136.949 33.1851C137.162 33.0996 137.374 33.014 137.574 32.9049C138.244 32.538 138.909 32.1583 139.621 31.7519C139.909 31.5874 140.205 31.4186 140.512 31.2444V33.6931L145.451 31.9009C145.444 31.8263 145.444 31.7517 145.444 31.6772C145.192 31.5862 144.934 31.514 144.672 31.4615C144.318 31.4251 143.962 31.4096 143.606 31.4148C143.011 31.4069 142.706 31.1153 142.696 30.52C142.692 30.3159 142.687 30.1117 142.682 29.9076C142.67 29.4699 142.659 29.0323 142.666 28.5946C142.71 25.7385 142.758 22.8823 142.825 20.0261C142.835 19.5587 142.686 19.4149 142.219 19.4256C141.237 19.4538 140.253 19.4569 139.27 19.46C138.767 19.4616 138.264 19.4632 137.761 19.4682C137.607 19.47 137.454 19.4859 137.3 19.5019C137.223 19.5099 137.147 19.5179 137.07 19.5241L137.002 19.7358C137.058 19.7688 137.115 19.8062 137.171 19.8439C137.307 19.9342 137.445 20.026 137.593 20.0607C138.05 20.1692 138.515 20.2451 138.979 20.3209C139.062 20.3344 139.145 20.3479 139.228 20.3617C140.258 20.5348 140.524 20.7531 140.524 21.8344C140.538 24.4469 140.507 27.0594 140.452 29.6719C140.438 30.0198 140.29 30.3489 140.038 30.5893C138.851 31.5347 137.497 32.1365 135.965 32.2005C134.455 32.263 133.328 31.3416 133.176 29.8463C133.073 28.8179 133.069 27.7793 133.065 26.7428C133.064 26.5393 133.063 26.3359 133.062 26.1326C133.054 24.6788 133.056 23.2274 133.059 21.7534Z" fill="white"/>
<path fill-rule="evenodd" clip-rule="evenodd" d="M102.746 18.8639C107.493 18.5816 112.012 23.4777 109.922 29.0396C109.239 30.8585 107.876 32.1022 106.092 32.8918C103.641 33.9716 101.187 34.0901 98.7966 32.7826C96.3066 31.4231 94.256 28.5909 95.0483 24.6468C95.6688 21.5536 98.2547 19.2301 101.485 18.9278C101.776 18.901 102.068 18.8903 102.36 18.8795C102.489 18.8747 102.618 18.87 102.746 18.8639ZM97.5346 26.8719C97.5722 27.4354 97.6097 27.9985 97.7061 28.5509C97.9724 30.0462 98.525 31.435 99.8365 32.3192C100.443 32.7247 101.132 32.9894 101.853 33.0938C102.575 33.1982 103.311 33.1397 104.007 32.9226C104.703 32.7055 105.342 32.3354 105.876 31.8392C106.41 31.3431 106.827 30.7336 107.095 30.0556C108.195 27.3059 108.064 24.5176 106.727 21.8852C105.095 18.6668 100.602 18.5563 98.6262 21.5976C97.7247 22.989 97.513 24.5123 97.4784 26.1102C97.5007 26.3634 97.5177 26.6178 97.5346 26.8719Z" fill="white"/>
<path fill-rule="evenodd" clip-rule="evenodd" d="M277.505 24.2458H278.747C278.697 24.0523 278.655 23.8793 278.616 23.7197C278.543 23.4239 278.482 23.1735 278.405 22.9236C277.108 18.8051 272.543 17.4243 269.142 20.114C267.051 21.7678 266.236 24.0567 266.133 26.5867C266.024 29.3124 266.967 31.6013 269.497 32.9781C272.152 34.4282 276.451 33.6173 278.441 31.3097C278.58 31.1486 278.673 30.9468 278.766 30.7449C278.81 30.6481 278.854 30.5511 278.904 30.4588L278.719 30.3257C278.541 30.4366 278.365 30.5496 278.188 30.6627C277.814 30.9025 277.439 31.1427 277.052 31.3616C274.096 33.0327 270.808 32.1059 269.253 29.1925C268.585 27.9409 268.372 26.612 268.442 25.2152C268.487 24.3164 268.527 24.2458 269.459 24.2458C271.247 24.2405 273.035 24.2423 274.823 24.244C275.717 24.2449 276.611 24.2458 277.505 24.2458ZM269.021 23.6279C268.954 23.6198 268.888 23.6118 268.823 23.6053C268.867 21.1633 271.474 19.0262 273.774 19.4762C275.197 19.7545 276.471 21.6892 276.158 23.09C276.045 23.6027 275.636 23.6613 275.237 23.6613C273.976 23.6732 272.71 23.6733 271.446 23.6733C270.78 23.6746 270.115 23.6746 269.449 23.6653C269.305 23.6625 269.162 23.6451 269.021 23.6279Z" fill="white"/>
<path fill-rule="evenodd" clip-rule="evenodd" d="M205.28 24.22C205.028 24.2342 204.809 24.2465 204.59 24.2456C203.395 24.2456 202.2 24.2431 201.004 24.2406L201.003 24.2406C199.448 24.2373 197.892 24.2341 196.335 24.2363C195.395 24.2363 195.393 24.2687 195.342 25.1583L195.34 25.1977C195.228 26.7787 195.618 28.3547 196.455 29.701C197.653 31.6344 200.084 32.6304 202.28 32.0046C202.924 31.8202 203.53 31.4962 204.133 31.1735C204.33 31.0676 204.529 30.9615 204.727 30.8608C205.008 30.692 205.275 30.5015 205.526 30.2909L205.731 30.3734C205.71 30.4525 205.694 30.5366 205.679 30.6206C205.646 30.8027 205.613 30.9844 205.513 31.1138C202.769 34.6424 196.927 34.6357 194.288 31.0778C193.107 29.48 192.814 27.6278 193.118 25.701C193.557 22.9274 194.641 20.508 197.431 19.3668C200.697 18.0353 204.106 19.042 205.279 22.8715C205.387 23.1923 205.481 23.5158 205.596 23.9109L205.68 24.199C205.536 24.2056 205.404 24.213 205.28 24.22ZM195.693 23.5945C195.837 23.6219 195.983 23.6406 196.13 23.6504C198.036 23.6655 199.945 23.6757 201.855 23.6811C202.12 23.6983 202.386 23.6681 202.641 23.5918C202.736 23.5517 202.822 23.4922 202.893 23.417C202.964 23.3418 203.019 23.2526 203.054 23.1551C203.425 21.6651 202.17 19.7663 200.657 19.4787C198.364 19.0446 195.767 21.1804 195.693 23.5905V23.5945Z" fill="white"/>
<path d="M258.462 22.4402V18.1379L258.215 18.082C257.997 18.2901 257.794 18.5125 257.606 18.7478C257.005 19.6084 256.174 20.2829 255.209 20.6945C254.82 20.8559 254.442 21.0413 254.077 21.2498C253.963 21.3184 253.868 21.4305 253.774 21.5423C253.731 21.5931 253.689 21.6439 253.644 21.6905C253.691 21.7255 253.736 21.7644 253.781 21.8033C253.882 21.8904 253.983 21.9775 254.1 22.0207C254.493 22.1673 254.896 22.2883 255.306 22.3829C255.976 22.54 256.329 22.8862 256.313 23.6279C256.296 24.4138 256.307 25.2007 256.318 25.9877C256.325 26.4847 256.333 26.9818 256.333 27.4787C256.333 28.0359 256.327 28.5931 256.321 29.1501C256.314 29.8764 256.306 30.6026 256.311 31.3283C256.311 31.8915 256.042 32.1272 255.512 32.1685C255.363 32.1801 255.213 32.1886 255.063 32.1972C254.681 32.219 254.299 32.2409 253.926 32.3136C253.801 32.3382 253.698 32.4792 253.596 32.6199C253.55 32.6845 253.503 32.7491 253.454 32.8023C253.513 32.8363 253.572 32.8799 253.63 32.9233C253.749 33.0125 253.867 33.1005 253.986 33.1005C255.352 33.1197 256.718 33.1184 258.083 33.1172C258.425 33.1168 258.766 33.1165 259.108 33.1165C259.356 33.1165 259.604 33.1169 259.851 33.1173C260.759 33.1186 261.665 33.1199 262.57 33.1032C262.684 33.1014 262.797 33.0327 262.911 32.964C262.962 32.9329 263.013 32.9018 263.065 32.8768C263.027 32.8187 262.993 32.7557 262.959 32.6928C262.883 32.5512 262.806 32.4095 262.688 32.3229C262.571 32.2435 262.387 32.2372 262.215 32.2313L262.175 32.2299C262.153 32.2291 262.131 32.2282 262.11 32.227C261.728 32.2041 261.347 32.1853 260.965 32.1664C260.66 32.1514 260.355 32.1363 260.05 32.1192C258.908 32.0539 258.768 31.9368 258.727 30.7876C258.7 30.0607 258.687 29.3331 258.673 28.6055V28.6037C258.654 27.5608 258.635 26.5179 258.576 25.4774C258.49 23.9781 259.159 22.8197 260.1 21.785C260.317 21.5454 260.813 21.4162 261.151 21.4615C261.607 21.523 262.052 21.6852 262.495 21.8466C262.617 21.8912 262.739 21.9358 262.861 21.9781C263.451 22.1845 263.882 21.9408 264.295 21.5507C264.669 21.1978 264.868 20.7944 264.676 20.303C264.189 19.05 263.338 18.4136 261.982 19.1046C260.704 19.7598 259.792 20.7984 259.053 22.0087C258.986 22.1167 258.915 22.2223 258.843 22.328C258.805 22.3852 258.766 22.4425 258.728 22.5001L258.462 22.4402Z" fill="white"/>
<path d="M290.269 22.5893C289.796 22.7784 289.623 22.5307 289.479 22.1899C289.028 21.0909 288.181 20.2009 287.106 19.6959C286.19 19.2511 285.306 19.355 284.47 19.9422C283.705 20.4748 283.422 21.2631 283.644 22.094C283.81 22.7044 284.16 23.2487 284.647 23.6532C285.092 23.9972 285.621 24.2386 286.151 24.4804C286.413 24.5999 286.675 24.7195 286.928 24.8516C287.156 24.9715 287.388 25.0868 287.621 25.2022C288.243 25.5112 288.866 25.8207 289.422 26.2191C290.8 27.2032 291.25 28.6359 290.954 30.2657C290.671 31.8223 289.644 32.7371 288.206 33.3283C286.368 34.0764 284.587 33.6427 282.812 33.2103C282.72 33.1879 282.628 33.1654 282.536 33.1432C282.27 33.0779 281.982 32.5799 281.932 32.2484C281.812 31.3268 281.74 30.3997 281.716 29.4708C281.71 29.3457 281.761 29.2176 281.813 29.0893C281.837 29.0291 281.861 28.9688 281.88 28.9089C281.93 28.9541 281.987 28.997 282.045 29.0399C282.172 29.1348 282.3 29.2299 282.344 29.3509C282.744 30.5014 283.322 31.5227 284.297 32.2937C285.628 33.3429 287.258 33.3869 288.532 32.3882C289.399 31.7104 289.704 30.56 289.131 29.4588C288.812 28.8334 288.336 28.3013 287.751 27.9142C287.154 27.5447 286.506 27.2609 285.856 26.9768C285.469 26.8072 285.081 26.6376 284.704 26.4495L284.656 26.4257C284.042 26.1191 283.411 25.8045 282.886 25.3723C281.057 23.8663 281.169 21.1113 283.153 19.7984C283.811 19.3603 284.639 19.0101 285.416 18.9555C286.639 18.8703 287.888 19.0168 289.114 19.1659C289.934 19.2644 290.097 19.5561 290.138 20.3643C290.157 20.9157 290.194 21.4663 290.231 22.0146L290.231 22.0162L290.231 22.0199L290.231 22.0228L290.231 22.0256C290.244 22.2138 290.257 22.4018 290.269 22.5893Z" fill="white"/>
<path d="M148.245 29.464C148.131 29.2386 147.997 29.0234 147.846 28.8209L147.55 28.9514C147.572 29.2693 147.592 29.5874 147.612 29.9055C147.669 30.8129 147.726 31.7208 147.824 32.6238C147.847 32.8209 148.144 33.0991 148.357 33.1484L148.534 33.1896C150.391 33.6228 152.224 34.0504 154.16 33.3122C157.141 32.1724 157.923 28.4174 155.462 26.3881C154.899 25.9223 154.227 25.5858 153.556 25.2501C153.292 25.1175 153.027 24.9851 152.77 24.8449C152.491 24.6931 152.202 24.5562 151.914 24.4194C151.359 24.1565 150.805 23.894 150.329 23.528C150.052 23.3222 149.827 23.0545 149.673 22.7463C149.518 22.4381 149.437 22.098 149.437 21.753C149.437 21.4081 149.518 21.0679 149.673 20.7597C149.827 20.4515 150.052 20.1839 150.329 19.9781C151.334 19.2124 152.578 19.2018 153.683 20.1565C154.12 20.5391 154.473 21.0221 154.828 21.506C155.022 21.7715 155.216 22.0374 155.425 22.287C155.515 22.3944 155.651 22.4645 155.787 22.5347C155.851 22.5679 155.915 22.6012 155.975 22.6385C155.989 22.5904 156.006 22.542 156.024 22.4936C156.069 22.3667 156.114 22.2396 156.108 22.1152C156.094 21.8076 156.069 21.5003 156.043 21.193C156.016 20.8606 155.988 20.5278 155.975 20.1951C155.952 19.6479 155.683 19.3136 155.168 19.2058C153.683 18.8968 152.184 18.7211 150.679 19.018C149.889 19.1635 149.163 19.548 148.599 20.1195C148.034 20.6911 147.659 21.422 147.524 22.2137C147.273 23.7716 147.955 25.0952 149.577 25.9514C150.099 26.2273 150.643 26.464 151.186 26.7006C151.862 26.995 152.538 27.2893 153.172 27.6584C153.87 28.0698 154.468 28.6305 154.923 29.3002C155.531 30.203 155.356 31.5159 154.698 32.1378C153.758 33.0259 152.675 33.3455 151.396 32.926C149.681 32.3575 148.874 31.002 148.245 29.464Z" fill="white"/>
<path d="M230.299 15.1699C230.299 15.4771 230.298 15.7842 230.297 16.0913C230.295 16.7056 230.293 17.3199 230.299 17.9342C230.302 18.1746 230.301 18.38 230.3 18.5553C230.296 19.08 230.294 19.335 230.42 19.4526C230.54 19.5639 230.773 19.5523 231.229 19.5296C231.413 19.5204 231.633 19.5095 231.897 19.5041C232.573 19.4908 233.249 19.4952 233.925 19.4997C234.262 19.5019 234.6 19.5041 234.937 19.5041C235.203 20.5693 235.147 20.6506 234.101 20.6838C233.868 20.6911 233.636 20.6986 233.403 20.7061C232.528 20.7344 231.653 20.7626 230.772 20.7784C230.373 20.7784 230.239 20.9502 230.239 21.343V30.1032C230.239 30.1805 230.246 30.2567 230.253 30.3337L230.257 30.3695C230.462 32.8582 231.64 33.2497 233.852 32.3922C234.047 32.3165 234.237 32.2259 234.428 32.1349C234.714 31.9983 235.003 31.8606 235.317 31.7703C235.238 32.5053 234.716 32.8862 234.198 33.0486C233.154 33.3775 232.068 33.6864 230.98 33.733C229.299 33.8049 228.142 32.6758 228.104 30.9994C228.058 29.0573 228.062 27.1146 228.066 25.1712V25.1617C228.067 24.3208 228.069 23.4797 228.066 22.6386C228.066 22.4683 228.061 22.2979 228.056 22.1272C228.047 21.8546 228.039 21.5813 228.052 21.307C228.074 20.829 227.856 20.6825 227.411 20.7211C227.013 20.7566 226.613 20.7672 226.213 20.7531C226.122 20.7531 226.036 20.6942 225.95 20.6352C225.91 20.6077 225.87 20.5802 225.829 20.5587C225.856 20.5149 225.879 20.4612 225.902 20.4071C225.951 20.2968 225.999 20.1847 226.074 20.1526C228.153 19.311 229.004 17.5028 229.713 15.584C229.796 15.4104 229.894 15.2449 230.008 15.09L230.299 15.1699Z" fill="white"/>
<path d="M125.474 11.8712C125.498 11.1774 124.707 10.4105 123.952 10.3971C123.197 10.3838 122.38 11.1255 122.385 11.8192C122.389 12.5796 123.136 13.3319 123.876 13.3226C124.566 13.3146 125.453 12.5103 125.474 11.8712Z" fill="white"/>
</svg>
