<svg width="141" height="27" viewBox="0 0 141 27" fill="none" xmlns="http://www.w3.org/2000/svg">
<path d="M5.01855 5.80295V11.9944H13.4769V15.6484H5.01855V22.0768H14.4919V25.8999H0.248047V2.01361H14.4919V5.80295H5.01855Z" fill="white"/>
<path d="M28.3768 21.8061V25.8999H25.8731C23.7754 25.8999 22.1627 25.3924 21.0349 24.3774C19.9297 23.3624 19.3771 21.6708 19.3771 19.3024V11.1824H16.7719V7.15628H19.3771V2.52111H24.1476V7.15628H28.3429V11.1824H24.1476V19.3701C24.1476 20.2723 24.328 20.9039 24.6889 21.2648C25.0498 21.6257 25.6588 21.8061 26.5159 21.8061H28.3768Z" fill="white"/>
<path d="M43.3129 6.88561C45.4782 6.88561 47.2037 7.59611 48.4894 9.01711C49.775 10.4381 50.4179 12.4343 50.4179 15.0056V25.8999H45.6812V15.5469C45.6812 14.0583 45.2977 12.9079 44.5309 12.0959C43.764 11.2614 42.7151 10.8441 41.3844 10.8441C40.031 10.8441 38.9484 11.2839 38.1364 12.1636C37.3244 13.0433 36.9184 14.3064 36.9184 15.9529V25.8999H32.1479V0.863281H36.9184V10.9118C37.4146 9.64867 38.2266 8.6675 39.3544 7.96828C40.5047 7.2465 41.8242 6.88561 43.3129 6.88561Z" fill="white"/>
<path d="M72.5808 15.8176C72.5808 16.2913 72.5244 16.8326 72.4116 17.4416H58.6753C58.743 19.1107 59.1941 20.34 60.0286 21.1294C60.8632 21.9189 61.9007 22.3136 63.1413 22.3136C64.2465 22.3136 65.16 22.0429 65.8818 21.5016C66.6261 20.9603 67.0998 20.2272 67.3028 19.3024H72.344C72.0958 20.6107 71.5658 21.7836 70.7538 22.8211C69.9418 23.8587 68.893 24.6707 67.6073 25.2571C66.3442 25.8436 64.9345 26.1368 63.3781 26.1368C61.5511 26.1368 59.9271 25.7533 58.5061 24.9864C57.0851 24.197 55.9799 23.0805 55.1905 21.6369C54.401 20.1934 54.0063 18.4904 54.0063 16.5281C54.0063 14.5658 54.401 12.8628 55.1905 11.4193C55.9799 9.95317 57.0851 8.83667 58.5061 8.06978C59.9271 7.30289 61.5511 6.91945 63.3781 6.91945C65.2277 6.91945 66.8404 7.30289 68.2163 8.06978C69.6147 8.83667 70.6861 9.89678 71.4305 11.2501C72.1973 12.5809 72.5808 14.1034 72.5808 15.8176ZM67.7765 15.3439C67.8441 13.8102 67.4381 12.6486 66.5585 11.8591C65.7014 11.0697 64.6412 10.6749 63.3781 10.6749C62.0925 10.6749 61.0098 11.0697 60.1301 11.8591C59.2505 12.6486 58.7655 13.8102 58.6753 15.3439H67.7765Z" fill="white"/>
<path d="M81.0761 10.7426C81.7753 9.54717 82.7001 8.61111 83.8505 7.93445C85.0008 7.23522 86.2865 6.88561 87.7075 6.88561V11.9944H86.3203C82.8242 11.9944 81.0761 13.6184 81.0761 16.8664V25.8999H76.3056V7.15628H81.0761V10.7426Z" fill="white"/>
<path d="M108.313 15.8176C108.313 16.2913 108.257 16.8326 108.144 17.4416H94.4078C94.4754 19.1107 94.9266 20.34 95.7611 21.1294C96.5957 21.9189 97.6332 22.3136 98.8738 22.3136C99.979 22.3136 100.893 22.0429 101.614 21.5016C102.359 20.9603 102.832 20.2272 103.035 19.3024H108.076C107.828 20.6107 107.298 21.7836 106.486 22.8211C105.674 23.8587 104.625 24.6707 103.34 25.2571C102.077 25.8436 100.667 26.1368 99.1106 26.1368C97.2836 26.1368 95.6596 25.7533 94.2386 24.9864C92.8176 24.197 91.7124 23.0805 90.923 21.6369C90.1335 20.1934 89.7388 18.4904 89.7388 16.5281C89.7388 14.5658 90.1335 12.8628 90.923 11.4193C91.7124 9.95317 92.8176 8.83667 94.2386 8.06978C95.6596 7.30289 97.2836 6.91945 99.1106 6.91945C100.96 6.91945 102.573 7.30289 103.949 8.06978C105.347 8.83667 106.419 9.89678 107.163 11.2501C107.93 12.5809 108.313 14.1034 108.313 15.8176ZM103.509 15.3439C103.577 13.8102 103.171 12.6486 102.291 11.8591C101.434 11.0697 100.374 10.6749 99.1106 10.6749C97.825 10.6749 96.7423 11.0697 95.8626 11.8591C94.9829 12.6486 94.498 13.8102 94.4078 15.3439H103.509Z" fill="white"/>
<path d="M119.38 6.91945C120.959 6.91945 122.312 7.29161 123.44 8.03595C124.568 8.78028 125.368 9.784 125.842 11.0471V7.15628H130.579V25.8999H125.842V21.9753C125.368 23.2384 124.568 24.2534 123.44 25.0203C122.312 25.7646 120.959 26.1368 119.38 26.1368C117.801 26.1368 116.38 25.7533 115.117 24.9864C113.854 24.2196 112.861 23.1143 112.14 21.6708C111.44 20.2047 111.091 18.4904 111.091 16.5281C111.091 14.5658 111.44 12.8628 112.14 11.4193C112.861 9.95317 113.854 8.83667 115.117 8.06978C116.38 7.30289 117.801 6.91945 119.38 6.91945ZM120.869 11.0809C119.38 11.0809 118.185 11.5659 117.282 12.5358C116.38 13.5057 115.929 14.8364 115.929 16.5281C115.929 18.2198 116.38 19.5506 117.282 20.5204C118.185 21.4678 119.38 21.9414 120.869 21.9414C122.312 21.9414 123.496 21.4565 124.421 20.4866C125.368 19.4942 125.842 18.1747 125.842 16.5281C125.842 14.859 125.368 13.5395 124.421 12.5696C123.496 11.5772 122.312 11.0809 120.869 11.0809Z" fill="white"/>
<path d="M140.011 0.863281V25.8999H135.24V0.863281H140.011Z" fill="white"/>
</svg>
