<svg width="286" height="45" viewBox="0 0 286 45" fill="none" xmlns="http://www.w3.org/2000/svg">
<path d="M14.7709 28.3725C15.2922 29.5656 16.003 30.6634 16.856 31.6179C15.0079 32.6202 13.1123 33.0974 10.9798 33.0974C4.72456 33.0974 0.222656 28.8975 0.222656 22.168C0.222656 15.3908 4.96151 11.1908 10.9798 11.1908C13.1123 11.1908 14.8183 11.6681 16.5243 12.5749C15.7187 13.5772 15.0553 14.7226 14.5814 15.9635C13.5388 15.534 12.4963 15.3431 11.4063 15.3431C7.71004 15.3431 4.81934 17.7771 4.81934 22.168C4.81934 26.3202 7.61526 28.9929 11.5485 28.9929C12.7332 28.9929 13.7758 28.802 14.7709 28.3725ZM27.3289 11.2385C33.4894 11.2385 37.8965 15.6771 37.8965 22.2157C37.8965 28.7066 33.442 33.1452 27.3289 33.1452C21.2158 33.1452 16.8086 28.7066 16.8086 22.2157C16.8086 15.6771 21.2632 11.2385 27.3289 11.2385ZM27.3289 15.2476C23.9169 15.2476 21.4053 17.9203 21.4053 22.2157C21.4053 26.4157 23.9169 29.1361 27.3289 29.1361C30.8356 29.1361 33.2998 26.4634 33.2998 22.2157C33.2998 17.9203 30.883 15.2476 27.3289 15.2476ZM40.8346 32.6202V11.6681H45.4313V32.6202H40.8346ZM40.2659 5.27269C40.2659 3.64997 41.5928 2.40907 43.1093 2.40907C44.6257 2.40907 45.9526 3.6977 45.9526 5.27269C45.9526 6.94312 44.6257 8.23176 43.1093 8.23176C41.5928 8.23176 40.2659 6.8954 40.2659 5.27269ZM49.4119 13.0044C52.2552 11.859 55.8094 11.1908 58.7949 11.1908C64.0076 11.1908 67.3722 13.2431 67.3722 19.1135V32.5724H62.8229V19.5907C62.8229 16.5839 60.9747 15.4862 58.4157 15.4862C56.8045 15.4862 55.1933 15.7249 53.9612 16.1067V32.6679H49.3645V13.0044H49.4119ZM71.2106 0.5H75.8073V12.2885C76.7551 11.7635 78.6507 11.2385 80.4988 11.2385C86.4224 11.2385 90.8769 15.1044 90.8769 21.8339C90.8769 28.6111 86.4697 33.1452 78.8876 33.1452C75.9495 33.1452 73.3431 32.5247 71.258 31.7611V0.5H71.2106ZM75.7599 28.6588C76.6603 28.9452 77.7977 29.0884 78.935 29.0884C83.1526 29.0884 86.138 26.702 86.138 21.8816C86.138 17.8248 83.2947 15.3908 79.8354 15.3908C78.0346 15.3908 76.6603 15.868 75.7126 16.393V28.6588H75.7599ZM104.003 18.5885C104.003 16.2976 102.345 15.2953 100.07 15.2953C97.7008 15.2953 95.8527 16.0112 94.1467 17.0135V12.909C95.9475 11.859 98.2695 11.1908 100.781 11.1908C105.283 11.1908 108.458 13.0999 108.458 18.3498V32.1906C106.515 32.7156 103.767 33.0497 101.445 33.0497C96.137 33.0497 92.2512 31.3793 92.2512 26.6543C92.2512 22.4066 95.8053 20.3066 101.729 20.3066H104.003V18.5885ZM104.003 23.4566H102.061C98.8855 23.4566 96.8004 24.4112 96.8004 26.5111C96.8004 28.7066 98.7434 29.5179 101.539 29.5179C102.25 29.5179 103.198 29.4225 104.051 29.2793L104.003 23.4566ZM111.823 26.9407C113.718 28.4202 115.993 29.327 118.078 29.327C120.116 29.327 121.442 28.6111 121.442 26.9407C121.442 25.2225 120.258 24.6021 117.604 23.9339C113.339 22.9316 111.538 21.2135 111.538 17.5385C111.538 13.2908 114.666 11.1908 118.836 11.1908C121.158 11.1908 123.006 11.7158 124.712 12.8135V17.1089C122.912 15.7726 121.158 14.9612 118.978 14.9612C116.988 14.9612 115.945 15.9635 115.945 17.3476C115.945 18.7317 116.846 19.4476 119.168 20.068C123.859 21.118 125.85 22.8839 125.85 26.702C125.85 31.0929 122.58 33.0974 118.125 33.0974C115.708 33.0974 113.339 32.4293 111.775 31.3793V26.9407H111.823ZM132.152 23.218V23.3134C132.437 27.0361 135.564 29.0884 138.787 29.0884C141.63 29.0884 143.62 28.4202 145.658 27.0361V31.1406C143.81 32.477 141.061 33.0974 138.455 33.0974C132.057 33.0974 127.745 28.9452 127.745 22.3112C127.745 15.6294 132.01 11.1908 137.649 11.1908C143.62 11.1908 146.416 15.1044 146.416 20.8316V23.218H132.152ZM142.104 20.2112C142.009 16.9658 140.445 15.1521 137.46 15.1521C134.806 15.1521 132.863 17.0612 132.294 20.2112H142.104Z" fill="white"/>
<path d="M163.135 0.5H163.758C164.381 0.5 164.866 0.830475 164.866 1.25537V43.7446C164.866 44.1695 164.381 44.5 163.758 44.5H163.135C162.512 44.5 162.027 44.1695 162.027 43.7446V1.25537C162.027 0.830475 162.581 0.5 163.135 0.5Z" fill="white"/>
<path d="M189.554 32.7701H186.98L179.066 11.8574H181.402L188.362 30.5986L195.323 11.8574H197.563L189.554 32.7701ZM210.101 25.217H198.66V25.2642C198.66 29.0407 201.329 31.2595 204.285 31.2595C206.43 31.2595 207.908 30.693 209.433 29.5128V31.6371C208.099 32.6757 206.144 33.1005 204.285 33.1005C199.899 33.1005 196.562 30.0793 196.562 25.0754C196.562 20.4491 199.661 17.0502 203.761 17.0502C207.574 17.0502 210.101 19.3633 210.101 23.7536V25.217ZM198.803 23.4231H208.051C207.908 20.213 206.192 18.9385 203.665 18.9385C201.329 18.9385 199.422 20.5435 198.803 23.4231ZM212.437 32.7701V18.2304C214.439 17.475 216.727 17.0502 218.777 17.0502C222.591 17.0502 224.927 18.5608 224.927 22.3846V32.7229H222.829V22.8094C222.829 19.6938 220.636 18.9857 218.587 18.9857C217.013 18.9857 215.583 19.2689 214.487 19.5521V32.7229H212.437V32.7701ZM226.214 19.2217V17.4278H228.55V13.6985H230.648V17.4278H234.89V19.2217H230.648V28.5687C230.648 30.5514 231.41 31.3067 232.84 31.3067C233.794 31.3067 234.604 30.9762 235.653 30.4569V32.3452C234.747 32.8173 233.699 33.1005 232.411 33.1005C230.218 33.1005 228.598 31.9204 228.598 28.7575V19.1745H226.214V19.2217ZM249.383 17.4278V32.5813C247.523 32.9117 245.664 33.1005 244.091 33.1005C239.705 33.1005 237.226 31.5899 237.226 27.7661V17.4278H239.324V27.6717C239.324 30.5514 241.564 31.3067 243.996 31.3067C245.044 31.3067 246.236 31.2595 247.333 31.1178V17.475H249.383V17.4278ZM255.008 19.977V32.7701H252.91V18.844C254.484 17.8055 256.438 17.1918 258.536 17.1918C259.346 17.1918 260.204 17.2862 261.062 17.5223V19.5994C260.157 19.2689 259.108 19.2217 258.393 19.2217C256.915 19.1745 255.771 19.5049 255.008 19.977ZM274.553 25.217H263.112V25.2642C263.112 29.0407 265.782 31.2595 268.737 31.2595C270.883 31.2595 272.361 30.693 273.886 29.5128V31.6371C272.551 32.6757 270.597 33.1005 268.737 33.1005C264.352 33.1005 261.015 30.0793 261.015 25.0754C261.015 20.4491 264.113 17.0502 268.213 17.0502C272.027 17.0502 274.553 19.3633 274.553 23.7536V25.217ZM263.255 23.4231H272.504C272.361 20.213 270.644 18.9385 268.118 18.9385C265.734 18.9385 263.827 20.5435 263.255 23.4231ZM276.127 31.8731V29.4656C277.414 30.6458 278.749 31.3067 280.369 31.3067C282.276 31.3067 283.468 30.5514 283.468 28.8519C283.468 27.0108 282.133 26.5388 279.75 25.7363C277.08 24.8393 275.936 23.7064 275.936 21.2516C275.936 18.5608 277.938 17.0974 280.703 17.0974C282.181 17.0974 283.659 17.4278 284.851 18.2776V20.5435C283.659 19.5521 282.467 18.8912 280.703 18.8912C279.035 18.8912 277.986 19.7882 277.986 21.2516C277.986 22.6678 278.796 23.3759 281.132 24.1312C283.754 24.9337 285.518 25.9723 285.518 28.7575C285.518 31.7787 283.182 33.1477 280.369 33.1477C278.701 33.1005 277.08 32.6285 276.127 31.8731Z" fill="white"/>
</svg>
