<svg width="238" height="33" viewBox="0 0 238 33" fill="none" xmlns="http://www.w3.org/2000/svg">
<g clip-path="url(#clip0_5373_18178)">
<g opacity="0.6">
<path d="M156.93 19.4668L161.471 30.8362L166.055 19.4668H167.879L162.386 32.812H160.599L155.086 19.4668H156.93Z" fill="white"/>
<path d="M177.062 31.2745C176.581 31.834 175.966 32.2623 175.274 32.5195C174.553 32.7998 173.785 32.9437 173.011 32.9439C172.356 32.9717 171.702 32.8675 171.088 32.6374C170.473 32.4074 169.912 32.0561 169.436 31.6046C168.547 30.6525 168.065 29.3908 168.092 28.0882C168.119 26.7857 168.654 25.5452 169.582 24.631C170.51 23.7169 171.759 23.2013 173.062 23.1941C174.364 23.1869 175.619 23.6886 176.557 24.5925C177.453 25.5356 177.811 26.9 177.632 28.6857H169.634C169.666 29.0828 169.778 29.4693 169.965 29.8213C170.151 30.1733 170.408 30.4834 170.719 30.7323C171.376 31.2539 172.196 31.5262 173.034 31.5009C173.61 31.4992 174.181 31.3922 174.718 31.1849C175.221 31.0196 175.671 30.7214 176.019 30.322L177.066 31.2651L177.062 31.2745ZM176.147 27.3936C176.152 27.002 176.074 26.6138 175.917 26.2551C175.76 25.8964 175.528 25.5755 175.237 25.314C174.597 24.8002 173.792 24.5385 172.973 24.5783C172.172 24.5672 171.393 24.8375 170.771 25.3423C170.14 25.8446 169.732 26.5744 169.634 27.3747H176.133L176.147 27.3936Z" fill="white"/>
<path d="M180.009 23.3617H181.423L181.499 24.866C181.856 24.3449 182.339 23.922 182.903 23.6361C183.466 23.3502 184.093 23.2104 184.724 23.2297C185.277 23.2068 185.829 23.299 186.344 23.5003C186.86 23.7016 187.328 24.0076 187.719 24.3991C188.114 24.8268 188.419 25.3292 188.616 25.8767C188.814 26.4242 188.9 27.0057 188.869 27.5869V32.7741H187.309V27.5869C187.33 27.1968 187.274 26.8063 187.144 26.438C187.014 26.0697 186.812 25.7309 186.549 25.4413C186.273 25.1745 185.944 24.9676 185.584 24.8337C185.223 24.6998 184.839 24.6418 184.456 24.6632C184.063 24.6555 183.673 24.7324 183.313 24.8886C182.952 25.0449 182.63 25.2768 182.367 25.5686C181.825 26.1589 181.534 26.9368 181.556 27.7378V32.7741H180.009V23.3428V23.3617Z" fill="white"/>
<path d="M194.214 23.3995H197.119V24.734H194.19V29.6948C194.19 30.8989 194.685 31.5009 195.676 31.5009C196.134 31.4915 196.583 31.3735 196.987 31.1567L197.458 32.4535C196.889 32.7346 196.267 32.8952 195.633 32.925C193.659 32.9628 192.67 31.8923 192.667 29.7137V24.734H190.781V23.3995H192.667V20.8153L194.228 20.6455L194.214 23.3995Z" fill="white"/>
<path d="M206.639 32.7743L206.564 31.2747C206.206 31.7436 205.753 32.1314 205.235 32.4128C204.717 32.6941 204.145 32.8626 203.557 32.9071C202.969 32.9517 202.379 32.8713 201.824 32.6712C201.269 32.4711 200.763 32.1559 200.339 31.7463C199.949 31.3172 199.648 30.8148 199.454 30.2684C199.259 29.7219 199.176 29.1423 199.207 28.5632V23.376H200.754V28.5632C200.732 28.9545 200.788 29.3462 200.919 29.7155C201.05 30.0847 201.254 30.4241 201.518 30.7136C202.095 31.2344 202.851 31.5128 203.628 31.4909C204.406 31.4689 205.144 31.1483 205.691 30.5957C206.233 30.0072 206.522 29.2303 206.498 28.4312V23.3807H208.054V32.7743H206.639Z" fill="white"/>
<path d="M212.61 23.3618L212.723 24.7764C213.279 23.7343 214.246 23.2156 215.613 23.2156C216.403 23.1839 217.178 23.4366 217.797 23.9276L217.094 25.2574C216.616 24.9235 216.046 24.7456 215.463 24.7481C214.727 24.7338 214.017 25.012 213.487 25.5215C213.221 25.785 213.013 26.1009 212.875 26.4492C212.738 26.7974 212.675 27.1705 212.69 27.5445V32.7742H211.129V23.3806H212.577L212.61 23.3618Z" fill="white"/>
<path d="M227.637 31.2745C227.156 31.834 226.541 32.2623 225.849 32.5195C225.128 32.7998 224.36 32.9437 223.586 32.9439C222.931 32.9723 222.277 32.8683 221.662 32.6382C221.048 32.4081 220.487 32.0566 220.011 31.6046C219.122 30.6525 218.64 29.3908 218.667 28.0882C218.694 26.7857 219.229 25.5452 220.157 24.631C221.085 23.7169 222.334 23.2013 223.637 23.1941C224.94 23.1869 226.194 23.6886 227.132 24.5925C228.022 25.5356 228.38 26.9 228.207 28.6857H220.195C220.228 29.0826 220.341 29.4687 220.527 29.8205C220.714 30.1724 220.97 30.4826 221.28 30.7323C221.939 31.2531 222.76 31.5253 223.6 31.5009C224.176 31.4981 224.746 31.391 225.284 31.1849C225.786 31.0183 226.236 30.7204 226.585 30.322L227.632 31.2651L227.637 31.2745ZM226.694 27.3936C226.699 27.002 226.621 26.6138 226.464 26.2551C226.307 25.8964 226.075 25.5755 225.783 25.314C225.144 24.8002 224.339 24.5385 223.52 24.5783C222.719 24.5692 221.941 24.8393 221.318 25.3423C220.69 25.8529 220.287 26.5893 220.195 27.3936H226.694Z" fill="white"/>
<path d="M236.595 25.4745C235.863 24.8416 234.916 24.5141 233.949 24.5597C233.369 24.5268 232.791 24.6455 232.271 24.9039C232.074 24.9922 231.908 25.1373 231.795 25.3205C231.682 25.5037 231.626 25.7166 231.634 25.9319C231.634 26.677 232.42 27.1391 233.992 27.3183C234.435 27.3702 234.803 27.4173 235.086 27.4692C235.437 27.539 235.784 27.6319 236.123 27.7474C236.463 27.8486 236.782 28.0082 237.066 28.219C237.321 28.4412 237.531 28.7101 237.684 29.0112C237.865 29.3735 237.949 29.7763 237.929 30.1807C237.94 30.5973 237.84 31.0092 237.639 31.3745C237.439 31.7398 237.145 32.0454 236.788 32.2603C235.949 32.7764 234.976 33.0324 233.992 32.9959C232.128 32.9959 230.729 32.4065 229.795 31.2276L230.686 30.143C231.094 30.6267 231.609 31.0089 232.19 31.2593C232.771 31.5098 233.403 31.6216 234.034 31.586C234.6 31.5977 235.162 31.48 235.675 31.2417C235.896 31.1506 236.083 30.9952 236.214 30.7958C236.344 30.5964 236.411 30.3623 236.406 30.1241C236.421 29.9077 236.367 29.6922 236.253 29.5078C236.139 29.3234 235.97 29.1794 235.77 29.0961C235.17 28.839 234.533 28.6798 233.883 28.6245C233.422 28.5745 232.966 28.4925 232.516 28.3793C232.117 28.269 231.728 28.1222 231.356 27.9408C230.991 27.7688 230.682 27.4975 230.465 27.158C230.219 26.7136 230.115 26.2052 230.164 25.7001C230.214 25.1949 230.416 24.7167 230.743 24.3286C231.125 23.9042 231.613 23.5899 232.158 23.4185C232.738 23.2344 233.345 23.1499 233.954 23.1686C235.266 23.1147 236.548 23.5653 237.538 24.4276L236.647 25.4556L236.595 25.4745Z" fill="white"/>
</g>
<path d="M89.269 0.00390625H78.3523L71.8966 8.78441L65.4834 0.00390625H54.5667L66.4359 16.254L54.3262 32.8341H65.2476L71.8966 23.7235L78.5881 32.8341H89.5048L77.3526 16.254L89.269 0.00390625Z" fill="white"/>
<path d="M47.2856 0.00390625H37.9062V32.8341H47.2856V0.00390625Z" fill="white"/>
<path d="M105.92 0H96.541V32.8302H105.92V0Z" fill="white"/>
<path d="M136.403 17.2215L122.766 0.0282938H115.301V32.8302L124.675 32.8019L124.68 15.6323L138.36 32.8302H145.787V0H136.408L136.403 17.2215Z" fill="white"/>
<path d="M25.5675 15.5891L25.8457 15.4099C26.223 15.16 29.5381 12.8776 29.5381 8.87873C29.5381 3.73869 25.5392 0.00390625 20.0219 0.00390625H0.367188V32.8389H20.8613C26.7417 32.8389 30.8443 29.0145 30.8443 23.5349C30.8443 18.3477 26.3739 15.9899 25.8646 15.7353L25.5675 15.5891ZM9.85976 6.91231H17.5698C19.5268 6.91231 20.7906 8.06292 20.7906 9.84543C20.7906 11.2177 19.9465 12.6748 17.5698 12.6748H9.85976V6.91231ZM17.6311 26.0625H9.86447V19.4936H17.6311C19.838 19.4936 21.2669 20.7857 21.2669 22.7946C21.2669 24.8034 19.772 26.0625 17.6311 26.0625Z" fill="white"/>
</g>
<defs>
<clipPath id="clip0_5373_18178">
<rect width="237.564" height="33" fill="white" transform="translate(0.365234)"/>
</clipPath>
</defs>
</svg>
