<svg width="293" height="45" viewBox="0 0 293 45" fill="none" xmlns="http://www.w3.org/2000/svg">
<path d="M1.11506 44.9717V14.6124H5.50118C4.33608 12.2822 3.34141 10.0598 2.13636 7.95467C1.159 6.25162 0.920657 4.48066 1.0152 2.59652C1.04582 1.97868 1.08311 1.35817 1.08044 0.740332C1.08044 0.207713 1.35874 0.0426161 1.83011 0.039953C3.33875 0.0306321 4.84606 -0.00798474 6.35737 0.0213093C6.71156 0.0213093 7.07641 0.219707 7.40796 0.384819C10.1017 1.71637 12.7874 3.07189 15.605 4.48333C15.605 4.0306 15.605 3.6258 15.605 3.22101C15.6143 2.42208 15.6476 1.62315 15.6316 0.824221C15.6196 0.250323 15.8726 0.0252916 16.4305 0.0252916C17.9392 0.0252916 19.4478 0 20.9578 0C28.9648 0 36.9714 0.00443524 44.9776 0.0133122C46.176 0.0133122 46.136 -0.193076 46.136 1.23035C46.136 9.84103 46.1312 18.4548 46.1214 27.0717C46.1214 32.5856 46.1214 38.0996 46.1014 43.6135C46.0934 45.0303 46.2998 44.9584 44.7792 44.9597C30.4961 44.9766 16.2126 44.989 1.92864 44.997C1.67831 45.0077 1.43597 44.9877 1.11506 44.9717ZM30.2134 43.7893C30.2428 43.691 30.2633 43.5903 30.2746 43.4884C30.2675 39.3242 30.2609 35.1609 30.2547 30.9985C30.2547 30.4925 29.9484 30.5018 29.5889 30.5018C25.6182 30.5018 21.6475 30.5018 17.6769 30.4711C17.0457 30.4711 16.8992 30.6789 16.8992 31.2701C16.9046 35.2337 16.8886 39.1981 16.8513 43.1635C16.8513 43.7174 17.0377 43.8785 17.5783 43.8759C21.573 43.8585 25.5676 43.8665 29.5623 43.8625C29.7804 43.8508 29.9978 43.8272 30.2134 43.792V43.7893ZM23.6542 29.1569C25.6275 29.1569 27.5996 29.1383 29.5729 29.1689C30.1335 29.1769 30.2773 28.9931 30.2733 28.4499C30.2422 24.5111 30.2334 20.5724 30.2467 16.6337C30.2467 16.0132 30.035 15.8468 29.4304 15.8494C25.4864 15.8645 21.5415 15.8552 17.5956 15.8215C17.0857 15.8215 16.8952 15.944 16.8979 16.4752C16.9152 20.4366 16.9219 24.398 16.8979 28.358C16.8979 29.0064 17.1189 29.1942 17.7381 29.1849C19.7088 29.1596 21.6822 29.1769 23.6542 29.1769V29.1569ZM38.2293 15.8334V15.8641C36.1894 15.8641 34.1494 15.876 32.1042 15.8561C31.6634 15.8561 31.521 15.9986 31.5276 16.426C31.5436 17.4912 31.5276 18.5565 31.5276 19.6137C31.5276 22.5578 31.5276 25.5018 31.5156 28.4472C31.5156 28.9079 31.6022 29.1782 32.1708 29.1742C36.2293 29.1489 40.2932 29.1476 44.3451 29.1489C44.7326 29.1489 44.8897 29.0384 44.8871 28.6163C44.8684 24.564 44.8635 20.5125 44.8724 16.4619C44.8724 15.9599 44.698 15.8175 44.2066 15.8228C42.2213 15.8468 40.2253 15.8334 38.2293 15.8334ZM44.8871 43.7813C44.8871 42.5456 44.9004 41.3539 44.8751 40.1608C44.8501 39.9439 44.7536 39.7416 44.6008 39.5856C41.9377 36.7112 39.2626 33.8448 36.5755 30.9865C36.3725 30.7632 36.098 30.6177 35.7992 30.575C34.5596 30.5178 33.3172 30.5297 32.0709 30.5098C31.7167 30.5031 31.5489 30.6283 31.5529 31.0118C31.5649 32.0517 31.529 33.093 31.5596 34.1316C31.5894 34.3894 31.7069 34.6292 31.8925 34.8107C34.7464 37.6895 37.6093 40.5598 40.481 43.4218C40.6141 43.5549 40.7859 43.7613 40.943 43.7653C42.2453 43.7933 43.5435 43.7813 44.8884 43.7813H44.8871ZM30.1641 13.8028C30.1961 13.7296 30.2294 13.691 30.2294 13.6524C30.2294 9.73362 30.2294 5.81487 30.24 1.89612C30.24 1.3888 29.9924 1.33555 29.5742 1.33555C25.7381 1.34354 21.9005 1.33555 18.0643 1.33555C17.9297 1.34841 17.7962 1.37111 17.6649 1.40346L30.1641 13.8028ZM14.4519 43.8173L2.33476 31.6243V43.8173H14.4519ZM32.5729 1.34086L44.7885 13.4713C44.8167 13.3731 44.8346 13.2722 44.8418 13.1704C44.8684 9.38476 44.8857 5.59783 44.9177 1.81224C44.9177 1.31024 44.6354 1.31691 44.2692 1.31957C41.2306 1.33288 38.1925 1.33997 35.1548 1.34086H32.5729ZM15.589 28.0238C15.589 24.1543 15.589 20.2409 15.589 16.3274C15.589 15.8215 15.2827 15.8388 14.9232 15.8388C11.2011 15.8388 7.47853 15.8321 3.75552 15.8188C3.5823 15.84 3.41093 15.8743 3.24288 15.9213L15.589 28.0238ZM43.7046 14.5658C39.6394 10.4913 35.6381 6.47797 31.5875 2.42075C31.5644 2.50807 31.5483 2.59713 31.5396 2.68706C31.5396 6.45134 31.5396 10.2156 31.5223 13.9813C31.5223 14.4979 31.6901 14.6603 32.2134 14.6577C35.7846 14.6337 39.3558 14.6404 42.927 14.6337C43.1707 14.6364 43.409 14.5951 43.7046 14.5658ZM3.43595 30.5111L3.32277 30.7228L15.5584 42.7187C15.5743 42.5004 15.6063 42.2687 15.6063 42.037C15.6063 38.4724 15.5917 34.9079 15.6143 31.3433C15.6143 30.7108 15.4332 30.5004 14.7861 30.5044C11.2601 30.5297 7.72887 30.5138 4.20825 30.5111H3.43595ZM14.5104 29.1662L2.43596 17.0358C2.40079 17.2533 2.37679 17.4724 2.36406 17.6923C2.33876 21.3008 2.32944 24.9079 2.28283 28.5164C2.27617 29.0824 2.51319 29.1822 2.99121 29.1822C5.1643 29.1662 7.33606 29.1689 9.50915 29.1662H14.5104ZM16.9072 2.65777C16.9072 6.49129 16.9152 10.2756 16.8992 14.0611C16.8992 14.6763 17.2694 14.6537 17.6862 14.6524C21.1686 14.647 24.6506 14.6426 28.1322 14.639C28.3585 14.639 28.5836 14.6004 28.8858 14.5725L16.9072 2.65777ZM2.24688 2.40877C2.3574 3.60716 2.02718 4.82153 2.59575 5.97066C3.90865 8.6231 5.24153 11.2676 6.52381 13.936C6.77015 14.4473 7.0338 14.6723 7.61036 14.663C9.67026 14.6311 11.7315 14.6444 13.7914 14.6351C14.0078 14.6223 14.2233 14.5983 14.4372 14.5631C10.3707 10.5046 6.34272 6.48996 2.25087 2.40877H2.24688ZM3.24954 1.3715L15.4598 13.6217C15.5158 13.5126 15.5677 13.4593 15.5677 13.4047C15.5797 11.0079 15.597 8.62576 15.5677 6.23564C15.5677 6.03723 15.344 5.75628 15.1496 5.65775C12.822 4.478 10.4359 3.40344 8.15762 2.13714C6.63167 1.27696 5.05245 1.33022 3.25353 1.3715H3.24954ZM31.5822 36.4285V43.7733H39.0602L31.5822 36.4285ZM38.1401 30.5271L38.0496 30.6842L44.7273 37.816C44.8112 37.6988 44.8604 37.6655 44.8604 37.6309C44.8764 35.3952 44.8977 33.1609 44.8844 30.9265C44.8844 30.7934 44.6088 30.5524 44.4436 30.5364C43.939 30.4871 43.4263 30.5257 42.9164 30.5257L38.1401 30.5271Z" fill="white"/>
<path d="M118.176 9.60938L113.478 10.7825L113.461 11.0022C113.601 11.151 113.756 11.2849 113.924 11.4016C114.273 11.5961 114.633 11.7691 115.002 11.9196C115.676 12.1966 115.941 12.6599 115.935 13.4149C115.896 17.5513 115.876 21.6876 115.856 25.8239C115.849 27.356 115.842 28.8881 115.833 30.4201C115.831 30.7783 115.808 31.1325 115.78 31.4854C115.751 31.8928 115.538 32.1312 115.114 32.1725C114.583 32.2034 114.054 32.2674 113.531 32.3642C113.395 32.3942 113.282 32.5257 113.169 32.6574C113.116 32.7183 113.064 32.7793 113.009 32.8302C113.069 32.8623 113.128 32.9034 113.187 32.9445C113.312 33.0313 113.437 33.1179 113.562 33.1179C117.598 33.1329 121.634 33.1405 125.669 33.1405L125.995 33.1407C126.731 33.1415 127.466 33.1422 128.199 33.1085C128.341 33.1013 128.478 33.0193 128.615 32.9375C128.678 32.8997 128.742 32.8619 128.805 32.8316C128.761 32.7769 128.719 32.7174 128.678 32.6581C128.583 32.5221 128.489 32.3865 128.358 32.3096C128.201 32.219 128.019 32.1791 127.838 32.1392C127.757 32.1215 127.677 32.1039 127.599 32.0819C126.191 31.6878 126.098 31.5653 126.108 30.1006C126.134 26.5134 126.16 22.9262 126.183 19.339V17.4975L121.719 20.4761L122.905 21.0221C123.483 21.2857 124.029 21.5587 124.029 22.3336C124.029 23.2629 124.031 24.1923 124.034 25.1217V25.1227C124.038 26.9829 124.043 28.844 124.029 30.7038C124.021 31.6558 123.555 32.0926 122.604 32.2257C122.309 32.2694 122.015 32.3342 121.723 32.3988C121.481 32.4523 121.24 32.5056 120.998 32.5466C120.9 32.5639 120.785 32.5204 120.677 32.4793C120.644 32.4667 120.612 32.4544 120.58 32.4441C120.506 32.4198 120.432 32.3866 120.358 32.3534C120.216 32.2901 120.076 32.2271 119.933 32.2271C119.729 32.2216 119.544 32.2234 119.376 32.225C118.279 32.2356 117.928 32.239 117.962 30.1605V29.8276C118.034 23.4513 118.105 17.0745 118.176 10.6972V9.60938Z" fill="white"/>
<path d="M77.8567 11.0414H75.5478L75.3867 11.2571C75.4718 11.3227 75.5558 11.3969 75.64 11.4714C75.809 11.6208 75.9791 11.771 76.1603 11.8537C76.3422 11.9366 76.552 11.958 76.7624 11.9795C76.8663 11.9901 76.9703 12.0007 77.0711 12.0188C78.3774 12.2571 78.7875 12.7485 78.7875 14.0534C78.7859 14.7704 78.785 15.4868 78.7841 16.2033C78.7821 17.8753 78.78 19.5473 78.7689 21.2251C78.7489 24.4568 78.7276 27.6898 78.681 30.9214C78.6677 31.8216 78.4999 31.9747 77.6157 32.1505C77.4328 32.1862 77.2468 32.2076 77.0609 32.229C76.7826 32.261 76.5047 32.293 76.2389 32.3728C76.0534 32.427 75.8901 32.559 75.7272 32.6908C75.6538 32.7501 75.5805 32.8094 75.5052 32.8615C75.5841 32.8918 75.6628 32.9295 75.7416 32.9672C75.9156 33.0504 76.09 33.1339 76.2669 33.1385C76.8205 33.1531 77.3741 33.143 77.928 33.1328C78.2827 33.1263 78.6375 33.1198 78.9926 33.1198C79.6059 33.1177 80.2195 33.1175 80.833 33.1173C82.1041 33.1169 83.3756 33.1165 84.6463 33.0985C84.7953 33.0958 84.9425 32.9988 85.0895 32.9019C85.1578 32.8569 85.2263 32.8118 85.2948 32.7763C85.2445 32.7148 85.1973 32.6428 85.1502 32.5706C85.045 32.4099 84.9396 32.2488 84.7981 32.2037C84.1054 31.9796 83.3961 31.81 82.6769 31.6964C81.6796 31.5459 81.5811 31.5007 81.5744 30.51C81.5686 29.4714 81.5687 28.4326 81.5687 27.3937C81.5687 25.7982 81.5688 24.2024 81.5478 22.6073C81.5398 21.9468 81.7502 21.7111 82.416 21.7111C84.5211 21.7231 86.6303 21.7258 88.7342 21.6432C89.5464 21.6126 90.0085 21.9215 90.2495 22.6206C90.359 22.9369 90.4448 23.2618 90.5306 23.5867C90.6139 23.9019 90.6972 24.2172 90.8021 24.5247C90.8406 24.6357 90.9657 24.7176 91.0904 24.7992C91.1466 24.8361 91.2028 24.8728 91.2508 24.9122C91.2789 24.8674 91.3144 24.8223 91.35 24.7772C91.4287 24.6771 91.5078 24.5767 91.5078 24.4794C91.4199 22.246 91.3187 20.013 91.2042 17.7804C91.1969 17.6443 91.1433 17.5106 91.0896 17.3769C91.0645 17.3144 91.0395 17.2519 91.0191 17.1892L90.8274 17.2078C90.8124 17.2551 90.7968 17.3021 90.7813 17.3491C90.7456 17.4569 90.71 17.5644 90.6822 17.6739C90.6278 17.8922 90.5755 18.1111 90.5232 18.3301C90.4063 18.8191 90.2894 19.3082 90.1496 19.791C89.9379 20.526 89.4599 20.9521 88.6516 20.9521C88.3167 20.9549 87.9818 20.9574 87.6469 20.9599C85.8977 20.9728 84.148 20.9857 82.4013 21.0427C81.7249 21.064 81.5185 20.8549 81.5185 20.1892C81.5373 18.0416 81.525 15.893 81.5127 13.7442L81.5078 12.8843C81.5025 11.9362 81.6144 11.7778 82.6077 11.7258C83.8527 11.6619 85.095 11.6153 86.336 11.6153C87.8407 11.622 89.3467 11.6792 90.8513 11.7405C91.1892 11.7392 91.5182 11.8485 91.7882 12.0516C92.0581 12.2548 92.2543 12.5407 92.3466 12.8656C92.4798 13.2762 92.578 13.6981 92.6763 14.1203C92.753 14.4497 92.8299 14.7796 92.9232 15.104C92.9585 15.2269 93.0643 15.3296 93.1703 15.4325C93.2204 15.4811 93.2706 15.5298 93.3134 15.5807C93.3576 15.5236 93.4165 15.4664 93.4755 15.4092C93.5941 15.294 93.7128 15.1787 93.7128 15.064C93.7148 14.3047 93.6841 13.5454 93.6533 12.786C93.642 12.5054 93.6306 12.2248 93.6209 11.9442L93.6207 11.9381C93.5903 11.02 93.5897 11.0001 92.6889 11.0001C87.7444 11.0126 82.8003 11.0263 77.8567 11.0414Z" fill="white"/>
<path d="M178.917 11.0479C178.909 11.5406 178.61 11.6471 178.185 11.6764C177.367 11.7104 176.552 11.7909 175.743 11.9174C174.899 12.0745 174.711 12.4034 175.033 13.1717C175.712 14.7936 176.407 16.4089 177.102 18.0241C177.605 19.1935 178.109 20.3631 178.606 21.5352C179.286 23.1398 179.957 24.7484 180.627 26.3569L180.629 26.3606C180.988 27.2228 181.347 28.085 181.708 28.9466C181.766 29.0846 181.833 29.2197 181.9 29.3546L181.9 29.3555C181.934 29.4246 181.968 29.4937 182.001 29.5631L182.201 29.5764C182.317 29.3101 182.436 29.0452 182.556 28.7801C182.803 28.2326 183.05 27.6849 183.266 27.125L183.617 26.1998C184.881 22.8682 186.146 19.5364 187.359 16.1863C187.63 15.4372 187.796 14.6493 187.962 13.8628C188.02 13.5869 188.078 13.3111 188.141 13.0372C188.274 12.458 188.024 12.0892 187.427 11.9893C187.093 11.9311 186.759 11.8783 186.425 11.8255C185.994 11.7574 185.563 11.6893 185.133 11.6098C184.865 11.5439 184.602 11.4598 184.345 11.3581L184.405 11.0918H193.249C193.259 11.1143 193.268 11.1367 193.278 11.1591C193.292 11.191 193.305 11.223 193.319 11.2543C193.1 11.3977 192.872 11.5259 192.635 11.6378C192.465 11.6894 192.287 11.7101 192.109 11.699C190.863 11.7163 190.144 12.3847 189.688 13.5059C188.404 16.6668 187.108 19.8277 185.812 22.9886C184.815 25.4202 183.819 27.8518 182.827 30.2834C182.613 30.7979 182.427 31.3214 182.241 31.8458L182.241 31.8468C182.078 32.3032 181.916 32.7607 181.735 33.2128C181.669 33.377 181.525 33.5111 181.381 33.6459C181.32 33.7035 181.258 33.7612 181.202 33.8214C181.15 33.7612 181.092 33.7035 181.034 33.6459C180.909 33.5224 180.784 33.399 180.719 33.2501C177.93 26.9324 175.147 20.6111 172.371 14.2862C172.32 14.1685 172.261 14.0542 172.202 13.94C172.139 13.818 172.076 13.6956 172.023 13.5698C171.59 12.5565 170.895 11.928 169.743 11.7989L169.67 11.7909C169.207 11.741 168.669 11.683 168.228 11.0559L178.917 11.0479Z" fill="white"/>
<path d="M213.853 20.7519C213.597 20.9073 213.332 21.0677 213.055 21.2331C213.055 21.0636 213.056 20.9012 213.057 20.7443C213.06 20.2686 213.062 19.843 213.036 19.4235C213.03 19.2907 212.976 19.1605 212.922 19.0302C212.898 18.971 212.874 18.9117 212.854 18.8523C212.79 18.887 212.719 18.9165 212.647 18.946C212.494 19.0091 212.341 19.0721 212.272 19.1865C211.537 20.4022 210.577 21.3303 209.209 21.8083C209.083 21.8522 208.98 21.9641 208.877 22.0756C208.83 22.1263 208.784 22.177 208.735 22.2211C208.875 22.3713 209.028 22.5086 209.193 22.6312C209.318 22.7097 209.455 22.7756 209.592 22.8415C209.799 22.9409 210.006 23.0404 210.173 23.1838C210.421 23.3968 210.73 23.727 210.73 24.0107C210.778 26.5113 210.778 29.0133 210.746 31.5153C210.743 31.7257 210.446 32.0519 210.221 32.1251C209.863 32.2427 209.474 32.2732 209.089 32.3035C209.007 32.3099 208.925 32.3163 208.844 32.3235C208.337 32.3675 208.143 32.6032 208.266 33.0865C208.316 33.1145 208.368 33.1352 208.424 33.1478C209.194 33.1478 209.964 33.1492 210.733 33.1507L210.735 33.1507H210.738C212.276 33.1537 213.812 33.1566 215.348 33.1478C215.453 33.1478 215.557 33.0783 215.661 33.0087C215.711 32.9759 215.76 32.943 215.81 32.9174C215.774 32.8735 215.741 32.8221 215.708 32.7708C215.632 32.6539 215.556 32.5369 215.455 32.5073C214.923 32.3598 214.382 32.2416 213.836 32.1531C213.354 32.0692 213.08 31.8562 213.08 31.3235C213.066 30.2501 213.048 29.1777 213.03 28.1051L213.029 28.0832L213.029 28.0718C213 26.3681 212.971 24.6639 212.958 22.9548C212.961 22.6506 213.076 22.3583 213.282 22.1345C214.08 21.3849 214.996 20.759 216.099 20.5859C219.083 20.1199 220.779 20.996 220.707 24.2304V24.297C220.731 26.5109 220.756 28.7244 220.783 30.9374C220.794 31.8175 220.583 32.0732 219.698 32.1984C219.53 32.2218 219.361 32.2357 219.191 32.2495C218.917 32.2719 218.644 32.2943 218.38 32.3568C218.23 32.3928 218.107 32.6458 218.035 32.8242C218.017 32.8615 218.246 33.0905 218.364 33.0905C220.541 33.1131 222.715 33.1251 224.888 33.1038C225.039 33.1025 225.305 32.8349 225.305 32.6937C225.304 32.5286 225.097 32.3049 224.923 32.2157C224.776 32.1418 224.599 32.1245 224.423 32.1073C224.351 32.1003 224.28 32.0933 224.21 32.0825C223.145 31.9174 222.915 31.6857 222.879 30.6298C222.868 30.3136 222.876 29.9982 222.884 29.6833C222.891 29.4215 222.898 29.16 222.894 28.8988C222.884 28.297 222.877 27.695 222.87 27.093C222.851 25.4811 222.832 23.869 222.76 22.2597C222.678 20.3862 221.305 19.0839 219.432 18.9215C218.096 18.806 216.757 19.0911 215.585 19.7404C215.016 20.0471 214.458 20.3853 213.853 20.7519Z" fill="white"/>
<path d="M236.677 19.4836H241.308V20.939C241.308 21.7073 241.312 22.4757 241.315 23.2442C241.324 25.2861 241.334 27.3283 241.278 29.3677C241.216 31.5568 243.218 32.5062 244.895 32.1347C246.144 31.859 247.311 31.3744 248.27 30.5062C248.49 30.2959 248.624 30.0111 248.646 29.7073C248.674 27.592 248.68 25.4751 248.685 23.3585C248.687 22.753 248.688 22.1476 248.69 21.5422C248.69 20.8764 248.3 20.5356 247.69 20.4157C247.437 20.3651 247.182 20.324 246.927 20.2828C246.591 20.2287 246.255 20.1745 245.925 20.0988C245.742 20.0569 245.57 19.9649 245.398 19.8731C245.318 19.8308 245.239 19.7886 245.159 19.7513L245.22 19.5169H250.935V20.8285L250.89 29.4596C250.89 29.7472 250.89 30.0362 250.898 30.3224C250.931 31.2812 250.963 31.3158 251.914 31.405C252.076 31.4199 252.239 31.4301 252.401 31.4402C252.659 31.4563 252.917 31.4724 253.172 31.5075C253.243 31.5192 253.31 31.5473 253.368 31.5896C253.426 31.6319 253.474 31.6873 253.507 31.7512C253.501 31.8214 253.478 31.8892 253.439 31.9481C253.401 32.007 253.348 32.0552 253.285 32.0881C252.166 32.4818 251.042 32.8633 249.854 33.2668C249.475 33.3955 249.09 33.5264 248.696 33.6606V31.2572C248.42 31.4146 248.153 31.5676 247.893 31.7169L247.886 31.7207C247.144 32.1469 246.453 32.5428 245.76 32.9256C245.601 33.0126 245.43 33.0774 245.258 33.1422C245.096 33.2032 244.935 33.2642 244.785 33.3437C242.509 34.5301 239.576 33.0388 239.239 29.9882C239.117 28.8634 239.107 27.7229 239.097 26.5863L239.094 26.2785C239.084 25.4197 239.09 24.5609 239.096 23.7021C239.101 22.9897 239.106 22.2772 239.102 21.5648C239.102 20.6328 239.023 20.5582 238.098 20.4384L238.09 20.4373C237.5 20.3578 236.936 20.2817 236.677 19.4836Z" fill="white"/>
<path d="M134.044 21.7534C134.045 21.0078 134.046 20.2565 134.046 19.4962H129.392C129.473 19.5934 129.537 19.6829 129.593 19.7613C129.698 19.9071 129.775 20.0144 129.878 20.0621C130.211 20.2326 130.572 20.3426 130.944 20.387C131.652 20.4349 131.885 20.7838 131.876 21.4615L131.874 21.5709C131.847 23.6157 131.819 25.6617 131.862 27.7065C131.879 28.7004 131.992 29.6904 132.199 30.6625C132.652 32.7198 135.068 34.5333 137.464 33.3855C137.617 33.3123 137.775 33.2487 137.933 33.1851C138.146 33.0996 138.359 33.014 138.559 32.9049C139.228 32.538 139.893 32.1583 140.605 31.7519C140.894 31.5874 141.189 31.4186 141.496 31.2444V33.6931L146.435 31.9009C146.428 31.8263 146.428 31.7517 146.428 31.6772C146.177 31.5862 145.918 31.514 145.656 31.4615C145.302 31.4251 144.946 31.4096 144.591 31.4148C143.996 31.4069 143.691 31.1153 143.68 30.52C143.677 30.3159 143.671 30.1117 143.666 29.9076C143.655 29.4699 143.643 29.0323 143.651 28.5946C143.695 25.7385 143.743 22.8823 143.809 20.0261C143.82 19.5587 143.671 19.4149 143.203 19.4256C142.221 19.4538 141.238 19.4569 140.255 19.46C139.751 19.4616 139.248 19.4632 138.745 19.4682C138.592 19.47 138.438 19.4859 138.285 19.5019C138.208 19.5099 138.131 19.5179 138.054 19.5241L137.986 19.7358C138.043 19.7688 138.099 19.8062 138.156 19.8439C138.291 19.9342 138.429 20.026 138.577 20.0607C139.034 20.1692 139.499 20.2451 139.964 20.3209C140.047 20.3344 140.13 20.3479 140.213 20.3617C141.242 20.5348 141.508 20.7531 141.508 21.8344C141.523 24.4469 141.491 27.0594 141.436 29.6719C141.423 30.0198 141.274 30.3489 141.022 30.5893C139.836 31.5347 138.482 32.1365 136.949 32.2005C135.439 32.263 134.313 31.3416 134.161 29.8463C134.057 28.8179 134.053 27.7793 134.049 26.7428C134.049 26.5393 134.048 26.3359 134.046 26.1326C134.038 24.6788 134.041 23.2274 134.044 21.7534Z" fill="white"/>
<path fill-rule="evenodd" clip-rule="evenodd" d="M103.73 18.8639C108.477 18.5816 112.997 23.4777 110.906 29.0396C110.223 30.8585 108.861 32.1022 107.077 32.8918C104.625 33.9716 102.171 34.0901 99.781 32.7826C97.291 31.4231 95.2404 28.5909 96.0327 24.6468C96.6532 21.5536 99.239 19.2301 102.469 18.9278C102.76 18.901 103.053 18.8903 103.344 18.8795C103.473 18.8747 103.602 18.87 103.73 18.8639ZM98.519 26.8719C98.5565 27.4354 98.5941 27.9985 98.6904 28.5509C98.9567 30.0462 99.5093 31.435 100.821 32.3192C101.427 32.7247 102.116 32.9894 102.838 33.0938C103.559 33.1982 104.295 33.1397 104.991 32.9226C105.687 32.7055 106.326 32.3354 106.86 31.8392C107.395 31.3431 107.811 30.7336 108.079 30.0556C109.179 27.3059 109.049 24.5176 107.712 21.8852C106.079 18.6668 101.587 18.5563 99.6105 21.5976C98.7091 22.989 98.4974 24.5123 98.4627 26.1102C98.4851 26.3634 98.502 26.6178 98.519 26.8719Z" fill="white"/>
<path fill-rule="evenodd" clip-rule="evenodd" d="M278.489 24.2458H279.731C279.681 24.0523 279.639 23.8793 279.6 23.7197C279.527 23.4239 279.466 23.1735 279.389 22.9236C278.092 18.8051 273.528 17.4243 270.127 20.114C268.035 21.7678 267.22 24.0567 267.118 26.5867C267.008 29.3124 267.951 31.6013 270.481 32.9781C273.136 34.4282 277.436 33.6173 279.425 31.3097C279.565 31.1486 279.657 30.9468 279.75 30.7449C279.794 30.6481 279.839 30.5511 279.888 30.4588L279.703 30.3257C279.526 30.4366 279.349 30.5496 279.173 30.6627C278.798 30.9025 278.423 31.1427 278.036 31.3616C275.08 33.0327 271.793 32.1059 270.237 29.1925C269.569 27.9409 269.356 26.612 269.426 25.2152C269.472 24.3164 269.512 24.2458 270.444 24.2458C272.232 24.2405 274.019 24.2423 275.807 24.244C276.701 24.2449 277.595 24.2458 278.489 24.2458ZM270.005 23.6279C269.939 23.6198 269.873 23.6118 269.807 23.6053C269.851 21.1633 272.458 19.0262 274.758 19.4762C276.181 19.7545 277.456 21.6892 277.143 23.09C277.03 23.6027 276.621 23.6613 276.221 23.6613C274.96 23.6732 273.694 23.6733 272.43 23.6733C271.765 23.6746 271.099 23.6746 270.433 23.6653C270.289 23.6625 270.146 23.6451 270.005 23.6279Z" fill="white"/>
<path fill-rule="evenodd" clip-rule="evenodd" d="M206.265 24.22C206.012 24.2342 205.794 24.2465 205.575 24.2456C204.379 24.2456 203.184 24.2431 201.989 24.2406L201.987 24.2406C200.432 24.2373 198.876 24.2341 197.319 24.2363C196.379 24.2363 196.378 24.2687 196.327 25.1583L196.324 25.1977C196.212 26.7787 196.602 28.3547 197.439 29.701C198.637 31.6344 201.069 32.6304 203.264 32.0046C203.909 31.8202 204.514 31.4962 205.117 31.1735C205.315 31.0676 205.513 30.9615 205.712 30.8608C205.993 30.692 206.26 30.5015 206.511 30.2909L206.716 30.3734C206.694 30.4525 206.679 30.5366 206.664 30.6206C206.631 30.8027 206.598 30.9844 206.497 31.1138C203.753 34.6424 197.912 34.6357 195.273 31.0778C194.091 29.48 193.799 27.6278 194.102 25.701C194.541 22.9274 195.625 20.508 198.415 19.3668C201.681 18.0353 205.09 19.042 206.263 22.8715C206.371 23.1923 206.465 23.5158 206.58 23.9109L206.664 24.199C206.52 24.2056 206.388 24.213 206.265 24.22ZM196.677 23.5945C196.822 23.6219 196.967 23.6406 197.114 23.6504C199.021 23.6655 200.929 23.6757 202.84 23.6811C203.105 23.6983 203.371 23.6681 203.625 23.5918C203.721 23.5517 203.807 23.4922 203.878 23.417C203.949 23.3418 204.003 23.2526 204.038 23.1551C204.41 21.6651 203.154 19.7663 201.641 19.4787C199.348 19.0446 196.752 21.1804 196.677 23.5905V23.5945Z" fill="white"/>
<path d="M259.446 22.4402V18.1379L259.2 18.082C258.982 18.2901 258.778 18.5125 258.59 18.7478C257.989 19.6084 257.159 20.2829 256.193 20.6945C255.805 20.8559 255.427 21.0413 255.061 21.2498C254.947 21.3184 254.853 21.4305 254.759 21.5423C254.716 21.5931 254.673 21.6439 254.629 21.6905C254.675 21.7255 254.72 21.7644 254.765 21.8033C254.866 21.8904 254.967 21.9775 255.084 22.0207C255.478 22.1673 255.881 22.2883 256.29 22.3829C256.96 22.54 257.313 22.8862 257.297 23.6279C257.28 24.4138 257.291 25.2007 257.303 25.9877C257.31 26.4847 257.317 26.9818 257.317 27.4787C257.317 28.0359 257.311 28.5931 257.305 29.1501C257.298 29.8764 257.29 30.6026 257.296 31.3283C257.296 31.8915 257.027 32.1272 256.497 32.1685C256.348 32.1801 256.198 32.1886 256.048 32.1972C255.665 32.219 255.283 32.2409 254.911 32.3136C254.785 32.3382 254.683 32.4792 254.581 32.6199C254.534 32.6845 254.487 32.7491 254.438 32.8023C254.497 32.8363 254.556 32.8799 254.614 32.9233C254.734 33.0125 254.852 33.1005 254.971 33.1005C256.336 33.1197 257.702 33.1184 259.068 33.1172C259.409 33.1168 259.751 33.1165 260.092 33.1165C260.34 33.1165 260.588 33.1169 260.836 33.1173C261.744 33.1186 262.649 33.1199 263.554 33.1032C263.668 33.1014 263.782 33.0327 263.895 32.964C263.946 32.9329 263.998 32.9018 264.049 32.8768C264.012 32.8187 263.978 32.7557 263.944 32.6928C263.867 32.5512 263.79 32.4095 263.672 32.3229C263.556 32.2435 263.371 32.2372 263.199 32.2313L263.159 32.2299C263.137 32.2291 263.116 32.2282 263.095 32.227C262.713 32.2041 262.331 32.1853 261.949 32.1664C261.645 32.1514 261.34 32.1363 261.035 32.1192C259.892 32.0539 259.752 31.9368 259.711 30.7876C259.684 30.0607 259.671 29.3331 259.658 28.6055V28.6037C259.639 27.5608 259.619 26.5179 259.561 25.4774C259.474 23.9781 260.144 22.8197 261.084 21.785C261.301 21.5454 261.798 21.4162 262.136 21.4615C262.592 21.523 263.036 21.6852 263.479 21.8466C263.601 21.8912 263.723 21.9358 263.846 21.9781C264.435 22.1845 264.867 21.9408 265.28 21.5507C265.654 21.1978 265.852 20.7944 265.66 20.303C265.173 19.05 264.322 18.4136 262.967 19.1046C261.688 19.7598 260.776 20.7984 260.037 22.0087C259.971 22.1167 259.899 22.2223 259.828 22.328C259.789 22.3852 259.75 22.4425 259.712 22.5001L259.446 22.4402Z" fill="white"/>
<path d="M291.253 22.5893C290.78 22.7784 290.607 22.5307 290.463 22.1899C290.012 21.0909 289.166 20.2009 288.09 19.6959C287.174 19.2511 286.29 19.355 285.454 19.9422C284.69 20.4748 284.406 21.2631 284.628 22.094C284.795 22.7044 285.145 23.2487 285.631 23.6532C286.077 23.9972 286.606 24.2386 287.136 24.4804C287.398 24.5999 287.66 24.7195 287.912 24.8516C288.141 24.9715 288.373 25.0868 288.605 25.2022C289.227 25.5112 289.851 25.8207 290.406 26.2191C291.784 27.2032 292.234 28.6359 291.939 30.2657C291.655 31.8223 290.628 32.7371 289.19 33.3283C287.352 34.0764 285.572 33.6427 283.797 33.2103C283.705 33.1879 283.613 33.1654 283.521 33.1432C283.254 33.0779 282.967 32.5799 282.916 32.2484C282.797 31.3268 282.725 30.3997 282.7 29.4708C282.694 29.3457 282.746 29.2176 282.797 29.0893C282.822 29.0291 282.846 28.9688 282.864 28.9089C282.914 28.9541 282.971 28.997 283.029 29.0399C283.156 29.1348 283.284 29.2299 283.329 29.3509C283.728 30.5014 284.306 31.5227 285.281 32.2937C286.612 33.3429 288.242 33.3869 289.517 32.3882C290.383 31.7104 290.688 30.56 290.116 29.4588C289.796 28.8334 289.321 28.3013 288.735 27.9142C288.139 27.5447 287.49 27.2609 286.841 26.9768C286.453 26.8072 286.065 26.6376 285.688 26.4495L285.641 26.4257C285.026 26.1191 284.395 25.8045 283.871 25.3723C282.041 23.8663 282.153 21.1113 284.137 19.7984C284.795 19.3603 285.623 19.0101 286.401 18.9555C287.623 18.8703 288.872 19.0168 290.098 19.1659C290.919 19.2644 291.081 19.5561 291.122 20.3643C291.141 20.9157 291.178 21.4663 291.215 22.0146L291.215 22.0162L291.215 22.0199L291.216 22.0228L291.216 22.0256C291.228 22.2138 291.241 22.4018 291.253 22.5893Z" fill="white"/>
<path d="M149.23 29.464C149.115 29.2386 148.982 29.0234 148.83 28.8209L148.535 28.9514C148.556 29.2693 148.576 29.5874 148.596 29.9055C148.653 30.8129 148.71 31.7208 148.809 32.6238C148.831 32.8209 149.128 33.0991 149.341 33.1484L149.518 33.1896C151.375 33.6228 153.208 34.0504 155.144 33.3122C158.126 32.1724 158.907 28.4174 156.447 26.3881C155.883 25.9223 155.211 25.5858 154.541 25.2501C154.276 25.1175 154.012 24.9851 153.754 24.8449C153.476 24.6931 153.187 24.5562 152.898 24.4194C152.343 24.1565 151.789 23.894 151.313 23.528C151.037 23.3222 150.812 23.0545 150.657 22.7463C150.502 22.4381 150.421 22.098 150.421 21.753C150.421 21.4081 150.502 21.0679 150.657 20.7597C150.812 20.4515 151.037 20.1839 151.313 19.9781C152.319 19.2124 153.562 19.2018 154.668 20.1565C155.104 20.5391 155.458 21.0221 155.812 21.506C156.006 21.7715 156.201 22.0374 156.409 22.287C156.5 22.3944 156.635 22.4645 156.771 22.5347C156.835 22.5679 156.9 22.6012 156.959 22.6385C156.974 22.5904 156.991 22.542 157.008 22.4936C157.053 22.3667 157.098 22.2396 157.092 22.1152C157.078 21.8076 157.053 21.5003 157.027 21.193C157 20.8606 156.972 20.5278 156.959 20.1951C156.937 19.6479 156.668 19.3136 156.152 19.2058C154.668 18.8968 153.168 18.7211 151.664 19.018C150.874 19.1635 150.148 19.548 149.583 20.1195C149.019 20.6911 148.643 21.422 148.508 22.2137C148.258 23.7716 148.939 25.0952 150.561 25.9514C151.084 26.2273 151.627 26.464 152.171 26.7006C152.847 26.995 153.522 27.2893 154.156 27.6584C154.854 28.0698 155.452 28.6305 155.907 29.3002C156.516 30.203 156.34 31.5159 155.682 32.1378C154.742 33.0259 153.66 33.3455 152.38 32.926C150.665 32.3575 149.858 31.002 149.23 29.464Z" fill="white"/>
<path d="M231.284 15.1699C231.284 15.4771 231.283 15.7842 231.282 16.0913C231.28 16.7056 231.277 17.3199 231.284 17.9342C231.287 18.1746 231.285 18.38 231.284 18.5553C231.28 19.08 231.278 19.335 231.405 19.4526C231.524 19.5639 231.758 19.5523 232.213 19.5296C232.397 19.5204 232.618 19.5095 232.882 19.5041C233.557 19.4908 234.234 19.4952 234.909 19.4997C235.247 19.5019 235.584 19.5041 235.921 19.5041C236.188 20.5693 236.132 20.6506 235.085 20.6838C234.853 20.6911 234.62 20.6986 234.388 20.7061C233.512 20.7344 232.637 20.7626 231.756 20.7784C231.357 20.7784 231.224 20.9502 231.224 21.343V30.1032C231.224 30.1805 231.231 30.2567 231.238 30.3337L231.241 30.3695C231.446 32.8582 232.625 33.2497 234.836 32.3922C235.032 32.3165 235.222 32.2259 235.412 32.1349C235.698 31.9983 235.987 31.8606 236.301 31.7703C236.222 32.5053 235.7 32.8862 235.182 33.0486C234.139 33.3775 233.052 33.6864 231.964 33.733C230.284 33.8049 229.127 32.6758 229.088 30.9994C229.042 29.0573 229.046 27.1146 229.05 25.1712V25.1617C229.051 24.3208 229.053 23.4797 229.051 22.6386C229.051 22.4683 229.045 22.2979 229.04 22.1272C229.031 21.8546 229.023 21.5813 229.036 21.307C229.059 20.829 228.84 20.6825 228.396 20.7211C227.997 20.7566 227.597 20.7672 227.197 20.7531C227.106 20.7531 227.02 20.6942 226.934 20.6352C226.894 20.6077 226.854 20.5802 226.814 20.5587C226.84 20.5149 226.863 20.4612 226.887 20.4071C226.935 20.2968 226.984 20.1847 227.059 20.1526C229.137 19.311 229.988 17.5028 230.698 15.584C230.78 15.4104 230.879 15.2449 230.992 15.09L231.284 15.1699Z" fill="white"/>
<path d="M126.459 11.8712C126.483 11.1774 125.692 10.4105 124.937 10.3971C124.182 10.3838 123.364 11.1255 123.369 11.8192C123.373 12.5796 124.12 13.3319 124.861 13.3226C125.55 13.3146 126.437 12.5103 126.459 11.8712Z" fill="white"/>
</svg>
