<svg width="238" height="33" viewBox="0 0 238 33" fill="none" xmlns="http://www.w3.org/2000/svg">
<g clip-path="url(#clip0_5373_18178)">
<g opacity="0.6">
<path d="M156.729 19.4668L161.27 30.8362L165.853 19.4668H167.678L162.185 32.812H160.397L154.885 19.4668H156.729Z" fill="white"/>
<path d="M176.86 31.2745C176.379 31.834 175.765 32.2623 175.073 32.5195C174.351 32.7998 173.584 32.9437 172.81 32.9439C172.154 32.9717 171.5 32.8675 170.886 32.6374C170.272 32.4074 169.711 32.0561 169.235 31.6046C168.346 30.6525 167.863 29.3908 167.891 28.0882C167.918 26.7857 168.452 25.5452 169.381 24.631C170.309 23.7169 171.558 23.2013 172.86 23.1941C174.163 23.1869 175.417 23.6886 176.356 24.5925C177.252 25.5356 177.61 26.9 177.431 28.6857H169.433C169.465 29.0828 169.577 29.4693 169.763 29.8213C169.95 30.1733 170.207 30.4834 170.518 30.7323C171.175 31.2539 171.995 31.5262 172.833 31.5009C173.409 31.4992 173.98 31.3922 174.517 31.1849C175.02 31.0196 175.47 30.7214 175.818 30.322L176.865 31.2651L176.86 31.2745ZM175.946 27.3936C175.951 27.002 175.873 26.6138 175.716 26.2551C175.559 25.8964 175.327 25.5755 175.035 25.314C174.396 24.8002 173.591 24.5385 172.772 24.5783C171.971 24.5672 171.192 24.8375 170.57 25.3423C169.939 25.8446 169.531 26.5744 169.433 27.3747H175.931L175.946 27.3936Z" fill="white"/>
<path d="M179.808 23.3617H181.222L181.298 24.866C181.655 24.3449 182.138 23.922 182.702 23.6361C183.265 23.3502 183.892 23.2104 184.523 23.2297C185.076 23.2068 185.628 23.299 186.143 23.5003C186.659 23.7016 187.127 24.0076 187.518 24.3991C187.912 24.8268 188.218 25.3292 188.415 25.8767C188.613 26.4242 188.699 27.0057 188.668 27.5869V32.7741H187.107V27.5869C187.129 27.1968 187.073 26.8063 186.943 26.438C186.813 26.0697 186.61 25.7309 186.348 25.4413C186.072 25.1745 185.743 24.9676 185.383 24.8337C185.022 24.6998 184.638 24.6418 184.254 24.6632C183.862 24.6555 183.472 24.7324 183.111 24.8886C182.751 25.0449 182.428 25.2768 182.165 25.5686C181.624 26.1589 181.333 26.9368 181.354 27.7378V32.7741H179.808V23.3428V23.3617Z" fill="white"/>
<path d="M194.013 23.3995H196.917V24.734H193.989V29.6948C193.989 30.8989 194.484 31.5009 195.474 31.5009C195.932 31.4915 196.382 31.3735 196.785 31.1567L197.257 32.4535C196.688 32.7346 196.066 32.8952 195.432 32.925C193.458 32.9628 192.469 31.8923 192.466 29.7137V24.734H190.58V23.3995H192.466V20.8153L194.027 20.6455L194.013 23.3995Z" fill="white"/>
<path d="M206.438 32.7743L206.363 31.2747C206.005 31.7436 205.552 32.1314 205.034 32.4128C204.516 32.6941 203.944 32.8626 203.356 32.9071C202.768 32.9517 202.177 32.8713 201.623 32.6712C201.068 32.4711 200.562 32.1559 200.138 31.7463C199.748 31.3172 199.447 30.8148 199.253 30.2684C199.058 29.7219 198.975 29.1423 199.006 28.5632V23.376H200.553V28.5632C200.531 28.9545 200.587 29.3462 200.718 29.7155C200.849 30.0847 201.053 30.4241 201.317 30.7136C201.894 31.2344 202.65 31.5128 203.427 31.4909C204.204 31.4689 204.943 31.1483 205.49 30.5957C206.031 30.0072 206.321 29.2303 206.297 28.4312V23.3807H207.853V32.7743H206.438Z" fill="white"/>
<path d="M212.408 23.3618L212.522 24.7764C213.078 23.7343 214.045 23.2156 215.412 23.2156C216.202 23.1839 216.977 23.4366 217.596 23.9276L216.893 25.2574C216.415 24.9235 215.845 24.7456 215.261 24.7481C214.526 24.7338 213.816 25.012 213.286 25.5215C213.02 25.785 212.811 26.1009 212.674 26.4492C212.537 26.7974 212.474 27.1705 212.489 27.5445V32.7742H210.928V23.3806H212.375L212.408 23.3618Z" fill="white"/>
<path d="M227.435 31.2745C226.955 31.834 226.34 32.2623 225.648 32.5195C224.927 32.7998 224.159 32.9437 223.385 32.9439C222.73 32.9723 222.075 32.8683 221.461 32.6382C220.847 32.4081 220.286 32.0566 219.81 31.6046C218.921 30.6525 218.439 29.3908 218.466 28.0882C218.493 26.7857 219.028 25.5452 219.956 24.631C220.884 23.7169 222.133 23.2013 223.436 23.1941C224.738 23.1869 225.993 23.6886 226.931 24.5925C227.821 25.5356 228.179 26.9 228.006 28.6857H219.994C220.027 29.0826 220.139 29.4687 220.326 29.8205C220.512 30.1724 220.769 30.4826 221.079 30.7323C221.738 31.2531 222.559 31.5253 223.399 31.5009C223.975 31.4981 224.545 31.391 225.082 31.1849C225.585 31.0183 226.035 30.7204 226.384 30.322L227.431 31.2651L227.435 31.2745ZM226.492 27.3936C226.498 27.002 226.42 26.6138 226.263 26.2551C226.106 25.8964 225.874 25.5755 225.582 25.314C224.943 24.8002 224.138 24.5385 223.319 24.5783C222.518 24.5692 221.739 24.8393 221.117 25.3423C220.488 25.8529 220.086 26.5893 219.994 27.3936H226.492Z" fill="white"/>
<path d="M236.394 25.4745C235.662 24.8416 234.715 24.5141 233.748 24.5597C233.168 24.5268 232.59 24.6455 232.07 24.9039C231.873 24.9922 231.707 25.1373 231.594 25.3205C231.48 25.5037 231.424 25.7166 231.433 25.9319C231.433 26.677 232.219 27.1391 233.791 27.3183C234.234 27.3702 234.602 27.4173 234.885 27.4692C235.236 27.539 235.583 27.6319 235.922 27.7474C236.262 27.8486 236.581 28.0082 236.865 28.219C237.12 28.4412 237.33 28.7101 237.483 29.0112C237.664 29.3735 237.748 29.7763 237.728 30.1807C237.739 30.5973 237.639 31.0092 237.438 31.3745C237.238 31.7398 236.944 32.0454 236.587 32.2603C235.748 32.7764 234.775 33.0324 233.791 32.9959C231.926 32.9959 230.528 32.4065 229.594 31.2276L230.485 30.143C230.893 30.6267 231.408 31.0089 231.989 31.2593C232.57 31.5098 233.201 31.6216 233.833 31.586C234.399 31.5977 234.961 31.48 235.474 31.2417C235.694 31.1506 235.882 30.9952 236.012 30.7958C236.143 30.5964 236.21 30.3623 236.205 30.1241C236.22 29.9077 236.166 29.6922 236.052 29.5078C235.938 29.3234 235.769 29.1794 235.569 29.0961C234.969 28.839 234.332 28.6798 233.682 28.6245C233.221 28.5745 232.764 28.4925 232.315 28.3793C231.915 28.269 231.527 28.1222 231.155 27.9408C230.79 27.7688 230.481 27.4975 230.263 27.158C230.018 26.7136 229.913 26.2052 229.963 25.7001C230.013 25.1949 230.214 24.7167 230.542 24.3286C230.923 23.9042 231.412 23.5899 231.956 23.4185C232.537 23.2344 233.144 23.1499 233.753 23.1686C235.065 23.1147 236.347 23.5653 237.337 24.4276L236.446 25.4556L236.394 25.4745Z" fill="white"/>
</g>
<path d="M89.0678 0.00390625H78.1511L71.6954 8.78441L65.2822 0.00390625H54.3655L66.2347 16.254L54.125 32.8341H65.0464L71.6954 23.7235L78.3869 32.8341H89.3036L77.1514 16.254L89.0678 0.00390625Z" fill="white"/>
<path d="M47.0845 0.00390625H37.7051V32.8341H47.0845V0.00390625Z" fill="white"/>
<path d="M105.719 0H96.3398V32.8302H105.719V0Z" fill="white"/>
<path d="M136.202 17.2215L122.564 0.0282938H115.1V32.8302L124.474 32.8019L124.479 15.6323L138.159 32.8302H145.586V0H136.207L136.202 17.2215Z" fill="white"/>
<path d="M25.3664 15.5891L25.6446 15.4099C26.0218 15.16 29.3369 12.8776 29.3369 8.87873C29.3369 3.73869 25.3381 0.00390625 19.8208 0.00390625H0.166016V32.8389H20.6602C26.5405 32.8389 30.6432 29.0145 30.6432 23.5349C30.6432 18.3477 26.1727 15.9899 25.6634 15.7353L25.3664 15.5891ZM9.65858 6.91231H17.3686C19.3256 6.91231 20.5894 8.06292 20.5894 9.84543C20.5894 11.2177 19.7453 12.6748 17.3686 12.6748H9.65858V6.91231ZM17.4299 26.0625H9.6633V19.4936H17.4299C19.6369 19.4936 21.0657 20.7857 21.0657 22.7946C21.0657 24.8034 19.5708 26.0625 17.4299 26.0625Z" fill="white"/>
</g>
<defs>
<clipPath id="clip0_5373_18178">
<rect width="237.564" height="33" fill="white" transform="translate(0.164062)"/>
</clipPath>
</defs>
</svg>
