<svg width="216" height="33" viewBox="0 0 216 33" fill="none" xmlns="http://www.w3.org/2000/svg">
<path d="M1.39857 25.7535C1.17301 25.7535 0.970012 25.6746 0.789568 25.5167C0.631679 25.3362 0.552734 25.1332 0.552734 24.9077V2.94986C0.552734 2.70175 0.631679 2.49875 0.789568 2.34086C0.947457 2.16041 1.15046 2.07019 1.39857 2.07019H10.7027C13.6801 2.07019 16.0033 2.74686 17.6724 4.10019C19.3641 5.45353 20.2099 7.35947 20.2099 9.81803C20.2099 11.3969 19.8377 12.739 19.0934 13.8442C18.3716 14.9494 17.3679 15.8065 16.0822 16.4155L20.6497 24.6709C20.7174 24.8062 20.7512 24.9302 20.7512 25.043C20.7512 25.2235 20.6836 25.3926 20.5482 25.5505C20.4129 25.6859 20.2437 25.7535 20.0407 25.7535H15.2702C14.6161 25.7535 14.1537 25.449 13.8831 24.84L10.1614 17.4982H6.9134V24.9077C6.9134 25.1558 6.82318 25.3588 6.64273 25.5167C6.48485 25.6746 6.28185 25.7535 6.03373 25.7535H1.39857ZM10.6689 12.5247C11.6388 12.5247 12.3718 12.2879 12.8681 11.8142C13.3868 11.318 13.6462 10.6413 13.6462 9.78419C13.6462 8.92708 13.3868 8.23914 12.8681 7.72036C12.3718 7.20158 11.6388 6.94219 10.6689 6.94219H6.9134V12.5247H10.6689Z" fill="white"/>
<path d="M24.8895 5.72419C24.6414 5.72419 24.4384 5.64525 24.2805 5.48736C24.1226 5.30691 24.0436 5.09264 24.0436 4.84453V1.69803C24.0436 1.44991 24.1226 1.24691 24.2805 1.08903C24.4609 0.908582 24.6639 0.818359 24.8895 0.818359H29.1186C29.3667 0.818359 29.5697 0.908582 29.7276 1.08903C29.9081 1.24691 29.9983 1.44991 29.9983 1.69803V4.84453C29.9983 5.09264 29.9081 5.30691 29.7276 5.48736C29.5697 5.64525 29.3667 5.72419 29.1186 5.72419H24.8895ZM24.8895 25.7535C24.6639 25.7535 24.4609 25.6746 24.2805 25.5167C24.1226 25.3362 24.0436 25.1332 24.0436 24.9077V9.00603C24.0436 8.75791 24.1226 8.55491 24.2805 8.39703C24.4609 8.23914 24.6639 8.16019 24.8895 8.16019H29.1186C29.3667 8.16019 29.5697 8.23914 29.7276 8.39703C29.9081 8.55491 29.9983 8.75791 29.9983 9.00603V24.9077C29.9983 25.1558 29.9081 25.3588 29.7276 25.5167C29.5697 25.6746 29.3667 25.7535 29.1186 25.7535H24.8895Z" fill="white"/>
<path d="M45.1908 26.0919C42.9127 26.0919 41.1646 25.3475 39.9466 23.8589V24.9077C39.9466 25.1332 39.8677 25.3362 39.7098 25.5167C39.5519 25.6746 39.3489 25.7535 39.1008 25.7535H35.0746C34.8265 25.7535 34.6122 25.6746 34.4318 25.5167C34.2739 25.3588 34.195 25.1558 34.195 24.9077V2.57769C34.195 2.32958 34.2739 2.12658 34.4318 1.96869C34.6122 1.8108 34.8265 1.73186 35.0746 1.73186H39.4391C39.6872 1.73186 39.8902 1.8108 40.0481 1.96869C40.206 2.12658 40.285 2.32958 40.285 2.57769V9.78419C41.5255 8.47597 43.1608 7.82186 45.1908 7.82186C47.3561 7.82186 49.0703 8.53236 50.3335 9.95336C51.5966 11.3518 52.2732 13.2803 52.3635 15.7389C52.386 16.0321 52.3973 16.4381 52.3973 16.9569C52.3973 17.4531 52.386 17.8478 52.3635 18.141C52.2732 20.6898 51.5966 22.6521 50.3335 24.028C49.0929 25.4039 47.3787 26.0919 45.1908 26.0919ZM43.2285 21.389C44.2435 21.389 44.9652 21.0958 45.3938 20.5094C45.8449 19.9004 46.1043 19.0658 46.172 18.0057C46.1945 17.7801 46.2058 17.4305 46.2058 16.9569C46.2058 16.4832 46.1945 16.1336 46.172 15.908C46.1043 14.8479 45.8449 14.0246 45.3938 13.4382C44.9652 12.8292 44.2435 12.5247 43.2285 12.5247C42.2811 12.5247 41.5593 12.8179 41.0631 13.4044C40.5895 13.9682 40.3301 14.69 40.285 15.5697C40.2624 15.8629 40.2511 16.2802 40.2511 16.8215C40.2511 17.3629 40.2624 17.7914 40.285 18.1072C40.3301 19.0545 40.5895 19.844 41.0631 20.4755C41.5368 21.0845 42.2586 21.389 43.2285 21.389Z" fill="white"/>
<path d="M66.9723 26.0919C64.6942 26.0919 62.9461 25.3475 61.7281 23.8589V24.9077C61.7281 25.1332 61.6492 25.3362 61.4913 25.5167C61.3334 25.6746 61.1304 25.7535 60.8823 25.7535H56.8562C56.608 25.7535 56.3938 25.6746 56.2133 25.5167C56.0554 25.3588 55.9765 25.1558 55.9765 24.9077V2.57769C55.9765 2.32958 56.0554 2.12658 56.2133 1.96869C56.3938 1.8108 56.608 1.73186 56.8562 1.73186H61.2206C61.4688 1.73186 61.6718 1.8108 61.8297 1.96869C61.9875 2.12658 62.0665 2.32958 62.0665 2.57769V9.78419C63.307 8.47597 64.9423 7.82186 66.9723 7.82186C69.1376 7.82186 70.8519 8.53236 72.115 9.95336C73.3781 11.3518 74.0548 13.2803 74.145 15.7389C74.1675 16.0321 74.1788 16.4381 74.1788 16.9569C74.1788 17.4531 74.1675 17.8478 74.145 18.141C74.0548 20.6898 73.3781 22.6521 72.115 24.028C70.8744 25.4039 69.1602 26.0919 66.9723 26.0919ZM65.01 21.389C66.025 21.389 66.7468 21.0958 67.1753 20.5094C67.6264 19.9004 67.8858 19.0658 67.9535 18.0057C67.976 17.7801 67.9873 17.4305 67.9873 16.9569C67.9873 16.4832 67.976 16.1336 67.9535 15.908C67.8858 14.8479 67.6264 14.0246 67.1753 13.4382C66.7468 12.8292 66.025 12.5247 65.01 12.5247C64.0627 12.5247 63.3409 12.8179 62.8447 13.4044C62.371 13.9682 62.1116 14.69 62.0665 15.5697C62.0439 15.8629 62.0326 16.2802 62.0326 16.8215C62.0326 17.3629 62.0439 17.7914 62.0665 18.1072C62.1116 19.0545 62.371 19.844 62.8447 20.4755C63.3183 21.0845 64.0401 21.389 65.01 21.389Z" fill="white"/>
<path d="M78.6038 5.72419C78.3557 5.72419 78.1527 5.64525 77.9949 5.48736C77.837 5.30691 77.758 5.09264 77.758 4.84453V1.69803C77.758 1.44991 77.837 1.24691 77.9949 1.08903C78.1753 0.908582 78.3783 0.818359 78.6038 0.818359H82.833C83.0811 0.818359 83.2841 0.908582 83.442 1.08903C83.6225 1.24691 83.7127 1.44991 83.7127 1.69803V4.84453C83.7127 5.09264 83.6225 5.30691 83.442 5.48736C83.2841 5.64525 83.0811 5.72419 82.833 5.72419H78.6038ZM78.6038 25.7535C78.3783 25.7535 78.1753 25.6746 77.9949 25.5167C77.837 25.3362 77.758 25.1332 77.758 24.9077V9.00603C77.758 8.75791 77.837 8.55491 77.9949 8.39703C78.1753 8.23914 78.3783 8.16019 78.6038 8.16019H82.833C83.0811 8.16019 83.2841 8.23914 83.442 8.39703C83.6225 8.55491 83.7127 8.75791 83.7127 9.00603V24.9077C83.7127 25.1558 83.6225 25.3588 83.442 25.5167C83.2841 25.6746 83.0811 25.7535 82.833 25.7535H78.6038Z" fill="white"/>
<path d="M97.1458 25.7535C92.3641 25.7535 89.9732 23.5092 89.9732 19.0207V12.7615H87.3003C87.0748 12.7615 86.8718 12.6826 86.6913 12.5247C86.5334 12.3442 86.4545 12.1412 86.4545 11.9157V9.00603C86.4545 8.75791 86.5334 8.55491 86.6913 8.39703C86.8718 8.23914 87.0748 8.16019 87.3003 8.16019H89.9732V2.57769C89.9732 2.32958 90.0521 2.12658 90.21 1.96869C90.3904 1.8108 90.5934 1.73186 90.819 1.73186H94.9805C95.2286 1.73186 95.4316 1.8108 95.5895 1.96869C95.7474 2.12658 95.8263 2.32958 95.8263 2.57769V8.16019H100.055C100.304 8.16019 100.507 8.23914 100.664 8.39703C100.845 8.55491 100.935 8.75791 100.935 9.00603V11.9157C100.935 12.1638 100.845 12.3668 100.664 12.5247C100.507 12.6826 100.304 12.7615 100.055 12.7615H95.8263V18.5132C95.8263 19.3026 95.9729 19.9004 96.2662 20.3064C96.5594 20.7124 97.033 20.9154 97.6872 20.9154H100.36C100.608 20.9154 100.811 21.0056 100.969 21.186C101.127 21.3439 101.206 21.5469 101.206 21.795V24.9077C101.206 25.1332 101.127 25.3362 100.969 25.5167C100.811 25.6746 100.608 25.7535 100.36 25.7535H97.1458Z" fill="white"/>
<path d="M121.828 26.0924C118.896 26.0924 116.696 25.2691 115.23 23.6226C113.764 21.9535 112.975 19.7205 112.862 16.9236C112.839 16.3146 112.828 15.3221 112.828 13.9463C112.828 12.5478 112.839 11.5328 112.862 10.9013C112.975 8.10437 113.764 5.88264 115.23 4.23609C116.696 2.56698 118.896 1.73242 121.828 1.73242C123.835 1.73242 125.504 2.10459 126.835 2.84892C128.166 3.5707 129.147 4.49548 129.779 5.62325C130.433 6.72848 130.794 7.86753 130.861 9.04042V9.10809C130.861 9.28853 130.794 9.43514 130.658 9.54792C130.523 9.6607 130.354 9.71709 130.151 9.71709H129.474C129.068 9.71709 128.82 9.48025 128.73 9.00659C128.301 7.08937 127.523 5.73603 126.395 4.94659C125.268 4.15714 123.745 3.76242 121.828 3.76242C119.708 3.76242 118.061 4.36014 116.888 5.55559C115.715 6.75103 115.084 8.58931 114.993 11.0704C114.971 11.6794 114.96 12.6155 114.96 13.8786C114.96 15.1417 114.971 16.1003 114.993 16.7544C115.084 19.2355 115.715 21.0738 116.888 22.2693C118.061 23.4647 119.708 24.0624 121.828 24.0624C123.745 24.0624 125.268 23.6677 126.395 22.8783C127.523 22.0888 128.301 20.7355 128.73 18.8183C128.82 18.3446 129.068 18.1078 129.474 18.1078H130.151C130.354 18.1078 130.523 18.1754 130.658 18.3108C130.816 18.4235 130.884 18.5814 130.861 18.7844C130.794 19.9573 130.433 21.1076 129.779 22.2354C129.147 23.3406 128.166 24.2654 126.835 25.0098C125.504 25.7315 123.835 26.0924 121.828 26.0924Z" fill="white"/>
<path d="M140.482 26.0924C139.4 26.0924 138.396 25.8669 137.471 25.4158C136.546 24.9646 135.802 24.3556 135.238 23.5888C134.697 22.8219 134.426 21.976 134.426 21.0513C134.426 19.5626 135.024 18.3446 136.219 17.3973C137.437 16.4499 139.073 15.8409 141.125 15.5703L146.471 14.8259V13.6418C146.471 12.4012 146.087 11.4539 145.321 10.7998C144.576 10.1231 143.426 9.78475 141.87 9.78475C140.719 9.78475 139.772 10.0103 139.028 10.4614C138.306 10.9125 137.843 11.4539 137.64 12.0854C137.55 12.3561 137.437 12.5478 137.302 12.6606C137.189 12.7508 137.031 12.7959 136.828 12.7959H136.355C136.152 12.7959 135.971 12.7283 135.813 12.5929C135.678 12.435 135.61 12.2546 135.61 12.0516C135.61 11.5554 135.836 10.9802 136.287 10.3261C136.738 9.64942 137.437 9.06298 138.385 8.56675C139.332 8.07053 140.494 7.82242 141.87 7.82242C144.283 7.82242 145.997 8.39759 147.012 9.54792C148.027 10.6983 148.535 12.0967 148.535 13.7433V25.0098C148.535 25.2353 148.467 25.4158 148.332 25.5511C148.196 25.6864 148.016 25.7541 147.79 25.7541H147.215C146.99 25.7541 146.809 25.6864 146.674 25.5511C146.539 25.4158 146.471 25.2353 146.471 25.0098V23.4196C145.975 24.1639 145.242 24.7955 144.272 25.3143C143.324 25.833 142.061 26.0924 140.482 26.0924ZM140.821 24.1301C142.467 24.1301 143.821 23.5888 144.881 22.5061C145.941 21.4234 146.471 19.8671 146.471 17.8371V16.6868L142.106 17.2958C140.257 17.5439 138.858 17.9724 137.911 18.5814C136.964 19.1904 136.49 19.9573 136.49 20.8821C136.49 21.9196 136.919 22.7204 137.776 23.2843C138.655 23.8481 139.67 24.1301 140.821 24.1301Z" fill="white"/>
<path d="M155.001 32.1824C154.776 32.1824 154.595 32.1148 154.46 31.9794C154.325 31.8441 154.257 31.6636 154.257 31.4381V8.90509C154.257 8.67953 154.325 8.49909 154.46 8.36376C154.595 8.22842 154.776 8.16075 155.001 8.16075H155.577C155.802 8.16075 155.983 8.22842 156.118 8.36376C156.253 8.49909 156.321 8.67953 156.321 8.90509V10.4953C157.629 8.71336 159.524 7.82242 162.005 7.82242C164.441 7.82242 166.234 8.60059 167.384 10.1569C168.557 11.6907 169.178 13.5854 169.245 15.8409C169.268 16.0665 169.279 16.4386 169.279 16.9574C169.279 17.4762 169.268 17.8484 169.245 18.0739C169.178 20.3295 168.557 22.2354 167.384 23.7918C166.234 25.3255 164.441 26.0924 162.005 26.0924C159.546 26.0924 157.652 25.2015 156.321 23.4196V31.4381C156.321 31.6636 156.253 31.8441 156.118 31.9794C155.983 32.1148 155.802 32.1824 155.577 32.1824H155.001ZM161.802 24.1301C163.629 24.1301 164.96 23.5549 165.794 22.4046C166.651 21.2317 167.114 19.7318 167.181 17.9048C167.204 17.6792 167.215 17.3634 167.215 16.9574C167.215 14.8598 166.809 13.1455 165.997 11.8148C165.185 10.4614 163.787 9.78475 161.802 9.78475C160.02 9.78475 158.678 10.3825 157.776 11.5779C156.873 12.7508 156.389 14.138 156.321 15.7394L156.287 17.0589L156.321 18.3784C156.343 19.3483 156.558 20.2731 156.964 21.1528C157.37 22.0099 157.979 22.7204 158.791 23.2843C159.603 23.8481 160.606 24.1301 161.802 24.1301Z" fill="white"/>
<path d="M174.593 4.54059C174.367 4.54059 174.187 4.47292 174.051 4.33759C173.916 4.20225 173.848 4.02181 173.848 3.79625V2.51059C173.848 2.28503 173.916 2.10459 174.051 1.96926C174.187 1.81137 174.367 1.73242 174.593 1.73242H175.878C176.104 1.73242 176.284 1.81137 176.42 1.96926C176.578 2.10459 176.657 2.28503 176.657 2.51059V3.79625C176.657 4.02181 176.578 4.20225 176.42 4.33759C176.284 4.47292 176.104 4.54059 175.878 4.54059H174.593ZM174.965 25.7541C174.739 25.7541 174.559 25.6864 174.424 25.5511C174.288 25.4158 174.221 25.2353 174.221 25.0098V8.90509C174.221 8.67953 174.288 8.49909 174.424 8.36376C174.559 8.22842 174.739 8.16075 174.965 8.16075H175.54C175.766 8.16075 175.946 8.22842 176.081 8.36376C176.217 8.49909 176.284 8.67953 176.284 8.90509V25.0098C176.284 25.2353 176.217 25.4158 176.081 25.5511C175.946 25.6864 175.766 25.7541 175.54 25.7541H174.965Z" fill="white"/>
<path d="M188.013 25.7541C186.344 25.7541 185.16 25.2579 184.46 24.2654C183.761 23.2504 183.412 21.8633 183.412 20.1039V10.1231H180.773C180.547 10.1231 180.367 10.0554 180.231 9.92009C180.096 9.78475 180.028 9.60431 180.028 9.37875V8.90509C180.028 8.67953 180.096 8.49909 180.231 8.36376C180.367 8.22842 180.547 8.16075 180.773 8.16075H183.412V2.47676C183.412 2.2512 183.479 2.07076 183.615 1.93542C183.75 1.80009 183.93 1.73242 184.156 1.73242H184.731C184.957 1.73242 185.137 1.80009 185.272 1.93542C185.408 2.07076 185.475 2.2512 185.475 2.47676V8.16075H189.671C189.896 8.16075 190.077 8.22842 190.212 8.36376C190.347 8.49909 190.415 8.67953 190.415 8.90509V9.37875C190.415 9.60431 190.347 9.78475 190.212 9.92009C190.077 10.0554 189.896 10.1231 189.671 10.1231H185.475V19.9686C185.475 21.2317 185.678 22.1903 186.084 22.8444C186.513 23.476 187.212 23.7918 188.182 23.7918H190.009C190.235 23.7918 190.415 23.8594 190.55 23.9948C190.686 24.1301 190.753 24.3105 190.753 24.5361V25.0098C190.753 25.2353 190.686 25.4158 190.55 25.5511C190.415 25.6864 190.235 25.7541 190.009 25.7541H188.013Z" fill="white"/>
<path d="M199.326 26.0924C198.243 26.0924 197.24 25.8669 196.315 25.4158C195.39 24.9646 194.646 24.3556 194.082 23.5888C193.54 22.8219 193.27 21.976 193.27 21.0513C193.27 19.5626 193.867 18.3446 195.063 17.3973C196.281 16.4499 197.916 15.8409 199.969 15.5703L205.314 14.8259V13.6418C205.314 12.4012 204.931 11.4539 204.164 10.7998C203.42 10.1231 202.269 9.78475 200.713 9.78475C199.563 9.78475 198.615 10.0103 197.871 10.4614C197.149 10.9125 196.687 11.4539 196.484 12.0854C196.394 12.3561 196.281 12.5478 196.146 12.6606C196.033 12.7508 195.875 12.7959 195.672 12.7959H195.198C194.995 12.7959 194.815 12.7283 194.657 12.5929C194.522 12.435 194.454 12.2546 194.454 12.0516C194.454 11.5554 194.679 10.9802 195.131 10.3261C195.582 9.64942 196.281 9.06298 197.228 8.56675C198.176 8.07053 199.337 7.82242 200.713 7.82242C203.127 7.82242 204.841 8.39759 205.856 9.54792C206.871 10.6983 207.378 12.0967 207.378 13.7433V25.0098C207.378 25.2353 207.311 25.4158 207.175 25.5511C207.04 25.6864 206.859 25.7541 206.634 25.7541H206.059C205.833 25.7541 205.653 25.6864 205.517 25.5511C205.382 25.4158 205.314 25.2353 205.314 25.0098V23.4196C204.818 24.1639 204.085 24.7955 203.115 25.3143C202.168 25.833 200.905 26.0924 199.326 26.0924ZM199.664 24.1301C201.311 24.1301 202.664 23.5888 203.724 22.5061C204.784 21.4234 205.314 19.8671 205.314 17.8371V16.6868L200.95 17.2958C199.1 17.5439 197.702 17.9724 196.755 18.5814C195.807 19.1904 195.334 19.9573 195.334 20.8821C195.334 21.9196 195.762 22.7204 196.619 23.2843C197.499 23.8481 198.514 24.1301 199.664 24.1301Z" fill="white"/>
<path d="M213.845 25.7541C213.619 25.7541 213.439 25.6864 213.304 25.5511C213.168 25.4158 213.101 25.2353 213.101 25.0098V2.47676C213.101 2.2512 213.168 2.07076 213.304 1.93542C213.439 1.80009 213.619 1.73242 213.845 1.73242H214.42C214.646 1.73242 214.826 1.80009 214.961 1.93542C215.097 2.07076 215.164 2.2512 215.164 2.47676V25.0098C215.164 25.2353 215.097 25.4158 214.961 25.5511C214.826 25.6864 214.646 25.7541 214.42 25.7541H213.845Z" fill="white"/>
</svg>
