<svg width="156" height="37" viewBox="0 0 156 37" fill="none" xmlns="http://www.w3.org/2000/svg">
<path d="M17.8683 20.7337C17.8683 21.9517 17.5638 23.0794 16.9548 24.117C16.3458 25.132 15.4436 25.9553 14.2482 26.5868C13.0527 27.1958 11.5979 27.5003 9.88368 27.5003C8.19201 27.5003 6.68079 27.2184 5.35001 26.6545C4.01923 26.068 2.94784 25.2335 2.13584 24.1508C1.3464 23.0682 0.895288 21.805 0.78251 20.3615H5.85751C5.97029 21.3314 6.35373 22.1434 7.00784 22.7975C7.68451 23.429 8.57545 23.7448 9.68068 23.7448C10.6731 23.7448 11.4287 23.4854 11.9475 22.9667C12.4888 22.4253 12.7595 21.7374 12.7595 20.9028C12.7595 20.1585 12.5452 19.5495 12.1167 19.0758C11.6881 18.5796 11.1468 18.1849 10.4927 17.8917C9.83857 17.5984 8.93634 17.2601 7.78601 16.8767C6.29734 16.3804 5.07934 15.8955 4.13201 15.4218C3.18468 14.9256 2.37268 14.2151 1.69601 13.2903C1.0419 12.3655 0.714844 11.1588 0.714844 9.67015C0.714844 7.6176 1.4479 6.00488 2.91401 4.83199C4.40268 3.63654 6.36501 3.03882 8.80101 3.03882C11.3272 3.03882 13.3347 3.64782 14.8233 4.86582C16.3346 6.08382 17.1917 7.70782 17.3947 9.73782H12.252C12.1167 8.88071 11.7558 8.18149 11.1693 7.64015C10.5829 7.07627 9.78218 6.79432 8.76718 6.79432C7.88751 6.79432 7.17701 7.03116 6.63568 7.50482C6.09434 7.95593 5.82368 8.62132 5.82368 9.50099C5.82368 10.2002 6.02668 10.7867 6.43268 11.2603C6.86123 11.7114 7.39129 12.0836 8.02284 12.3768C8.67695 12.67 9.55662 12.9971 10.6618 13.358C12.1956 13.8993 13.4362 14.4068 14.3835 14.8805C15.3534 15.3542 16.1767 16.0647 16.8533 17.012C17.53 17.9593 17.8683 19.1999 17.8683 20.7337Z" fill="white"/>
<path d="M29.0627 8.28299C30.6416 8.28299 31.9949 8.65516 33.1227 9.39949C34.2505 10.1438 35.0512 11.1475 35.5248 12.4107V8.51982H40.2615V27.2635H35.5248V23.3388C35.0512 24.6019 34.2505 25.6169 33.1227 26.3838C31.9949 27.1282 30.6416 27.5003 29.0627 27.5003C27.4838 27.5003 26.0628 27.1169 24.7997 26.35C23.5366 25.5831 22.5441 24.4779 21.8223 23.0343C21.1231 21.5682 20.7735 19.854 20.7735 17.8917C20.7735 15.9293 21.1231 14.2264 21.8223 12.7828C22.5441 11.3167 23.5366 10.2002 24.7997 9.43332C26.0628 8.66643 27.4838 8.28299 29.0627 8.28299ZM30.5513 12.4445C29.0627 12.4445 27.8672 12.9294 26.965 13.8993C26.0628 14.8692 25.6117 16.2 25.6117 17.8917C25.6117 19.5833 26.0628 20.9141 26.965 21.884C27.8672 22.8313 29.0627 23.305 30.5513 23.305C31.9949 23.305 33.1791 22.82 34.1038 21.8502C35.0512 20.8577 35.5248 19.5382 35.5248 17.8917C35.5248 16.2225 35.0512 14.903 34.1038 13.9332C33.1791 12.9407 31.9949 12.4445 30.5513 12.4445Z" fill="white"/>
<path d="M56.0881 8.24915C58.2534 8.24915 59.9789 8.95965 61.2646 10.3807C62.5503 11.8017 63.1931 13.7978 63.1931 16.3692V27.2635H58.4564V16.9105C58.4564 15.4218 58.073 14.2715 57.3061 13.4595C56.5392 12.6249 55.4904 12.2077 54.1596 12.2077C52.8063 12.2077 51.7236 12.6475 50.9116 13.5272C50.0996 14.4068 49.6936 15.6699 49.6936 17.3165V27.2635H44.9231V8.51982H49.6936V12.2753C50.1898 11.0122 51.0018 10.031 52.1296 9.33182C53.2799 8.61004 54.5994 8.24915 56.0881 8.24915Z" fill="white"/>
<path d="M77.7436 23.1697V27.2635H75.2399C73.1422 27.2635 71.5295 26.756 70.4017 25.741C69.2965 24.726 68.7439 23.0343 68.7439 20.666V12.546H66.1387V8.51982H68.7439V3.88465H73.5144V8.51982H77.7097V12.546H73.5144V20.7337C73.5144 21.6359 73.6948 22.2674 74.0557 22.6283C74.4166 22.9892 75.0256 23.1697 75.8827 23.1697H77.7436Z" fill="white"/>
<path d="M80.9733 3.14032C80.9733 2.37343 81.244 1.75316 81.7853 1.27949C82.3267 0.783267 83.0371 0.535156 83.9168 0.535156C84.7965 0.535156 85.507 0.783267 86.0483 1.27949C86.5897 1.75316 86.8603 2.37343 86.8603 3.14032C86.8603 3.88466 86.5897 4.50493 86.0483 5.00115C85.507 5.47482 84.7965 5.71165 83.9168 5.71165C83.0371 5.71165 82.3267 5.47482 81.7853 5.00115C81.244 4.50493 80.9733 3.88466 80.9733 3.14032ZM86.2851 8.51982V27.2635H81.5147V8.51982H86.2851Z" fill="white"/>
<path d="M98.2809 8.28299C99.8598 8.28299 101.213 8.65516 102.341 9.39949C103.469 10.1438 104.269 11.1475 104.743 12.4107V8.51982H109.48V27.2635H104.743V23.3388C104.269 24.6019 103.469 25.6169 102.341 26.3838C101.213 27.1282 99.8598 27.5003 98.2809 27.5003C96.702 27.5003 95.281 27.1169 94.0179 26.35C92.7548 25.5831 91.7624 24.4779 91.0406 23.0343C90.3414 21.5682 89.9918 19.854 89.9918 17.8917C89.9918 15.9293 90.3414 14.2264 91.0406 12.7828C91.7624 11.3167 92.7548 10.2002 94.0179 9.43332C95.281 8.66643 96.702 8.28299 98.2809 8.28299ZM99.7696 12.4445C98.2809 12.4445 97.0855 12.9294 96.1833 13.8993C95.281 14.8692 94.8299 16.2 94.8299 17.8917C94.8299 19.5833 95.281 20.9141 96.1833 21.884C97.0855 22.8313 98.2809 23.305 99.7696 23.305C101.213 23.305 102.397 22.82 103.322 21.8502C104.269 20.8577 104.743 19.5382 104.743 17.8917C104.743 16.2225 104.269 14.903 103.322 13.9332C102.397 12.9407 101.213 12.4445 99.7696 12.4445Z" fill="white"/>
<path d="M121.483 8.28299C123.062 8.28299 124.415 8.65516 125.543 9.39949C126.671 10.1438 127.472 11.1475 127.945 12.4107V8.51982H132.682V27.3312C132.682 29.0679 132.332 30.6243 131.633 32.0002C130.956 33.3986 129.93 34.4925 128.554 35.282C127.201 36.0714 125.554 36.4662 123.615 36.4662C120.908 36.4662 118.72 35.8233 117.051 34.5377C115.382 33.252 114.367 31.5039 114.006 29.2935H118.709C118.98 30.2408 119.498 30.9739 120.265 31.4926C121.055 32.034 122.058 32.3046 123.276 32.3046C124.675 32.3046 125.803 31.8874 126.66 31.0528C127.517 30.2408 127.945 29.0003 127.945 27.3312V23.3388C127.472 24.6019 126.671 25.6169 125.543 26.3838C124.415 27.1282 123.062 27.5003 121.483 27.5003C119.904 27.5003 118.483 27.1169 117.22 26.35C115.957 25.5831 114.965 24.4779 114.243 23.0343C113.544 21.5682 113.194 19.854 113.194 17.8917C113.194 15.9293 113.544 14.2264 114.243 12.7828C114.965 11.3167 115.957 10.2002 117.22 9.43332C118.483 8.66643 119.904 8.28299 121.483 8.28299ZM122.972 12.4445C121.483 12.4445 120.288 12.9294 119.386 13.8993C118.483 14.8692 118.032 16.2 118.032 17.8917C118.032 19.5833 118.483 20.9141 119.386 21.884C120.288 22.8313 121.483 23.305 122.972 23.305C124.415 23.305 125.6 22.82 126.524 21.8502C127.472 20.8577 127.945 19.5382 127.945 17.8917C127.945 16.2225 127.472 14.903 126.524 13.9332C125.6 12.9407 124.415 12.4445 122.972 12.4445Z" fill="white"/>
<path d="M146.005 8.28299C147.832 8.28299 149.467 8.66643 150.911 9.43332C152.377 10.2002 153.527 11.3167 154.362 12.7828C155.196 14.2264 155.614 15.9293 155.614 17.8917C155.614 19.854 155.196 21.5569 154.362 23.0005C153.527 24.444 152.377 25.5605 150.911 26.35C149.467 27.1169 147.832 27.5003 146.005 27.5003C144.178 27.5003 142.531 27.1169 141.065 26.35C139.622 25.5605 138.483 24.444 137.648 23.0005C136.814 21.5569 136.396 19.854 136.396 17.8917C136.396 15.9293 136.814 14.2264 137.648 12.7828C138.483 11.3167 139.622 10.2002 141.065 9.43332C142.531 8.66643 144.178 8.28299 146.005 8.28299ZM146.005 12.4107C144.674 12.4107 143.546 12.8843 142.622 13.8317C141.697 14.7564 141.234 16.1098 141.234 17.8917C141.234 19.6735 141.697 21.0382 142.622 21.9855C143.546 22.9103 144.674 23.3727 146.005 23.3727C147.336 23.3727 148.463 22.9103 149.388 21.9855C150.313 21.0382 150.775 19.6735 150.775 17.8917C150.775 16.1098 150.313 14.7564 149.388 13.8317C148.463 12.8843 147.336 12.4107 146.005 12.4107Z" fill="white"/>
</svg>
