<svg width="301" height="30" viewBox="0 0 301 30" fill="none" xmlns="http://www.w3.org/2000/svg">
<path d="M176.783 8.80612L172.278 9.6566C171.674 8.722 171.216 7.7874 170.533 7.03038C167.228 3.3792 161.097 3.89635 158.134 8.02728C155.592 11.5788 155.608 17.8562 158.197 21.3827C160.327 24.2924 163.315 25.1523 166.72 24.632C168.095 24.4125 169.423 23.9639 170.649 23.3049C172.879 22.1024 173.808 20.0618 173.717 17.4668H161.449V13.1832H178.023V29.0402H173.776C173.776 27.6477 173.776 26.2831 173.776 24.9217C173.734 24.7185 173.656 24.5244 173.546 24.3485C173.371 24.4669 173.138 24.5479 173.032 24.7099C170.596 28.4732 166.944 29.6321 162.751 29.2801C156.521 28.7598 152.732 24.0993 151.726 18.2767C151.103 14.6349 151.327 11.0585 152.807 7.62229C154.901 2.69694 159.72 -0.190971 165.483 -0.000935052C170.43 0.170408 175.057 3.64089 176.733 8.43851C176.758 8.55967 176.775 8.68253 176.783 8.80612Z" fill="white"/>
<path d="M211.768 0.623047C214.425 0.623047 216.992 0.623047 219.556 0.651085C219.714 0.691165 219.862 0.766263 219.987 0.870855C220.113 0.975447 220.214 1.10687 220.282 1.25546C222.179 5.47362 224.048 9.70737 225.924 13.938C227.288 17.0097 228.668 20.0752 229.995 23.1625C230.254 23.7606 230.562 23.9787 231.242 23.7856V0.691584H236.061V28.2748C235.865 28.2966 235.668 28.3308 235.469 28.334C233.133 28.334 230.796 28.334 228.463 28.334C228.263 28.3606 228.06 28.3163 227.889 28.2087C227.718 28.1011 227.59 27.9371 227.528 27.7452C224.325 20.5737 221.113 13.4022 217.889 6.23065C217.665 5.7322 217.652 4.88794 216.609 5.20571V28.2592H211.768V0.623047Z" fill="white"/>
<path d="M181.093 14.596C181.065 11.6395 181.66 8.82637 183.192 6.27802C185.464 2.49289 188.89 0.4835 193.236 0.0940831C198.504 -0.376333 203.003 1.12837 206.109 5.63938C208.237 8.72668 208.819 12.2439 208.601 15.92C208.399 19.2565 207.439 22.3282 205.218 24.8953C202.28 28.2879 198.445 29.5465 194.084 29.3346C189.186 29.0947 185.361 26.9794 182.931 22.5962C181.694 20.3687 181.09 17.6552 181.093 14.596ZM203.9 14.6396C203.679 13.3685 203.589 12.0632 203.215 10.8389C202.18 7.41201 199.922 5.20946 196.321 4.71724C192.719 4.22502 189.467 5.23127 187.557 8.55222C185.193 12.6863 185.196 17.0353 187.741 21.0852C190.856 26.0417 198.601 26.023 201.937 21.2067C203.305 19.2347 203.741 17.0041 203.9 14.6427V14.6396Z" fill="white"/>
<path d="M116.164 28.2735V21.317C116.164 20.9805 116.164 20.641 116.164 20.3076C116.076 18.9119 115.322 18.0646 113.917 18.0147C111.637 17.9368 109.35 17.9649 107.064 17.9524C106.054 17.9524 105.045 17.9524 103.948 17.9524V28.3016H99.1133V0.64985C99.2566 0.64985 99.3812 0.624927 99.5027 0.624927C103.967 0.624927 108.431 0.587543 112.899 0.646734C115.438 0.684118 117.793 1.39753 119.575 3.31346C121.55 5.43812 122.067 7.98646 121.294 10.7435C120.743 12.7031 119.31 13.7062 117.338 13.9773C116.625 14.0738 115.902 14.0956 115.157 14.1579V15.2327C115.721 15.2327 116.263 15.2639 116.799 15.2327C119.385 15.0583 120.603 16.8558 120.675 18.7562C120.793 21.9058 120.706 25.0647 120.706 28.2798L116.164 28.2735ZM103.948 13.3511C106.964 13.3511 109.895 13.4383 112.821 13.3261C115.456 13.2233 117.216 10.7373 116.64 8.18273C116.235 6.38207 114.699 5.26678 112.494 5.24497C109.821 5.21693 107.148 5.24497 104.475 5.24497C104.298 5.25873 104.122 5.2837 103.948 5.31974V13.3511Z" fill="white"/>
<path d="M71.6523 28.2764V0.621589H72.3969C75.7957 0.621589 79.1915 0.602897 82.5903 0.621589C86.2913 0.649627 89.578 1.74622 92.1544 4.52822C94.4068 6.95507 95.3881 9.91463 95.5968 13.1421C95.8398 16.8805 95.1544 20.4133 92.765 23.4414C91.6701 24.8682 90.2748 26.0367 88.678 26.8642C87.0812 27.6916 85.3219 28.1578 83.5249 28.2297C79.6743 28.4509 75.802 28.3232 71.939 28.3481C71.841 28.3352 71.7448 28.3111 71.6523 28.2764ZM76.5434 5.13571V23.7561C78.8083 23.7561 81.017 23.8433 83.2133 23.7343C86.0358 23.5941 88.1979 22.2451 89.5406 19.7342C90.849 17.2824 91.0453 14.6624 90.5095 11.9676C89.8552 8.6685 87.3754 5.98931 84.067 5.50643C81.6214 5.14817 79.0762 5.24475 76.5465 5.13571H76.5434Z" fill="white"/>
<path d="M151.092 28.3497C149.41 28.3497 147.833 28.3684 146.26 28.3217C146.092 28.3217 145.861 27.9759 145.783 27.7485C145.073 25.6986 144.383 23.6414 143.715 21.577C143.68 21.3787 143.569 21.202 143.405 21.0853C143.241 20.9686 143.038 20.9214 142.839 20.9539C139.412 20.9757 135.986 20.982 132.559 20.9539C131.998 20.9539 131.808 21.1626 131.649 21.6424C130.985 23.6829 130.266 25.6923 129.612 27.7453C129.596 27.8438 129.561 27.9381 129.508 28.0228C129.455 28.1075 129.387 28.181 129.305 28.2389C129.224 28.2969 129.133 28.3382 129.035 28.3604C128.938 28.3826 128.838 28.3853 128.739 28.3684C127.216 28.3404 125.693 28.3684 124.035 28.3684C124.512 26.9759 124.942 25.6923 125.39 24.4119C128.076 16.7565 130.759 9.1011 133.44 1.44569C133.646 0.860002 133.88 0.585853 134.568 0.604545C136.721 0.657505 138.873 0.635698 141.026 0.604545C141.199 0.573215 141.378 0.610695 141.524 0.709016C141.67 0.807336 141.772 0.958742 141.808 1.13104C144.832 10.0388 147.866 18.9414 150.911 27.8388C150.97 27.9697 151.008 28.0911 151.092 28.3497ZM141.936 16.6111C141.874 16.3401 141.846 16.1625 141.796 15.9881C140.705 12.3244 139.616 8.6608 138.528 4.99717C138.4 4.56414 138.35 4.19653 137.715 4.19341C137.079 4.1903 137.054 4.57348 136.939 4.95355C136.139 7.59743 135.343 10.2434 134.549 12.8914C134.182 14.1158 133.811 15.337 133.425 16.608L141.936 16.6111Z" fill="white"/>
<path d="M239.699 0.648438H259.391C259.391 2.05968 259.391 3.45224 259.391 4.83856C259.391 5.39932 258.936 5.2311 258.64 5.2311C254.748 5.2311 250.857 5.2311 246.967 5.2311H244.575V11.4618H257.855V15.7485H244.525V28.2846H239.699V0.648438Z" fill="white"/>
<path d="M276.215 0.624302C277.997 0.624302 279.642 0.602495 281.312 0.649225C281.461 0.688328 281.6 0.758118 281.721 0.854136C281.842 0.950155 281.941 1.07029 282.012 1.20687C283.882 4.66074 285.743 8.12291 287.595 11.5934C287.788 11.9517 287.907 12.2975 288.467 12.3068C289.028 12.3162 289.221 11.9953 289.43 11.5965C291.289 8.13018 293.138 4.66282 294.979 1.19441C295.053 1.01085 295.183 0.855539 295.351 0.750843C295.519 0.646147 295.716 0.597475 295.913 0.611841C297.493 0.64611 299.075 0.611841 300.795 0.611841C300.147 1.76763 299.549 2.84242 298.944 3.90787C297.106 7.16651 295.218 10.4158 293.405 13.7087C293.003 14.4346 292.58 14.8333 291.732 14.6807C291.476 14.6635 291.218 14.6729 290.963 14.7087V28.2542H286.106V14.7742C285.925 14.7243 285.794 14.6464 285.692 14.6713C284.446 14.9424 283.9 14.2259 283.352 13.2289C281.171 9.26624 278.888 5.35338 276.648 1.42183C276.523 1.20064 276.405 0.97322 276.215 0.624302Z" fill="white"/>
<path d="M262.146 0.705078H267.078C267.094 1.0353 267.119 1.32815 267.119 1.63968C267.119 8.80495 267.119 15.9702 267.119 23.1511C267.119 23.8458 267.277 24.0857 268.013 24.067C271.929 24.0296 275.845 24.0483 279.761 24.0483H280.751V28.2851H262.146V0.705078Z" fill="white"/>
<path d="M38.9045 14.642C39.1506 14.7417 39.3905 14.8538 39.6397 14.9379C43.8361 16.3367 48.0324 17.7417 52.2413 19.1187C52.7522 19.2869 52.9204 19.5144 52.9079 20.0533C52.8706 21.5767 52.9079 23.1032 52.9079 24.7512C51.911 24.4117 50.9951 24.1064 50.0855 23.7824C44.9618 21.9692 39.8391 20.1572 34.7175 18.3461C34.5197 18.306 34.3449 18.1916 34.2289 18.0264C34.113 17.8612 34.0649 17.6579 34.0944 17.4582C34.1225 15.4925 34.0944 13.5236 34.1256 11.5578C34.1391 11.4087 34.1872 11.2649 34.2662 11.1378C34.3452 11.0107 34.4528 10.9038 34.5804 10.8257C40.5494 8.64496 46.535 6.49018 52.5372 4.36137C52.6553 4.33916 52.7753 4.32873 52.8955 4.33022C52.8955 5.28974 52.8955 6.23369 52.8955 7.17764C52.8955 7.99697 53.1136 9.01257 52.7148 9.57956C52.316 10.1465 51.2942 10.2026 50.5341 10.4456C46.9078 11.6731 43.2795 12.8974 39.6491 14.1186C39.4123 14.1965 39.1787 14.2931 38.9419 14.3803L38.9045 14.642Z" fill="white"/>
<path d="M0.0546552 24.6668V19.3146L14.0176 14.679V14.4423C13.7808 14.3395 13.5534 14.2148 13.3073 14.1307C9.2262 12.7506 5.13577 11.3487 1.02664 10.0091C0.272729 9.76303 -0.0481509 9.4733 -0.00142084 8.62905C0.0858086 7.21157 0.0235018 5.78475 0.0235018 4.26758C0.297651 4.34858 0.512609 4.40154 0.721337 4.47631C6.54701 6.5532 12.3737 8.63009 18.2015 10.707C18.6812 10.8752 18.89 11.0746 18.8806 11.6416C18.837 13.5855 18.8526 15.5264 18.8806 17.4704C18.8806 17.8785 18.809 18.1152 18.3697 18.2679C12.3467 20.3884 6.32375 22.5214 0.300767 24.6668C0.219059 24.6772 0.136363 24.6772 0.0546552 24.6668Z" fill="white"/>
<path d="M29.0799 28.3197H23.9863V0.667969H29.0799V28.3197Z" fill="white"/>
</svg>
