<svg width="179" height="59" viewBox="0 0 179 59" fill="none" xmlns="http://www.w3.org/2000/svg">
<path d="M0.189453 0.453125C0.388383 0.453125 0.547528 0.493435 0.746457 0.493435C17.3372 0.493435 33.928 0.493435 50.5187 0.493435C50.7176 0.493435 50.837 0.493435 51.1155 0.493435C49.5241 4.84726 47.9326 9.16078 46.381 13.4743C39.8959 10.2089 33.4505 6.90324 26.9654 3.63787C26.9654 15.49 26.9654 27.2614 26.9654 39.1135C26.1299 39.1135 25.2944 39.1135 24.4589 39.1135C24.4589 27.342 24.4589 15.5303 24.4589 3.63787C17.934 6.94355 11.5285 10.2492 5.00356 13.5146C4.84441 13.1115 4.72505 12.7083 4.56591 12.2649C3.13362 8.47546 1.78089 4.68601 0.388383 0.896567C0.348597 0.81594 0.269028 0.695002 0.229242 0.614375C0.189456 0.533749 0.189453 0.533751 0.189453 0.453125ZM3.84976 3.07348C4.68527 5.33103 5.52077 7.58857 6.35628 9.84611C10.8123 7.58857 15.2286 5.33102 19.605 3.11379C19.605 3.07348 19.5652 3.07348 19.5652 3.03317C14.3533 3.07348 9.1413 3.07348 3.84976 3.07348ZM47.4154 3.07348C42.1637 3.07348 36.9119 3.07348 31.6602 3.07348V3.11379C36.0764 5.33102 40.4926 7.58857 44.9089 9.84611C45.7842 7.58857 46.5799 5.37134 47.4154 3.07348Z" fill="white"/>
<path d="M161.166 0.0507812C161.166 7.02497 161.166 14.0395 161.166 21.054C161.962 21.1749 162.798 21.2555 163.593 21.3362C163.554 21.6184 163.514 21.9409 163.474 22.2231C161.286 22.2231 159.137 22.2231 156.909 22.2231C156.869 21.9812 156.79 21.6587 156.75 21.3362C157.387 21.2152 157.983 21.1346 158.62 21.054C158.62 17.1839 158.62 13.2735 158.62 9.36313C156.432 9.36313 154.283 9.36313 152.055 9.36313C152.055 13.2735 152.055 17.1436 152.055 21.0137C152.931 21.0943 153.766 21.1346 154.721 21.2152C154.681 21.578 154.602 21.9006 154.562 22.2231C152.175 22.2231 149.867 22.2231 147.48 22.2231C147.44 21.9812 147.361 21.6587 147.321 21.3362C148.077 21.2152 148.793 21.1346 149.549 21.054C149.549 17.1839 149.549 13.2735 149.549 9.36313C148.674 9.36313 147.798 9.36313 146.843 9.36313C146.724 9.04063 146.843 8.79875 147.003 8.59719C147.4 7.95217 147.918 7.7103 148.634 7.83124C148.912 7.87155 149.231 7.83124 149.509 7.83124C149.549 7.30716 149.589 6.78309 149.668 6.25902C149.867 5.08993 150.384 4.08211 151.14 3.19521C151.856 2.30832 152.612 1.42143 153.329 0.453914C153.488 0.252347 153.647 0.212032 153.925 0.212032C155.636 0.212032 157.307 0.17172 158.978 0.131406C159.177 0.131406 159.336 0.0910945 159.535 0.0507812C160.132 0.0507812 160.649 0.0507812 161.166 0.0507812ZM158.66 1.9455C158.58 1.9455 158.501 1.9455 158.461 1.98582C157.387 2.50989 156.273 2.59051 155.079 2.50988C154.641 2.46957 154.164 2.50988 153.726 2.50988C153.567 2.50988 153.448 2.59051 153.329 2.71145C152.573 3.43709 152.175 4.28367 152.175 5.33181C152.135 6.17839 152.175 7.06528 152.175 7.95217C154.363 7.95217 156.511 7.95217 158.7 7.95217C158.66 5.93651 158.66 3.96116 158.66 1.9455Z" fill="white"/>
<path d="M31.9776 26.3339C31.9776 25.4471 31.9776 24.6005 31.9776 23.7539C34.5239 23.7539 37.0304 23.7539 39.537 23.7539C39.537 33.1469 39.537 42.5399 39.537 51.9328C30.2668 51.9328 21.0365 51.9328 11.7266 51.9328C11.7266 42.5399 11.7266 33.1469 11.7266 23.7539C14.2331 23.7539 16.7396 23.7539 19.2859 23.7539C19.2859 24.6005 19.2859 25.4471 19.2859 26.2936C17.5751 26.2936 15.9439 26.2936 14.2331 26.2936C14.2331 33.9935 14.2331 41.6933 14.2331 49.3528C21.7924 49.3528 29.3915 49.3528 36.9907 49.3528C36.9907 41.6933 36.9907 33.9935 36.9907 26.2936C35.3594 26.3339 33.6884 26.3339 31.9776 26.3339Z" fill="white"/>
<path d="M57.122 22.3036C57.0823 22.0214 57.0027 21.6989 56.9629 21.3361C57.4403 21.2554 57.9178 21.1748 58.3952 21.0942C58.8726 21.0136 59.35 20.9329 59.8673 20.8926C59.8673 20.7314 59.8673 20.6104 59.8673 20.4895C59.8673 14.4022 59.8673 8.35522 59.8673 2.30823C59.8673 1.94542 59.7479 1.82448 59.4296 1.78417C58.7135 1.70354 57.9973 1.5826 57.2812 1.50197C57.1618 1.50197 57.0823 1.46166 57.0027 1.42135C57.0425 1.09884 57.122 0.776336 57.1618 0.534456C57.8382 0.534456 58.4748 0.534456 59.1511 0.534456C61.9759 0.534456 64.8007 0.494141 67.7051 0.494141C69.575 0.494141 71.3654 0.856961 72.9569 1.82448C75.0257 3.07419 76.2591 4.88828 76.8559 7.14582C77.5322 9.80649 77.4925 12.4269 76.6967 15.0472C75.7419 18.3126 73.5139 20.3686 70.3708 21.457C68.5008 22.1423 66.5911 22.2633 64.6416 22.1826C62.4931 22.102 60.3845 22.1826 58.236 22.1826C57.7984 22.3036 57.4801 22.3036 57.122 22.3036ZM62.6125 1.9051C62.6125 8.15365 62.6125 14.4022 62.6125 20.6507C63.6867 20.7314 64.7609 20.7717 65.7954 20.8926C68.5406 21.2151 71.4052 19.8848 72.8375 16.9822C74.3891 13.8378 74.5483 10.5724 73.5139 7.26676C72.6386 4.52546 70.7686 2.71137 67.904 2.02604C66.1534 1.54229 64.4029 1.86479 62.6125 1.9051Z" fill="white"/>
<path d="M104.827 22.304C104.469 22.0622 104.111 21.9412 103.713 21.659C102.957 21.135 102.519 20.0062 102.758 19.1193C102.798 18.9984 102.917 18.9177 102.997 18.8774C103.872 18.2324 104.747 17.5874 105.702 16.9021C105.503 16.8214 105.384 16.7408 105.185 16.6602C101.644 15.088 102.042 11.2179 103.952 9.44413C105.185 8.27505 106.657 7.54941 108.249 7.30753C109.8 7.06565 111.272 7.58972 112.466 8.63786C112.545 8.71849 112.625 8.79911 112.705 8.87974C113.222 8.39598 113.699 7.91223 114.216 7.42847C114.336 7.30753 114.535 7.2269 114.694 7.2269C115.171 7.18659 115.649 7.2269 116.126 7.2269C116.126 7.99285 116.126 8.71849 116.126 9.48444C115.171 9.44412 114.216 9.40381 113.5 10.0085C113.58 10.6938 113.699 11.2985 113.699 11.9435C113.659 13.4351 112.943 14.6042 111.75 15.4911C110.596 16.3377 109.323 16.7811 107.97 17.1843C107.851 17.2246 107.731 17.2246 107.612 17.1843C107.095 17.023 106.776 17.3052 106.458 17.7083C106.14 18.1518 105.742 18.5549 105.344 18.9984C105.026 19.4015 105.066 19.8852 105.503 20.1674C105.742 20.2884 105.981 20.369 106.219 20.369C108.05 20.369 109.92 20.369 111.79 20.369C112.386 20.369 112.943 20.4496 113.5 20.6109C115.251 21.0543 116.126 22.6266 115.569 24.36C115.171 25.65 114.296 26.5772 113.262 27.3432C111.75 28.5123 110.079 29.2782 108.249 29.762C107.652 29.9232 107.015 29.8023 106.418 29.762C105.424 29.6814 104.429 29.4798 103.514 28.996C101.763 28.0688 101.445 26.4966 101.525 25.0857C101.525 24.9647 101.684 24.8438 101.763 24.7632C102.639 24.0375 103.514 23.2716 104.429 22.5459C104.628 22.425 104.708 22.3444 104.827 22.304ZM108.209 28.1898C109.482 28.1898 110.636 27.827 111.63 27.0207C112.347 26.416 112.904 25.7307 113.102 24.7632C113.341 23.5941 112.943 22.9894 111.829 22.7072C111.511 22.6265 111.153 22.5862 110.874 22.5862C109.283 22.5459 107.731 22.5459 106.18 22.5459C106.06 22.5459 105.901 22.5862 105.822 22.6669C105.304 23.3925 104.747 24.0375 104.27 24.7632C103.912 25.3678 103.991 26.0129 104.389 26.5369C104.628 26.8594 104.946 27.1416 105.265 27.3432C106.14 27.9882 107.174 28.1495 108.209 28.1898ZM105.105 11.8629C105.145 12.2257 105.185 12.5886 105.265 12.9514C105.623 14.8864 106.936 15.9346 108.806 15.8136C109.92 15.733 110.874 15.088 111.113 14.0801C111.511 12.4273 111.233 10.8954 110.158 9.60538C109.402 8.71849 108.368 8.47661 107.214 8.7588C106.18 9.00068 105.543 9.72632 105.304 10.7745C105.185 11.097 105.145 11.5001 105.105 11.8629Z" fill="white"/>
<path d="M93.849 51.5307C93.849 53.5464 93.849 55.5621 93.849 57.618C94.963 57.739 96.0372 57.8599 97.1512 57.9405C97.1114 58.2227 97.0716 58.5049 96.9921 58.7468C96.9523 58.8274 96.7931 58.9484 96.7136 58.9484C95.52 58.9484 94.3662 58.8677 93.2124 58.8677C91.979 58.8677 90.7854 58.908 89.5521 58.9484C89.4327 58.9484 89.3532 58.9484 89.2338 58.9484C89.194 58.6259 89.1144 58.3034 89.0349 57.9808C89.751 57.8599 90.507 57.739 91.2629 57.6583C91.2629 51.4501 91.2629 45.2419 91.2629 39.0336C90.5467 39.1143 89.7908 39.1949 89.0349 39.2755C88.9951 38.9933 88.9155 38.6708 88.8359 38.308C90.3876 37.9855 91.8597 37.2599 93.4909 37.2195C93.5307 38.0258 93.6103 38.8724 93.65 39.719C93.7694 39.6383 93.849 39.598 93.8888 39.5577C95.0028 38.7111 96.1168 37.8242 97.2308 36.9777C97.3501 36.897 97.4695 36.8164 97.5889 36.8164C99.3394 36.8164 100.931 37.3002 102.164 38.6305C103.079 39.6383 103.477 40.8477 103.716 42.1781C103.955 43.6697 103.955 45.1612 103.557 46.6528C102.96 48.9104 101.567 50.5229 99.419 51.3695C98.4642 51.7323 97.3899 52.0145 96.3555 52.1757C95.52 52.337 94.6845 52.0145 93.9683 51.6517C94.0081 51.6114 93.9285 51.571 93.849 51.5307C93.8888 51.5307 93.8888 51.5307 93.849 51.5307ZM93.849 45C93.849 46.2094 93.849 47.3785 93.849 48.5879C93.849 48.7491 93.9285 48.9507 94.0081 49.0716C94.8834 50.3213 96.7931 51.0067 98.2652 50.6438C99.6577 50.281 100.453 49.2732 100.931 47.9429C101.488 46.411 101.488 44.8387 101.289 43.2665C101.13 42.1378 100.891 41.0896 100.255 40.1624C99.3792 38.8321 98.1061 38.4289 96.6738 39.2352C95.7189 39.7593 94.8436 40.4446 93.9683 41.0493C93.849 41.1299 93.8092 41.2912 93.8092 41.4524C93.8092 42.6215 93.849 43.7906 93.849 45Z" fill="white"/>
<path d="M76.0616 35.7674C75.5842 35.7674 75.1863 35.7674 74.7487 35.7674C74.51 35.7674 74.4702 35.6867 74.3906 35.5255C74.1519 34.7999 73.9132 34.0339 73.6347 33.3083C73.5153 33.0664 73.396 32.8245 73.1971 32.6229C69.7357 29.6398 62.5742 30.0832 60.8236 36.6543C59.9085 40.1615 60.187 43.5881 62.1763 46.7326C63.8871 49.4336 66.3539 50.8445 69.6163 50.6833C70.9292 50.6026 72.083 49.9576 73.0777 49.111C73.396 48.8289 73.5551 48.3048 73.7541 47.8613C74.0723 47.2163 74.4304 46.5713 74.7487 45.9263C74.8283 45.8054 74.9874 45.6844 75.1466 45.6844C75.5444 45.6441 75.9821 45.6844 76.4595 45.6844C76.181 47.0148 75.9025 48.3854 75.624 49.6754C75.5842 49.7561 75.4649 49.877 75.3853 49.9173C73.1971 50.9655 70.969 51.812 68.5819 52.2152C67.3883 52.457 66.2743 52.1748 65.1205 51.8523C60.7042 50.6026 57.7999 47.0148 57.402 42.4191C57.2031 40.0809 57.4418 37.783 58.4762 35.6867C59.6698 33.3083 61.5795 31.6957 63.9667 30.6879C65.5581 30.0026 67.1894 29.4785 68.9399 29.4785C71.526 29.4785 73.7938 30.3654 75.9025 31.8167C76.0219 31.8973 76.1014 32.0182 76.1014 32.0989C76.1014 33.268 76.0616 34.5177 76.0616 35.7674Z" fill="white"/>
<path d="M136.779 21.296C136.739 21.6185 136.66 21.941 136.62 22.2232C134.551 22.2232 132.482 22.2232 130.373 22.2232C130.334 21.9814 130.254 21.6185 130.214 21.296C130.97 21.1751 131.726 21.0945 132.482 21.0138C132.482 17.1841 132.482 13.3543 132.482 9.52457C131.766 9.6052 131.01 9.68582 130.294 9.76645C130.254 9.44394 130.175 9.12144 130.135 8.83925C130.93 8.43612 133.954 7.67016 134.75 7.75079C134.83 8.55705 134.869 9.44395 134.949 10.3308C135.148 10.2099 135.227 10.1293 135.347 10.089C136.58 9.24238 137.893 8.35549 139.126 7.54922C139.325 7.42828 139.524 7.34766 139.723 7.34766C140.24 7.34766 140.758 7.38797 141.275 7.4686C142.906 7.71048 143.662 8.63768 143.861 10.3308C143.94 10.8952 143.941 11.4999 143.98 12.0643C143.98 14.9265 143.98 17.7888 143.98 20.7316C143.98 21.0542 144.1 21.1751 144.378 21.1751C145.055 21.2154 145.731 21.3363 146.487 21.417C146.447 21.7395 146.367 22.062 146.328 22.3442C144.219 22.3442 142.19 22.3442 140.081 22.3442C140.041 22.062 139.962 21.7395 139.922 21.417C140.479 21.296 140.996 21.2154 141.553 21.1348C141.553 20.9735 141.553 20.8929 141.553 20.7316C141.553 17.9097 141.553 15.0475 141.553 12.2256C141.553 12.1449 141.553 12.024 141.553 11.9837C141.474 9.84708 140.002 9.40363 138.569 9.80676C138.092 9.96802 137.654 10.1696 137.217 10.4518C136.54 10.8146 135.944 11.258 135.267 11.7015C135.148 11.7821 135.068 11.9434 135.068 12.0643C135.068 15.0072 135.068 17.95 135.068 20.9332C135.068 21.1751 135.148 21.2154 135.307 21.2154C135.745 21.1348 136.222 21.2557 136.779 21.296Z" fill="white"/>
<path d="M174.414 8.99971C173.936 8.87877 173.499 8.75783 173.021 8.67721C173.061 8.3547 173.101 8.03219 173.18 7.75C174.891 7.75 176.642 7.75 178.392 7.75C178.432 7.99188 178.512 8.3547 178.552 8.67721C177.995 8.75783 177.477 8.87877 176.92 8.91909C176.642 8.9594 176.483 9.08034 176.363 9.36253C174.812 13.4342 173.3 17.5461 171.708 21.5371C170.634 24.1575 169.48 26.7375 168.327 29.3176C168.287 29.3982 168.128 29.5595 168.088 29.5595C167.053 29.5595 165.979 29.5595 164.905 29.5595C164.905 28.6323 164.905 27.7454 164.905 26.7778C165.382 26.7778 165.86 26.7375 166.337 26.7778C167.014 26.8585 167.372 26.5763 167.69 26.0522C168.446 24.8025 169.202 23.5528 169.958 22.3434C169.998 22.2628 170.077 22.1418 170.157 22.0612C169.918 22.1418 169.759 22.1821 169.48 22.2225C169.162 21.4162 168.844 20.5696 168.525 19.723C167.213 16.2964 165.9 12.8698 164.587 9.40284C164.467 9.12065 164.348 8.99971 164.03 8.99971C163.473 8.91909 162.955 8.83846 162.398 8.75783C162.438 8.43532 162.518 8.11282 162.558 7.83063C164.746 7.83063 166.854 7.83063 169.083 7.83063C169.122 8.07251 169.202 8.43532 169.242 8.75783C168.525 8.87877 167.849 8.99971 167.093 9.08034C167.571 10.4107 168.008 11.741 168.486 12.9907C169.043 14.5226 169.56 16.0545 170.117 17.5461C170.356 18.2718 170.515 18.9974 170.555 19.7633C170.555 19.9246 170.594 20.0455 170.714 20.2068C171.947 16.4577 173.18 12.7892 174.414 8.99971Z" fill="white"/>
<path d="M115.885 15.2891C115.925 13.354 116.362 11.5399 117.675 10.0483C118.829 8.75832 120.301 8.11331 121.892 7.58923C124.916 6.66203 128.298 8.3955 129.452 11.5399C130.287 13.7572 130.287 16.055 129.372 18.2319C128.457 20.4895 126.627 21.6585 124.359 22.4245C120.58 23.6742 116.601 21.1345 115.925 16.821C115.964 16.2969 115.925 15.7728 115.885 15.2891ZM127.542 14.9666C127.502 14.7247 127.502 14.2006 127.423 13.7168C127.184 12.2253 126.667 10.8949 125.473 9.84678C123.762 8.31488 120.54 7.99237 119.187 11.2174C118.431 13.0315 118.272 14.9262 118.71 16.821C119.028 18.2722 119.704 19.5219 120.898 20.4491C122.609 21.7392 125.314 21.8198 126.627 19.1994C127.303 17.9094 127.502 16.5791 127.542 14.9666Z" fill="white"/>
<path d="M89.8295 50.1202C89.8693 50.4427 89.9091 50.7652 89.9488 51.128C88.7553 51.3699 87.6015 51.5714 86.4079 51.8536C86.1294 51.0877 85.8111 50.3217 85.4928 49.5155C85.3735 49.5961 85.2541 49.6767 85.1745 49.7573C84.1401 50.5233 83.0659 51.3295 82.0314 52.0552C81.8723 52.1761 81.6734 52.2567 81.4744 52.2567C80.4798 52.2164 79.5249 51.9746 78.769 51.3295C77.4163 50.2411 77.0582 48.1448 77.8539 46.492C78.1324 45.8873 78.57 45.4841 79.2066 45.2826C81.1163 44.6779 83.0261 43.9925 84.9358 43.3475C85.1745 43.2669 85.2939 43.146 85.2541 42.8638C85.2143 42.0172 85.2939 41.1303 85.1745 40.2434C85.0154 38.9534 84.3788 38.4696 83.0659 38.5906C82.3497 38.6712 81.6336 38.8728 80.8776 39.0743C80.7185 39.1146 80.5991 39.3162 80.5593 39.4371C80.3604 40.0822 80.2411 40.6869 80.0819 41.3722C79.3658 41.3722 78.6098 41.3722 77.8539 41.3722C77.8539 40.6465 77.8539 40.0015 77.8539 39.3162C77.8539 39.2356 77.9733 39.1146 78.0528 39.0743C79.7238 38.3487 81.3153 37.5424 82.9863 36.8168C83.0659 36.7765 83.1852 36.7362 83.225 36.7765C83.8616 36.8168 84.4584 36.8168 85.0552 36.9377C86.6466 37.2199 87.3627 38.0262 87.5617 39.6387C87.6412 40.3643 87.7208 41.09 87.7208 41.8559C87.7208 43.9522 87.7208 46.0485 87.7208 48.1448C87.7208 48.7898 87.8004 49.3945 88.1187 49.9186C88.1983 50.0395 88.3574 50.1605 88.5166 50.1605C88.9144 50.1202 89.3521 50.1202 89.8295 50.1202ZM85.2541 44.3554C85.0552 44.436 84.9756 44.4763 84.8562 44.5166C83.5433 45.081 82.1906 45.6857 80.8378 46.2098C80.3604 46.4113 80.1217 46.7338 79.9626 47.2176C79.7636 47.782 79.8034 48.3464 79.9626 48.8704C80.2013 49.6767 80.7583 50.1605 81.6336 50.1202C82.111 50.0798 82.6282 49.9992 83.0261 49.7976C83.7422 49.3945 84.4584 48.8704 85.1745 48.3867C85.2541 48.3464 85.3337 48.2254 85.3337 48.1448C85.2541 46.8548 85.2541 45.6051 85.2541 44.3554Z" fill="white"/>
<path d="M133.832 50.1211C133.394 50.1211 132.996 50.0808 132.598 50.1211C132.359 50.1211 132.24 50.0002 132.121 49.8389C131.842 49.2342 131.763 48.5892 131.763 47.9039C131.763 45.727 131.763 43.5501 131.763 41.3732C131.763 40.6072 131.643 39.7606 131.524 38.9947C131.365 38.269 131.007 37.624 130.291 37.2612C129.296 36.7774 128.261 36.7371 127.187 36.7774C127.108 36.7774 127.068 36.8178 126.988 36.8581C125.357 37.5837 123.726 38.3497 122.095 39.0753C122.015 39.1156 121.896 39.2366 121.856 39.3172C121.856 40.0025 121.856 40.6475 121.856 41.3732C122.572 41.3732 123.248 41.3732 123.965 41.3732C124.044 41.3732 124.164 41.2119 124.203 41.1313C124.362 40.5669 124.482 39.9622 124.641 39.3978C124.681 39.2769 124.8 39.1156 124.88 39.1156C125.715 38.914 126.59 38.6722 127.466 38.5915C128.58 38.5109 129.177 39.0753 129.256 40.2041C129.336 41.091 129.296 41.9779 129.336 42.9051C129.336 43.1469 129.216 43.2276 129.017 43.3082C127.068 43.9935 125.158 44.6385 123.209 45.2835C122.532 45.5254 122.134 45.8882 121.896 46.4929C121.18 48.0248 121.339 49.7986 122.413 50.9677C123.288 51.9352 124.482 52.2174 125.715 52.2577C125.835 52.2577 125.954 52.1771 126.073 52.0965C126.829 51.5321 127.625 50.9677 128.381 50.363C128.739 50.1211 129.097 49.7986 129.535 49.5164C129.853 50.3227 130.171 51.0886 130.45 51.8546C131.643 51.6127 132.797 51.4112 133.991 51.1693C133.911 50.7661 133.871 50.4436 133.832 50.1211ZM129.296 48.0652C129.296 48.1458 129.216 48.2667 129.137 48.307C128.46 48.7908 127.824 49.2746 127.108 49.6777C126.471 50.0405 125.835 50.2421 125.079 50.0002C124.561 49.8389 124.243 49.5164 124.004 49.0327C123.766 48.3474 123.766 47.662 123.965 46.9767C124.124 46.5736 124.323 46.2914 124.76 46.1301C126.113 45.5657 127.466 44.961 128.898 44.3967C129.017 44.3563 129.137 44.316 129.256 44.2354C129.336 45.606 129.336 46.8558 129.296 48.0652Z" fill="white"/>
<path d="M89.7927 11.9023C89.7927 11.1767 89.7927 10.5317 89.7927 9.88666C89.7927 9.80603 89.912 9.64478 90.0314 9.64478C91.6626 8.91914 93.254 8.07256 94.9251 7.42755C95.3627 7.22599 95.9595 7.38724 96.4767 7.38724C96.7154 7.38724 96.9144 7.42755 97.1531 7.50818C98.7445 7.83068 99.5005 8.75788 99.58 10.572C99.6596 12.9908 99.6596 15.4096 99.6994 17.8687C99.6994 18.3927 99.7392 18.9571 99.779 19.4812C99.779 19.6425 99.8187 19.7231 99.8585 19.8843C100.097 20.6906 100.137 20.7712 101.012 20.7712C101.251 20.7712 101.53 20.7712 101.808 20.7712C101.848 21.0937 101.888 21.4162 101.927 21.7387C100.734 21.9806 99.58 22.1822 98.3864 22.4241C98.1079 21.6581 97.7897 20.8922 97.4714 20.0859C97.3122 20.2068 97.2326 20.2875 97.1133 20.3278C96.0789 21.0534 95.0444 21.8597 94.01 22.5853C93.8906 22.6659 93.7713 22.7869 93.6519 22.7869C92.2196 22.7869 90.9067 22.3838 90.0314 21.0937C89.1561 19.8037 89.1561 18.3524 89.8325 16.9012C90.0712 16.2965 90.5088 15.974 91.1056 15.7321C93.0551 15.1274 94.9649 14.442 96.8746 13.797C97.1531 13.6761 97.2724 13.5552 97.2327 13.273C97.1929 12.4667 97.1929 11.6201 97.1531 10.8542C97.0735 9.60447 96.4369 8.99977 95.2036 9.12071C94.4078 9.20133 93.6121 9.4029 92.8164 9.60446C92.6971 9.64478 92.5777 9.84634 92.5379 9.92697C92.3788 10.4914 92.2594 11.0961 92.1003 11.6604C92.0605 11.7814 91.9013 11.9023 91.8615 11.9023C91.1852 11.9023 90.5088 11.9023 89.7927 11.9023ZM97.2327 14.8855C97.0337 14.9661 96.9144 15.0064 96.795 15.0871C95.4423 15.6515 94.0896 16.2561 92.6971 16.8205C92.3788 16.9818 92.1003 17.143 91.9809 17.5059C91.6626 18.2718 91.6626 19.1184 92.0207 19.844C92.2594 20.2875 92.6175 20.5293 93.0551 20.6503C93.8111 20.8519 94.4874 20.61 95.1638 20.2068C95.8004 19.8037 96.3972 19.3603 97.0337 18.9571C97.1133 18.8765 97.2327 18.7556 97.2327 18.6749C97.2327 17.3849 97.2327 16.1755 97.2327 14.8855Z" fill="white"/>
<path d="M139.319 50.482C140.154 50.6029 140.95 50.6836 141.785 50.7642C141.746 51.0464 141.746 51.3286 141.666 51.5301C141.626 51.6511 141.427 51.7317 141.308 51.7317C140.433 51.7317 139.597 51.6511 138.682 51.6511C137.528 51.6511 136.375 51.6914 135.221 51.7317C135.062 51.7317 134.942 51.7317 134.743 51.7317C134.704 51.4092 134.624 51.127 134.584 50.7642C135.3 50.6432 136.056 50.5626 136.812 50.482C136.812 44.1931 136.812 37.8639 136.812 31.5751C136.096 31.5751 135.38 31.5751 134.624 31.5751C134.584 31.2929 134.505 30.9704 134.465 30.6076C136.096 30.2448 137.608 29.4788 139.319 29.5191C139.319 36.5336 139.319 43.5078 139.319 50.482Z" fill="white"/>
<path d="M116.326 33.3889C116.326 34.7192 116.326 36.1302 116.326 37.5008C117.917 37.5008 119.508 37.5008 121.06 37.5008C121.06 37.9443 121.06 38.3474 121.06 38.7908C119.469 38.7908 117.917 38.7908 116.365 38.7908C116.365 38.9924 116.326 39.073 116.326 39.2343C116.326 42.0965 116.326 44.9588 116.326 47.8613C116.326 48.1032 116.365 48.3854 116.405 48.6273C116.525 49.4335 117.042 49.9173 117.837 49.9576C118.554 49.9979 119.15 49.7964 119.827 49.5142C120.026 49.4335 120.225 49.3126 120.463 49.2723C120.623 49.5545 120.742 49.877 120.941 50.1995C120.185 50.6429 119.429 51.0864 118.673 51.4895C118.514 51.6105 118.355 51.6911 118.196 51.7717C116.962 52.4973 115.848 52.1345 114.734 51.5298C114.098 51.2073 114.018 50.4817 113.978 49.7964C113.938 49.3126 113.938 48.8288 113.938 48.3451C113.938 45.3216 113.938 42.2981 113.938 39.2746C113.938 39.1134 113.938 38.9521 113.938 38.7505C112.944 38.7505 111.949 38.7505 110.994 38.7505C110.875 38.428 110.955 38.1861 111.193 37.9443C111.671 37.3396 112.267 37.0574 113.023 37.2186C113.342 37.2589 113.7 37.2186 114.098 37.2186C114.098 36.6542 114.058 36.0899 114.098 35.5658C114.098 35.3239 114.217 35.1223 114.336 34.9611C114.694 34.4773 115.132 34.0339 115.57 33.5904C115.769 33.2679 115.769 33.2679 116.326 33.3889Z" fill="white"/>
<path d="M83.0268 7.66995C83.0268 8.95997 83.0268 10.2097 83.0268 11.4997C83.544 10.895 84.0612 10.3306 84.5386 9.76623C85.1354 9.0406 85.772 8.35527 86.329 7.66995C86.4484 7.54901 86.6473 7.42807 86.8462 7.42807C87.5226 7.38776 88.1592 7.42807 88.8753 7.42807C88.8753 8.35528 88.8753 9.24216 88.8753 10.1694C88.3183 10.1694 87.7613 10.1291 87.2441 10.1694C86.886 10.2097 86.5279 10.2903 86.2097 10.4112C84.9763 11.0563 84.0214 11.9835 83.2655 13.1122C83.1859 13.1929 83.1461 13.3541 83.1461 13.3944C83.1461 15.8132 83.1461 18.232 83.1461 20.6508C83.1461 20.7314 83.1461 20.7717 83.1859 20.8927C84.2204 21.0136 85.2946 21.0942 86.329 21.1749C86.2892 21.5377 86.2097 21.9005 86.1699 22.223C83.6633 22.223 81.1568 22.223 78.6503 22.223C78.6105 21.9408 78.531 21.6183 78.4912 21.2958C79.1675 21.2152 79.7643 21.0942 80.4407 21.0539C80.6794 21.0136 80.759 20.933 80.759 20.7314C80.759 17.0629 80.759 13.4347 80.759 9.76623C80.759 9.68561 80.759 9.6453 80.7192 9.52436C80.003 9.60498 79.2471 9.68561 78.4912 9.72592C78.4514 9.40342 78.3718 9.08091 78.332 8.71809C79.9235 8.4359 81.3558 7.75058 83.0268 7.66995Z" fill="white"/>
<path d="M111.824 50.7628C111.784 51.0854 111.705 51.4079 111.665 51.69C110.949 51.69 110.193 51.69 109.477 51.69C108.124 51.69 106.771 51.7304 105.339 51.7304C104.742 51.7304 104.742 51.7304 104.623 51.166C104.583 51.045 104.583 50.9241 104.583 50.8032C105.299 50.6822 106.055 50.6016 106.811 50.521C106.811 46.7315 106.811 42.9018 106.811 39.072C106.095 39.1123 105.339 39.193 104.583 39.2333C104.543 38.9108 104.464 38.5883 104.424 38.2658C106.055 37.903 107.607 37.137 109.317 37.1773C109.317 41.6521 109.317 46.0865 109.317 50.521C110.193 50.5613 110.949 50.6419 111.824 50.7628Z" fill="white"/>
<path d="M107.735 35.1635C107.655 35.1635 107.615 35.2038 107.536 35.2038C106.859 35.2441 106.7 35.0426 106.581 34.3976C106.461 33.6719 106.501 32.9866 106.7 32.261C106.74 32.14 106.82 32.0191 106.899 32.0191C107.695 31.9788 108.57 31.7772 109.366 31.9788C109.485 32.0191 109.605 32.1804 109.605 32.2207C109.764 33.0672 109.764 33.9541 109.485 34.8007C109.445 34.9216 109.286 35.0426 109.246 35.0426C108.689 35.0829 108.212 35.1232 107.735 35.1635Z" fill="white"/>
</svg>
