<svg width="159" height="57" viewBox="0 0 159 57" fill="none" xmlns="http://www.w3.org/2000/svg">
<path d="M101.276 3.30859H99.7559V56.4972H101.276V3.30859Z" fill="white"/>
<path d="M21.4092 24.3348C21.4629 26.4031 20.7848 28.424 19.4944 30.0412C17.6024 32.3207 14.601 33.5213 10.4751 33.5213C9.16552 33.4393 7.87263 33.1838 6.63032 32.7614C5.47595 32.3613 4.27636 32.1061 3.05908 32.0016C2.9627 32.0071 2.86901 32.0354 2.78576 32.0843C2.70252 32.1332 2.63212 32.2012 2.58038 32.2827C2.38324 32.6594 2.26923 33.074 2.24606 33.4985H1.20508V22.9063H2.20047L3.11987 25.9457C3.62783 27.3464 4.44608 28.614 5.51336 29.6537C7.10901 31.3051 8.79332 32.1308 10.5663 32.1308C12.975 32.1308 14.6694 31.4697 15.6572 30.1324C16.245 29.326 16.5519 28.349 16.531 27.3514C16.5369 26.716 16.396 26.0877 16.1192 25.5157C15.8425 24.9437 15.4373 24.4434 14.9353 24.0537C13.8716 23.1571 11.5642 21.878 8.01322 20.2165C5.97539 19.3332 4.23457 17.8826 2.99829 16.0374C2.10308 14.6836 1.6152 13.1013 1.5926 11.4784C1.54909 10.2405 1.77683 9.00803 2.25985 7.86741C2.74288 6.72679 3.4695 5.7056 4.3888 4.87541C5.89499 3.45254 7.88642 2.65651 9.9584 2.64908C11.6517 2.63326 13.3351 2.90826 14.9353 3.46211C15.877 3.86175 16.8648 4.14252 17.8759 4.29793C18.1722 4.29793 18.4154 4.10797 18.6357 3.71286C18.8561 3.31774 19.0233 2.95302 19.198 2.67948H20.201V12.2306H19.3196C17.8379 8.95573 16.6678 6.91177 15.7864 6.08355C15.1178 5.43282 14.3272 4.92062 13.4601 4.57637C12.5929 4.23212 11.6663 4.06261 10.7334 4.07758C10.1611 4.04472 9.58787 4.12503 9.04659 4.3139C8.5053 4.50277 8.00656 4.79651 7.57889 5.1783C7.15123 5.5601 6.80303 6.02246 6.55421 6.53894C6.30539 7.05543 6.16084 7.6159 6.12882 8.1883C6.12882 8.24149 6.12882 8.28708 6.12882 8.34026C6.10077 9.43901 6.45531 10.5134 7.13181 11.3796C8.40924 12.7041 10.0132 13.6686 11.782 14.1758C15.0341 15.3054 17.4732 16.7567 19.0992 18.5297C20.5669 20.0848 21.3827 22.1433 21.3788 24.2817" fill="white"/>
<path d="M47.0461 32.7455H36.0361V31.7274C36.5444 31.7341 37.0428 31.5856 37.4646 31.3018C37.6442 31.2076 37.7974 31.07 37.9102 30.9014C38.023 30.7329 38.0918 30.5388 38.1104 30.3369C38.0998 30.1802 38.0501 30.0287 37.9661 29.8961L32.5104 21.9634L31.4011 23.0728V29.3263C31.3573 29.6922 31.3953 30.0633 31.5122 30.4128C31.6292 30.7623 31.8222 31.0815 32.0773 31.3474C32.4888 31.6308 32.9848 31.7649 33.483 31.7274V32.7455H22.7921V31.7274C23.2716 31.773 23.7527 31.6581 24.1598 31.4006C24.4345 31.1357 24.6429 30.81 24.7683 30.4496C24.8937 30.0892 24.9325 29.7044 24.8817 29.3263V4.00849C24.9324 3.65298 24.9049 3.29068 24.8013 2.94685C24.6976 2.60302 24.5202 2.28595 24.2814 2.01772C23.8415 1.69786 23.3048 1.53952 22.7617 1.56942V0.498047H31.4011V20.7553L37.5557 14.7906C37.7773 14.6007 37.9587 14.3685 38.0892 14.1075C38.2197 13.8465 38.2966 13.5621 38.3156 13.2709C38.3091 13.0199 38.2351 12.7752 38.1014 12.5626C37.9677 12.35 37.7792 12.1773 37.5557 12.0628C37.0044 11.7362 36.3728 11.5704 35.7321 11.5841V10.6115H45.686V11.6145C44.9249 11.6201 44.171 11.7616 43.4597 12.0324C42.6065 12.3826 41.8316 12.8992 41.1802 13.5521L36.7959 17.7388L44.9794 29.4706C45.2681 29.9569 45.5872 30.4508 45.9444 30.9903C46.0509 31.1981 46.2073 31.3763 46.3996 31.5089C46.5919 31.6415 46.814 31.7244 47.0461 31.7502V32.7683" fill="white"/>
<path d="M65.3207 12.3745C64.9743 12.3576 64.6287 12.42 64.3101 12.5568C63.7714 12.8774 63.3789 13.3953 63.2159 14.0005L55.268 35.6331C54.7543 37.2538 53.7801 38.69 52.4642 39.7666C51.4899 40.5344 50.2855 40.952 49.045 40.952C48.1581 40.9614 47.2901 40.696 46.5603 40.1921C46.2855 40.0409 46.0433 39.8369 45.8477 39.5917C45.6521 39.3466 45.5069 39.0651 45.4205 38.7636C45.3505 38.357 45.315 37.9453 45.3142 37.5327C45.2889 37.1346 45.3498 36.7357 45.4927 36.3633C45.6357 35.9909 45.8573 35.6537 46.1424 35.3748C46.6793 34.8779 47.3864 34.6059 48.118 34.6149C48.7045 34.5946 49.2798 34.7801 49.744 35.1392C50.037 35.341 50.2537 35.6353 50.3595 35.975C50.4748 36.344 50.5337 36.7282 50.5342 37.1148C50.5568 37.478 50.4971 37.8416 50.3595 38.1785C50.6668 38.3446 51.0136 38.4234 51.3625 38.4065C51.6864 38.4161 52.0069 38.3373 52.2895 38.1785C53.0499 37.5579 53.6255 36.7406 53.9535 35.8155C54.4324 34.8684 54.7166 33.8349 54.7893 32.7761C54.805 32.5667 54.7739 32.3565 54.6981 32.1606L47.9432 14.0005C47.8013 13.5311 47.5394 13.1068 47.1834 12.7696C46.7989 12.4828 46.3246 12.3427 45.846 12.3745V11.4551H56.5977V12.3745C55.9805 12.3527 55.3641 12.4349 54.7741 12.6176C54.3562 12.7772 54.1359 13.2027 54.1359 13.8714C54.1743 14.4108 54.2947 14.9411 54.493 15.4442L57.7375 24.5623L60.982 15.4442C61.1804 14.9254 61.3008 14.38 61.3391 13.8258C61.3391 13.1875 61.1264 12.7772 60.7237 12.6176C60.1293 12.4312 59.5072 12.3489 58.8848 12.3745V11.4551H65.3283V12.3745" fill="white"/>
<path d="M77.516 2.77736C76.4325 2.77568 75.3555 2.94492 74.3247 3.27885C73.2902 3.61856 72.3214 4.13252 71.4601 4.79852C70.5702 5.47757 69.8129 6.31469 69.2262 7.26799C68.5284 8.40577 68.0563 9.66728 67.8357 10.9836C67.6429 12.1451 67.7315 13.3359 68.094 14.4561C68.4667 15.5764 69.1115 16.5868 69.9708 17.3966C70.7774 18.1691 71.717 18.7895 72.7442 19.2278C73.712 19.6206 74.7401 19.8442 75.7836 19.8889C76.7661 19.9102 77.7444 19.7531 78.671 19.4254C79.7122 19.0609 80.6836 18.5213 81.5431 17.8297C81.5431 18.1793 81.5431 18.6504 81.5887 19.2354V21.2034C81.5887 21.9253 81.5355 22.6851 81.4596 23.4829C81.3848 24.251 81.2553 25.0128 81.072 25.7624C80.9072 26.4541 80.6517 27.1209 80.3122 27.7456C80.0301 28.3068 79.6608 28.8197 79.218 29.2653C78.7849 29.7069 78.2683 30.0582 77.6984 30.2987C77.0663 30.556 76.3901 30.6876 75.7076 30.6862H75.0541C74.7985 30.6583 74.5448 30.6151 74.2943 30.557C74.0781 30.5192 73.8699 30.4447 73.6788 30.3367C73.6112 30.3065 73.5549 30.2557 73.5181 30.1915C73.4812 30.1273 73.4656 30.0531 73.4737 29.9795C73.5962 29.8044 73.7721 29.6738 73.9752 29.6072C74.2928 29.4763 74.6023 29.3266 74.9022 29.1589C75.2149 28.973 75.4761 28.7118 75.662 28.3991C75.8979 27.9749 76.011 27.4934 75.9887 27.0086C76.0105 26.6633 75.9534 26.3176 75.8217 25.9977C75.6901 25.6778 75.4873 25.3921 75.2289 25.1622C74.6441 24.6833 73.9018 24.4394 73.1469 24.4783C72.5177 24.4688 71.8944 24.6012 71.3233 24.8658C70.7961 25.0944 70.3471 25.472 70.0316 25.9524C69.7326 26.4031 69.5715 26.9312 69.5681 27.4721C69.5928 28.0174 69.772 28.5444 70.0848 28.9917C70.4736 29.5666 70.9688 30.0618 71.5437 30.4506C72.243 30.9244 73.0121 31.2859 73.8232 31.522C74.778 31.8035 75.7683 31.9468 76.7638 31.9475C77.8821 31.9469 78.9894 31.7275 80.0235 31.3016C81.0474 30.8586 82.002 30.27 82.8577 29.554C84.6944 28.003 86.1349 26.0363 87.0596 23.8173C87.532 22.6616 87.871 21.4558 88.0701 20.2232C88.2791 18.9525 88.3783 17.6662 88.3665 16.3784C88.3807 14.5066 88.0854 12.6452 87.4927 10.8696C86.9049 9.21464 86.0132 7.68394 84.8636 6.35619C84.2298 5.61697 83.4867 4.97894 82.6601 4.46419C81.8667 3.93204 81.0088 3.50308 80.107 3.18767C79.2692 2.92038 78.3955 2.78203 77.516 2.77736ZM77.4552 3.9779C77.9925 3.99035 78.5169 4.14504 78.9749 4.4262C79.5135 4.77717 79.9719 5.23809 80.3198 5.77871C80.7717 6.47751 81.1006 7.24847 81.2924 8.05823C81.544 9.10812 81.6639 10.1852 81.6495 11.2647C81.6636 11.9645 81.6408 12.6645 81.5811 13.3619C81.5373 13.923 81.4354 14.4782 81.2772 15.0183C81.1175 15.5504 80.8929 16.0608 80.6085 16.538C80.4162 16.8259 80.1804 17.0822 79.9095 17.2978C79.5997 17.5564 79.2542 17.7688 78.8837 17.9285C78.5025 18.0847 78.0951 18.1672 77.6832 18.1717C77.0728 18.1777 76.4774 17.9828 75.9887 17.617C75.4768 17.2078 75.0638 16.6883 74.7806 16.0973C74.4268 15.3748 74.1712 14.6081 74.0208 13.8178C73.8528 12.8723 73.7714 11.9135 73.7776 10.9532C73.7712 10.1174 73.822 9.28219 73.9296 8.45334C74.0144 7.67336 74.1982 6.90736 74.4767 6.17383C74.71 5.54687 75.1028 4.99163 75.6164 4.56297C76.1347 4.14203 76.788 3.92335 77.4552 3.94751V3.9779Z" fill="white"/>
<path d="M82.8118 56.3239V46.446H84.134V55.2069H88.9969V56.3619H82.8498L82.8118 56.3239ZM69.8718 52.2739H73.2151L72.1817 49.5385C71.8778 48.7103 71.6346 48.0189 71.4827 47.487C71.358 48.1312 71.18 48.7641 70.9508 49.379L69.8718 52.2739ZM67.0148 56.3239L70.814 46.446H72.2197L76.2696 56.3239H74.788L73.6406 53.3377H69.5375L68.4661 56.3239H67.0148ZM57.6536 56.3239V47.6085H54.4015V46.446H62.2279V47.6085H58.9606V56.3239H57.6536ZM45.9749 56.3239V46.446H47.2819V56.3239H45.9749ZM32.2979 51.1418H34.8509C35.4884 51.1956 36.1241 51.0205 36.6441 50.6479C36.8276 50.4805 36.9712 50.2743 37.0646 50.0442C37.1579 49.8141 37.1986 49.566 37.1836 49.3182C37.1969 48.9393 37.0876 48.5663 36.8721 48.2544C36.6692 47.9689 36.374 47.7622 36.0363 47.6693C35.6367 47.6073 35.2319 47.587 34.8281 47.6085H32.2979V51.1418ZM30.991 56.3239V46.446H34.7142C35.2227 46.4309 35.7315 46.4639 36.2338 46.5448C36.6704 46.6086 37.0879 46.7668 37.4572 47.0083C37.7897 47.2524 38.0519 47.58 38.217 47.9581C38.4198 48.377 38.5213 48.8377 38.5133 49.303C38.5468 50.0886 38.2744 50.8567 37.7535 51.4457C37.214 52.0232 36.2338 52.3119 34.8585 52.3119H32.3435V56.3239H30.991ZM18.0129 52.2739H21.3562L20.3152 49.5385C20.0037 48.7103 19.7682 48.0189 19.6162 47.487C19.4915 48.1312 19.3136 48.7641 19.0843 49.379L18.0129 52.2739ZM15.1559 56.3239L18.9551 46.446H20.338L24.4108 56.3239H22.8911L21.7361 53.3377H17.6102L16.5236 56.3239H15.1559ZM7.77033 52.8666L9.07725 53.1933C8.8717 54.1562 8.35017 55.0228 7.59556 55.6552C6.83512 56.2389 5.894 56.5374 4.93613 56.4986C4.03738 56.5286 3.14805 56.3076 2.36788 55.8604C1.68334 55.3994 1.15373 54.7427 0.84821 53.976C0.496559 53.1337 0.318247 52.2292 0.323923 51.3165C0.301609 50.3828 0.50492 49.4575 0.916596 48.6191C1.2801 47.8672 1.86999 47.2481 2.60343 46.8487C3.33651 46.4465 4.16079 46.2398 4.99692 46.2484C5.889 46.218 6.76584 46.4853 7.48919 47.0083C8.18621 47.535 8.68435 48.2822 8.90248 49.1282L7.61836 49.4322C7.44115 48.8378 7.0922 48.3091 6.61537 47.9125C6.12296 47.5452 5.51964 47.3575 4.90574 47.3806C4.22917 47.3648 3.56387 47.5556 2.99855 47.9277C2.49411 48.2913 2.12092 48.8084 1.93478 49.4018C1.72266 50.01 1.61476 50.6496 1.61565 51.2938C1.60595 52.0591 1.73998 52.8194 2.01076 53.5353C2.2232 54.1201 2.62767 54.6157 3.15812 54.941C3.66293 55.2443 4.2408 55.4046 4.82976 55.4045C5.50545 55.4217 6.16527 55.1982 6.69136 54.7738C7.24549 54.27 7.61022 53.5915 7.72474 52.8514L7.77033 52.8666Z" fill="white"/>
<path d="M121.648 13.0886C120.096 16.0467 118.258 18.846 116.162 21.4468L128.433 20.4818C127.445 18.9622 126.336 17.3437 125.325 16.0064L126.739 15.2466C128.775 17.8729 130.619 20.6435 132.255 23.5364L130.811 24.4102C130.439 23.7036 129.945 22.8297 129.352 21.8647C116.23 23.0425 114.916 23.1109 114.065 23.4908C113.903 22.8939 113.697 22.3097 113.449 21.7432C113.966 21.6292 114.513 20.9833 115.242 20.0031C116.873 17.8132 118.3 15.4784 119.505 13.0278H112.059V11.4854H132.817V13.0886H121.648ZM130.393 6.44765H114.604V4.86719H130.393V6.44765Z" fill="white"/>
<path d="M156.486 22.5327C157.193 22.5327 157.315 21.9477 157.383 19.1667C157.825 19.4794 158.319 19.711 158.842 19.8505C158.705 23.057 158.28 24.0448 156.608 24.0448H153.759C152.011 24.0448 151.479 23.5509 151.479 21.5677V10.5197H145.871C145.378 16.4312 143.752 21.4994 138.03 24.3715C137.714 23.8975 137.324 23.4768 136.875 23.1254C142.293 20.58 143.82 15.9601 144.268 10.5197H137.931V9.00004H144.367C144.458 7.11564 144.458 5.15526 144.458 3.17969H146.084C146.084 5.15526 146.084 7.11564 145.97 9.00004H153.052V21.545C153.052 22.3504 153.166 22.5099 153.926 22.5099L156.486 22.5327Z" fill="white"/>
<path d="M118.919 39.205L112.347 41.3782L111.898 39.9193C113.593 39.4406 116.138 38.6428 118.684 37.8449L118.919 39.205ZM123.478 44.9114C122.681 49.668 120.507 52.2135 112.643 53.3228C112.489 52.8549 112.258 52.4158 111.959 52.0235C119.428 51.1041 121.237 48.9842 121.943 44.9114H123.478ZM117.704 36.3329C116.177 35.2785 114.523 34.4231 112.78 33.7874L113.54 32.7084C115.291 33.2846 116.962 34.084 118.509 35.0867L117.704 36.3329ZM128.455 49.1285V44.2048H116.579V49.2881H115.059V42.7459H130.043V49.1285H128.455ZM126.457 35.2539C126.342 35.703 126.192 36.1425 126.009 36.5684C127.354 38.62 129.967 40.2232 132.885 40.8615C132.508 41.2248 132.19 41.6453 131.943 42.1076C129.364 41.4174 127.082 39.9015 125.446 37.7918C124.291 39.7065 122.407 41.2794 119.155 42.2216C118.923 41.8076 118.637 41.4268 118.304 41.0894C122.544 40.0105 124.177 37.769 124.937 35.2539H121.898C121.213 36.2523 120.389 37.1478 119.451 37.9133C119.156 37.5324 118.789 37.2124 118.372 36.9711C120.092 35.655 121.408 33.8835 122.171 31.8574L123.691 32.093C123.43 32.7496 123.123 33.3869 122.772 34.0002H130.993L131.274 33.9318L132.384 34.2585C131.804 35.4798 131.16 36.6694 130.454 37.8221L129.109 37.3966C129.435 36.8496 129.869 36.0517 130.286 35.2539H126.457ZM123.676 48.4219C126.711 49.3655 129.678 50.5129 132.558 51.8563L131.662 53.1785C128.798 51.7697 125.837 50.5661 122.802 49.5768L123.676 48.4219Z" fill="white"/>
<path d="M150.461 38.4066C152.201 42.4565 155.263 46.2785 158.606 48.1173C158.163 48.5144 157.761 48.9548 157.406 49.4318C153.873 47.2435 150.772 43.0492 148.926 38.4066H148.554V47.2207H154.154V48.7935H148.554V53.2766H146.928V48.7935H141.343V47.2207H146.928V38.4066H146.502C144.64 43.0264 141.533 47.2207 138.144 49.5002C137.805 49.0513 137.426 48.6342 137.012 48.2541C140.173 46.3241 143.159 42.4565 144.929 38.3762H137.604V36.8261H146.935V31.834H148.561V36.8261H157.983V38.4066H150.461Z" fill="white"/>
</svg>
