<svg width="286" height="45" viewBox="0 0 286 45" fill="none" xmlns="http://www.w3.org/2000/svg">
<path d="M14.5893 28.3725C15.1106 29.5656 15.8214 30.6634 16.6744 31.6179C14.8262 32.6202 12.9307 33.0974 10.7982 33.0974C4.54292 33.0974 0.0410156 28.8975 0.0410156 22.168C0.0410156 15.3908 4.77987 11.1908 10.7982 11.1908C12.9307 11.1908 14.6367 11.6681 16.3427 12.5749C15.5371 13.5772 14.8736 14.7226 14.3997 15.9635C13.3572 15.534 12.3146 15.3431 11.2247 15.3431C7.5284 15.3431 4.6377 17.7771 4.6377 22.168C4.6377 26.3202 7.43362 28.9929 11.3669 28.9929C12.5516 28.9929 13.5941 28.802 14.5893 28.3725ZM27.1472 11.2385C33.3078 11.2385 37.7149 15.6771 37.7149 22.2157C37.7149 28.7066 33.2604 33.1452 27.1472 33.1452C21.0341 33.1452 16.627 28.7066 16.627 22.2157C16.627 15.6771 21.0815 11.2385 27.1472 11.2385ZM27.1472 15.2476C23.7353 15.2476 21.2237 17.9203 21.2237 22.2157C21.2237 26.4157 23.7353 29.1361 27.1472 29.1361C30.654 29.1361 33.1182 26.4634 33.1182 22.2157C33.1182 17.9203 30.7014 15.2476 27.1472 15.2476ZM40.653 32.6202V11.6681H45.2497V32.6202H40.653ZM40.0843 5.27269C40.0843 3.64997 41.4112 2.40907 42.9276 2.40907C44.444 2.40907 45.7709 3.6977 45.7709 5.27269C45.7709 6.94312 44.444 8.23176 42.9276 8.23176C41.4112 8.23176 40.0843 6.8954 40.0843 5.27269ZM49.2303 13.0044C52.0736 11.859 55.6277 11.1908 58.6132 11.1908C63.826 11.1908 67.1905 13.2431 67.1905 19.1135V32.5724H62.6412V19.5907C62.6412 16.5839 60.7931 15.4862 58.2341 15.4862C56.6229 15.4862 55.0117 15.7249 53.7796 16.1067V32.6679H49.1829V13.0044H49.2303ZM71.029 0.5H75.6257V12.2885C76.5735 11.7635 78.469 11.2385 80.3172 11.2385C86.2407 11.2385 90.6952 15.1044 90.6952 21.8339C90.6952 28.6111 86.2881 33.1452 78.7059 33.1452C75.7679 33.1452 73.1615 32.5247 71.0764 31.7611V0.5H71.029ZM75.5783 28.6588C76.4787 28.9452 77.616 29.0884 78.7533 29.0884C82.9709 29.0884 85.9564 26.702 85.9564 21.8816C85.9564 17.8248 83.1131 15.3908 79.6537 15.3908C77.853 15.3908 76.4787 15.868 75.5309 16.393V28.6588H75.5783ZM103.822 18.5885C103.822 16.2976 102.163 15.2953 99.8886 15.2953C97.5192 15.2953 95.671 16.0112 93.965 17.0135V12.909C95.7658 11.859 98.0879 11.1908 100.599 11.1908C105.101 11.1908 108.276 13.0999 108.276 18.3498V32.1906C106.333 32.7156 103.585 33.0497 101.263 33.0497C95.9554 33.0497 92.0695 31.3793 92.0695 26.6543C92.0695 22.4066 95.6236 20.3066 101.547 20.3066H103.822V18.5885ZM103.822 23.4566H101.879C98.7039 23.4566 96.6188 24.4112 96.6188 26.5111C96.6188 28.7066 98.5617 29.5179 101.358 29.5179C102.068 29.5179 103.016 29.4225 103.869 29.2793L103.822 23.4566ZM111.641 26.9407C113.536 28.4202 115.811 29.327 117.896 29.327C119.934 29.327 121.261 28.6111 121.261 26.9407C121.261 25.2225 120.076 24.6021 117.422 23.9339C113.157 22.9316 111.357 21.2135 111.357 17.5385C111.357 13.2908 114.484 11.1908 118.654 11.1908C120.977 11.1908 122.825 11.7158 124.531 12.8135V17.1089C122.73 15.7726 120.977 14.9612 118.797 14.9612C116.806 14.9612 115.764 15.9635 115.764 17.3476C115.764 18.7317 116.664 19.4476 118.986 20.068C123.678 21.118 125.668 22.8839 125.668 26.702C125.668 31.0929 122.398 33.0974 117.944 33.0974C115.527 33.0974 113.157 32.4293 111.594 31.3793V26.9407H111.641ZM131.971 23.218V23.3134C132.255 27.0361 135.383 29.0884 138.605 29.0884C141.448 29.0884 143.439 28.4202 145.476 27.0361V31.1406C143.628 32.477 140.88 33.0974 138.273 33.0974C131.876 33.0974 127.564 28.9452 127.564 22.3112C127.564 15.6294 131.828 11.1908 137.468 11.1908C143.439 11.1908 146.235 15.1044 146.235 20.8316V23.218H131.971ZM141.922 20.2112C141.827 16.9658 140.264 15.1521 137.278 15.1521C134.624 15.1521 132.681 17.0612 132.113 20.2112H141.922Z" fill="white"/>
<path d="M162.953 0.5H163.577C164.2 0.5 164.684 0.830475 164.684 1.25537V43.7446C164.684 44.1695 164.2 44.5 163.577 44.5H162.953C162.33 44.5 161.846 44.1695 161.846 43.7446V1.25537C161.846 0.830475 162.4 0.5 162.953 0.5Z" fill="white"/>
<path d="M189.373 32.7701H186.798L178.885 11.8574H181.221L188.181 30.5986L195.141 11.8574H197.382L189.373 32.7701ZM209.919 25.217H198.478V25.2642C198.478 29.0407 201.148 31.2595 204.103 31.2595C206.249 31.2595 207.726 30.693 209.252 29.5128V31.6371C207.917 32.6757 205.962 33.1005 204.103 33.1005C199.717 33.1005 196.38 30.0793 196.38 25.0754C196.38 20.4491 199.479 17.0502 203.579 17.0502C207.393 17.0502 209.919 19.3633 209.919 23.7536V25.217ZM198.621 23.4231H207.869C207.726 20.213 206.01 18.9385 203.484 18.9385C201.148 18.9385 199.241 20.5435 198.621 23.4231ZM212.255 32.7701V18.2304C214.257 17.475 216.546 17.0502 218.596 17.0502C222.409 17.0502 224.745 18.5608 224.745 22.3846V32.7229H222.648V22.8094C222.648 19.6938 220.455 18.9857 218.405 18.9857C216.832 18.9857 215.402 19.2689 214.305 19.5521V32.7229H212.255V32.7701ZM226.032 19.2217V17.4278H228.368V13.6985H230.466V17.4278H234.709V19.2217H230.466V28.5687C230.466 30.5514 231.229 31.3067 232.659 31.3067C233.612 31.3067 234.423 30.9762 235.471 30.4569V32.3452C234.566 32.8173 233.517 33.1005 232.23 33.1005C230.037 33.1005 228.416 31.9204 228.416 28.7575V19.1745H226.032V19.2217ZM249.201 17.4278V32.5813C247.342 32.9117 245.483 33.1005 243.909 33.1005C239.524 33.1005 237.045 31.5899 237.045 27.7661V17.4278H239.142V27.6717C239.142 30.5514 241.383 31.3067 243.814 31.3067C244.863 31.3067 246.055 31.2595 247.151 31.1178V17.475H249.201V17.4278ZM254.826 19.977V32.7701H252.729V18.844C254.302 17.8055 256.256 17.1918 258.354 17.1918C259.164 17.1918 260.023 17.2862 260.881 17.5223V19.5994C259.975 19.2689 258.926 19.2217 258.211 19.2217C256.733 19.1745 255.589 19.5049 254.826 19.977ZM274.372 25.217H262.931V25.2642C262.931 29.0407 265.6 31.2595 268.556 31.2595C270.701 31.2595 272.179 30.693 273.704 29.5128V31.6371C272.37 32.6757 270.415 33.1005 268.556 33.1005C264.17 33.1005 260.833 30.0793 260.833 25.0754C260.833 20.4491 263.932 17.0502 268.031 17.0502C271.845 17.0502 274.372 19.3633 274.372 23.7536V25.217ZM263.074 23.4231H272.322C272.179 20.213 270.463 18.9385 267.936 18.9385C265.552 18.9385 263.646 20.5435 263.074 23.4231ZM275.945 31.8731V29.4656C277.232 30.6458 278.567 31.3067 280.188 31.3067C282.095 31.3067 283.286 30.5514 283.286 28.8519C283.286 27.0108 281.952 26.5388 279.568 25.7363C276.898 24.8393 275.754 23.7064 275.754 21.2516C275.754 18.5608 277.757 17.0974 280.522 17.0974C281.999 17.0974 283.477 17.4278 284.669 18.2776V20.5435C283.477 19.5521 282.285 18.8912 280.522 18.8912C278.853 18.8912 277.804 19.7882 277.804 21.2516C277.804 22.6678 278.615 23.3759 280.951 24.1312C283.573 24.9337 285.336 25.9723 285.336 28.7575C285.336 31.7787 283 33.1477 280.188 33.1477C278.519 33.1005 276.898 32.6285 275.945 31.8731Z" fill="white"/>
</svg>
