<svg width="191" height="31" viewBox="0 0 191 31" fill="none" xmlns="http://www.w3.org/2000/svg">
<g clip-path="url(#clip0_5373_18177)">
<path fill-rule="evenodd" clip-rule="evenodd" d="M1.01172 7.0316V13.7428H6.37129V7.0316H1.01172ZM6.40646 7.02897H18.4108V1.9787H6.40646V7.02897ZM190.424 10.3444H183.666L177.064 17.3993V1.40039H171.899V29.3119H177.064V24.3001L179.2 22.0641L184.249 29.3119H190.579L182.773 18.3246L190.424 10.3444ZM6.4101 29.3119V18.6716H17.0904V13.7755H6.40652V18.6966H1.01172V29.3119H6.4101ZM31.9784 10.2673C31.59 10.2287 31.2016 10.1902 30.7744 10.1902C29.1432 10.1902 26.5023 10.6528 25.3372 13.1587V10.3444H20.3272V29.3119H25.4925V20.6377C25.4925 16.5512 27.7839 15.279 30.4249 15.279C30.8909 15.279 31.3958 15.3176 31.9784 15.4332V10.2673ZM40.3472 29.8516C36.2693 29.8516 33.7837 27.1144 33.7837 24.1459C33.7837 20.7533 36.3081 18.8643 39.4927 18.4017L44.1921 17.7078C45.2795 17.5536 45.629 17.0139 45.629 16.3585C45.629 15.0092 44.5804 13.8912 42.4056 13.8912C40.153 13.8912 38.9102 15.3176 38.7548 16.9753L34.172 16.0115C34.4827 13.043 37.2402 9.76614 42.3668 9.76614C48.4254 9.76614 50.6779 13.1587 50.6779 16.9753V26.3048C50.6779 27.3072 50.7944 28.6564 50.9109 29.3119H46.1727C46.0562 28.8107 45.9786 27.7698 45.9786 27.0373C45.0076 28.5408 43.1823 29.8516 40.3472 29.8516ZM38.949 23.8375C38.949 24.9555 39.7646 26.035 41.4346 26.035C43.6095 26.035 45.629 24.9941 45.629 21.6401V20.7919L41.3181 21.4473C39.9976 21.6401 38.949 22.3726 38.949 23.8375ZM58.9484 29.3119V18.2089C58.9484 16.1271 60.269 14.4695 62.5216 14.4695C64.8517 14.4695 65.9002 16.0115 65.9002 18.0548V29.3119H71.0267V18.2089C71.0267 16.1657 72.3474 14.4695 74.5609 14.4695C76.9301 14.4695 77.9395 16.0115 77.9395 18.0548V29.3119H82.9501V17.0139C82.9501 11.925 79.5708 9.80467 76.0366 9.80467C73.5125 9.80467 71.493 10.6528 69.9782 12.9659C69.0072 10.9227 66.9103 9.80467 64.3079 9.80467C62.211 9.80467 59.7636 10.807 58.7154 12.6575V10.3444H53.7831V29.3119H58.9484ZM113.81 22.5267L117.966 10.3444H123.403L127.52 22.5653L131.054 10.3444H136.181L130.199 29.3119H125.034L120.568 16.3585L116.18 29.3119H110.937L104.839 10.3444H110.276L113.81 22.5267ZM146.057 25.2254C143.533 25.2254 141.203 23.3749 141.203 19.8282C141.203 16.2428 143.533 14.4309 146.057 14.4309C148.582 14.4309 150.912 16.2428 150.912 19.8282C150.912 23.4135 148.582 25.2254 146.057 25.2254ZM146.057 9.76614C140.348 9.76614 136.037 13.9683 136.037 19.8282C136.037 25.6494 140.348 29.8901 146.057 29.8901C151.766 29.8901 156.077 25.6494 156.077 19.8282C156.077 13.9683 151.766 9.76614 146.057 9.76614ZM168.5 10.1902C168.927 10.1902 169.316 10.2287 169.704 10.2673V15.4332C169.122 15.3176 168.617 15.279 168.151 15.279C165.51 15.279 163.218 16.5512 163.218 20.6377V29.3119H158.053V10.3444H163.063V13.1587C164.228 10.6528 166.869 10.1902 168.5 10.1902Z" fill="white"/>
<path d="M90.5106 17.6687C90.6272 15.9339 92.1029 13.9292 94.7827 13.9292C97.7347 13.9292 98.9773 15.7797 99.0548 17.6687H90.5106ZM99.5602 22.6033C98.9389 24.2996 97.6182 25.4947 95.2099 25.4947C92.6467 25.4947 90.5106 23.6828 90.3941 21.1769H104.065C104.065 21.0998 104.143 20.3288 104.143 19.5963C104.143 13.5051 100.609 9.76562 94.7052 9.76562C89.8119 9.76562 85.3066 13.6979 85.3066 19.7505C85.3066 26.15 89.9284 29.8896 95.1715 29.8896C99.8708 29.8896 102.9 27.1524 103.871 23.8755L99.5602 22.6033Z" fill="white"/>
</g>
<defs>
<clipPath id="clip0_5373_18177">
<rect width="190" height="30" fill="white" transform="translate(0.728516 0.5)"/>
</clipPath>
</defs>
</svg>
