<svg width="140" height="27" viewBox="0 0 140 27" fill="none" xmlns="http://www.w3.org/2000/svg">
<path d="M4.80761 5.80295V11.9944H13.2659V15.6484H4.80761V22.0768H14.2809V25.8999H0.0371094V2.01361H14.2809V5.80295H4.80761Z" fill="white"/>
<path d="M28.1658 21.8061V25.8999H25.6622C23.5645 25.8999 21.9518 25.3924 20.824 24.3774C19.7188 23.3624 19.1662 21.6708 19.1662 19.3024V11.1824H16.561V7.15628H19.1662V2.52111H23.9367V7.15628H28.132V11.1824H23.9367V19.3701C23.9367 20.2723 24.1171 20.9039 24.478 21.2648C24.8389 21.6257 25.4479 21.8061 26.305 21.8061H28.1658Z" fill="white"/>
<path d="M43.1019 6.88561C45.2673 6.88561 46.9927 7.59611 48.2784 9.01711C49.5641 10.4381 50.2069 12.4343 50.2069 15.0056V25.8999H45.4702V15.5469C45.4702 14.0583 45.0868 12.9079 44.3199 12.0959C43.553 11.2614 42.5042 10.8441 41.1734 10.8441C39.8201 10.8441 38.7374 11.2839 37.9254 12.1636C37.1134 13.0433 36.7074 14.3064 36.7074 15.9529V25.8999H31.9369V0.863281H36.7074V10.9118C37.2036 9.64867 38.0156 8.6675 39.1434 7.96828C40.2938 7.2465 41.6133 6.88561 43.1019 6.88561Z" fill="white"/>
<path d="M72.3699 15.8176C72.3699 16.2913 72.3135 16.8326 72.2007 17.4416H58.4644C58.532 19.1107 58.9831 20.34 59.8177 21.1294C60.6523 21.9189 61.6898 22.3136 62.9304 22.3136C64.0356 22.3136 64.9491 22.0429 65.6709 21.5016C66.4152 20.9603 66.8889 20.2272 67.0919 19.3024H72.133C71.8849 20.6107 71.3549 21.7836 70.5429 22.8211C69.7309 23.8587 68.682 24.6707 67.3964 25.2571C66.1332 25.8436 64.7235 26.1368 63.1672 26.1368C61.3402 26.1368 59.7162 25.7533 58.2952 24.9864C56.8742 24.197 55.769 23.0805 54.9795 21.6369C54.1901 20.1934 53.7954 18.4904 53.7954 16.5281C53.7954 14.5658 54.1901 12.8628 54.9795 11.4193C55.769 9.95317 56.8742 8.83667 58.2952 8.06978C59.7162 7.30289 61.3402 6.91945 63.1672 6.91945C65.0167 6.91945 66.6295 7.30289 68.0054 8.06978C69.4038 8.83667 70.4752 9.89678 71.2195 11.2501C71.9864 12.5809 72.3699 14.1034 72.3699 15.8176ZM67.5655 15.3439C67.6332 13.8102 67.2272 12.6486 66.3475 11.8591C65.4904 11.0697 64.4303 10.6749 63.1672 10.6749C61.8815 10.6749 60.7989 11.0697 59.9192 11.8591C59.0395 12.6486 58.5546 13.8102 58.4644 15.3439H67.5655Z" fill="white"/>
<path d="M80.8652 10.7426C81.5644 9.54717 82.4892 8.61111 83.6395 7.93445C84.7899 7.23522 86.0755 6.88561 87.4965 6.88561V11.9944H86.1094C82.6133 11.9944 80.8652 13.6184 80.8652 16.8664V25.8999H76.0947V7.15628H80.8652V10.7426Z" fill="white"/>
<path d="M108.102 15.8176C108.102 16.2913 108.046 16.8326 107.933 17.4416H94.1968C94.2645 19.1107 94.7156 20.34 95.5502 21.1294C96.3847 21.9189 97.4223 22.3136 98.6628 22.3136C99.7681 22.3136 100.682 22.0429 101.403 21.5016C102.148 20.9603 102.621 20.2272 102.824 19.3024H107.866C107.617 20.6107 107.087 21.7836 106.275 22.8211C105.463 23.8587 104.415 24.6707 103.129 25.2571C101.866 25.8436 100.456 26.1368 98.8997 26.1368C97.0727 26.1368 95.4487 25.7533 94.0277 24.9864C92.6067 24.197 91.5015 23.0805 90.712 21.6369C89.9226 20.1934 89.5278 18.4904 89.5278 16.5281C89.5278 14.5658 89.9226 12.8628 90.712 11.4193C91.5015 9.95317 92.6067 8.83667 94.0277 8.06978C95.4487 7.30289 97.0727 6.91945 98.8997 6.91945C100.749 6.91945 102.362 7.30289 103.738 8.06978C105.136 8.83667 106.208 9.89678 106.952 11.2501C107.719 12.5809 108.102 14.1034 108.102 15.8176ZM103.298 15.3439C103.366 13.8102 102.96 12.6486 102.08 11.8591C101.223 11.0697 100.163 10.6749 98.8997 10.6749C97.614 10.6749 96.5313 11.0697 95.6517 11.8591C94.772 12.6486 94.2871 13.8102 94.1968 15.3439H103.298Z" fill="white"/>
<path d="M119.169 6.91945C120.748 6.91945 122.101 7.29161 123.229 8.03595C124.357 8.78028 125.158 9.784 125.631 11.0471V7.15628H130.368V25.8999H125.631V21.9753C125.158 23.2384 124.357 24.2534 123.229 25.0203C122.101 25.7646 120.748 26.1368 119.169 26.1368C117.59 26.1368 116.169 25.7533 114.906 24.9864C113.643 24.2196 112.65 23.1143 111.929 21.6708C111.229 20.2047 110.88 18.4904 110.88 16.5281C110.88 14.5658 111.229 12.8628 111.929 11.4193C112.65 9.95317 113.643 8.83667 114.906 8.06978C116.169 7.30289 117.59 6.91945 119.169 6.91945ZM120.658 11.0809C119.169 11.0809 117.974 11.5659 117.071 12.5358C116.169 13.5057 115.718 14.8364 115.718 16.5281C115.718 18.2198 116.169 19.5506 117.071 20.5204C117.974 21.4678 119.169 21.9414 120.658 21.9414C122.101 21.9414 123.285 21.4565 124.21 20.4866C125.158 19.4942 125.631 18.1747 125.631 16.5281C125.631 14.859 125.158 13.5395 124.21 12.5696C123.285 11.5772 122.101 11.0809 120.658 11.0809Z" fill="white"/>
<path d="M139.8 0.863281V25.8999H135.029V0.863281H139.8Z" fill="white"/>
</svg>
