<svg width="216" height="33" viewBox="0 0 216 33" fill="none" xmlns="http://www.w3.org/2000/svg">
<path d="M1.40443 25.7535C1.17887 25.7535 0.975872 25.6746 0.795427 25.5167C0.637538 25.3362 0.558594 25.1332 0.558594 24.9077V2.94986C0.558594 2.70175 0.637538 2.49875 0.795427 2.34086C0.953316 2.16041 1.15632 2.07019 1.40443 2.07019H10.7086C13.6859 2.07019 16.0091 2.74686 17.6783 4.10019C19.3699 5.45353 20.2158 7.35947 20.2158 9.81803C20.2158 11.3969 19.8436 12.739 19.0993 13.8442C18.3775 14.9494 17.3738 15.8065 16.0881 16.4155L20.6556 24.6709C20.7233 24.8062 20.7571 24.9302 20.7571 25.043C20.7571 25.2235 20.6894 25.3926 20.5541 25.5505C20.4188 25.6859 20.2496 25.7535 20.0466 25.7535H15.2761C14.622 25.7535 14.1596 25.449 13.8889 24.84L10.1673 17.4982H6.91926V24.9077C6.91926 25.1558 6.82904 25.3588 6.64859 25.5167C6.4907 25.6746 6.2877 25.7535 6.03959 25.7535H1.40443ZM10.6748 12.5247C11.6446 12.5247 12.3777 12.2879 12.8739 11.8142C13.3927 11.318 13.6521 10.6413 13.6521 9.78419C13.6521 8.92708 13.3927 8.23914 12.8739 7.72036C12.3777 7.20158 11.6446 6.94219 10.6748 6.94219H6.91926V12.5247H10.6748Z" fill="white"/>
<path d="M24.8953 5.72419C24.6472 5.72419 24.4442 5.64525 24.2863 5.48736C24.1284 5.30691 24.0495 5.09264 24.0495 4.84453V1.69803C24.0495 1.44991 24.1284 1.24691 24.2863 1.08903C24.4668 0.908582 24.6698 0.818359 24.8953 0.818359H29.1245C29.3726 0.818359 29.5756 0.908582 29.7335 1.08903C29.9139 1.24691 30.0042 1.44991 30.0042 1.69803V4.84453C30.0042 5.09264 29.9139 5.30691 29.7335 5.48736C29.5756 5.64525 29.3726 5.72419 29.1245 5.72419H24.8953ZM24.8953 25.7535C24.6698 25.7535 24.4668 25.6746 24.2863 25.5167C24.1284 25.3362 24.0495 25.1332 24.0495 24.9077V9.00603C24.0495 8.75791 24.1284 8.55491 24.2863 8.39703C24.4668 8.23914 24.6698 8.16019 24.8953 8.16019H29.1245C29.3726 8.16019 29.5756 8.23914 29.7335 8.39703C29.9139 8.55491 30.0042 8.75791 30.0042 9.00603V24.9077C30.0042 25.1558 29.9139 25.3588 29.7335 25.5167C29.5756 25.6746 29.3726 25.7535 29.1245 25.7535H24.8953Z" fill="white"/>
<path d="M45.1966 26.0919C42.9185 26.0919 41.1705 25.3475 39.9525 23.8589V24.9077C39.9525 25.1332 39.8735 25.3362 39.7156 25.5167C39.5578 25.6746 39.3548 25.7535 39.1066 25.7535H35.0805C34.8324 25.7535 34.6181 25.6746 34.4376 25.5167C34.2798 25.3588 34.2008 25.1558 34.2008 24.9077V2.57769C34.2008 2.32958 34.2798 2.12658 34.4376 1.96869C34.6181 1.8108 34.8324 1.73186 35.0805 1.73186H39.445C39.6931 1.73186 39.8961 1.8108 40.054 1.96869C40.2119 2.12658 40.2908 2.32958 40.2908 2.57769V9.78419C41.5314 8.47597 43.1666 7.82186 45.1966 7.82186C47.362 7.82186 49.0762 8.53236 50.3393 9.95336C51.6024 11.3518 52.2791 13.2803 52.3693 15.7389C52.3919 16.0321 52.4031 16.4381 52.4031 16.9569C52.4031 17.4531 52.3919 17.8478 52.3693 18.141C52.2791 20.6898 51.6024 22.6521 50.3393 24.028C49.0988 25.4039 47.3845 26.0919 45.1966 26.0919ZM43.2343 21.389C44.2493 21.389 44.9711 21.0958 45.3996 20.5094C45.8508 19.9004 46.1101 19.0658 46.1778 18.0057C46.2004 17.7801 46.2116 17.4305 46.2116 16.9569C46.2116 16.4832 46.2004 16.1336 46.1778 15.908C46.1101 14.8479 45.8508 14.0246 45.3996 13.4382C44.9711 12.8292 44.2493 12.5247 43.2343 12.5247C42.287 12.5247 41.5652 12.8179 41.069 13.4044C40.5953 13.9682 40.3359 14.69 40.2908 15.5697C40.2683 15.8629 40.257 16.2802 40.257 16.8215C40.257 17.3629 40.2683 17.7914 40.2908 18.1072C40.3359 19.0545 40.5953 19.844 41.069 20.4755C41.5426 21.0845 42.2644 21.389 43.2343 21.389Z" fill="white"/>
<path d="M66.9782 26.0919C64.7001 26.0919 62.952 25.3475 61.734 23.8589V24.9077C61.734 25.1332 61.6551 25.3362 61.4972 25.5167C61.3393 25.6746 61.1363 25.7535 60.8882 25.7535H56.862C56.6139 25.7535 56.3996 25.6746 56.2192 25.5167C56.0613 25.3588 55.9823 25.1558 55.9823 24.9077V2.57769C55.9823 2.32958 56.0613 2.12658 56.2192 1.96869C56.3996 1.8108 56.6139 1.73186 56.862 1.73186H61.2265C61.4746 1.73186 61.6776 1.8108 61.8355 1.96869C61.9934 2.12658 62.0723 2.32958 62.0723 2.57769V9.78419C63.3129 8.47597 64.9482 7.82186 66.9782 7.82186C69.1435 7.82186 70.8577 8.53236 72.1208 9.95336C73.3839 11.3518 74.0606 13.2803 74.1508 15.7389C74.1734 16.0321 74.1847 16.4381 74.1847 16.9569C74.1847 17.4531 74.1734 17.8478 74.1508 18.141C74.0606 20.6898 73.3839 22.6521 72.1208 24.028C70.8803 25.4039 69.1661 26.0919 66.9782 26.0919ZM65.0158 21.389C66.0308 21.389 66.7526 21.0958 67.1812 20.5094C67.6323 19.9004 67.8917 19.0658 67.9593 18.0057C67.9819 17.7801 67.9932 17.4305 67.9932 16.9569C67.9932 16.4832 67.9819 16.1336 67.9593 15.908C67.8917 14.8479 67.6323 14.0246 67.1812 13.4382C66.7526 12.8292 66.0308 12.5247 65.0158 12.5247C64.0685 12.5247 63.3467 12.8179 62.8505 13.4044C62.3768 13.9682 62.1175 14.69 62.0723 15.5697C62.0498 15.8629 62.0385 16.2802 62.0385 16.8215C62.0385 17.3629 62.0498 17.7914 62.0723 18.1072C62.1175 19.0545 62.3768 19.844 62.8505 20.4755C63.3242 21.0845 64.046 21.389 65.0158 21.389Z" fill="white"/>
<path d="M78.6097 5.72419C78.3616 5.72419 78.1586 5.64525 78.0007 5.48736C77.8428 5.30691 77.7639 5.09264 77.7639 4.84453V1.69803C77.7639 1.44991 77.8428 1.24691 78.0007 1.08903C78.1812 0.908582 78.3841 0.818359 78.6097 0.818359H82.8389C83.087 0.818359 83.29 0.908582 83.4479 1.08903C83.6283 1.24691 83.7185 1.44991 83.7185 1.69803V4.84453C83.7185 5.09264 83.6283 5.30691 83.4479 5.48736C83.29 5.64525 83.087 5.72419 82.8389 5.72419H78.6097ZM78.6097 25.7535C78.3841 25.7535 78.1812 25.6746 78.0007 25.5167C77.8428 25.3362 77.7639 25.1332 77.7639 24.9077V9.00603C77.7639 8.75791 77.8428 8.55491 78.0007 8.39703C78.1812 8.23914 78.3841 8.16019 78.6097 8.16019H82.8389C83.087 8.16019 83.29 8.23914 83.4479 8.39703C83.6283 8.55491 83.7185 8.75791 83.7185 9.00603V24.9077C83.7185 25.1558 83.6283 25.3588 83.4479 25.5167C83.29 25.6746 83.087 25.7535 82.8389 25.7535H78.6097Z" fill="white"/>
<path d="M97.1517 25.7535C92.3699 25.7535 89.979 23.5092 89.979 19.0207V12.7615H87.3062C87.0806 12.7615 86.8776 12.6826 86.6972 12.5247C86.5393 12.3442 86.4604 12.1412 86.4604 11.9157V9.00603C86.4604 8.75791 86.5393 8.55491 86.6972 8.39703C86.8776 8.23914 87.0806 8.16019 87.3062 8.16019H89.979V2.57769C89.979 2.32958 90.058 2.12658 90.2159 1.96869C90.3963 1.8108 90.5993 1.73186 90.8249 1.73186H94.9864C95.2345 1.73186 95.4375 1.8108 95.5954 1.96869C95.7532 2.12658 95.8322 2.32958 95.8322 2.57769V8.16019H100.061C100.309 8.16019 100.512 8.23914 100.67 8.39703C100.851 8.55491 100.941 8.75791 100.941 9.00603V11.9157C100.941 12.1638 100.851 12.3668 100.67 12.5247C100.512 12.6826 100.309 12.7615 100.061 12.7615H95.8322V18.5132C95.8322 19.3026 95.9788 19.9004 96.272 20.3064C96.5652 20.7124 97.0389 20.9154 97.693 20.9154H100.366C100.614 20.9154 100.817 21.0056 100.975 21.186C101.133 21.3439 101.212 21.5469 101.212 21.795V24.9077C101.212 25.1332 101.133 25.3362 100.975 25.5167C100.817 25.6746 100.614 25.7535 100.366 25.7535H97.1517Z" fill="white"/>
<path d="M121.834 26.0924C118.901 26.0924 116.702 25.2691 115.236 23.6226C113.77 21.9535 112.981 19.7205 112.868 16.9236C112.845 16.3146 112.834 15.3221 112.834 13.9463C112.834 12.5478 112.845 11.5328 112.868 10.9013C112.981 8.10437 113.77 5.88264 115.236 4.23609C116.702 2.56698 118.901 1.73242 121.834 1.73242C123.841 1.73242 125.51 2.10459 126.841 2.84892C128.172 3.5707 129.153 4.49548 129.784 5.62325C130.439 6.72848 130.799 7.86753 130.867 9.04042V9.10809C130.867 9.28853 130.799 9.43514 130.664 9.54792C130.529 9.6607 130.36 9.71709 130.157 9.71709H129.48C129.074 9.71709 128.826 9.48025 128.736 9.00659C128.307 7.08937 127.529 5.73603 126.401 4.94659C125.273 4.15714 123.751 3.76242 121.834 3.76242C119.713 3.76242 118.067 4.36014 116.894 5.55559C115.721 6.75103 115.09 8.58931 114.999 11.0704C114.977 11.6794 114.965 12.6155 114.965 13.8786C114.965 15.1417 114.977 16.1003 114.999 16.7544C115.09 19.2355 115.721 21.0738 116.894 22.2693C118.067 23.4647 119.713 24.0624 121.834 24.0624C123.751 24.0624 125.273 23.6677 126.401 22.8783C127.529 22.0888 128.307 20.7355 128.736 18.8183C128.826 18.3446 129.074 18.1078 129.48 18.1078H130.157C130.36 18.1078 130.529 18.1754 130.664 18.3108C130.822 18.4235 130.89 18.5814 130.867 18.7844C130.799 19.9573 130.439 21.1076 129.784 22.2354C129.153 23.3406 128.172 24.2654 126.841 25.0098C125.51 25.7315 123.841 26.0924 121.834 26.0924Z" fill="white"/>
<path d="M140.488 26.0924C139.406 26.0924 138.402 25.8669 137.477 25.4158C136.552 24.9646 135.808 24.3556 135.244 23.5888C134.703 22.8219 134.432 21.976 134.432 21.0513C134.432 19.5626 135.03 18.3446 136.225 17.3973C137.443 16.4499 139.079 15.8409 141.131 15.5703L146.477 14.8259V13.6418C146.477 12.4012 146.093 11.4539 145.326 10.7998C144.582 10.1231 143.432 9.78475 141.875 9.78475C140.725 9.78475 139.778 10.0103 139.033 10.4614C138.312 10.9125 137.849 11.4539 137.646 12.0854C137.556 12.3561 137.443 12.5478 137.308 12.6606C137.195 12.7508 137.037 12.7959 136.834 12.7959H136.361C136.158 12.7959 135.977 12.7283 135.819 12.5929C135.684 12.435 135.616 12.2546 135.616 12.0516C135.616 11.5554 135.842 10.9802 136.293 10.3261C136.744 9.64942 137.443 9.06298 138.391 8.56675C139.338 8.07053 140.5 7.82242 141.875 7.82242C144.289 7.82242 146.003 8.39759 147.018 9.54792C148.033 10.6983 148.541 12.0967 148.541 13.7433V25.0098C148.541 25.2353 148.473 25.4158 148.338 25.5511C148.202 25.6864 148.022 25.7541 147.796 25.7541H147.221C146.996 25.7541 146.815 25.6864 146.68 25.5511C146.544 25.4158 146.477 25.2353 146.477 25.0098V23.4196C145.981 24.1639 145.247 24.7955 144.278 25.3143C143.33 25.833 142.067 26.0924 140.488 26.0924ZM140.827 24.1301C142.473 24.1301 143.826 23.5888 144.887 22.5061C145.947 21.4234 146.477 19.8671 146.477 17.8371V16.6868L142.112 17.2958C140.263 17.5439 138.864 17.9724 137.917 18.5814C136.97 19.1904 136.496 19.9573 136.496 20.8821C136.496 21.9196 136.924 22.7204 137.782 23.2843C138.661 23.8481 139.676 24.1301 140.827 24.1301Z" fill="white"/>
<path d="M155.007 32.1824C154.782 32.1824 154.601 32.1148 154.466 31.9794C154.331 31.8441 154.263 31.6636 154.263 31.4381V8.90509C154.263 8.67953 154.331 8.49909 154.466 8.36376C154.601 8.22842 154.782 8.16075 155.007 8.16075H155.582C155.808 8.16075 155.988 8.22842 156.124 8.36376C156.259 8.49909 156.327 8.67953 156.327 8.90509V10.4953C157.635 8.71336 159.53 7.82242 162.011 7.82242C164.447 7.82242 166.24 8.60059 167.39 10.1569C168.563 11.6907 169.183 13.5854 169.251 15.8409C169.274 16.0665 169.285 16.4386 169.285 16.9574C169.285 17.4762 169.274 17.8484 169.251 18.0739C169.183 20.3295 168.563 22.2354 167.39 23.7918C166.24 25.3255 164.447 26.0924 162.011 26.0924C159.552 26.0924 157.658 25.2015 156.327 23.4196V31.4381C156.327 31.6636 156.259 31.8441 156.124 31.9794C155.988 32.1148 155.808 32.1824 155.582 32.1824H155.007ZM161.808 24.1301C163.635 24.1301 164.966 23.5549 165.8 22.4046C166.657 21.2317 167.12 19.7318 167.187 17.9048C167.21 17.6792 167.221 17.3634 167.221 16.9574C167.221 14.8598 166.815 13.1455 166.003 11.8148C165.191 10.4614 163.793 9.78475 161.808 9.78475C160.026 9.78475 158.684 10.3825 157.782 11.5779C156.879 12.7508 156.394 14.138 156.327 15.7394L156.293 17.0589L156.327 18.3784C156.349 19.3483 156.564 20.2731 156.97 21.1528C157.376 22.0099 157.985 22.7204 158.797 23.2843C159.609 23.8481 160.612 24.1301 161.808 24.1301Z" fill="white"/>
<path d="M174.599 4.54059C174.373 4.54059 174.193 4.47292 174.057 4.33759C173.922 4.20225 173.854 4.02181 173.854 3.79625V2.51059C173.854 2.28503 173.922 2.10459 174.057 1.96926C174.193 1.81137 174.373 1.73242 174.599 1.73242H175.884C176.11 1.73242 176.29 1.81137 176.426 1.96926C176.583 2.10459 176.662 2.28503 176.662 2.51059V3.79625C176.662 4.02181 176.583 4.20225 176.426 4.33759C176.29 4.47292 176.11 4.54059 175.884 4.54059H174.599ZM174.971 25.7541C174.745 25.7541 174.565 25.6864 174.429 25.5511C174.294 25.4158 174.226 25.2353 174.226 25.0098V8.90509C174.226 8.67953 174.294 8.49909 174.429 8.36376C174.565 8.22842 174.745 8.16075 174.971 8.16075H175.546C175.771 8.16075 175.952 8.22842 176.087 8.36376C176.223 8.49909 176.29 8.67953 176.29 8.90509V25.0098C176.29 25.2353 176.223 25.4158 176.087 25.5511C175.952 25.6864 175.771 25.7541 175.546 25.7541H174.971Z" fill="white"/>
<path d="M188.019 25.7541C186.35 25.7541 185.165 25.2579 184.466 24.2654C183.767 23.2504 183.417 21.8633 183.417 20.1039V10.1231H180.778C180.553 10.1231 180.372 10.0554 180.237 9.92009C180.102 9.78475 180.034 9.60431 180.034 9.37875V8.90509C180.034 8.67953 180.102 8.49909 180.237 8.36376C180.372 8.22842 180.553 8.16075 180.778 8.16075H183.417V2.47676C183.417 2.2512 183.485 2.07076 183.62 1.93542C183.756 1.80009 183.936 1.73242 184.162 1.73242H184.737C184.963 1.73242 185.143 1.80009 185.278 1.93542C185.414 2.07076 185.481 2.2512 185.481 2.47676V8.16075H189.677C189.902 8.16075 190.083 8.22842 190.218 8.36376C190.353 8.49909 190.421 8.67953 190.421 8.90509V9.37875C190.421 9.60431 190.353 9.78475 190.218 9.92009C190.083 10.0554 189.902 10.1231 189.677 10.1231H185.481V19.9686C185.481 21.2317 185.684 22.1903 186.09 22.8444C186.519 23.476 187.218 23.7918 188.188 23.7918H190.015C190.241 23.7918 190.421 23.8594 190.556 23.9948C190.692 24.1301 190.759 24.3105 190.759 24.5361V25.0098C190.759 25.2353 190.692 25.4158 190.556 25.5511C190.421 25.6864 190.241 25.7541 190.015 25.7541H188.019Z" fill="white"/>
<path d="M199.332 26.0924C198.249 26.0924 197.245 25.8669 196.321 25.4158C195.396 24.9646 194.652 24.3556 194.088 23.5888C193.546 22.8219 193.276 21.976 193.276 21.0513C193.276 19.5626 193.873 18.3446 195.069 17.3973C196.287 16.4499 197.922 15.8409 199.975 15.5703L205.32 14.8259V13.6418C205.32 12.4012 204.937 11.4539 204.17 10.7998C203.426 10.1231 202.275 9.78475 200.719 9.78475C199.569 9.78475 198.621 10.0103 197.877 10.4614C197.155 10.9125 196.693 11.4539 196.49 12.0854C196.4 12.3561 196.287 12.5478 196.151 12.6606C196.039 12.7508 195.881 12.7959 195.678 12.7959H195.204C195.001 12.7959 194.821 12.7283 194.663 12.5929C194.527 12.435 194.46 12.2546 194.46 12.0516C194.46 11.5554 194.685 10.9802 195.136 10.3261C195.588 9.64942 196.287 9.06298 197.234 8.56675C198.181 8.07053 199.343 7.82242 200.719 7.82242C203.132 7.82242 204.847 8.39759 205.862 9.54792C206.877 10.6983 207.384 12.0967 207.384 13.7433V25.0098C207.384 25.2353 207.316 25.4158 207.181 25.5511C207.046 25.6864 206.865 25.7541 206.64 25.7541H206.065C205.839 25.7541 205.659 25.6864 205.523 25.5511C205.388 25.4158 205.32 25.2353 205.32 25.0098V23.4196C204.824 24.1639 204.091 24.7955 203.121 25.3143C202.174 25.833 200.911 26.0924 199.332 26.0924ZM199.67 24.1301C201.317 24.1301 202.67 23.5888 203.73 22.5061C204.79 21.4234 205.32 19.8671 205.32 17.8371V16.6868L200.956 17.2958C199.106 17.5439 197.708 17.9724 196.76 18.5814C195.813 19.1904 195.339 19.9573 195.339 20.8821C195.339 21.9196 195.768 22.7204 196.625 23.2843C197.505 23.8481 198.52 24.1301 199.67 24.1301Z" fill="white"/>
<path d="M213.851 25.7541C213.625 25.7541 213.445 25.6864 213.309 25.5511C213.174 25.4158 213.106 25.2353 213.106 25.0098V2.47676C213.106 2.2512 213.174 2.07076 213.309 1.93542C213.445 1.80009 213.625 1.73242 213.851 1.73242H214.426C214.652 1.73242 214.832 1.80009 214.967 1.93542C215.103 2.07076 215.17 2.2512 215.17 2.47676V25.0098C215.17 25.2353 215.103 25.4158 214.967 25.5511C214.832 25.6864 214.652 25.7541 214.426 25.7541H213.851Z" fill="white"/>
</svg>
